%TF.GenerationSoftware,KiCad,Pcbnew,(6.0.11)*%
%TF.CreationDate,2023-04-23T23:03:38-04:00*%
%TF.ProjectId,GC Nano HPJ Board,4743204e-616e-46f2-9048-504a20426f61,rev?*%
%TF.SameCoordinates,Original*%
%TF.FileFunction,Legend,Bot*%
%TF.FilePolarity,Positive*%
%FSLAX46Y46*%
G04 Gerber Fmt 4.6, Leading zero omitted, Abs format (unit mm)*
G04 Created by KiCad (PCBNEW (6.0.11)) date 2023-04-23 23:03:38*
%MOMM*%
%LPD*%
G01*
G04 APERTURE LIST*
%ADD10C,0.150000*%
G04 APERTURE END LIST*
D10*
X184202380Y-76714285D02*
X184250000Y-76666666D01*
X184297619Y-76571428D01*
X184297619Y-76333333D01*
X184250000Y-76238095D01*
X184202380Y-76190476D01*
X184107142Y-76142857D01*
X184011904Y-76142857D01*
X183869047Y-76190476D01*
X183297619Y-76761904D01*
X183297619Y-76142857D01*
X184297619Y-75523809D02*
X184297619Y-75428571D01*
X184250000Y-75333333D01*
X184202380Y-75285714D01*
X184107142Y-75238095D01*
X183916666Y-75190476D01*
X183678571Y-75190476D01*
X183488095Y-75238095D01*
X183392857Y-75285714D01*
X183345238Y-75333333D01*
X183297619Y-75428571D01*
X183297619Y-75523809D01*
X183345238Y-75619047D01*
X183392857Y-75666666D01*
X183488095Y-75714285D01*
X183678571Y-75761904D01*
X183916666Y-75761904D01*
X184107142Y-75714285D01*
X184202380Y-75666666D01*
X184250000Y-75619047D01*
X184297619Y-75523809D01*
X184202380Y-74809523D02*
X184250000Y-74761904D01*
X184297619Y-74666666D01*
X184297619Y-74428571D01*
X184250000Y-74333333D01*
X184202380Y-74285714D01*
X184107142Y-74238095D01*
X184011904Y-74238095D01*
X183869047Y-74285714D01*
X183297619Y-74857142D01*
X183297619Y-74238095D01*
X184297619Y-73904761D02*
X184297619Y-73285714D01*
X183916666Y-73619047D01*
X183916666Y-73476190D01*
X183869047Y-73380952D01*
X183821428Y-73333333D01*
X183726190Y-73285714D01*
X183488095Y-73285714D01*
X183392857Y-73333333D01*
X183345238Y-73380952D01*
X183297619Y-73476190D01*
X183297619Y-73761904D01*
X183345238Y-73857142D01*
X183392857Y-73904761D01*
X184642857Y-78380952D02*
X184595238Y-78428571D01*
X184547619Y-78571428D01*
X184547619Y-78666666D01*
X184595238Y-78809523D01*
X184690476Y-78904761D01*
X184785714Y-78952380D01*
X184976190Y-79000000D01*
X185119047Y-79000000D01*
X185309523Y-78952380D01*
X185404761Y-78904761D01*
X185500000Y-78809523D01*
X185547619Y-78666666D01*
X185547619Y-78571428D01*
X185500000Y-78428571D01*
X185452380Y-78380952D01*
X185500000Y-77428571D02*
X185547619Y-77523809D01*
X185547619Y-77666666D01*
X185500000Y-77809523D01*
X185404761Y-77904761D01*
X185309523Y-77952380D01*
X185119047Y-78000000D01*
X184976190Y-78000000D01*
X184785714Y-77952380D01*
X184690476Y-77904761D01*
X184595238Y-77809523D01*
X184547619Y-77666666D01*
X184547619Y-77571428D01*
X184595238Y-77428571D01*
X184642857Y-77380952D01*
X184976190Y-77380952D01*
X184976190Y-77571428D01*
X184547619Y-75380952D02*
X184547619Y-75428571D01*
X184595238Y-75523809D01*
X184738095Y-75666666D01*
X185023809Y-75904761D01*
X185166666Y-76000000D01*
X185309523Y-76047619D01*
X185404761Y-76047619D01*
X185500000Y-76000000D01*
X185547619Y-75904761D01*
X185547619Y-75857142D01*
X185500000Y-75761904D01*
X185404761Y-75714285D01*
X185357142Y-75714285D01*
X185261904Y-75761904D01*
X185214285Y-75809523D01*
X185023809Y-76095238D01*
X184976190Y-76142857D01*
X184880952Y-76190476D01*
X184738095Y-76190476D01*
X184642857Y-76142857D01*
X184595238Y-76095238D01*
X184547619Y-76000000D01*
X184547619Y-75857142D01*
X184595238Y-75761904D01*
X184642857Y-75714285D01*
X184833333Y-75571428D01*
X184976190Y-75523809D01*
X185071428Y-75523809D01*
X185547619Y-74285714D02*
X184547619Y-74047619D01*
X185261904Y-73857142D01*
X184547619Y-73666666D01*
X185547619Y-73428571D01*
X184595238Y-72666666D02*
X184547619Y-72761904D01*
X184547619Y-72952380D01*
X184595238Y-73047619D01*
X184690476Y-73095238D01*
X185071428Y-73095238D01*
X185166666Y-73047619D01*
X185214285Y-72952380D01*
X185214285Y-72761904D01*
X185166666Y-72666666D01*
X185071428Y-72619047D01*
X184976190Y-72619047D01*
X184880952Y-73095238D01*
X184595238Y-72238095D02*
X184547619Y-72142857D01*
X184547619Y-71952380D01*
X184595238Y-71857142D01*
X184690476Y-71809523D01*
X184738095Y-71809523D01*
X184833333Y-71857142D01*
X184880952Y-71952380D01*
X184880952Y-72095238D01*
X184928571Y-72190476D01*
X185023809Y-72238095D01*
X185071428Y-72238095D01*
X185166666Y-72190476D01*
X185214285Y-72095238D01*
X185214285Y-71952380D01*
X185166666Y-71857142D01*
X184547619Y-71380952D02*
X185547619Y-71380952D01*
X184928571Y-71285714D02*
X184547619Y-71000000D01*
X185214285Y-71000000D02*
X184833333Y-71380952D01*
X186750000Y-77500000D02*
X186797619Y-77595238D01*
X186797619Y-77738095D01*
X186750000Y-77880952D01*
X186654761Y-77976190D01*
X186559523Y-78023809D01*
X186369047Y-78071428D01*
X186226190Y-78071428D01*
X186035714Y-78023809D01*
X185940476Y-77976190D01*
X185845238Y-77880952D01*
X185797619Y-77738095D01*
X185797619Y-77642857D01*
X185845238Y-77500000D01*
X185892857Y-77452380D01*
X186226190Y-77452380D01*
X186226190Y-77642857D01*
X185892857Y-76452380D02*
X185845238Y-76500000D01*
X185797619Y-76642857D01*
X185797619Y-76738095D01*
X185845238Y-76880952D01*
X185940476Y-76976190D01*
X186035714Y-77023809D01*
X186226190Y-77071428D01*
X186369047Y-77071428D01*
X186559523Y-77023809D01*
X186654761Y-76976190D01*
X186750000Y-76880952D01*
X186797619Y-76738095D01*
X186797619Y-76642857D01*
X186750000Y-76500000D01*
X186702380Y-76452380D01*
X185797619Y-75261904D02*
X186797619Y-75261904D01*
X185797619Y-74690476D01*
X186797619Y-74690476D01*
X185797619Y-73785714D02*
X186321428Y-73785714D01*
X186416666Y-73833333D01*
X186464285Y-73928571D01*
X186464285Y-74119047D01*
X186416666Y-74214285D01*
X185845238Y-73785714D02*
X185797619Y-73880952D01*
X185797619Y-74119047D01*
X185845238Y-74214285D01*
X185940476Y-74261904D01*
X186035714Y-74261904D01*
X186130952Y-74214285D01*
X186178571Y-74119047D01*
X186178571Y-73880952D01*
X186226190Y-73785714D01*
X186464285Y-73309523D02*
X185797619Y-73309523D01*
X186369047Y-73309523D02*
X186416666Y-73261904D01*
X186464285Y-73166666D01*
X186464285Y-73023809D01*
X186416666Y-72928571D01*
X186321428Y-72880952D01*
X185797619Y-72880952D01*
X185797619Y-72261904D02*
X185845238Y-72357142D01*
X185892857Y-72404761D01*
X185988095Y-72452380D01*
X186273809Y-72452380D01*
X186369047Y-72404761D01*
X186416666Y-72357142D01*
X186464285Y-72261904D01*
X186464285Y-72119047D01*
X186416666Y-72023809D01*
X186369047Y-71976190D01*
X186273809Y-71928571D01*
X185988095Y-71928571D01*
X185892857Y-71976190D01*
X185845238Y-72023809D01*
X185797619Y-72119047D01*
X185797619Y-72261904D01*
M02*
