%TF.GenerationSoftware,KiCad,Pcbnew,(6.0.11)*%
%TF.CreationDate,2023-04-23T23:03:38-04:00*%
%TF.ProjectId,GC Nano HPJ Board,4743204e-616e-46f2-9048-504a20426f61,rev?*%
%TF.SameCoordinates,Original*%
%TF.FileFunction,Copper,L2,Bot*%
%TF.FilePolarity,Positive*%
%FSLAX46Y46*%
G04 Gerber Fmt 4.6, Leading zero omitted, Abs format (unit mm)*
G04 Created by KiCad (PCBNEW (6.0.11)) date 2023-04-23 23:03:38*
%MOMM*%
%LPD*%
G01*
G04 APERTURE LIST*
%TA.AperFunction,ComponentPad*%
%ADD10O,4.000000X1.700000*%
%TD*%
%TA.AperFunction,ComponentPad*%
%ADD11O,1.700000X3.400000*%
%TD*%
%TA.AperFunction,ComponentPad*%
%ADD12O,3.400000X1.700000*%
%TD*%
%TA.AperFunction,ViaPad*%
%ADD13C,0.800000*%
%TD*%
G04 APERTURE END LIST*
D10*
%TO.P,J4,1,Sleeve*%
%TO.N,GND*%
X145750000Y-77500000D03*
D11*
%TO.P,J4,2,Tip*%
%TO.N,+5V*%
X143250000Y-75000000D03*
D12*
%TO.P,J4,3,Ring_1*%
%TO.N,+3V3*%
X145750000Y-72500000D03*
D11*
%TO.P,J4,4,Ring_2*%
%TO.N,Net-(J4-Pad4)*%
X148250000Y-75000000D03*
%TD*%
D10*
%TO.P,J3,1,Sleeve*%
%TO.N,GND*%
X157000000Y-77500000D03*
D11*
%TO.P,J3,2,Tip*%
%TO.N,+5V*%
X154500000Y-75000000D03*
D12*
%TO.P,J3,3,Ring_1*%
%TO.N,+3V3*%
X157000000Y-72500000D03*
D11*
%TO.P,J3,4,Ring_2*%
%TO.N,Net-(J3-Pad4)*%
X159500000Y-75000000D03*
%TD*%
D10*
%TO.P,J2,1,Sleeve*%
%TO.N,GND*%
X168250000Y-77500000D03*
D11*
%TO.P,J2,2,Tip*%
%TO.N,+5V*%
X165750000Y-75000000D03*
D12*
%TO.P,J2,3,Ring_1*%
%TO.N,+3V3*%
X168250000Y-72500000D03*
D11*
%TO.P,J2,4,Ring_2*%
%TO.N,Net-(J2-Pad4)*%
X170750000Y-75000000D03*
%TD*%
D10*
%TO.P,J1,1,Sleeve*%
%TO.N,GND*%
X179500000Y-77500000D03*
D11*
%TO.P,J1,2,Tip*%
%TO.N,+5V*%
X177000000Y-75000000D03*
D12*
%TO.P,J1,3,Ring_1*%
%TO.N,+3V3*%
X179500000Y-72500000D03*
D11*
%TO.P,J1,4,Ring_2*%
%TO.N,Net-(J1-Pad4)*%
X182000000Y-75000000D03*
%TD*%
D13*
%TO.N,GND*%
X141250000Y-76750000D03*
X142000000Y-77500000D03*
X141250000Y-77500000D03*
X141250000Y-78250000D03*
X142000000Y-78250000D03*
X142000000Y-79000000D03*
X141250000Y-79000000D03*
%TD*%
%TA.AperFunction,Conductor*%
%TO.N,GND*%
G36*
X186470018Y-70510000D02*
G01*
X186484851Y-70512310D01*
X186484855Y-70512310D01*
X186493724Y-70513691D01*
X186502628Y-70512527D01*
X186511599Y-70512636D01*
X186511589Y-70513451D01*
X186533097Y-70513743D01*
X186554915Y-70517198D01*
X186592407Y-70529379D01*
X186624173Y-70545564D01*
X186656062Y-70568734D01*
X186681266Y-70593938D01*
X186704436Y-70625827D01*
X186720621Y-70657593D01*
X186732802Y-70695085D01*
X186736119Y-70716032D01*
X186737550Y-70735753D01*
X186736309Y-70743724D01*
X186739398Y-70767344D01*
X186740436Y-70775283D01*
X186741500Y-70791621D01*
X186741500Y-79200633D01*
X186740000Y-79220018D01*
X186737690Y-79234851D01*
X186737690Y-79234855D01*
X186736309Y-79243724D01*
X186737473Y-79252628D01*
X186737364Y-79261599D01*
X186736549Y-79261589D01*
X186736257Y-79283097D01*
X186732802Y-79304915D01*
X186720621Y-79342407D01*
X186704436Y-79374173D01*
X186681266Y-79406062D01*
X186656062Y-79431266D01*
X186624173Y-79454436D01*
X186592407Y-79470621D01*
X186554915Y-79482802D01*
X186533968Y-79486119D01*
X186514247Y-79487550D01*
X186506276Y-79486309D01*
X186474714Y-79490436D01*
X186458379Y-79491500D01*
X138799367Y-79491500D01*
X138779982Y-79490000D01*
X138765149Y-79487690D01*
X138765145Y-79487690D01*
X138756276Y-79486309D01*
X138747372Y-79487473D01*
X138738401Y-79487364D01*
X138738411Y-79486549D01*
X138716903Y-79486257D01*
X138695085Y-79482802D01*
X138657593Y-79470621D01*
X138625827Y-79454436D01*
X138593938Y-79431266D01*
X138568734Y-79406062D01*
X138545564Y-79374173D01*
X138529379Y-79342407D01*
X138517198Y-79304914D01*
X138514661Y-79288892D01*
X138513769Y-79262554D01*
X138513576Y-79262552D01*
X138513627Y-79258354D01*
X138513729Y-79250000D01*
X138509773Y-79222376D01*
X138508500Y-79204514D01*
X138508500Y-77768580D01*
X143268752Y-77768580D01*
X143293477Y-77886421D01*
X143296537Y-77896617D01*
X143377263Y-78101029D01*
X143381994Y-78110561D01*
X143496016Y-78298462D01*
X143502280Y-78307052D01*
X143646327Y-78473052D01*
X143653958Y-78480472D01*
X143823911Y-78619826D01*
X143832678Y-78625850D01*
X144023682Y-78734576D01*
X144033346Y-78739041D01*
X144239941Y-78814031D01*
X144250208Y-78816802D01*
X144467655Y-78856123D01*
X144475884Y-78857056D01*
X144494402Y-78857930D01*
X144497377Y-78858000D01*
X145477885Y-78858000D01*
X145493124Y-78853525D01*
X145494329Y-78852135D01*
X145496000Y-78844452D01*
X145496000Y-78839885D01*
X146004000Y-78839885D01*
X146008475Y-78855124D01*
X146009865Y-78856329D01*
X146017548Y-78858000D01*
X146955206Y-78858000D01*
X146960515Y-78857775D01*
X147124325Y-78843876D01*
X147134797Y-78842086D01*
X147347535Y-78786870D01*
X147357575Y-78783335D01*
X147557970Y-78693063D01*
X147567256Y-78687894D01*
X147749575Y-78565150D01*
X147757870Y-78558481D01*
X147916900Y-78406772D01*
X147923941Y-78398814D01*
X148055141Y-78222475D01*
X148060745Y-78213438D01*
X148160357Y-78017516D01*
X148164357Y-78007665D01*
X148229534Y-77797760D01*
X148231817Y-77787376D01*
X148233861Y-77771957D01*
X148233337Y-77768580D01*
X154518752Y-77768580D01*
X154543477Y-77886421D01*
X154546537Y-77896617D01*
X154627263Y-78101029D01*
X154631994Y-78110561D01*
X154746016Y-78298462D01*
X154752280Y-78307052D01*
X154896327Y-78473052D01*
X154903958Y-78480472D01*
X155073911Y-78619826D01*
X155082678Y-78625850D01*
X155273682Y-78734576D01*
X155283346Y-78739041D01*
X155489941Y-78814031D01*
X155500208Y-78816802D01*
X155717655Y-78856123D01*
X155725884Y-78857056D01*
X155744402Y-78857930D01*
X155747377Y-78858000D01*
X156727885Y-78858000D01*
X156743124Y-78853525D01*
X156744329Y-78852135D01*
X156746000Y-78844452D01*
X156746000Y-78839885D01*
X157254000Y-78839885D01*
X157258475Y-78855124D01*
X157259865Y-78856329D01*
X157267548Y-78858000D01*
X158205206Y-78858000D01*
X158210515Y-78857775D01*
X158374325Y-78843876D01*
X158384797Y-78842086D01*
X158597535Y-78786870D01*
X158607575Y-78783335D01*
X158807970Y-78693063D01*
X158817256Y-78687894D01*
X158999575Y-78565150D01*
X159007870Y-78558481D01*
X159166900Y-78406772D01*
X159173941Y-78398814D01*
X159305141Y-78222475D01*
X159310745Y-78213438D01*
X159410357Y-78017516D01*
X159414357Y-78007665D01*
X159479534Y-77797760D01*
X159481817Y-77787376D01*
X159483861Y-77771957D01*
X159483337Y-77768580D01*
X165768752Y-77768580D01*
X165793477Y-77886421D01*
X165796537Y-77896617D01*
X165877263Y-78101029D01*
X165881994Y-78110561D01*
X165996016Y-78298462D01*
X166002280Y-78307052D01*
X166146327Y-78473052D01*
X166153958Y-78480472D01*
X166323911Y-78619826D01*
X166332678Y-78625850D01*
X166523682Y-78734576D01*
X166533346Y-78739041D01*
X166739941Y-78814031D01*
X166750208Y-78816802D01*
X166967655Y-78856123D01*
X166975884Y-78857056D01*
X166994402Y-78857930D01*
X166997377Y-78858000D01*
X167977885Y-78858000D01*
X167993124Y-78853525D01*
X167994329Y-78852135D01*
X167996000Y-78844452D01*
X167996000Y-78839885D01*
X168504000Y-78839885D01*
X168508475Y-78855124D01*
X168509865Y-78856329D01*
X168517548Y-78858000D01*
X169455206Y-78858000D01*
X169460515Y-78857775D01*
X169624325Y-78843876D01*
X169634797Y-78842086D01*
X169847535Y-78786870D01*
X169857575Y-78783335D01*
X170057970Y-78693063D01*
X170067256Y-78687894D01*
X170249575Y-78565150D01*
X170257870Y-78558481D01*
X170416900Y-78406772D01*
X170423941Y-78398814D01*
X170555141Y-78222475D01*
X170560745Y-78213438D01*
X170660357Y-78017516D01*
X170664357Y-78007665D01*
X170729534Y-77797760D01*
X170731817Y-77787376D01*
X170733861Y-77771957D01*
X170733337Y-77768580D01*
X177018752Y-77768580D01*
X177043477Y-77886421D01*
X177046537Y-77896617D01*
X177127263Y-78101029D01*
X177131994Y-78110561D01*
X177246016Y-78298462D01*
X177252280Y-78307052D01*
X177396327Y-78473052D01*
X177403958Y-78480472D01*
X177573911Y-78619826D01*
X177582678Y-78625850D01*
X177773682Y-78734576D01*
X177783346Y-78739041D01*
X177989941Y-78814031D01*
X178000208Y-78816802D01*
X178217655Y-78856123D01*
X178225884Y-78857056D01*
X178244402Y-78857930D01*
X178247377Y-78858000D01*
X179227885Y-78858000D01*
X179243124Y-78853525D01*
X179244329Y-78852135D01*
X179246000Y-78844452D01*
X179246000Y-78839885D01*
X179754000Y-78839885D01*
X179758475Y-78855124D01*
X179759865Y-78856329D01*
X179767548Y-78858000D01*
X180705206Y-78858000D01*
X180710515Y-78857775D01*
X180874325Y-78843876D01*
X180884797Y-78842086D01*
X181097535Y-78786870D01*
X181107575Y-78783335D01*
X181307970Y-78693063D01*
X181317256Y-78687894D01*
X181499575Y-78565150D01*
X181507870Y-78558481D01*
X181666900Y-78406772D01*
X181673941Y-78398814D01*
X181805141Y-78222475D01*
X181810745Y-78213438D01*
X181910357Y-78017516D01*
X181914357Y-78007665D01*
X181979534Y-77797760D01*
X181981817Y-77787376D01*
X181983861Y-77771957D01*
X181981665Y-77757793D01*
X181968478Y-77754000D01*
X179772115Y-77754000D01*
X179756876Y-77758475D01*
X179755671Y-77759865D01*
X179754000Y-77767548D01*
X179754000Y-78839885D01*
X179246000Y-78839885D01*
X179246000Y-77772115D01*
X179241525Y-77756876D01*
X179240135Y-77755671D01*
X179232452Y-77754000D01*
X177033808Y-77754000D01*
X177020277Y-77757973D01*
X177018752Y-77768580D01*
X170733337Y-77768580D01*
X170731665Y-77757793D01*
X170718478Y-77754000D01*
X168522115Y-77754000D01*
X168506876Y-77758475D01*
X168505671Y-77759865D01*
X168504000Y-77767548D01*
X168504000Y-78839885D01*
X167996000Y-78839885D01*
X167996000Y-77772115D01*
X167991525Y-77756876D01*
X167990135Y-77755671D01*
X167982452Y-77754000D01*
X165783808Y-77754000D01*
X165770277Y-77757973D01*
X165768752Y-77768580D01*
X159483337Y-77768580D01*
X159481665Y-77757793D01*
X159468478Y-77754000D01*
X157272115Y-77754000D01*
X157256876Y-77758475D01*
X157255671Y-77759865D01*
X157254000Y-77767548D01*
X157254000Y-78839885D01*
X156746000Y-78839885D01*
X156746000Y-77772115D01*
X156741525Y-77756876D01*
X156740135Y-77755671D01*
X156732452Y-77754000D01*
X154533808Y-77754000D01*
X154520277Y-77757973D01*
X154518752Y-77768580D01*
X148233337Y-77768580D01*
X148231665Y-77757793D01*
X148218478Y-77754000D01*
X146022115Y-77754000D01*
X146006876Y-77758475D01*
X146005671Y-77759865D01*
X146004000Y-77767548D01*
X146004000Y-78839885D01*
X145496000Y-78839885D01*
X145496000Y-77772115D01*
X145491525Y-77756876D01*
X145490135Y-77755671D01*
X145482452Y-77754000D01*
X143283808Y-77754000D01*
X143270277Y-77757973D01*
X143268752Y-77768580D01*
X138508500Y-77768580D01*
X138508500Y-75907890D01*
X141891500Y-75907890D01*
X141906080Y-76079720D01*
X141907418Y-76084875D01*
X141907419Y-76084881D01*
X141962657Y-76297703D01*
X141963999Y-76302872D01*
X142058688Y-76513075D01*
X142187441Y-76704319D01*
X142346576Y-76871135D01*
X142531542Y-77008754D01*
X142536293Y-77011170D01*
X142536297Y-77011172D01*
X142634297Y-77060997D01*
X142737051Y-77113240D01*
X142742145Y-77114822D01*
X142742148Y-77114823D01*
X142942020Y-77176885D01*
X142957227Y-77181607D01*
X142962516Y-77182308D01*
X143180490Y-77211198D01*
X143180494Y-77211198D01*
X143185774Y-77211898D01*
X143189630Y-77211753D01*
X143256316Y-77234798D01*
X143262784Y-77240610D01*
X143281522Y-77246000D01*
X148216192Y-77246000D01*
X148242796Y-77238188D01*
X148283399Y-77212093D01*
X148314172Y-77207078D01*
X148379081Y-77204641D01*
X148416158Y-77203249D01*
X148641791Y-77155907D01*
X148646750Y-77153949D01*
X148646752Y-77153948D01*
X148851256Y-77073185D01*
X148851258Y-77073184D01*
X148856221Y-77071224D01*
X148955184Y-77011172D01*
X149048757Y-76954390D01*
X149048756Y-76954390D01*
X149053317Y-76951623D01*
X149057347Y-76948126D01*
X149223412Y-76804023D01*
X149223414Y-76804021D01*
X149227445Y-76800523D01*
X149261516Y-76758970D01*
X149370240Y-76626373D01*
X149370244Y-76626367D01*
X149373624Y-76622245D01*
X149487675Y-76421886D01*
X149566337Y-76205175D01*
X149567287Y-76199923D01*
X149606623Y-75982392D01*
X149606624Y-75982385D01*
X149607361Y-75978308D01*
X149608500Y-75954156D01*
X149608500Y-75907890D01*
X153141500Y-75907890D01*
X153156080Y-76079720D01*
X153157418Y-76084875D01*
X153157419Y-76084881D01*
X153212657Y-76297703D01*
X153213999Y-76302872D01*
X153308688Y-76513075D01*
X153437441Y-76704319D01*
X153596576Y-76871135D01*
X153781542Y-77008754D01*
X153786293Y-77011170D01*
X153786297Y-77011172D01*
X153884297Y-77060997D01*
X153987051Y-77113240D01*
X153992145Y-77114822D01*
X153992148Y-77114823D01*
X154192020Y-77176885D01*
X154207227Y-77181607D01*
X154212516Y-77182308D01*
X154430490Y-77211198D01*
X154430494Y-77211198D01*
X154435774Y-77211898D01*
X154439630Y-77211753D01*
X154506316Y-77234798D01*
X154512784Y-77240610D01*
X154531522Y-77246000D01*
X159466192Y-77246000D01*
X159492796Y-77238188D01*
X159533399Y-77212093D01*
X159564172Y-77207078D01*
X159629081Y-77204641D01*
X159666158Y-77203249D01*
X159891791Y-77155907D01*
X159896750Y-77153949D01*
X159896752Y-77153948D01*
X160101256Y-77073185D01*
X160101258Y-77073184D01*
X160106221Y-77071224D01*
X160205184Y-77011172D01*
X160298757Y-76954390D01*
X160298756Y-76954390D01*
X160303317Y-76951623D01*
X160307347Y-76948126D01*
X160473412Y-76804023D01*
X160473414Y-76804021D01*
X160477445Y-76800523D01*
X160511516Y-76758970D01*
X160620240Y-76626373D01*
X160620244Y-76626367D01*
X160623624Y-76622245D01*
X160737675Y-76421886D01*
X160816337Y-76205175D01*
X160817287Y-76199923D01*
X160856623Y-75982392D01*
X160856624Y-75982385D01*
X160857361Y-75978308D01*
X160858500Y-75954156D01*
X160858500Y-75907890D01*
X164391500Y-75907890D01*
X164406080Y-76079720D01*
X164407418Y-76084875D01*
X164407419Y-76084881D01*
X164462657Y-76297703D01*
X164463999Y-76302872D01*
X164558688Y-76513075D01*
X164687441Y-76704319D01*
X164846576Y-76871135D01*
X165031542Y-77008754D01*
X165036293Y-77011170D01*
X165036297Y-77011172D01*
X165134297Y-77060997D01*
X165237051Y-77113240D01*
X165242145Y-77114822D01*
X165242148Y-77114823D01*
X165442020Y-77176885D01*
X165457227Y-77181607D01*
X165462516Y-77182308D01*
X165680490Y-77211198D01*
X165680494Y-77211198D01*
X165685774Y-77211898D01*
X165689630Y-77211753D01*
X165756316Y-77234798D01*
X165762784Y-77240610D01*
X165781522Y-77246000D01*
X170716192Y-77246000D01*
X170742796Y-77238188D01*
X170783399Y-77212093D01*
X170814172Y-77207078D01*
X170879081Y-77204641D01*
X170916158Y-77203249D01*
X171141791Y-77155907D01*
X171146750Y-77153949D01*
X171146752Y-77153948D01*
X171351256Y-77073185D01*
X171351258Y-77073184D01*
X171356221Y-77071224D01*
X171455184Y-77011172D01*
X171548757Y-76954390D01*
X171548756Y-76954390D01*
X171553317Y-76951623D01*
X171557347Y-76948126D01*
X171723412Y-76804023D01*
X171723414Y-76804021D01*
X171727445Y-76800523D01*
X171761516Y-76758970D01*
X171870240Y-76626373D01*
X171870244Y-76626367D01*
X171873624Y-76622245D01*
X171987675Y-76421886D01*
X172066337Y-76205175D01*
X172067287Y-76199923D01*
X172106623Y-75982392D01*
X172106624Y-75982385D01*
X172107361Y-75978308D01*
X172108500Y-75954156D01*
X172108500Y-75907890D01*
X175641500Y-75907890D01*
X175656080Y-76079720D01*
X175657418Y-76084875D01*
X175657419Y-76084881D01*
X175712657Y-76297703D01*
X175713999Y-76302872D01*
X175808688Y-76513075D01*
X175937441Y-76704319D01*
X176096576Y-76871135D01*
X176281542Y-77008754D01*
X176286293Y-77011170D01*
X176286297Y-77011172D01*
X176384297Y-77060997D01*
X176487051Y-77113240D01*
X176492145Y-77114822D01*
X176492148Y-77114823D01*
X176692020Y-77176885D01*
X176707227Y-77181607D01*
X176712516Y-77182308D01*
X176930490Y-77211198D01*
X176930494Y-77211198D01*
X176935774Y-77211898D01*
X176939630Y-77211753D01*
X177006316Y-77234798D01*
X177012784Y-77240610D01*
X177031522Y-77246000D01*
X181966192Y-77246000D01*
X181992796Y-77238188D01*
X182033399Y-77212093D01*
X182064172Y-77207078D01*
X182129081Y-77204641D01*
X182166158Y-77203249D01*
X182391791Y-77155907D01*
X182396750Y-77153949D01*
X182396752Y-77153948D01*
X182601256Y-77073185D01*
X182601258Y-77073184D01*
X182606221Y-77071224D01*
X182705184Y-77011172D01*
X182798757Y-76954390D01*
X182798756Y-76954390D01*
X182803317Y-76951623D01*
X182807347Y-76948126D01*
X182973412Y-76804023D01*
X182973414Y-76804021D01*
X182977445Y-76800523D01*
X183011516Y-76758970D01*
X183120240Y-76626373D01*
X183120244Y-76626367D01*
X183123624Y-76622245D01*
X183237675Y-76421886D01*
X183316337Y-76205175D01*
X183317287Y-76199923D01*
X183356623Y-75982392D01*
X183356624Y-75982385D01*
X183357361Y-75978308D01*
X183358500Y-75954156D01*
X183358500Y-74092110D01*
X183343920Y-73920280D01*
X183342582Y-73915125D01*
X183342581Y-73915119D01*
X183287343Y-73702297D01*
X183287342Y-73702293D01*
X183286001Y-73697128D01*
X183191312Y-73486925D01*
X183062559Y-73295681D01*
X182903424Y-73128865D01*
X182718458Y-72991246D01*
X182713707Y-72988830D01*
X182713703Y-72988828D01*
X182591731Y-72926815D01*
X182512949Y-72886760D01*
X182507855Y-72885178D01*
X182507852Y-72885177D01*
X182297871Y-72819976D01*
X182292773Y-72818393D01*
X182287484Y-72817692D01*
X182069511Y-72788802D01*
X182069506Y-72788802D01*
X182064226Y-72788102D01*
X182058897Y-72788302D01*
X182058895Y-72788302D01*
X181833842Y-72796751D01*
X181833791Y-72795380D01*
X181770110Y-72784882D01*
X181717422Y-72737295D01*
X181698827Y-72668777D01*
X181699892Y-72654816D01*
X181711198Y-72569512D01*
X181711198Y-72569505D01*
X181711898Y-72564226D01*
X181703249Y-72333842D01*
X181655907Y-72108209D01*
X181571224Y-71893779D01*
X181451623Y-71696683D01*
X181364755Y-71596576D01*
X181304023Y-71526588D01*
X181304021Y-71526586D01*
X181300523Y-71522555D01*
X181258970Y-71488484D01*
X181126373Y-71379760D01*
X181126367Y-71379756D01*
X181122245Y-71376376D01*
X181117609Y-71373737D01*
X181117606Y-71373735D01*
X180926529Y-71264968D01*
X180921886Y-71262325D01*
X180705175Y-71183663D01*
X180699926Y-71182714D01*
X180699923Y-71182713D01*
X180482392Y-71143377D01*
X180482385Y-71143376D01*
X180478308Y-71142639D01*
X180460586Y-71141803D01*
X180455644Y-71141570D01*
X180455637Y-71141570D01*
X180454156Y-71141500D01*
X178592110Y-71141500D01*
X178525191Y-71147178D01*
X178425591Y-71155629D01*
X178425587Y-71155630D01*
X178420280Y-71156080D01*
X178415125Y-71157418D01*
X178415119Y-71157419D01*
X178202297Y-71212657D01*
X178202293Y-71212658D01*
X178197128Y-71213999D01*
X178192262Y-71216191D01*
X178192259Y-71216192D01*
X178083980Y-71264968D01*
X177986925Y-71308688D01*
X177795681Y-71437441D01*
X177628865Y-71596576D01*
X177491246Y-71781542D01*
X177386760Y-71987051D01*
X177385178Y-71992145D01*
X177385177Y-71992148D01*
X177323115Y-72192020D01*
X177318393Y-72207227D01*
X177317692Y-72212516D01*
X177302304Y-72328623D01*
X177288102Y-72435774D01*
X177288302Y-72441103D01*
X177288302Y-72441105D01*
X177296751Y-72666158D01*
X177295380Y-72666209D01*
X177284882Y-72729890D01*
X177237295Y-72782578D01*
X177168777Y-72801173D01*
X177154816Y-72800108D01*
X177069512Y-72788802D01*
X177069505Y-72788802D01*
X177064226Y-72788102D01*
X177058897Y-72788302D01*
X177058895Y-72788302D01*
X176949034Y-72792427D01*
X176833842Y-72796751D01*
X176828623Y-72797846D01*
X176734037Y-72817692D01*
X176608209Y-72844093D01*
X176603250Y-72846051D01*
X176603248Y-72846052D01*
X176398744Y-72926815D01*
X176398742Y-72926816D01*
X176393779Y-72928776D01*
X176389220Y-72931543D01*
X176389217Y-72931544D01*
X176290832Y-72991246D01*
X176196683Y-73048377D01*
X176192653Y-73051874D01*
X176099484Y-73132722D01*
X176022555Y-73199477D01*
X176019168Y-73203608D01*
X175879760Y-73373627D01*
X175879756Y-73373633D01*
X175876376Y-73377755D01*
X175762325Y-73578114D01*
X175683663Y-73794825D01*
X175682714Y-73800074D01*
X175682713Y-73800077D01*
X175643377Y-74017608D01*
X175643376Y-74017615D01*
X175642639Y-74021692D01*
X175641500Y-74045844D01*
X175641500Y-75907890D01*
X172108500Y-75907890D01*
X172108500Y-74092110D01*
X172093920Y-73920280D01*
X172092582Y-73915125D01*
X172092581Y-73915119D01*
X172037343Y-73702297D01*
X172037342Y-73702293D01*
X172036001Y-73697128D01*
X171941312Y-73486925D01*
X171812559Y-73295681D01*
X171653424Y-73128865D01*
X171468458Y-72991246D01*
X171463707Y-72988830D01*
X171463703Y-72988828D01*
X171341731Y-72926815D01*
X171262949Y-72886760D01*
X171257855Y-72885178D01*
X171257852Y-72885177D01*
X171047871Y-72819976D01*
X171042773Y-72818393D01*
X171037484Y-72817692D01*
X170819511Y-72788802D01*
X170819506Y-72788802D01*
X170814226Y-72788102D01*
X170808897Y-72788302D01*
X170808895Y-72788302D01*
X170583842Y-72796751D01*
X170583791Y-72795380D01*
X170520110Y-72784882D01*
X170467422Y-72737295D01*
X170448827Y-72668777D01*
X170449892Y-72654816D01*
X170461198Y-72569512D01*
X170461198Y-72569505D01*
X170461898Y-72564226D01*
X170453249Y-72333842D01*
X170405907Y-72108209D01*
X170321224Y-71893779D01*
X170201623Y-71696683D01*
X170114755Y-71596576D01*
X170054023Y-71526588D01*
X170054021Y-71526586D01*
X170050523Y-71522555D01*
X170008970Y-71488484D01*
X169876373Y-71379760D01*
X169876367Y-71379756D01*
X169872245Y-71376376D01*
X169867609Y-71373737D01*
X169867606Y-71373735D01*
X169676529Y-71264968D01*
X169671886Y-71262325D01*
X169455175Y-71183663D01*
X169449926Y-71182714D01*
X169449923Y-71182713D01*
X169232392Y-71143377D01*
X169232385Y-71143376D01*
X169228308Y-71142639D01*
X169210586Y-71141803D01*
X169205644Y-71141570D01*
X169205637Y-71141570D01*
X169204156Y-71141500D01*
X167342110Y-71141500D01*
X167275191Y-71147178D01*
X167175591Y-71155629D01*
X167175587Y-71155630D01*
X167170280Y-71156080D01*
X167165125Y-71157418D01*
X167165119Y-71157419D01*
X166952297Y-71212657D01*
X166952293Y-71212658D01*
X166947128Y-71213999D01*
X166942262Y-71216191D01*
X166942259Y-71216192D01*
X166833980Y-71264968D01*
X166736925Y-71308688D01*
X166545681Y-71437441D01*
X166378865Y-71596576D01*
X166241246Y-71781542D01*
X166136760Y-71987051D01*
X166135178Y-71992145D01*
X166135177Y-71992148D01*
X166073115Y-72192020D01*
X166068393Y-72207227D01*
X166067692Y-72212516D01*
X166052304Y-72328623D01*
X166038102Y-72435774D01*
X166038302Y-72441103D01*
X166038302Y-72441105D01*
X166046751Y-72666158D01*
X166045380Y-72666209D01*
X166034882Y-72729890D01*
X165987295Y-72782578D01*
X165918777Y-72801173D01*
X165904816Y-72800108D01*
X165819512Y-72788802D01*
X165819505Y-72788802D01*
X165814226Y-72788102D01*
X165808897Y-72788302D01*
X165808895Y-72788302D01*
X165699034Y-72792427D01*
X165583842Y-72796751D01*
X165578623Y-72797846D01*
X165484037Y-72817692D01*
X165358209Y-72844093D01*
X165353250Y-72846051D01*
X165353248Y-72846052D01*
X165148744Y-72926815D01*
X165148742Y-72926816D01*
X165143779Y-72928776D01*
X165139220Y-72931543D01*
X165139217Y-72931544D01*
X165040832Y-72991246D01*
X164946683Y-73048377D01*
X164942653Y-73051874D01*
X164849484Y-73132722D01*
X164772555Y-73199477D01*
X164769168Y-73203608D01*
X164629760Y-73373627D01*
X164629756Y-73373633D01*
X164626376Y-73377755D01*
X164512325Y-73578114D01*
X164433663Y-73794825D01*
X164432714Y-73800074D01*
X164432713Y-73800077D01*
X164393377Y-74017608D01*
X164393376Y-74017615D01*
X164392639Y-74021692D01*
X164391500Y-74045844D01*
X164391500Y-75907890D01*
X160858500Y-75907890D01*
X160858500Y-74092110D01*
X160843920Y-73920280D01*
X160842582Y-73915125D01*
X160842581Y-73915119D01*
X160787343Y-73702297D01*
X160787342Y-73702293D01*
X160786001Y-73697128D01*
X160691312Y-73486925D01*
X160562559Y-73295681D01*
X160403424Y-73128865D01*
X160218458Y-72991246D01*
X160213707Y-72988830D01*
X160213703Y-72988828D01*
X160091731Y-72926815D01*
X160012949Y-72886760D01*
X160007855Y-72885178D01*
X160007852Y-72885177D01*
X159797871Y-72819976D01*
X159792773Y-72818393D01*
X159787484Y-72817692D01*
X159569511Y-72788802D01*
X159569506Y-72788802D01*
X159564226Y-72788102D01*
X159558897Y-72788302D01*
X159558895Y-72788302D01*
X159333842Y-72796751D01*
X159333791Y-72795380D01*
X159270110Y-72784882D01*
X159217422Y-72737295D01*
X159198827Y-72668777D01*
X159199892Y-72654816D01*
X159211198Y-72569512D01*
X159211198Y-72569505D01*
X159211898Y-72564226D01*
X159203249Y-72333842D01*
X159155907Y-72108209D01*
X159071224Y-71893779D01*
X158951623Y-71696683D01*
X158864755Y-71596576D01*
X158804023Y-71526588D01*
X158804021Y-71526586D01*
X158800523Y-71522555D01*
X158758970Y-71488484D01*
X158626373Y-71379760D01*
X158626367Y-71379756D01*
X158622245Y-71376376D01*
X158617609Y-71373737D01*
X158617606Y-71373735D01*
X158426529Y-71264968D01*
X158421886Y-71262325D01*
X158205175Y-71183663D01*
X158199926Y-71182714D01*
X158199923Y-71182713D01*
X157982392Y-71143377D01*
X157982385Y-71143376D01*
X157978308Y-71142639D01*
X157960586Y-71141803D01*
X157955644Y-71141570D01*
X157955637Y-71141570D01*
X157954156Y-71141500D01*
X156092110Y-71141500D01*
X156025191Y-71147178D01*
X155925591Y-71155629D01*
X155925587Y-71155630D01*
X155920280Y-71156080D01*
X155915125Y-71157418D01*
X155915119Y-71157419D01*
X155702297Y-71212657D01*
X155702293Y-71212658D01*
X155697128Y-71213999D01*
X155692262Y-71216191D01*
X155692259Y-71216192D01*
X155583980Y-71264968D01*
X155486925Y-71308688D01*
X155295681Y-71437441D01*
X155128865Y-71596576D01*
X154991246Y-71781542D01*
X154886760Y-71987051D01*
X154885178Y-71992145D01*
X154885177Y-71992148D01*
X154823115Y-72192020D01*
X154818393Y-72207227D01*
X154817692Y-72212516D01*
X154802304Y-72328623D01*
X154788102Y-72435774D01*
X154788302Y-72441103D01*
X154788302Y-72441105D01*
X154796751Y-72666158D01*
X154795380Y-72666209D01*
X154784882Y-72729890D01*
X154737295Y-72782578D01*
X154668777Y-72801173D01*
X154654816Y-72800108D01*
X154569512Y-72788802D01*
X154569505Y-72788802D01*
X154564226Y-72788102D01*
X154558897Y-72788302D01*
X154558895Y-72788302D01*
X154449034Y-72792427D01*
X154333842Y-72796751D01*
X154328623Y-72797846D01*
X154234037Y-72817692D01*
X154108209Y-72844093D01*
X154103250Y-72846051D01*
X154103248Y-72846052D01*
X153898744Y-72926815D01*
X153898742Y-72926816D01*
X153893779Y-72928776D01*
X153889220Y-72931543D01*
X153889217Y-72931544D01*
X153790832Y-72991246D01*
X153696683Y-73048377D01*
X153692653Y-73051874D01*
X153599484Y-73132722D01*
X153522555Y-73199477D01*
X153519168Y-73203608D01*
X153379760Y-73373627D01*
X153379756Y-73373633D01*
X153376376Y-73377755D01*
X153262325Y-73578114D01*
X153183663Y-73794825D01*
X153182714Y-73800074D01*
X153182713Y-73800077D01*
X153143377Y-74017608D01*
X153143376Y-74017615D01*
X153142639Y-74021692D01*
X153141500Y-74045844D01*
X153141500Y-75907890D01*
X149608500Y-75907890D01*
X149608500Y-74092110D01*
X149593920Y-73920280D01*
X149592582Y-73915125D01*
X149592581Y-73915119D01*
X149537343Y-73702297D01*
X149537342Y-73702293D01*
X149536001Y-73697128D01*
X149441312Y-73486925D01*
X149312559Y-73295681D01*
X149153424Y-73128865D01*
X148968458Y-72991246D01*
X148963707Y-72988830D01*
X148963703Y-72988828D01*
X148841731Y-72926815D01*
X148762949Y-72886760D01*
X148757855Y-72885178D01*
X148757852Y-72885177D01*
X148547871Y-72819976D01*
X148542773Y-72818393D01*
X148537484Y-72817692D01*
X148319511Y-72788802D01*
X148319506Y-72788802D01*
X148314226Y-72788102D01*
X148308897Y-72788302D01*
X148308895Y-72788302D01*
X148083842Y-72796751D01*
X148083791Y-72795380D01*
X148020110Y-72784882D01*
X147967422Y-72737295D01*
X147948827Y-72668777D01*
X147949892Y-72654816D01*
X147961198Y-72569512D01*
X147961198Y-72569505D01*
X147961898Y-72564226D01*
X147953249Y-72333842D01*
X147905907Y-72108209D01*
X147821224Y-71893779D01*
X147701623Y-71696683D01*
X147614755Y-71596576D01*
X147554023Y-71526588D01*
X147554021Y-71526586D01*
X147550523Y-71522555D01*
X147508970Y-71488484D01*
X147376373Y-71379760D01*
X147376367Y-71379756D01*
X147372245Y-71376376D01*
X147367609Y-71373737D01*
X147367606Y-71373735D01*
X147176529Y-71264968D01*
X147171886Y-71262325D01*
X146955175Y-71183663D01*
X146949926Y-71182714D01*
X146949923Y-71182713D01*
X146732392Y-71143377D01*
X146732385Y-71143376D01*
X146728308Y-71142639D01*
X146710586Y-71141803D01*
X146705644Y-71141570D01*
X146705637Y-71141570D01*
X146704156Y-71141500D01*
X144842110Y-71141500D01*
X144775191Y-71147178D01*
X144675591Y-71155629D01*
X144675587Y-71155630D01*
X144670280Y-71156080D01*
X144665125Y-71157418D01*
X144665119Y-71157419D01*
X144452297Y-71212657D01*
X144452293Y-71212658D01*
X144447128Y-71213999D01*
X144442262Y-71216191D01*
X144442259Y-71216192D01*
X144333980Y-71264968D01*
X144236925Y-71308688D01*
X144045681Y-71437441D01*
X143878865Y-71596576D01*
X143741246Y-71781542D01*
X143636760Y-71987051D01*
X143635178Y-71992145D01*
X143635177Y-71992148D01*
X143573115Y-72192020D01*
X143568393Y-72207227D01*
X143567692Y-72212516D01*
X143552304Y-72328623D01*
X143538102Y-72435774D01*
X143538302Y-72441103D01*
X143538302Y-72441105D01*
X143546751Y-72666158D01*
X143545380Y-72666209D01*
X143534882Y-72729890D01*
X143487295Y-72782578D01*
X143418777Y-72801173D01*
X143404816Y-72800108D01*
X143319512Y-72788802D01*
X143319505Y-72788802D01*
X143314226Y-72788102D01*
X143308897Y-72788302D01*
X143308895Y-72788302D01*
X143199034Y-72792427D01*
X143083842Y-72796751D01*
X143078623Y-72797846D01*
X142984037Y-72817692D01*
X142858209Y-72844093D01*
X142853250Y-72846051D01*
X142853248Y-72846052D01*
X142648744Y-72926815D01*
X142648742Y-72926816D01*
X142643779Y-72928776D01*
X142639220Y-72931543D01*
X142639217Y-72931544D01*
X142540832Y-72991246D01*
X142446683Y-73048377D01*
X142442653Y-73051874D01*
X142349484Y-73132722D01*
X142272555Y-73199477D01*
X142269168Y-73203608D01*
X142129760Y-73373627D01*
X142129756Y-73373633D01*
X142126376Y-73377755D01*
X142012325Y-73578114D01*
X141933663Y-73794825D01*
X141932714Y-73800074D01*
X141932713Y-73800077D01*
X141893377Y-74017608D01*
X141893376Y-74017615D01*
X141892639Y-74021692D01*
X141891500Y-74045844D01*
X141891500Y-75907890D01*
X138508500Y-75907890D01*
X138508500Y-70803250D01*
X138510246Y-70782345D01*
X138512770Y-70767344D01*
X138512770Y-70767341D01*
X138513576Y-70762552D01*
X138513729Y-70750000D01*
X138513038Y-70745177D01*
X138512852Y-70742320D01*
X138514136Y-70714413D01*
X138517198Y-70695085D01*
X138517199Y-70695079D01*
X138529379Y-70657593D01*
X138545564Y-70625827D01*
X138568734Y-70593938D01*
X138593938Y-70568734D01*
X138625827Y-70545564D01*
X138657593Y-70529379D01*
X138695085Y-70517198D01*
X138716032Y-70513881D01*
X138735753Y-70512450D01*
X138743724Y-70513691D01*
X138775286Y-70509564D01*
X138791621Y-70508500D01*
X186450633Y-70508500D01*
X186470018Y-70510000D01*
G37*
%TD.AperFunction*%
%TD*%
M02*
