M48
; DRILL file {KiCad (6.0.11)} date Sun Apr 23 23:03:43 2023
; FORMAT={-:-/ absolute / inch / decimal}
; #@! TF.CreationDate,2023-04-23T23:03:43-04:00
; #@! TF.GenerationSoftware,Kicad,Pcbnew,(6.0.11)
; #@! TF.FileFunction,Plated,1,2,PTH
FMAT,2
INCH
; #@! TA.AperFunction,Plated,PTH,ViaDrill
T1C0.0157
; #@! TA.AperFunction,Plated,PTH,ComponentDrill
T2C0.0276
%
G90
G05
T1
X5.561Y-3.0217
X5.561Y-3.0512
X5.561Y-3.0807
X5.561Y-3.1102
X5.5906Y-3.0512
X5.5906Y-3.0807
X5.5906Y-3.1102
T2
G00X5.6398Y-2.9862
M15
G01X5.6398Y-2.9193
M16
G05
G00X5.7047Y-2.8543
M15
G01X5.7717Y-2.8543
M16
G05
G00X5.6929Y-3.0512
M15
G01X5.7835Y-3.0512
M16
G05
G00X5.8366Y-2.9862
M15
G01X5.8366Y-2.9193
M16
G05
G00X6.0827Y-2.9862
M15
G01X6.0827Y-2.9193
M16
G05
G00X6.1476Y-2.8543
M15
G01X6.2146Y-2.8543
M16
G05
G00X6.1358Y-3.0512
M15
G01X6.2264Y-3.0512
M16
G05
G00X6.2795Y-2.9862
M15
G01X6.2795Y-2.9193
M16
G05
G00X6.5256Y-2.9862
M15
G01X6.5256Y-2.9193
M16
G05
G00X6.5906Y-2.8543
M15
G01X6.6575Y-2.8543
M16
G05
G00X6.5787Y-3.0512
M15
G01X6.6693Y-3.0512
M16
G05
G00X6.7224Y-2.9862
M15
G01X6.7224Y-2.9193
M16
G05
G00X6.9685Y-2.9862
M15
G01X6.9685Y-2.9193
M16
G05
G00X7.0335Y-2.8543
M15
G01X7.1004Y-2.8543
M16
G05
G00X7.0217Y-3.0512
M15
G01X7.1122Y-3.0512
M16
G05
G00X7.1654Y-2.9862
M15
G01X7.1654Y-2.9193
M16
G05
T0
M30
