%TF.GenerationSoftware,KiCad,Pcbnew,(6.0.11)*%
%TF.CreationDate,2023-04-13T19:56:29-04:00*%
%TF.ProjectId,HDMI FFC,48444d49-2046-4464-932e-6b696361645f,rev?*%
%TF.SameCoordinates,Original*%
%TF.FileFunction,Soldermask,Top*%
%TF.FilePolarity,Negative*%
%FSLAX46Y46*%
G04 Gerber Fmt 4.6, Leading zero omitted, Abs format (unit mm)*
G04 Created by KiCad (PCBNEW (6.0.11)) date 2023-04-13 19:56:29*
%MOMM*%
%LPD*%
G01*
G04 APERTURE LIST*
%ADD10R,0.300000X1.000000*%
%ADD11R,2.000000X1.300000*%
%ADD12R,0.300000X1.900000*%
%ADD13C,1.800000*%
G04 APERTURE END LIST*
D10*
%TO.C,J2*%
X140419986Y-81300000D03*
X140919985Y-81300000D03*
X141419986Y-81300000D03*
X141919985Y-81300000D03*
X142419987Y-81300000D03*
X142919986Y-81300000D03*
X143419985Y-81300000D03*
X143919986Y-81300000D03*
X144419985Y-81300000D03*
X144919987Y-81300000D03*
X145419986Y-81300000D03*
X145919985Y-81300000D03*
X146419987Y-81300000D03*
X146919986Y-81300000D03*
X147419985Y-81300000D03*
X147919986Y-81300000D03*
X148419985Y-81300000D03*
X148919987Y-81300000D03*
X149419986Y-81300000D03*
D11*
X138119996Y-83999999D03*
X151719978Y-83999999D03*
%TD*%
D12*
%TO.C,J1*%
X140420000Y-78275000D03*
X140920000Y-78275000D03*
X141420000Y-78275000D03*
X141920000Y-78275000D03*
X142420000Y-78275000D03*
X142920000Y-78275000D03*
X143420000Y-78275000D03*
X143920000Y-78275000D03*
X144420000Y-78275000D03*
X144920000Y-78275000D03*
X145420000Y-78275000D03*
X145920000Y-78275000D03*
X146420000Y-78275000D03*
X146920000Y-78275000D03*
X147420000Y-78275000D03*
X147920000Y-78275000D03*
X148420000Y-78275000D03*
X148920000Y-78275000D03*
X149420000Y-78275000D03*
D13*
X152420000Y-77275000D03*
X137320000Y-72375000D03*
X137920000Y-77275000D03*
X153020000Y-72375000D03*
%TD*%
M02*
