%TF.GenerationSoftware,KiCad,Pcbnew,(6.0.11)*%
%TF.CreationDate,2023-04-13T19:56:29-04:00*%
%TF.ProjectId,HDMI FFC,48444d49-2046-4464-932e-6b696361645f,rev?*%
%TF.SameCoordinates,Original*%
%TF.FileFunction,Copper,L1,Top*%
%TF.FilePolarity,Positive*%
%FSLAX46Y46*%
G04 Gerber Fmt 4.6, Leading zero omitted, Abs format (unit mm)*
G04 Created by KiCad (PCBNEW (6.0.11)) date 2023-04-13 19:56:29*
%MOMM*%
%LPD*%
G01*
G04 APERTURE LIST*
%TA.AperFunction,SMDPad,CuDef*%
%ADD10R,0.300000X1.000000*%
%TD*%
%TA.AperFunction,SMDPad,CuDef*%
%ADD11R,2.000000X1.300000*%
%TD*%
%TA.AperFunction,SMDPad,CuDef*%
%ADD12R,0.300000X1.900000*%
%TD*%
%TA.AperFunction,ComponentPad*%
%ADD13C,1.800000*%
%TD*%
%TA.AperFunction,Conductor*%
%ADD14C,0.200000*%
%TD*%
%TA.AperFunction,Conductor*%
%ADD15C,0.250000*%
%TD*%
G04 APERTURE END LIST*
D10*
%TO.P,J2,1,Pin_1*%
%TO.N,D2+*%
X140419986Y-81300000D03*
%TO.P,J2,2,Pin_2*%
%TO.N,GND*%
X140919985Y-81300000D03*
%TO.P,J2,3,Pin_3*%
%TO.N,D2-*%
X141419986Y-81300000D03*
%TO.P,J2,4,Pin_4*%
%TO.N,D1+*%
X141919985Y-81300000D03*
%TO.P,J2,5,Pin_5*%
%TO.N,GND*%
X142419987Y-81300000D03*
%TO.P,J2,6,Pin_6*%
%TO.N,D1-*%
X142919986Y-81300000D03*
%TO.P,J2,7,Pin_7*%
%TO.N,D0+*%
X143419985Y-81300000D03*
%TO.P,J2,8,Pin_8*%
%TO.N,GND*%
X143919986Y-81300000D03*
%TO.P,J2,9,Pin_9*%
%TO.N,D0-*%
X144419985Y-81300000D03*
%TO.P,J2,10,Pin_10*%
%TO.N,CK+*%
X144919987Y-81300000D03*
%TO.P,J2,11,Pin_11*%
%TO.N,GND*%
X145419986Y-81300000D03*
%TO.P,J2,12,Pin_12*%
%TO.N,CK-*%
X145919985Y-81300000D03*
%TO.P,J2,13,Pin_13*%
%TO.N,CEC*%
X146419987Y-81300000D03*
%TO.P,J2,14,Pin_14*%
%TO.N,UTILITY*%
X146919986Y-81300000D03*
%TO.P,J2,15,Pin_15*%
%TO.N,SCL*%
X147419985Y-81300000D03*
%TO.P,J2,16,Pin_16*%
%TO.N,SDA*%
X147919986Y-81300000D03*
%TO.P,J2,17,Pin_17*%
%TO.N,GND*%
X148419985Y-81300000D03*
%TO.P,J2,18,Pin_18*%
%TO.N,+5V*%
X148919987Y-81300000D03*
%TO.P,J2,19,Pin_19*%
%TO.N,HPD*%
X149419986Y-81300000D03*
D11*
%TO.P,J2,P1*%
%TO.N,GND*%
X138119996Y-83999999D03*
%TO.P,J2,P2*%
X151719978Y-83999999D03*
%TD*%
D12*
%TO.P,J1,1,D2+*%
%TO.N,D2+*%
X140420000Y-78275000D03*
%TO.P,J1,2,D2S*%
%TO.N,GND*%
X140920000Y-78275000D03*
%TO.P,J1,3,D2-*%
%TO.N,D2-*%
X141420000Y-78275000D03*
%TO.P,J1,4,D1+*%
%TO.N,D1+*%
X141920000Y-78275000D03*
%TO.P,J1,5,D1S*%
%TO.N,GND*%
X142420000Y-78275000D03*
%TO.P,J1,6,D1-*%
%TO.N,D1-*%
X142920000Y-78275000D03*
%TO.P,J1,7,D0+*%
%TO.N,D0+*%
X143420000Y-78275000D03*
%TO.P,J1,8,D0S*%
%TO.N,GND*%
X143920000Y-78275000D03*
%TO.P,J1,9,D0-*%
%TO.N,D0-*%
X144420000Y-78275000D03*
%TO.P,J1,10,CK+*%
%TO.N,CK+*%
X144920000Y-78275000D03*
%TO.P,J1,11,CKS*%
%TO.N,GND*%
X145420000Y-78275000D03*
%TO.P,J1,12,CK-*%
%TO.N,CK-*%
X145920000Y-78275000D03*
%TO.P,J1,13,CEC*%
%TO.N,CEC*%
X146420000Y-78275000D03*
%TO.P,J1,14,UTILITY*%
%TO.N,UTILITY*%
X146920000Y-78275000D03*
%TO.P,J1,15,SCL*%
%TO.N,SCL*%
X147420000Y-78275000D03*
%TO.P,J1,16,SDA*%
%TO.N,SDA*%
X147920000Y-78275000D03*
%TO.P,J1,17,GND*%
%TO.N,GND*%
X148420000Y-78275000D03*
%TO.P,J1,18,+5V*%
%TO.N,+5V*%
X148920000Y-78275000D03*
%TO.P,J1,19,HPD*%
%TO.N,HPD*%
X149420000Y-78275000D03*
D13*
%TO.P,J1,SH,SH*%
%TO.N,GND*%
X152420000Y-77275000D03*
X137320000Y-72375000D03*
X137920000Y-77275000D03*
X153020000Y-72375000D03*
%TD*%
D14*
%TO.N,D2+*%
X140720000Y-79600000D02*
X140720000Y-80420000D01*
X140420000Y-79300000D02*
X140720000Y-79600000D01*
X140419986Y-80720014D02*
X140419986Y-81300000D01*
X140420000Y-78275000D02*
X140420000Y-79300000D01*
X140720000Y-80420000D02*
X140419986Y-80720014D01*
%TO.N,D2-*%
X141420000Y-79300000D02*
X141120000Y-79600000D01*
X141120000Y-80420000D02*
X141420000Y-80720000D01*
X141120000Y-79600000D02*
X141120000Y-80420000D01*
X141420000Y-80720000D02*
X141420000Y-81299986D01*
X141420000Y-78275000D02*
X141420000Y-79300000D01*
X141420000Y-81299986D02*
X141419986Y-81300000D01*
%TO.N,D1+*%
X141919986Y-80720014D02*
X141919986Y-81300000D01*
X141920000Y-79300000D02*
X142220000Y-79600000D01*
X142220000Y-80420000D02*
X141919986Y-80720014D01*
X142220000Y-79600000D02*
X142220000Y-80420000D01*
X141920000Y-78275000D02*
X141920000Y-79300000D01*
%TO.N,D1-*%
X142620000Y-80420000D02*
X142920000Y-80720000D01*
X142620000Y-79600000D02*
X142620000Y-80420000D01*
X142920000Y-78275000D02*
X142920000Y-79300000D01*
X142920000Y-80720000D02*
X142920000Y-81299986D01*
X142920000Y-79300000D02*
X142620000Y-79600000D01*
%TO.N,D0+*%
X143720000Y-80420000D02*
X143419986Y-80720014D01*
X143420000Y-79300000D02*
X143720000Y-79600000D01*
X143720000Y-79600000D02*
X143720000Y-80420000D01*
X143420000Y-78275000D02*
X143420000Y-79300000D01*
X143419986Y-80720014D02*
X143419986Y-81300000D01*
%TO.N,D0-*%
X144420000Y-78275000D02*
X144420000Y-79300000D01*
X144120000Y-79600000D02*
X144120000Y-80420000D01*
X144420000Y-80720000D02*
X144420000Y-81299986D01*
X144120000Y-80420000D02*
X144420000Y-80720000D01*
X144420000Y-79300000D02*
X144120000Y-79600000D01*
%TO.N,CK+*%
X145220014Y-79599986D02*
X145220014Y-80419986D01*
X144920014Y-79299986D02*
X145220014Y-79599986D01*
X144920014Y-78274986D02*
X144920014Y-79299986D01*
X145220014Y-80419986D02*
X144920000Y-80720000D01*
X144920000Y-80720000D02*
X144920000Y-81299986D01*
%TO.N,CK-*%
X145620000Y-80420000D02*
X145920000Y-80720000D01*
X145920000Y-78275000D02*
X145920000Y-79300000D01*
X145920000Y-80720000D02*
X145920000Y-81299986D01*
X145920000Y-79300000D02*
X145620000Y-79600000D01*
X145620000Y-79600000D02*
X145620000Y-80420000D01*
D15*
%TO.N,CEC*%
X146420000Y-81299987D02*
X146419987Y-81300000D01*
X146420000Y-78275000D02*
X146420000Y-81299987D01*
%TO.N,UTILITY*%
X146920000Y-78275000D02*
X146920000Y-81299986D01*
X146920000Y-81299986D02*
X146919986Y-81300000D01*
%TO.N,SCL*%
X147420000Y-81299985D02*
X147419985Y-81300000D01*
X147420000Y-78275000D02*
X147420000Y-81299985D01*
%TO.N,SDA*%
X147920000Y-81299986D02*
X147919986Y-81300000D01*
X147920000Y-78275000D02*
X147920000Y-81299986D01*
%TO.N,GND*%
X144000000Y-82900000D02*
X143900000Y-82800000D01*
X145420000Y-76220000D02*
X148320000Y-76220000D01*
X145400000Y-82800000D02*
X145419986Y-82780014D01*
X148419985Y-82680015D02*
X148100000Y-83000000D01*
X142420000Y-76120000D02*
X143820000Y-76120000D01*
X140919985Y-82719985D02*
X141100000Y-82900000D01*
X142420000Y-78275000D02*
X142420000Y-76120000D01*
X143920000Y-76220000D02*
X143920000Y-78275000D01*
X143920000Y-76220000D02*
X145380000Y-76220000D01*
X145420000Y-76220000D02*
X145420000Y-78275000D01*
X142500000Y-82900000D02*
X143800000Y-82900000D01*
X143919986Y-82780014D02*
X143919986Y-81300000D01*
X140920000Y-76020000D02*
X140920000Y-78275000D01*
X142420000Y-76120000D02*
X142300000Y-76000000D01*
X142339974Y-82900000D02*
X142419987Y-82819987D01*
X148420000Y-81299985D02*
X148419985Y-81300000D01*
X145500000Y-82900000D02*
X145400000Y-82800000D01*
X145419986Y-82780014D02*
X145419986Y-81300000D01*
X143900000Y-82800000D02*
X143919986Y-82780014D01*
X148320000Y-76220000D02*
X148420000Y-76320000D01*
X148420000Y-78275000D02*
X148420000Y-81299985D01*
X142300000Y-76000000D02*
X140900000Y-76000000D01*
X140919985Y-81300000D02*
X140919985Y-82719985D01*
X143800000Y-82900000D02*
X143900000Y-82800000D01*
X140900000Y-76000000D02*
X140920000Y-76020000D01*
X148419985Y-81300000D02*
X148419985Y-82680015D01*
X148100000Y-83000000D02*
X145600000Y-83000000D01*
X142419987Y-82819987D02*
X142500000Y-82900000D01*
X148420000Y-76320000D02*
X148420000Y-78275000D01*
X145600000Y-83000000D02*
X145500000Y-82900000D01*
X145400000Y-76200000D02*
X145420000Y-76220000D01*
X143820000Y-76120000D02*
X143920000Y-76220000D01*
X142419987Y-81300000D02*
X142419987Y-82819987D01*
X141100000Y-82900000D02*
X142339974Y-82900000D01*
X145500000Y-82900000D02*
X144000000Y-82900000D01*
X145380000Y-76220000D02*
X145400000Y-76200000D01*
%TO.N,HPD*%
X149420000Y-81299986D02*
X149419986Y-81300000D01*
X149420000Y-78275000D02*
X149420000Y-81299986D01*
%TO.N,+5V*%
X148920000Y-81299987D02*
X148919987Y-81300000D01*
X148920000Y-78275000D02*
X148920000Y-81299987D01*
%TD*%
%TA.AperFunction,Conductor*%
%TO.N,GND*%
G36*
X135994140Y-71628502D02*
G01*
X136040633Y-71682158D01*
X136050737Y-71752432D01*
X136040307Y-71787550D01*
X135996253Y-71882459D01*
X135992689Y-71892146D01*
X135933581Y-72105280D01*
X135931650Y-72115400D01*
X135908145Y-72335349D01*
X135907893Y-72345638D01*
X135920627Y-72566468D01*
X135922061Y-72576670D01*
X135970685Y-72792439D01*
X135973773Y-72802292D01*
X136056986Y-73007220D01*
X136061634Y-73016421D01*
X136150097Y-73160781D01*
X136160553Y-73170242D01*
X136169331Y-73166458D01*
X137230905Y-72104885D01*
X137293217Y-72070859D01*
X137364033Y-72075924D01*
X137409095Y-72104885D01*
X138466303Y-73162092D01*
X138478314Y-73168651D01*
X138490052Y-73159684D01*
X138528010Y-73106859D01*
X138533321Y-73098020D01*
X138631318Y-72899737D01*
X138635117Y-72890142D01*
X138699415Y-72678517D01*
X138701594Y-72668436D01*
X138730702Y-72447338D01*
X138731221Y-72440663D01*
X138732744Y-72378364D01*
X138732550Y-72371646D01*
X138714279Y-72149400D01*
X138712596Y-72139238D01*
X138658710Y-71924708D01*
X138655393Y-71914964D01*
X138598771Y-71784743D01*
X138589951Y-71714296D01*
X138620618Y-71650264D01*
X138681034Y-71612976D01*
X138714321Y-71608500D01*
X151626019Y-71608500D01*
X151694140Y-71628502D01*
X151740633Y-71682158D01*
X151750737Y-71752432D01*
X151740307Y-71787550D01*
X151696253Y-71882459D01*
X151692689Y-71892146D01*
X151633581Y-72105280D01*
X151631650Y-72115400D01*
X151608145Y-72335349D01*
X151607893Y-72345638D01*
X151620627Y-72566468D01*
X151622061Y-72576670D01*
X151670685Y-72792439D01*
X151673773Y-72802292D01*
X151756986Y-73007220D01*
X151761634Y-73016421D01*
X151850097Y-73160781D01*
X151860553Y-73170242D01*
X151869331Y-73166458D01*
X152930905Y-72104885D01*
X152993217Y-72070859D01*
X153064033Y-72075924D01*
X153109095Y-72104885D01*
X154166303Y-73162092D01*
X154178314Y-73168651D01*
X154190052Y-73159684D01*
X154228010Y-73106859D01*
X154233321Y-73098020D01*
X154331318Y-72899737D01*
X154335117Y-72890142D01*
X154399415Y-72678517D01*
X154401594Y-72668436D01*
X154430702Y-72447338D01*
X154431221Y-72440663D01*
X154432744Y-72378364D01*
X154432550Y-72371646D01*
X154414279Y-72149400D01*
X154412596Y-72139238D01*
X154358710Y-71924708D01*
X154355393Y-71914964D01*
X154298771Y-71784743D01*
X154289951Y-71714296D01*
X154320618Y-71650264D01*
X154381034Y-71612976D01*
X154414321Y-71608500D01*
X158865500Y-71608500D01*
X158933621Y-71628502D01*
X158980114Y-71682158D01*
X158991500Y-71734500D01*
X158991500Y-78265500D01*
X158971498Y-78333621D01*
X158917842Y-78380114D01*
X158865500Y-78391500D01*
X155053250Y-78391500D01*
X155032345Y-78389754D01*
X155017344Y-78387230D01*
X155017341Y-78387230D01*
X155012552Y-78386424D01*
X155006475Y-78386350D01*
X155004865Y-78386330D01*
X155004861Y-78386330D01*
X155000000Y-78386271D01*
X154995186Y-78386960D01*
X154995176Y-78386961D01*
X154978720Y-78389318D01*
X154971851Y-78390111D01*
X154824207Y-78403028D01*
X154818893Y-78404452D01*
X154818892Y-78404452D01*
X154659065Y-78447277D01*
X154659063Y-78447278D01*
X154653755Y-78448700D01*
X154648774Y-78451022D01*
X154648773Y-78451023D01*
X154498811Y-78520951D01*
X154498806Y-78520954D01*
X154493824Y-78523277D01*
X154460620Y-78546527D01*
X154353784Y-78621334D01*
X154353781Y-78621336D01*
X154349273Y-78624493D01*
X154224493Y-78749273D01*
X154221336Y-78753781D01*
X154221334Y-78753784D01*
X154193298Y-78793824D01*
X154123277Y-78893824D01*
X154120954Y-78898806D01*
X154120951Y-78898811D01*
X154051023Y-79048773D01*
X154048700Y-79053755D01*
X154047278Y-79059063D01*
X154047277Y-79059065D01*
X154031247Y-79118892D01*
X154003028Y-79224207D01*
X153995196Y-79313729D01*
X153990987Y-79361839D01*
X153989969Y-79370224D01*
X153986309Y-79393724D01*
X153988771Y-79412552D01*
X153990436Y-79425283D01*
X153991500Y-79441621D01*
X153991500Y-86965500D01*
X153971498Y-87033621D01*
X153917842Y-87080114D01*
X153865500Y-87091500D01*
X136434500Y-87091500D01*
X136366379Y-87071498D01*
X136319886Y-87017842D01*
X136308500Y-86965500D01*
X136308500Y-81848134D01*
X139761486Y-81848134D01*
X139768241Y-81910316D01*
X139819371Y-82046705D01*
X139906725Y-82163261D01*
X140023281Y-82250615D01*
X140159670Y-82301745D01*
X140221852Y-82308500D01*
X140618120Y-82308500D01*
X140680302Y-82301745D01*
X140816691Y-82250615D01*
X140838980Y-82233911D01*
X140844422Y-82229832D01*
X140910929Y-82204985D01*
X140980311Y-82220039D01*
X140995550Y-82229832D01*
X141000992Y-82233911D01*
X141023281Y-82250615D01*
X141159670Y-82301745D01*
X141221852Y-82308500D01*
X141618120Y-82308500D01*
X141621515Y-82308131D01*
X141621519Y-82308131D01*
X141647517Y-82305307D01*
X141656380Y-82304344D01*
X141683592Y-82304344D01*
X141694505Y-82305529D01*
X141718452Y-82308131D01*
X141718456Y-82308131D01*
X141721851Y-82308500D01*
X142118119Y-82308500D01*
X142180301Y-82301745D01*
X142316690Y-82250615D01*
X142344423Y-82229830D01*
X142410928Y-82204984D01*
X142480310Y-82220037D01*
X142495552Y-82229833D01*
X142516094Y-82245229D01*
X142516096Y-82245230D01*
X142523281Y-82250615D01*
X142659670Y-82301745D01*
X142721852Y-82308500D01*
X143118120Y-82308500D01*
X143121515Y-82308131D01*
X143121519Y-82308131D01*
X143147517Y-82305307D01*
X143156380Y-82304344D01*
X143183592Y-82304344D01*
X143194505Y-82305529D01*
X143218452Y-82308131D01*
X143218456Y-82308131D01*
X143221851Y-82308500D01*
X143618119Y-82308500D01*
X143680301Y-82301745D01*
X143816690Y-82250615D01*
X143838979Y-82233911D01*
X143844421Y-82229832D01*
X143910928Y-82204985D01*
X143980310Y-82220039D01*
X143995549Y-82229832D01*
X144000991Y-82233911D01*
X144023280Y-82250615D01*
X144159669Y-82301745D01*
X144221851Y-82308500D01*
X144618119Y-82308500D01*
X144621514Y-82308131D01*
X144621518Y-82308131D01*
X144656379Y-82304344D01*
X144683593Y-82304344D01*
X144718454Y-82308131D01*
X144718458Y-82308131D01*
X144721853Y-82308500D01*
X145118121Y-82308500D01*
X145180303Y-82301745D01*
X145316692Y-82250615D01*
X145344422Y-82229832D01*
X145410927Y-82204985D01*
X145480309Y-82220038D01*
X145495544Y-82229828D01*
X145523280Y-82250615D01*
X145659669Y-82301745D01*
X145721851Y-82308500D01*
X146118119Y-82308500D01*
X146121514Y-82308131D01*
X146121518Y-82308131D01*
X146156379Y-82304344D01*
X146183593Y-82304344D01*
X146218454Y-82308131D01*
X146218458Y-82308131D01*
X146221853Y-82308500D01*
X146618121Y-82308500D01*
X146621516Y-82308131D01*
X146621520Y-82308131D01*
X146647518Y-82305307D01*
X146656381Y-82304344D01*
X146683593Y-82304344D01*
X146694506Y-82305529D01*
X146718453Y-82308131D01*
X146718457Y-82308131D01*
X146721852Y-82308500D01*
X147118120Y-82308500D01*
X147121515Y-82308131D01*
X147121519Y-82308131D01*
X147147517Y-82305307D01*
X147156380Y-82304344D01*
X147183592Y-82304344D01*
X147194505Y-82305529D01*
X147218452Y-82308131D01*
X147218456Y-82308131D01*
X147221851Y-82308500D01*
X147618119Y-82308500D01*
X147621514Y-82308131D01*
X147621518Y-82308131D01*
X147656379Y-82304344D01*
X147683592Y-82304344D01*
X147692455Y-82305307D01*
X147718453Y-82308131D01*
X147718457Y-82308131D01*
X147721852Y-82308500D01*
X148118120Y-82308500D01*
X148180302Y-82301745D01*
X148316691Y-82250615D01*
X148344424Y-82229830D01*
X148410929Y-82204984D01*
X148480311Y-82220037D01*
X148495553Y-82229833D01*
X148516095Y-82245229D01*
X148516097Y-82245230D01*
X148523282Y-82250615D01*
X148659671Y-82301745D01*
X148721853Y-82308500D01*
X149118121Y-82308500D01*
X149121516Y-82308131D01*
X149121520Y-82308131D01*
X149147518Y-82305307D01*
X149156381Y-82304344D01*
X149183593Y-82304344D01*
X149194506Y-82305529D01*
X149218453Y-82308131D01*
X149218457Y-82308131D01*
X149221852Y-82308500D01*
X149618120Y-82308500D01*
X149680302Y-82301745D01*
X149816691Y-82250615D01*
X149933247Y-82163261D01*
X150020601Y-82046705D01*
X150071731Y-81910316D01*
X150078486Y-81848134D01*
X150078486Y-80751866D01*
X150071731Y-80689684D01*
X150061518Y-80662441D01*
X150053500Y-80618211D01*
X150053500Y-79406826D01*
X150061518Y-79362596D01*
X150061802Y-79361839D01*
X150071745Y-79335316D01*
X150078500Y-79273134D01*
X150078500Y-78436406D01*
X151623423Y-78436406D01*
X151628704Y-78443461D01*
X151805080Y-78546527D01*
X151814363Y-78550974D01*
X152021003Y-78629883D01*
X152030901Y-78632759D01*
X152247653Y-78676857D01*
X152257883Y-78678076D01*
X152478914Y-78686182D01*
X152489223Y-78685714D01*
X152708623Y-78657608D01*
X152718688Y-78655468D01*
X152930557Y-78591905D01*
X152940152Y-78588144D01*
X153138778Y-78490838D01*
X153147636Y-78485559D01*
X153205097Y-78444572D01*
X153213497Y-78433874D01*
X153206510Y-78420721D01*
X152432811Y-77647021D01*
X152418868Y-77639408D01*
X152417034Y-77639539D01*
X152410420Y-77643790D01*
X151630180Y-78424031D01*
X151623423Y-78436406D01*
X150078500Y-78436406D01*
X150078500Y-77276866D01*
X150075108Y-77245638D01*
X151007893Y-77245638D01*
X151020627Y-77466468D01*
X151022061Y-77476670D01*
X151070685Y-77692439D01*
X151073773Y-77702292D01*
X151156986Y-77907220D01*
X151161634Y-77916421D01*
X151250097Y-78060781D01*
X151260553Y-78070242D01*
X151269331Y-78066458D01*
X152047979Y-77287811D01*
X152054356Y-77276132D01*
X152784408Y-77276132D01*
X152784539Y-77277966D01*
X152788790Y-77284580D01*
X153566307Y-78062096D01*
X153578313Y-78068652D01*
X153590052Y-78059684D01*
X153628010Y-78006859D01*
X153633321Y-77998020D01*
X153731318Y-77799737D01*
X153735117Y-77790142D01*
X153799415Y-77578517D01*
X153801594Y-77568436D01*
X153830702Y-77347338D01*
X153831221Y-77340663D01*
X153832744Y-77278364D01*
X153832550Y-77271646D01*
X153814279Y-77049400D01*
X153812596Y-77039238D01*
X153758710Y-76824708D01*
X153755389Y-76814953D01*
X153667193Y-76612118D01*
X153662315Y-76603020D01*
X153589224Y-76490038D01*
X153578538Y-76480835D01*
X153568973Y-76485238D01*
X152792021Y-77262189D01*
X152784408Y-77276132D01*
X152054356Y-77276132D01*
X152055592Y-77273868D01*
X152055461Y-77272034D01*
X152051210Y-77265420D01*
X151273862Y-76488073D01*
X151262330Y-76481776D01*
X151250048Y-76491399D01*
X151194467Y-76572877D01*
X151189379Y-76581833D01*
X151096252Y-76782459D01*
X151092689Y-76792146D01*
X151033581Y-77005280D01*
X151031650Y-77015400D01*
X151008145Y-77235349D01*
X151007893Y-77245638D01*
X150075108Y-77245638D01*
X150071745Y-77214684D01*
X150020615Y-77078295D01*
X149933261Y-76961739D01*
X149816705Y-76874385D01*
X149680316Y-76823255D01*
X149618134Y-76816500D01*
X149221866Y-76816500D01*
X149218471Y-76816869D01*
X149218467Y-76816869D01*
X149192469Y-76819693D01*
X149183606Y-76820656D01*
X149156394Y-76820656D01*
X149147531Y-76819693D01*
X149121533Y-76816869D01*
X149121529Y-76816869D01*
X149118134Y-76816500D01*
X148721866Y-76816500D01*
X148659684Y-76823255D01*
X148523295Y-76874385D01*
X148501316Y-76890857D01*
X148495564Y-76895168D01*
X148429057Y-76920015D01*
X148359675Y-76904961D01*
X148344436Y-76895168D01*
X148338684Y-76890857D01*
X148316705Y-76874385D01*
X148180316Y-76823255D01*
X148118134Y-76816500D01*
X147721866Y-76816500D01*
X147718471Y-76816869D01*
X147718467Y-76816869D01*
X147692469Y-76819693D01*
X147683606Y-76820656D01*
X147656394Y-76820656D01*
X147647531Y-76819693D01*
X147621533Y-76816869D01*
X147621529Y-76816869D01*
X147618134Y-76816500D01*
X147221866Y-76816500D01*
X147218471Y-76816869D01*
X147218467Y-76816869D01*
X147192469Y-76819693D01*
X147183606Y-76820656D01*
X147156394Y-76820656D01*
X147147531Y-76819693D01*
X147121533Y-76816869D01*
X147121529Y-76816869D01*
X147118134Y-76816500D01*
X146721866Y-76816500D01*
X146718471Y-76816869D01*
X146718467Y-76816869D01*
X146692469Y-76819693D01*
X146683606Y-76820656D01*
X146656394Y-76820656D01*
X146647531Y-76819693D01*
X146621533Y-76816869D01*
X146621529Y-76816869D01*
X146618134Y-76816500D01*
X146221866Y-76816500D01*
X146218471Y-76816869D01*
X146218467Y-76816869D01*
X146192469Y-76819693D01*
X146183606Y-76820656D01*
X146156394Y-76820656D01*
X146147531Y-76819693D01*
X146121533Y-76816869D01*
X146121529Y-76816869D01*
X146118134Y-76816500D01*
X145721866Y-76816500D01*
X145659684Y-76823255D01*
X145523295Y-76874385D01*
X145501316Y-76890857D01*
X145495564Y-76895168D01*
X145429057Y-76920015D01*
X145359675Y-76904961D01*
X145344436Y-76895168D01*
X145338684Y-76890857D01*
X145316705Y-76874385D01*
X145180316Y-76823255D01*
X145118134Y-76816500D01*
X144721866Y-76816500D01*
X144718471Y-76816869D01*
X144718467Y-76816869D01*
X144692469Y-76819693D01*
X144683606Y-76820656D01*
X144656394Y-76820656D01*
X144647531Y-76819693D01*
X144621533Y-76816869D01*
X144621529Y-76816869D01*
X144618134Y-76816500D01*
X144221866Y-76816500D01*
X144159684Y-76823255D01*
X144023295Y-76874385D01*
X144001316Y-76890857D01*
X143995564Y-76895168D01*
X143929057Y-76920015D01*
X143859675Y-76904961D01*
X143844436Y-76895168D01*
X143838684Y-76890857D01*
X143816705Y-76874385D01*
X143680316Y-76823255D01*
X143618134Y-76816500D01*
X143221866Y-76816500D01*
X143218471Y-76816869D01*
X143218467Y-76816869D01*
X143192469Y-76819693D01*
X143183606Y-76820656D01*
X143156394Y-76820656D01*
X143147531Y-76819693D01*
X143121533Y-76816869D01*
X143121529Y-76816869D01*
X143118134Y-76816500D01*
X142721866Y-76816500D01*
X142659684Y-76823255D01*
X142523295Y-76874385D01*
X142501316Y-76890857D01*
X142495564Y-76895168D01*
X142429057Y-76920015D01*
X142359675Y-76904961D01*
X142344436Y-76895168D01*
X142338684Y-76890857D01*
X142316705Y-76874385D01*
X142180316Y-76823255D01*
X142118134Y-76816500D01*
X141721866Y-76816500D01*
X141718471Y-76816869D01*
X141718467Y-76816869D01*
X141692469Y-76819693D01*
X141683606Y-76820656D01*
X141656394Y-76820656D01*
X141647531Y-76819693D01*
X141621533Y-76816869D01*
X141621529Y-76816869D01*
X141618134Y-76816500D01*
X141221866Y-76816500D01*
X141159684Y-76823255D01*
X141023295Y-76874385D01*
X141001316Y-76890857D01*
X140995564Y-76895168D01*
X140929057Y-76920015D01*
X140859675Y-76904961D01*
X140844436Y-76895168D01*
X140838684Y-76890857D01*
X140816705Y-76874385D01*
X140680316Y-76823255D01*
X140618134Y-76816500D01*
X140221866Y-76816500D01*
X140159684Y-76823255D01*
X140023295Y-76874385D01*
X139906739Y-76961739D01*
X139819385Y-77078295D01*
X139768255Y-77214684D01*
X139761500Y-77276866D01*
X139761500Y-79273134D01*
X139768255Y-79335316D01*
X139819385Y-79471705D01*
X139839164Y-79498096D01*
X139854744Y-79525439D01*
X139885314Y-79599244D01*
X139885317Y-79599249D01*
X139888476Y-79606876D01*
X139893503Y-79613427D01*
X139893504Y-79613429D01*
X139961520Y-79702069D01*
X139961526Y-79702075D01*
X139986013Y-79733987D01*
X139992568Y-79739017D01*
X140011379Y-79753452D01*
X140023770Y-79764319D01*
X140074595Y-79815144D01*
X140108621Y-79877456D01*
X140111500Y-79904239D01*
X140111500Y-80115761D01*
X140091498Y-80183882D01*
X140074595Y-80204856D01*
X140023752Y-80255699D01*
X140011361Y-80266566D01*
X139985999Y-80286027D01*
X139961512Y-80317939D01*
X139961509Y-80317942D01*
X139888462Y-80413138D01*
X139885302Y-80420768D01*
X139850112Y-80505723D01*
X139834529Y-80533070D01*
X139819371Y-80553295D01*
X139768241Y-80689684D01*
X139761486Y-80751866D01*
X139761486Y-81848134D01*
X136308500Y-81848134D01*
X136308500Y-79353250D01*
X136310246Y-79332345D01*
X136312770Y-79317344D01*
X136312770Y-79317341D01*
X136313576Y-79312552D01*
X136313729Y-79300000D01*
X136313040Y-79295186D01*
X136313039Y-79295176D01*
X136310682Y-79278720D01*
X136309888Y-79271839D01*
X136296972Y-79124207D01*
X136283923Y-79075507D01*
X136252723Y-78959065D01*
X136252722Y-78959063D01*
X136251300Y-78953755D01*
X136182483Y-78806176D01*
X136179049Y-78798811D01*
X136179046Y-78798806D01*
X136176723Y-78793824D01*
X136101351Y-78686182D01*
X136078666Y-78653784D01*
X136078664Y-78653781D01*
X136075507Y-78649273D01*
X135950727Y-78524493D01*
X135946219Y-78521336D01*
X135946216Y-78521334D01*
X135845801Y-78451023D01*
X135824926Y-78436406D01*
X137123423Y-78436406D01*
X137128704Y-78443461D01*
X137305080Y-78546527D01*
X137314363Y-78550974D01*
X137521003Y-78629883D01*
X137530901Y-78632759D01*
X137747653Y-78676857D01*
X137757883Y-78678076D01*
X137978914Y-78686182D01*
X137989223Y-78685714D01*
X138208623Y-78657608D01*
X138218688Y-78655468D01*
X138430557Y-78591905D01*
X138440152Y-78588144D01*
X138638778Y-78490838D01*
X138647636Y-78485559D01*
X138705097Y-78444572D01*
X138713497Y-78433874D01*
X138706510Y-78420721D01*
X137932811Y-77647021D01*
X137918868Y-77639408D01*
X137917034Y-77639539D01*
X137910420Y-77643790D01*
X137130180Y-78424031D01*
X137123423Y-78436406D01*
X135824926Y-78436406D01*
X135806176Y-78423277D01*
X135801194Y-78420954D01*
X135801189Y-78420951D01*
X135651227Y-78351023D01*
X135651226Y-78351022D01*
X135646245Y-78348700D01*
X135640937Y-78347278D01*
X135640935Y-78347277D01*
X135481108Y-78304452D01*
X135481107Y-78304452D01*
X135475793Y-78303028D01*
X135346288Y-78291698D01*
X135336374Y-78290432D01*
X135325444Y-78288593D01*
X135317344Y-78287230D01*
X135317342Y-78287230D01*
X135312552Y-78286424D01*
X135306276Y-78286348D01*
X135304860Y-78286330D01*
X135304857Y-78286330D01*
X135300000Y-78286271D01*
X135274058Y-78289986D01*
X135272376Y-78290227D01*
X135254514Y-78291500D01*
X131534500Y-78291500D01*
X131466379Y-78271498D01*
X131419886Y-78217842D01*
X131408500Y-78165500D01*
X131408500Y-77245638D01*
X136507893Y-77245638D01*
X136520627Y-77466468D01*
X136522061Y-77476670D01*
X136570685Y-77692439D01*
X136573773Y-77702292D01*
X136656986Y-77907220D01*
X136661634Y-77916421D01*
X136750097Y-78060781D01*
X136760553Y-78070242D01*
X136769331Y-78066458D01*
X137547979Y-77287811D01*
X137554356Y-77276132D01*
X138284408Y-77276132D01*
X138284539Y-77277966D01*
X138288790Y-77284580D01*
X139066307Y-78062096D01*
X139078313Y-78068652D01*
X139090052Y-78059684D01*
X139128010Y-78006859D01*
X139133321Y-77998020D01*
X139231318Y-77799737D01*
X139235117Y-77790142D01*
X139299415Y-77578517D01*
X139301594Y-77568436D01*
X139330702Y-77347338D01*
X139331221Y-77340663D01*
X139332744Y-77278364D01*
X139332550Y-77271646D01*
X139314279Y-77049400D01*
X139312596Y-77039238D01*
X139258710Y-76824708D01*
X139255389Y-76814953D01*
X139167193Y-76612118D01*
X139162315Y-76603020D01*
X139089224Y-76490038D01*
X139078538Y-76480835D01*
X139068973Y-76485238D01*
X138292021Y-77262189D01*
X138284408Y-77276132D01*
X137554356Y-77276132D01*
X137555592Y-77273868D01*
X137555461Y-77272034D01*
X137551210Y-77265420D01*
X136773862Y-76488073D01*
X136762330Y-76481776D01*
X136750048Y-76491399D01*
X136694467Y-76572877D01*
X136689379Y-76581833D01*
X136596252Y-76782459D01*
X136592689Y-76792146D01*
X136533581Y-77005280D01*
X136531650Y-77015400D01*
X136508145Y-77235349D01*
X136507893Y-77245638D01*
X131408500Y-77245638D01*
X131408500Y-74977869D01*
X131986689Y-74977869D01*
X132003238Y-75264883D01*
X132004063Y-75269088D01*
X132004064Y-75269096D01*
X132036010Y-75431921D01*
X132058586Y-75546995D01*
X132059973Y-75551045D01*
X132059974Y-75551050D01*
X132135557Y-75771807D01*
X132151710Y-75818986D01*
X132180265Y-75875761D01*
X132241310Y-75997135D01*
X132280885Y-76075822D01*
X132443721Y-76312750D01*
X132446608Y-76315923D01*
X132446609Y-76315924D01*
X132634316Y-76522212D01*
X132637206Y-76525388D01*
X132640501Y-76528143D01*
X132640502Y-76528144D01*
X132691258Y-76570582D01*
X132857759Y-76709798D01*
X133101298Y-76862571D01*
X133363318Y-76980877D01*
X133367437Y-76982097D01*
X133634857Y-77061311D01*
X133634862Y-77061312D01*
X133638970Y-77062529D01*
X133643204Y-77063177D01*
X133643209Y-77063178D01*
X133891811Y-77101219D01*
X133923153Y-77106015D01*
X134069485Y-77108314D01*
X134206317Y-77110464D01*
X134206323Y-77110464D01*
X134210608Y-77110531D01*
X134214860Y-77110016D01*
X134214868Y-77110016D01*
X134491756Y-77076508D01*
X134491761Y-77076507D01*
X134496017Y-77075992D01*
X134774097Y-77003039D01*
X135039704Y-76893021D01*
X135287922Y-76747974D01*
X135514159Y-76570582D01*
X135555285Y-76528144D01*
X135711244Y-76367206D01*
X135714227Y-76364128D01*
X135716760Y-76360680D01*
X135716764Y-76360675D01*
X135881887Y-76135886D01*
X135884425Y-76132431D01*
X135893503Y-76115711D01*
X137125508Y-76115711D01*
X137132251Y-76128040D01*
X137907189Y-76902979D01*
X137921132Y-76910592D01*
X137922966Y-76910461D01*
X137929580Y-76906210D01*
X138708994Y-76126795D01*
X138715046Y-76115711D01*
X151625508Y-76115711D01*
X151632251Y-76128040D01*
X152407189Y-76902979D01*
X152421132Y-76910592D01*
X152422966Y-76910461D01*
X152429580Y-76906210D01*
X153208994Y-76126795D01*
X153216011Y-76113944D01*
X153208237Y-76103274D01*
X153205902Y-76101430D01*
X153197320Y-76095729D01*
X153003678Y-75988833D01*
X152994272Y-75984606D01*
X152785772Y-75910772D01*
X152775809Y-75908140D01*
X152558047Y-75869350D01*
X152547796Y-75868381D01*
X152326616Y-75865679D01*
X152316332Y-75866399D01*
X152097693Y-75899855D01*
X152087666Y-75902244D01*
X151877426Y-75970961D01*
X151867916Y-75974958D01*
X151671725Y-76077089D01*
X151663007Y-76082578D01*
X151633961Y-76104386D01*
X151625508Y-76115711D01*
X138715046Y-76115711D01*
X138716011Y-76113944D01*
X138708237Y-76103274D01*
X138705902Y-76101430D01*
X138697320Y-76095729D01*
X138503678Y-75988833D01*
X138494272Y-75984606D01*
X138285772Y-75910772D01*
X138275809Y-75908140D01*
X138058047Y-75869350D01*
X138047796Y-75868381D01*
X137826616Y-75865679D01*
X137816332Y-75866399D01*
X137597693Y-75899855D01*
X137587666Y-75902244D01*
X137377426Y-75970961D01*
X137367916Y-75974958D01*
X137171725Y-76077089D01*
X137163007Y-76082578D01*
X137133961Y-76104386D01*
X137125508Y-76115711D01*
X135893503Y-76115711D01*
X135957885Y-75997135D01*
X136019554Y-75883555D01*
X136019555Y-75883553D01*
X136021604Y-75879779D01*
X136123225Y-75610848D01*
X136187407Y-75330613D01*
X136201675Y-75170748D01*
X136212743Y-75046726D01*
X136212743Y-75046724D01*
X136212963Y-75044260D01*
X136213427Y-75000000D01*
X136211918Y-74977869D01*
X154186689Y-74977869D01*
X154203238Y-75264883D01*
X154204063Y-75269088D01*
X154204064Y-75269096D01*
X154236010Y-75431921D01*
X154258586Y-75546995D01*
X154259973Y-75551045D01*
X154259974Y-75551050D01*
X154335557Y-75771807D01*
X154351710Y-75818986D01*
X154380265Y-75875761D01*
X154441310Y-75997135D01*
X154480885Y-76075822D01*
X154643721Y-76312750D01*
X154646608Y-76315923D01*
X154646609Y-76315924D01*
X154834316Y-76522212D01*
X154837206Y-76525388D01*
X154840501Y-76528143D01*
X154840502Y-76528144D01*
X154891258Y-76570582D01*
X155057759Y-76709798D01*
X155301298Y-76862571D01*
X155563318Y-76980877D01*
X155567437Y-76982097D01*
X155834857Y-77061311D01*
X155834862Y-77061312D01*
X155838970Y-77062529D01*
X155843204Y-77063177D01*
X155843209Y-77063178D01*
X156091811Y-77101219D01*
X156123153Y-77106015D01*
X156269485Y-77108314D01*
X156406317Y-77110464D01*
X156406323Y-77110464D01*
X156410608Y-77110531D01*
X156414860Y-77110016D01*
X156414868Y-77110016D01*
X156691756Y-77076508D01*
X156691761Y-77076507D01*
X156696017Y-77075992D01*
X156974097Y-77003039D01*
X157239704Y-76893021D01*
X157487922Y-76747974D01*
X157714159Y-76570582D01*
X157755285Y-76528144D01*
X157911244Y-76367206D01*
X157914227Y-76364128D01*
X157916760Y-76360680D01*
X157916764Y-76360675D01*
X158081887Y-76135886D01*
X158084425Y-76132431D01*
X158157885Y-75997135D01*
X158219554Y-75883555D01*
X158219555Y-75883553D01*
X158221604Y-75879779D01*
X158323225Y-75610848D01*
X158387407Y-75330613D01*
X158401675Y-75170748D01*
X158412743Y-75046726D01*
X158412743Y-75046724D01*
X158412963Y-75044260D01*
X158413427Y-75000000D01*
X158393873Y-74713175D01*
X158389336Y-74691264D01*
X158336443Y-74435855D01*
X158335574Y-74431658D01*
X158239607Y-74160657D01*
X158107750Y-73905188D01*
X158094488Y-73886317D01*
X157986565Y-73732759D01*
X157942441Y-73669977D01*
X157815966Y-73533874D01*
X157749661Y-73462521D01*
X157749658Y-73462519D01*
X157746740Y-73459378D01*
X157524268Y-73277287D01*
X157279142Y-73127073D01*
X157261048Y-73119130D01*
X157019830Y-73013243D01*
X157015898Y-73011517D01*
X157000814Y-73007220D01*
X156743534Y-72933932D01*
X156743535Y-72933932D01*
X156739406Y-72932756D01*
X156526704Y-72902485D01*
X156459036Y-72892854D01*
X156459034Y-72892854D01*
X156454784Y-72892249D01*
X156450495Y-72892227D01*
X156450488Y-72892226D01*
X156171583Y-72890765D01*
X156171576Y-72890765D01*
X156167297Y-72890743D01*
X156163053Y-72891302D01*
X156163049Y-72891302D01*
X156037660Y-72907810D01*
X155882266Y-72928268D01*
X155878126Y-72929401D01*
X155878124Y-72929401D01*
X155801311Y-72950415D01*
X155604964Y-73004129D01*
X155601016Y-73005813D01*
X155344476Y-73115237D01*
X155344472Y-73115239D01*
X155340524Y-73116923D01*
X155215960Y-73191473D01*
X155097521Y-73262357D01*
X155097517Y-73262360D01*
X155093839Y-73264561D01*
X154869472Y-73444313D01*
X154671577Y-73652851D01*
X154503814Y-73886317D01*
X154369288Y-74140392D01*
X154270489Y-74410373D01*
X154209245Y-74691264D01*
X154208909Y-74695534D01*
X154187196Y-74971428D01*
X154187195Y-74971428D01*
X154187196Y-74971430D01*
X154186689Y-74977869D01*
X136211918Y-74977869D01*
X136193873Y-74713175D01*
X136189336Y-74691264D01*
X136136443Y-74435855D01*
X136135574Y-74431658D01*
X136039607Y-74160657D01*
X135907750Y-73905188D01*
X135894488Y-73886317D01*
X135786565Y-73732759D01*
X135742441Y-73669977D01*
X135618319Y-73536406D01*
X136523423Y-73536406D01*
X136528704Y-73543461D01*
X136705080Y-73646527D01*
X136714363Y-73650974D01*
X136921003Y-73729883D01*
X136930901Y-73732759D01*
X137147653Y-73776857D01*
X137157883Y-73778076D01*
X137378914Y-73786182D01*
X137389223Y-73785714D01*
X137608623Y-73757608D01*
X137618688Y-73755468D01*
X137830557Y-73691905D01*
X137840152Y-73688144D01*
X138038778Y-73590838D01*
X138047636Y-73585559D01*
X138105097Y-73544572D01*
X138111509Y-73536406D01*
X152223423Y-73536406D01*
X152228704Y-73543461D01*
X152405080Y-73646527D01*
X152414363Y-73650974D01*
X152621003Y-73729883D01*
X152630901Y-73732759D01*
X152847653Y-73776857D01*
X152857883Y-73778076D01*
X153078914Y-73786182D01*
X153089223Y-73785714D01*
X153308623Y-73757608D01*
X153318688Y-73755468D01*
X153530557Y-73691905D01*
X153540152Y-73688144D01*
X153738778Y-73590838D01*
X153747636Y-73585559D01*
X153805097Y-73544572D01*
X153813497Y-73533874D01*
X153806510Y-73520721D01*
X153032811Y-72747021D01*
X153018868Y-72739408D01*
X153017034Y-72739539D01*
X153010420Y-72743790D01*
X152230180Y-73524031D01*
X152223423Y-73536406D01*
X138111509Y-73536406D01*
X138113497Y-73533874D01*
X138106510Y-73520721D01*
X137332811Y-72747021D01*
X137318868Y-72739408D01*
X137317034Y-72739539D01*
X137310420Y-72743790D01*
X136530180Y-73524031D01*
X136523423Y-73536406D01*
X135618319Y-73536406D01*
X135615966Y-73533874D01*
X135549661Y-73462521D01*
X135549658Y-73462519D01*
X135546740Y-73459378D01*
X135324268Y-73277287D01*
X135079142Y-73127073D01*
X135061048Y-73119130D01*
X134819830Y-73013243D01*
X134815898Y-73011517D01*
X134800814Y-73007220D01*
X134543534Y-72933932D01*
X134543535Y-72933932D01*
X134539406Y-72932756D01*
X134326704Y-72902485D01*
X134259036Y-72892854D01*
X134259034Y-72892854D01*
X134254784Y-72892249D01*
X134250495Y-72892227D01*
X134250488Y-72892226D01*
X133971583Y-72890765D01*
X133971576Y-72890765D01*
X133967297Y-72890743D01*
X133963053Y-72891302D01*
X133963049Y-72891302D01*
X133837660Y-72907810D01*
X133682266Y-72928268D01*
X133678126Y-72929401D01*
X133678124Y-72929401D01*
X133601311Y-72950415D01*
X133404964Y-73004129D01*
X133401016Y-73005813D01*
X133144476Y-73115237D01*
X133144472Y-73115239D01*
X133140524Y-73116923D01*
X133015960Y-73191473D01*
X132897521Y-73262357D01*
X132897517Y-73262360D01*
X132893839Y-73264561D01*
X132669472Y-73444313D01*
X132471577Y-73652851D01*
X132303814Y-73886317D01*
X132169288Y-74140392D01*
X132070489Y-74410373D01*
X132009245Y-74691264D01*
X132008909Y-74695534D01*
X131987196Y-74971428D01*
X131987195Y-74971428D01*
X131987196Y-74971430D01*
X131986689Y-74977869D01*
X131408500Y-74977869D01*
X131408500Y-71734500D01*
X131428502Y-71666379D01*
X131482158Y-71619886D01*
X131534500Y-71608500D01*
X135926019Y-71608500D01*
X135994140Y-71628502D01*
G37*
%TD.AperFunction*%
%TD*%
M02*
