%TF.GenerationSoftware,KiCad,Pcbnew,(6.0.11)*%
%TF.CreationDate,2023-04-13T19:56:29-04:00*%
%TF.ProjectId,HDMI FFC,48444d49-2046-4464-932e-6b696361645f,rev?*%
%TF.SameCoordinates,Original*%
%TF.FileFunction,Copper,L2,Bot*%
%TF.FilePolarity,Positive*%
%FSLAX46Y46*%
G04 Gerber Fmt 4.6, Leading zero omitted, Abs format (unit mm)*
G04 Created by KiCad (PCBNEW (6.0.11)) date 2023-04-13 19:56:29*
%MOMM*%
%LPD*%
G01*
G04 APERTURE LIST*
%TA.AperFunction,ComponentPad*%
%ADD10C,1.800000*%
%TD*%
G04 APERTURE END LIST*
D10*
%TO.P,J1,SH,SH*%
%TO.N,GND*%
X152420000Y-77275000D03*
X137320000Y-72375000D03*
X137920000Y-77275000D03*
X153020000Y-72375000D03*
%TD*%
%TA.AperFunction,Conductor*%
%TO.N,GND*%
G36*
X135994140Y-71628502D02*
G01*
X136040633Y-71682158D01*
X136050737Y-71752432D01*
X136040307Y-71787550D01*
X135996253Y-71882459D01*
X135992689Y-71892146D01*
X135933581Y-72105280D01*
X135931650Y-72115400D01*
X135908145Y-72335349D01*
X135907893Y-72345638D01*
X135920627Y-72566468D01*
X135922061Y-72576670D01*
X135970685Y-72792439D01*
X135973773Y-72802292D01*
X136056986Y-73007220D01*
X136061634Y-73016421D01*
X136150097Y-73160781D01*
X136160553Y-73170242D01*
X136169331Y-73166458D01*
X137230905Y-72104885D01*
X137293217Y-72070859D01*
X137364033Y-72075924D01*
X137409095Y-72104885D01*
X138466303Y-73162092D01*
X138478314Y-73168651D01*
X138490052Y-73159684D01*
X138528010Y-73106859D01*
X138533321Y-73098020D01*
X138631318Y-72899737D01*
X138635117Y-72890142D01*
X138699415Y-72678517D01*
X138701594Y-72668436D01*
X138730702Y-72447338D01*
X138731221Y-72440663D01*
X138732744Y-72378364D01*
X138732550Y-72371646D01*
X138714279Y-72149400D01*
X138712596Y-72139238D01*
X138658710Y-71924708D01*
X138655393Y-71914964D01*
X138598771Y-71784743D01*
X138589951Y-71714296D01*
X138620618Y-71650264D01*
X138681034Y-71612976D01*
X138714321Y-71608500D01*
X151626019Y-71608500D01*
X151694140Y-71628502D01*
X151740633Y-71682158D01*
X151750737Y-71752432D01*
X151740307Y-71787550D01*
X151696253Y-71882459D01*
X151692689Y-71892146D01*
X151633581Y-72105280D01*
X151631650Y-72115400D01*
X151608145Y-72335349D01*
X151607893Y-72345638D01*
X151620627Y-72566468D01*
X151622061Y-72576670D01*
X151670685Y-72792439D01*
X151673773Y-72802292D01*
X151756986Y-73007220D01*
X151761634Y-73016421D01*
X151850097Y-73160781D01*
X151860553Y-73170242D01*
X151869331Y-73166458D01*
X152930905Y-72104885D01*
X152993217Y-72070859D01*
X153064033Y-72075924D01*
X153109095Y-72104885D01*
X154166303Y-73162092D01*
X154178314Y-73168651D01*
X154190052Y-73159684D01*
X154228010Y-73106859D01*
X154233321Y-73098020D01*
X154331318Y-72899737D01*
X154335117Y-72890142D01*
X154399415Y-72678517D01*
X154401594Y-72668436D01*
X154430702Y-72447338D01*
X154431221Y-72440663D01*
X154432744Y-72378364D01*
X154432550Y-72371646D01*
X154414279Y-72149400D01*
X154412596Y-72139238D01*
X154358710Y-71924708D01*
X154355393Y-71914964D01*
X154298771Y-71784743D01*
X154289951Y-71714296D01*
X154320618Y-71650264D01*
X154381034Y-71612976D01*
X154414321Y-71608500D01*
X158865500Y-71608500D01*
X158933621Y-71628502D01*
X158980114Y-71682158D01*
X158991500Y-71734500D01*
X158991500Y-78265500D01*
X158971498Y-78333621D01*
X158917842Y-78380114D01*
X158865500Y-78391500D01*
X155053250Y-78391500D01*
X155032345Y-78389754D01*
X155017344Y-78387230D01*
X155017341Y-78387230D01*
X155012552Y-78386424D01*
X155006475Y-78386350D01*
X155004865Y-78386330D01*
X155004861Y-78386330D01*
X155000000Y-78386271D01*
X154995186Y-78386960D01*
X154995176Y-78386961D01*
X154978720Y-78389318D01*
X154971851Y-78390111D01*
X154824207Y-78403028D01*
X154818893Y-78404452D01*
X154818892Y-78404452D01*
X154659065Y-78447277D01*
X154659063Y-78447278D01*
X154653755Y-78448700D01*
X154648774Y-78451022D01*
X154648773Y-78451023D01*
X154498811Y-78520951D01*
X154498806Y-78520954D01*
X154493824Y-78523277D01*
X154460620Y-78546527D01*
X154353784Y-78621334D01*
X154353781Y-78621336D01*
X154349273Y-78624493D01*
X154224493Y-78749273D01*
X154221336Y-78753781D01*
X154221334Y-78753784D01*
X154193298Y-78793824D01*
X154123277Y-78893824D01*
X154120954Y-78898806D01*
X154120951Y-78898811D01*
X154051023Y-79048773D01*
X154048700Y-79053755D01*
X154047278Y-79059063D01*
X154047277Y-79059065D01*
X154031247Y-79118892D01*
X154003028Y-79224207D01*
X153995196Y-79313729D01*
X153990987Y-79361839D01*
X153989969Y-79370224D01*
X153986309Y-79393724D01*
X153988771Y-79412552D01*
X153990436Y-79425283D01*
X153991500Y-79441621D01*
X153991500Y-86965500D01*
X153971498Y-87033621D01*
X153917842Y-87080114D01*
X153865500Y-87091500D01*
X136434500Y-87091500D01*
X136366379Y-87071498D01*
X136319886Y-87017842D01*
X136308500Y-86965500D01*
X136308500Y-79353250D01*
X136310246Y-79332345D01*
X136312770Y-79317344D01*
X136312770Y-79317341D01*
X136313576Y-79312552D01*
X136313729Y-79300000D01*
X136313040Y-79295186D01*
X136313039Y-79295176D01*
X136310682Y-79278720D01*
X136309888Y-79271839D01*
X136305256Y-79218893D01*
X136296972Y-79124207D01*
X136283923Y-79075507D01*
X136252723Y-78959065D01*
X136252722Y-78959063D01*
X136251300Y-78953755D01*
X136182483Y-78806176D01*
X136179049Y-78798811D01*
X136179046Y-78798806D01*
X136176723Y-78793824D01*
X136101351Y-78686182D01*
X136078666Y-78653784D01*
X136078664Y-78653781D01*
X136075507Y-78649273D01*
X135950727Y-78524493D01*
X135946219Y-78521336D01*
X135946216Y-78521334D01*
X135845801Y-78451023D01*
X135824926Y-78436406D01*
X137123423Y-78436406D01*
X137128704Y-78443461D01*
X137305080Y-78546527D01*
X137314363Y-78550974D01*
X137521003Y-78629883D01*
X137530901Y-78632759D01*
X137747653Y-78676857D01*
X137757883Y-78678076D01*
X137978914Y-78686182D01*
X137989223Y-78685714D01*
X138208623Y-78657608D01*
X138218688Y-78655468D01*
X138430557Y-78591905D01*
X138440152Y-78588144D01*
X138638778Y-78490838D01*
X138647636Y-78485559D01*
X138705097Y-78444572D01*
X138711509Y-78436406D01*
X151623423Y-78436406D01*
X151628704Y-78443461D01*
X151805080Y-78546527D01*
X151814363Y-78550974D01*
X152021003Y-78629883D01*
X152030901Y-78632759D01*
X152247653Y-78676857D01*
X152257883Y-78678076D01*
X152478914Y-78686182D01*
X152489223Y-78685714D01*
X152708623Y-78657608D01*
X152718688Y-78655468D01*
X152930557Y-78591905D01*
X152940152Y-78588144D01*
X153138778Y-78490838D01*
X153147636Y-78485559D01*
X153205097Y-78444572D01*
X153213497Y-78433874D01*
X153206510Y-78420721D01*
X152432811Y-77647021D01*
X152418868Y-77639408D01*
X152417034Y-77639539D01*
X152410420Y-77643790D01*
X151630180Y-78424031D01*
X151623423Y-78436406D01*
X138711509Y-78436406D01*
X138713497Y-78433874D01*
X138706510Y-78420721D01*
X137932811Y-77647021D01*
X137918868Y-77639408D01*
X137917034Y-77639539D01*
X137910420Y-77643790D01*
X137130180Y-78424031D01*
X137123423Y-78436406D01*
X135824926Y-78436406D01*
X135806176Y-78423277D01*
X135801194Y-78420954D01*
X135801189Y-78420951D01*
X135651227Y-78351023D01*
X135651226Y-78351022D01*
X135646245Y-78348700D01*
X135640937Y-78347278D01*
X135640935Y-78347277D01*
X135481108Y-78304452D01*
X135481107Y-78304452D01*
X135475793Y-78303028D01*
X135346288Y-78291698D01*
X135336374Y-78290432D01*
X135325444Y-78288593D01*
X135317344Y-78287230D01*
X135317342Y-78287230D01*
X135312552Y-78286424D01*
X135306276Y-78286348D01*
X135304860Y-78286330D01*
X135304857Y-78286330D01*
X135300000Y-78286271D01*
X135274058Y-78289986D01*
X135272376Y-78290227D01*
X135254514Y-78291500D01*
X131534500Y-78291500D01*
X131466379Y-78271498D01*
X131419886Y-78217842D01*
X131408500Y-78165500D01*
X131408500Y-77245638D01*
X136507893Y-77245638D01*
X136520627Y-77466468D01*
X136522061Y-77476670D01*
X136570685Y-77692439D01*
X136573773Y-77702292D01*
X136656986Y-77907220D01*
X136661634Y-77916421D01*
X136750097Y-78060781D01*
X136760553Y-78070242D01*
X136769331Y-78066458D01*
X137547979Y-77287811D01*
X137554356Y-77276132D01*
X138284408Y-77276132D01*
X138284539Y-77277966D01*
X138288790Y-77284580D01*
X139066307Y-78062096D01*
X139078313Y-78068652D01*
X139090052Y-78059684D01*
X139128010Y-78006859D01*
X139133321Y-77998020D01*
X139231318Y-77799737D01*
X139235117Y-77790142D01*
X139299415Y-77578517D01*
X139301594Y-77568436D01*
X139330702Y-77347338D01*
X139331221Y-77340663D01*
X139332744Y-77278364D01*
X139332550Y-77271646D01*
X139330412Y-77245638D01*
X151007893Y-77245638D01*
X151020627Y-77466468D01*
X151022061Y-77476670D01*
X151070685Y-77692439D01*
X151073773Y-77702292D01*
X151156986Y-77907220D01*
X151161634Y-77916421D01*
X151250097Y-78060781D01*
X151260553Y-78070242D01*
X151269331Y-78066458D01*
X152047979Y-77287811D01*
X152054356Y-77276132D01*
X152784408Y-77276132D01*
X152784539Y-77277966D01*
X152788790Y-77284580D01*
X153566307Y-78062096D01*
X153578313Y-78068652D01*
X153590052Y-78059684D01*
X153628010Y-78006859D01*
X153633321Y-77998020D01*
X153731318Y-77799737D01*
X153735117Y-77790142D01*
X153799415Y-77578517D01*
X153801594Y-77568436D01*
X153830702Y-77347338D01*
X153831221Y-77340663D01*
X153832744Y-77278364D01*
X153832550Y-77271646D01*
X153814279Y-77049400D01*
X153812596Y-77039238D01*
X153758710Y-76824708D01*
X153755389Y-76814953D01*
X153667193Y-76612118D01*
X153662315Y-76603020D01*
X153589224Y-76490038D01*
X153578538Y-76480835D01*
X153568973Y-76485238D01*
X152792021Y-77262189D01*
X152784408Y-77276132D01*
X152054356Y-77276132D01*
X152055592Y-77273868D01*
X152055461Y-77272034D01*
X152051210Y-77265420D01*
X151273862Y-76488073D01*
X151262330Y-76481776D01*
X151250048Y-76491399D01*
X151194467Y-76572877D01*
X151189379Y-76581833D01*
X151096252Y-76782459D01*
X151092689Y-76792146D01*
X151033581Y-77005280D01*
X151031650Y-77015400D01*
X151008145Y-77235349D01*
X151007893Y-77245638D01*
X139330412Y-77245638D01*
X139314279Y-77049400D01*
X139312596Y-77039238D01*
X139258710Y-76824708D01*
X139255389Y-76814953D01*
X139167193Y-76612118D01*
X139162315Y-76603020D01*
X139089224Y-76490038D01*
X139078538Y-76480835D01*
X139068973Y-76485238D01*
X138292021Y-77262189D01*
X138284408Y-77276132D01*
X137554356Y-77276132D01*
X137555592Y-77273868D01*
X137555461Y-77272034D01*
X137551210Y-77265420D01*
X136773862Y-76488073D01*
X136762330Y-76481776D01*
X136750048Y-76491399D01*
X136694467Y-76572877D01*
X136689379Y-76581833D01*
X136596252Y-76782459D01*
X136592689Y-76792146D01*
X136533581Y-77005280D01*
X136531650Y-77015400D01*
X136508145Y-77235349D01*
X136507893Y-77245638D01*
X131408500Y-77245638D01*
X131408500Y-74977869D01*
X131986689Y-74977869D01*
X132003238Y-75264883D01*
X132004063Y-75269088D01*
X132004064Y-75269096D01*
X132036010Y-75431921D01*
X132058586Y-75546995D01*
X132059973Y-75551045D01*
X132059974Y-75551050D01*
X132135557Y-75771807D01*
X132151710Y-75818986D01*
X132180265Y-75875761D01*
X132241310Y-75997135D01*
X132280885Y-76075822D01*
X132443721Y-76312750D01*
X132446608Y-76315923D01*
X132446609Y-76315924D01*
X132634316Y-76522212D01*
X132637206Y-76525388D01*
X132640501Y-76528143D01*
X132640502Y-76528144D01*
X132691258Y-76570582D01*
X132857759Y-76709798D01*
X133101298Y-76862571D01*
X133363318Y-76980877D01*
X133367437Y-76982097D01*
X133634857Y-77061311D01*
X133634862Y-77061312D01*
X133638970Y-77062529D01*
X133643204Y-77063177D01*
X133643209Y-77063178D01*
X133891811Y-77101219D01*
X133923153Y-77106015D01*
X134069485Y-77108314D01*
X134206317Y-77110464D01*
X134206323Y-77110464D01*
X134210608Y-77110531D01*
X134214860Y-77110016D01*
X134214868Y-77110016D01*
X134491756Y-77076508D01*
X134491761Y-77076507D01*
X134496017Y-77075992D01*
X134774097Y-77003039D01*
X135039704Y-76893021D01*
X135287922Y-76747974D01*
X135514159Y-76570582D01*
X135555285Y-76528144D01*
X135711244Y-76367206D01*
X135714227Y-76364128D01*
X135716760Y-76360680D01*
X135716764Y-76360675D01*
X135881887Y-76135886D01*
X135884425Y-76132431D01*
X135893503Y-76115711D01*
X137125508Y-76115711D01*
X137132251Y-76128040D01*
X137907189Y-76902979D01*
X137921132Y-76910592D01*
X137922966Y-76910461D01*
X137929580Y-76906210D01*
X138708994Y-76126795D01*
X138715046Y-76115711D01*
X151625508Y-76115711D01*
X151632251Y-76128040D01*
X152407189Y-76902979D01*
X152421132Y-76910592D01*
X152422966Y-76910461D01*
X152429580Y-76906210D01*
X153208994Y-76126795D01*
X153216011Y-76113944D01*
X153208237Y-76103274D01*
X153205902Y-76101430D01*
X153197320Y-76095729D01*
X153003678Y-75988833D01*
X152994272Y-75984606D01*
X152785772Y-75910772D01*
X152775809Y-75908140D01*
X152558047Y-75869350D01*
X152547796Y-75868381D01*
X152326616Y-75865679D01*
X152316332Y-75866399D01*
X152097693Y-75899855D01*
X152087666Y-75902244D01*
X151877426Y-75970961D01*
X151867916Y-75974958D01*
X151671725Y-76077089D01*
X151663007Y-76082578D01*
X151633961Y-76104386D01*
X151625508Y-76115711D01*
X138715046Y-76115711D01*
X138716011Y-76113944D01*
X138708237Y-76103274D01*
X138705902Y-76101430D01*
X138697320Y-76095729D01*
X138503678Y-75988833D01*
X138494272Y-75984606D01*
X138285772Y-75910772D01*
X138275809Y-75908140D01*
X138058047Y-75869350D01*
X138047796Y-75868381D01*
X137826616Y-75865679D01*
X137816332Y-75866399D01*
X137597693Y-75899855D01*
X137587666Y-75902244D01*
X137377426Y-75970961D01*
X137367916Y-75974958D01*
X137171725Y-76077089D01*
X137163007Y-76082578D01*
X137133961Y-76104386D01*
X137125508Y-76115711D01*
X135893503Y-76115711D01*
X135957885Y-75997135D01*
X136019554Y-75883555D01*
X136019555Y-75883553D01*
X136021604Y-75879779D01*
X136123225Y-75610848D01*
X136187407Y-75330613D01*
X136201675Y-75170748D01*
X136212743Y-75046726D01*
X136212743Y-75046724D01*
X136212963Y-75044260D01*
X136213427Y-75000000D01*
X136211918Y-74977869D01*
X154186689Y-74977869D01*
X154203238Y-75264883D01*
X154204063Y-75269088D01*
X154204064Y-75269096D01*
X154236010Y-75431921D01*
X154258586Y-75546995D01*
X154259973Y-75551045D01*
X154259974Y-75551050D01*
X154335557Y-75771807D01*
X154351710Y-75818986D01*
X154380265Y-75875761D01*
X154441310Y-75997135D01*
X154480885Y-76075822D01*
X154643721Y-76312750D01*
X154646608Y-76315923D01*
X154646609Y-76315924D01*
X154834316Y-76522212D01*
X154837206Y-76525388D01*
X154840501Y-76528143D01*
X154840502Y-76528144D01*
X154891258Y-76570582D01*
X155057759Y-76709798D01*
X155301298Y-76862571D01*
X155563318Y-76980877D01*
X155567437Y-76982097D01*
X155834857Y-77061311D01*
X155834862Y-77061312D01*
X155838970Y-77062529D01*
X155843204Y-77063177D01*
X155843209Y-77063178D01*
X156091811Y-77101219D01*
X156123153Y-77106015D01*
X156269485Y-77108314D01*
X156406317Y-77110464D01*
X156406323Y-77110464D01*
X156410608Y-77110531D01*
X156414860Y-77110016D01*
X156414868Y-77110016D01*
X156691756Y-77076508D01*
X156691761Y-77076507D01*
X156696017Y-77075992D01*
X156974097Y-77003039D01*
X157239704Y-76893021D01*
X157487922Y-76747974D01*
X157714159Y-76570582D01*
X157755285Y-76528144D01*
X157911244Y-76367206D01*
X157914227Y-76364128D01*
X157916760Y-76360680D01*
X157916764Y-76360675D01*
X158081887Y-76135886D01*
X158084425Y-76132431D01*
X158157885Y-75997135D01*
X158219554Y-75883555D01*
X158219555Y-75883553D01*
X158221604Y-75879779D01*
X158323225Y-75610848D01*
X158387407Y-75330613D01*
X158401675Y-75170748D01*
X158412743Y-75046726D01*
X158412743Y-75046724D01*
X158412963Y-75044260D01*
X158413427Y-75000000D01*
X158393873Y-74713175D01*
X158389336Y-74691264D01*
X158336443Y-74435855D01*
X158335574Y-74431658D01*
X158239607Y-74160657D01*
X158107750Y-73905188D01*
X158094488Y-73886317D01*
X157986565Y-73732759D01*
X157942441Y-73669977D01*
X157815966Y-73533874D01*
X157749661Y-73462521D01*
X157749658Y-73462519D01*
X157746740Y-73459378D01*
X157524268Y-73277287D01*
X157279142Y-73127073D01*
X157261048Y-73119130D01*
X157019830Y-73013243D01*
X157015898Y-73011517D01*
X157000814Y-73007220D01*
X156743534Y-72933932D01*
X156743535Y-72933932D01*
X156739406Y-72932756D01*
X156526704Y-72902485D01*
X156459036Y-72892854D01*
X156459034Y-72892854D01*
X156454784Y-72892249D01*
X156450495Y-72892227D01*
X156450488Y-72892226D01*
X156171583Y-72890765D01*
X156171576Y-72890765D01*
X156167297Y-72890743D01*
X156163053Y-72891302D01*
X156163049Y-72891302D01*
X156037660Y-72907810D01*
X155882266Y-72928268D01*
X155878126Y-72929401D01*
X155878124Y-72929401D01*
X155801311Y-72950415D01*
X155604964Y-73004129D01*
X155601016Y-73005813D01*
X155344476Y-73115237D01*
X155344472Y-73115239D01*
X155340524Y-73116923D01*
X155215960Y-73191473D01*
X155097521Y-73262357D01*
X155097517Y-73262360D01*
X155093839Y-73264561D01*
X154869472Y-73444313D01*
X154671577Y-73652851D01*
X154503814Y-73886317D01*
X154369288Y-74140392D01*
X154270489Y-74410373D01*
X154209245Y-74691264D01*
X154208909Y-74695534D01*
X154187196Y-74971428D01*
X154187195Y-74971428D01*
X154187196Y-74971430D01*
X154186689Y-74977869D01*
X136211918Y-74977869D01*
X136193873Y-74713175D01*
X136189336Y-74691264D01*
X136136443Y-74435855D01*
X136135574Y-74431658D01*
X136039607Y-74160657D01*
X135907750Y-73905188D01*
X135894488Y-73886317D01*
X135786565Y-73732759D01*
X135742441Y-73669977D01*
X135618319Y-73536406D01*
X136523423Y-73536406D01*
X136528704Y-73543461D01*
X136705080Y-73646527D01*
X136714363Y-73650974D01*
X136921003Y-73729883D01*
X136930901Y-73732759D01*
X137147653Y-73776857D01*
X137157883Y-73778076D01*
X137378914Y-73786182D01*
X137389223Y-73785714D01*
X137608623Y-73757608D01*
X137618688Y-73755468D01*
X137830557Y-73691905D01*
X137840152Y-73688144D01*
X138038778Y-73590838D01*
X138047636Y-73585559D01*
X138105097Y-73544572D01*
X138111509Y-73536406D01*
X152223423Y-73536406D01*
X152228704Y-73543461D01*
X152405080Y-73646527D01*
X152414363Y-73650974D01*
X152621003Y-73729883D01*
X152630901Y-73732759D01*
X152847653Y-73776857D01*
X152857883Y-73778076D01*
X153078914Y-73786182D01*
X153089223Y-73785714D01*
X153308623Y-73757608D01*
X153318688Y-73755468D01*
X153530557Y-73691905D01*
X153540152Y-73688144D01*
X153738778Y-73590838D01*
X153747636Y-73585559D01*
X153805097Y-73544572D01*
X153813497Y-73533874D01*
X153806510Y-73520721D01*
X153032811Y-72747021D01*
X153018868Y-72739408D01*
X153017034Y-72739539D01*
X153010420Y-72743790D01*
X152230180Y-73524031D01*
X152223423Y-73536406D01*
X138111509Y-73536406D01*
X138113497Y-73533874D01*
X138106510Y-73520721D01*
X137332811Y-72747021D01*
X137318868Y-72739408D01*
X137317034Y-72739539D01*
X137310420Y-72743790D01*
X136530180Y-73524031D01*
X136523423Y-73536406D01*
X135618319Y-73536406D01*
X135615966Y-73533874D01*
X135549661Y-73462521D01*
X135549658Y-73462519D01*
X135546740Y-73459378D01*
X135324268Y-73277287D01*
X135079142Y-73127073D01*
X135061048Y-73119130D01*
X134819830Y-73013243D01*
X134815898Y-73011517D01*
X134800814Y-73007220D01*
X134543534Y-72933932D01*
X134543535Y-72933932D01*
X134539406Y-72932756D01*
X134326704Y-72902485D01*
X134259036Y-72892854D01*
X134259034Y-72892854D01*
X134254784Y-72892249D01*
X134250495Y-72892227D01*
X134250488Y-72892226D01*
X133971583Y-72890765D01*
X133971576Y-72890765D01*
X133967297Y-72890743D01*
X133963053Y-72891302D01*
X133963049Y-72891302D01*
X133837660Y-72907810D01*
X133682266Y-72928268D01*
X133678126Y-72929401D01*
X133678124Y-72929401D01*
X133601311Y-72950415D01*
X133404964Y-73004129D01*
X133401016Y-73005813D01*
X133144476Y-73115237D01*
X133144472Y-73115239D01*
X133140524Y-73116923D01*
X133015960Y-73191473D01*
X132897521Y-73262357D01*
X132897517Y-73262360D01*
X132893839Y-73264561D01*
X132669472Y-73444313D01*
X132471577Y-73652851D01*
X132303814Y-73886317D01*
X132169288Y-74140392D01*
X132070489Y-74410373D01*
X132009245Y-74691264D01*
X132008909Y-74695534D01*
X131987196Y-74971428D01*
X131987195Y-74971428D01*
X131987196Y-74971430D01*
X131986689Y-74977869D01*
X131408500Y-74977869D01*
X131408500Y-71734500D01*
X131428502Y-71666379D01*
X131482158Y-71619886D01*
X131534500Y-71608500D01*
X135926019Y-71608500D01*
X135994140Y-71628502D01*
G37*
%TD.AperFunction*%
%TD*%
M02*
