M48
; DRILL file {KiCad (6.0.11)} date Mon Apr 24 21:00:36 2023
; FORMAT={-:-/ absolute / inch / decimal}
; #@! TF.CreationDate,2023-04-24T21:00:36-04:00
; #@! TF.GenerationSoftware,Kicad,Pcbnew,(6.0.11)
; #@! TF.FileFunction,Plated,1,2,PTH
FMAT,2
INCH
; #@! TA.AperFunction,Plated,PTH,ViaDrill
T1C0.0157
; #@! TA.AperFunction,Plated,PTH,ComponentDrill
T2C0.0236
; #@! TA.AperFunction,Plated,PTH,ComponentDrill
T3C0.0433
%
G90
G05
T1
X6.064Y-2.2146
X6.123Y-2.2136
X6.25Y-3.5738
X6.3091Y-2.2835
X6.3386Y-2.0315
X6.3848Y-1.751
X6.4173Y-1.751
X6.4173Y-2.2835
X6.4213Y-1.8898
X6.4567Y-1.8553
X6.4803Y-2.0217
X6.4833Y-2.1358
X6.5453Y-1.7116
X6.5541Y-2.1358
X6.6043Y-1.7116
X6.6388Y-1.8169
X6.6732Y-1.689
X6.6742Y-1.9262
X6.6742Y-1.9862
X6.7352Y-2.3622
X6.7352Y-2.4055
X6.7352Y-2.6909
X6.7352Y-2.7343
X6.7579Y-1.8553
X6.7579Y-1.8878
X6.7579Y-1.9203
X6.7579Y-1.9528
X6.7579Y-1.9852
X6.7579Y-2.0177
X6.7579Y-2.0502
X6.7579Y-2.0827
X6.7608Y-1.7037
X6.7785Y-2.3622
X6.7785Y-2.4055
X6.7785Y-2.6909
X6.7785Y-2.7343
X6.8169Y-1.5453
X6.8435Y-1.8524
X6.8445Y-1.7037
X6.8445Y-1.9636
X6.8602Y-1.5443
X6.8819Y-2.3622
X6.8819Y-2.4055
X6.8819Y-2.6909
X6.8819Y-2.7343
X6.8917Y-1.9035
X6.8927Y-2.0305
X6.9252Y-1.7037
X6.9252Y-2.3622
X6.9252Y-2.4055
X6.9252Y-2.6909
X6.9252Y-2.7343
X7.0285Y-2.3622
X7.0285Y-2.4055
X7.0285Y-2.6909
X7.0285Y-2.7343
X7.0719Y-1.8563
X7.0719Y-2.3622
X7.0719Y-2.4055
X7.0719Y-2.6909
X7.0719Y-2.7343
X7.0728Y-1.9154
X7.0876Y-2.0738
T3
X5.3169Y-3.2894
X5.3169Y-3.5453
X5.4941Y-3.2894
X5.4941Y-3.5453
X7.1683Y-3.2884
X7.1683Y-3.5443
X7.1693Y-1.7589
X7.1693Y-2.0148
X7.3455Y-3.2884
X7.3455Y-3.5443
X7.3465Y-1.7589
X7.3465Y-2.0148
T2
G00X6.6833Y-1.4588
M15
G01X6.6833Y-1.4115
M16
G05
G00X6.6833Y-1.6084
M15
G01X6.6833Y-1.5769
M16
G05
G00X7.0234Y-1.4588
M15
G01X7.0234Y-1.4115
M16
G05
G00X7.0234Y-1.6084
M15
G01X7.0234Y-1.5769
M16
G05
T0
M30
