%TF.GenerationSoftware,KiCad,Pcbnew,(6.0.11)*%
%TF.CreationDate,2023-04-24T21:00:32-04:00*%
%TF.ProjectId,GC Nano Top,4743204e-616e-46f2-9054-6f702e6b6963,rev?*%
%TF.SameCoordinates,Original*%
%TF.FileFunction,Legend,Top*%
%TF.FilePolarity,Positive*%
%FSLAX46Y46*%
G04 Gerber Fmt 4.6, Leading zero omitted, Abs format (unit mm)*
G04 Created by KiCad (PCBNEW (6.0.11)) date 2023-04-24 21:00:32*
%MOMM*%
%LPD*%
G01*
G04 APERTURE LIST*
%ADD10C,0.100000*%
%ADD11C,0.150000*%
%ADD12C,0.120000*%
%ADD13C,0.152400*%
%ADD14C,0.160499*%
%ADD15C,0.200000*%
%ADD16C,0.240000*%
G04 APERTURE END LIST*
D10*
X133450000Y-70525000D02*
X188200000Y-70525000D01*
D11*
X146485714Y-64100000D02*
X146390476Y-64052380D01*
X146247619Y-64052380D01*
X146104761Y-64100000D01*
X146009523Y-64195238D01*
X145961904Y-64290476D01*
X145914285Y-64480952D01*
X145914285Y-64623809D01*
X145961904Y-64814285D01*
X146009523Y-64909523D01*
X146104761Y-65004761D01*
X146247619Y-65052380D01*
X146342857Y-65052380D01*
X146485714Y-65004761D01*
X146533333Y-64957142D01*
X146533333Y-64623809D01*
X146342857Y-64623809D01*
X147533333Y-64957142D02*
X147485714Y-65004761D01*
X147342857Y-65052380D01*
X147247619Y-65052380D01*
X147104761Y-65004761D01*
X147009523Y-64909523D01*
X146961904Y-64814285D01*
X146914285Y-64623809D01*
X146914285Y-64480952D01*
X146961904Y-64290476D01*
X147009523Y-64195238D01*
X147104761Y-64100000D01*
X147247619Y-64052380D01*
X147342857Y-64052380D01*
X147485714Y-64100000D01*
X147533333Y-64147619D01*
X148723809Y-65052380D02*
X148723809Y-64052380D01*
X149295238Y-65052380D01*
X149295238Y-64052380D01*
X150200000Y-65052380D02*
X150200000Y-64528571D01*
X150152380Y-64433333D01*
X150057142Y-64385714D01*
X149866666Y-64385714D01*
X149771428Y-64433333D01*
X150200000Y-65004761D02*
X150104761Y-65052380D01*
X149866666Y-65052380D01*
X149771428Y-65004761D01*
X149723809Y-64909523D01*
X149723809Y-64814285D01*
X149771428Y-64719047D01*
X149866666Y-64671428D01*
X150104761Y-64671428D01*
X150200000Y-64623809D01*
X150676190Y-64385714D02*
X150676190Y-65052380D01*
X150676190Y-64480952D02*
X150723809Y-64433333D01*
X150819047Y-64385714D01*
X150961904Y-64385714D01*
X151057142Y-64433333D01*
X151104761Y-64528571D01*
X151104761Y-65052380D01*
X151723809Y-65052380D02*
X151628571Y-65004761D01*
X151580952Y-64957142D01*
X151533333Y-64861904D01*
X151533333Y-64576190D01*
X151580952Y-64480952D01*
X151628571Y-64433333D01*
X151723809Y-64385714D01*
X151866666Y-64385714D01*
X151961904Y-64433333D01*
X152009523Y-64480952D01*
X152057142Y-64576190D01*
X152057142Y-64861904D01*
X152009523Y-64957142D01*
X151961904Y-65004761D01*
X151866666Y-65052380D01*
X151723809Y-65052380D01*
X153104761Y-64052380D02*
X153676190Y-64052380D01*
X153390476Y-65052380D02*
X153390476Y-64052380D01*
X154152380Y-65052380D02*
X154057142Y-65004761D01*
X154009523Y-64957142D01*
X153961904Y-64861904D01*
X153961904Y-64576190D01*
X154009523Y-64480952D01*
X154057142Y-64433333D01*
X154152380Y-64385714D01*
X154295238Y-64385714D01*
X154390476Y-64433333D01*
X154438095Y-64480952D01*
X154485714Y-64576190D01*
X154485714Y-64861904D01*
X154438095Y-64957142D01*
X154390476Y-65004761D01*
X154295238Y-65052380D01*
X154152380Y-65052380D01*
X154914285Y-64385714D02*
X154914285Y-65385714D01*
X154914285Y-64433333D02*
X155009523Y-64385714D01*
X155200000Y-64385714D01*
X155295238Y-64433333D01*
X155342857Y-64480952D01*
X155390476Y-64576190D01*
X155390476Y-64861904D01*
X155342857Y-64957142D01*
X155295238Y-65004761D01*
X155200000Y-65052380D01*
X155009523Y-65052380D01*
X154914285Y-65004761D01*
X156914285Y-64528571D02*
X157057142Y-64576190D01*
X157104761Y-64623809D01*
X157152380Y-64719047D01*
X157152380Y-64861904D01*
X157104761Y-64957142D01*
X157057142Y-65004761D01*
X156961904Y-65052380D01*
X156580952Y-65052380D01*
X156580952Y-64052380D01*
X156914285Y-64052380D01*
X157009523Y-64100000D01*
X157057142Y-64147619D01*
X157104761Y-64242857D01*
X157104761Y-64338095D01*
X157057142Y-64433333D01*
X157009523Y-64480952D01*
X156914285Y-64528571D01*
X156580952Y-64528571D01*
X157723809Y-65052380D02*
X157628571Y-65004761D01*
X157580952Y-64957142D01*
X157533333Y-64861904D01*
X157533333Y-64576190D01*
X157580952Y-64480952D01*
X157628571Y-64433333D01*
X157723809Y-64385714D01*
X157866666Y-64385714D01*
X157961904Y-64433333D01*
X158009523Y-64480952D01*
X158057142Y-64576190D01*
X158057142Y-64861904D01*
X158009523Y-64957142D01*
X157961904Y-65004761D01*
X157866666Y-65052380D01*
X157723809Y-65052380D01*
X158914285Y-65052380D02*
X158914285Y-64528571D01*
X158866666Y-64433333D01*
X158771428Y-64385714D01*
X158580952Y-64385714D01*
X158485714Y-64433333D01*
X158914285Y-65004761D02*
X158819047Y-65052380D01*
X158580952Y-65052380D01*
X158485714Y-65004761D01*
X158438095Y-64909523D01*
X158438095Y-64814285D01*
X158485714Y-64719047D01*
X158580952Y-64671428D01*
X158819047Y-64671428D01*
X158914285Y-64623809D01*
X159390476Y-65052380D02*
X159390476Y-64385714D01*
X159390476Y-64576190D02*
X159438095Y-64480952D01*
X159485714Y-64433333D01*
X159580952Y-64385714D01*
X159676190Y-64385714D01*
X160438095Y-65052380D02*
X160438095Y-64052380D01*
X160438095Y-65004761D02*
X160342857Y-65052380D01*
X160152380Y-65052380D01*
X160057142Y-65004761D01*
X160009523Y-64957142D01*
X159961904Y-64861904D01*
X159961904Y-64576190D01*
X160009523Y-64480952D01*
X160057142Y-64433333D01*
X160152380Y-64385714D01*
X160342857Y-64385714D01*
X160438095Y-64433333D01*
X151485714Y-67547619D02*
X151533333Y-67500000D01*
X151628571Y-67452380D01*
X151866666Y-67452380D01*
X151961904Y-67500000D01*
X152009523Y-67547619D01*
X152057142Y-67642857D01*
X152057142Y-67738095D01*
X152009523Y-67880952D01*
X151438095Y-68452380D01*
X152057142Y-68452380D01*
X152676190Y-67452380D02*
X152771428Y-67452380D01*
X152866666Y-67500000D01*
X152914285Y-67547619D01*
X152961904Y-67642857D01*
X153009523Y-67833333D01*
X153009523Y-68071428D01*
X152961904Y-68261904D01*
X152914285Y-68357142D01*
X152866666Y-68404761D01*
X152771428Y-68452380D01*
X152676190Y-68452380D01*
X152580952Y-68404761D01*
X152533333Y-68357142D01*
X152485714Y-68261904D01*
X152438095Y-68071428D01*
X152438095Y-67833333D01*
X152485714Y-67642857D01*
X152533333Y-67547619D01*
X152580952Y-67500000D01*
X152676190Y-67452380D01*
X153390476Y-67547619D02*
X153438095Y-67500000D01*
X153533333Y-67452380D01*
X153771428Y-67452380D01*
X153866666Y-67500000D01*
X153914285Y-67547619D01*
X153961904Y-67642857D01*
X153961904Y-67738095D01*
X153914285Y-67880952D01*
X153342857Y-68452380D01*
X153961904Y-68452380D01*
X154295238Y-67452380D02*
X154914285Y-67452380D01*
X154580952Y-67833333D01*
X154723809Y-67833333D01*
X154819047Y-67880952D01*
X154866666Y-67928571D01*
X154914285Y-68023809D01*
X154914285Y-68261904D01*
X154866666Y-68357142D01*
X154819047Y-68404761D01*
X154723809Y-68452380D01*
X154438095Y-68452380D01*
X154342857Y-68404761D01*
X154295238Y-68357142D01*
X146200000Y-66557142D02*
X146152380Y-66604761D01*
X146009523Y-66652380D01*
X145914285Y-66652380D01*
X145771428Y-66604761D01*
X145676190Y-66509523D01*
X145628571Y-66414285D01*
X145580952Y-66223809D01*
X145580952Y-66080952D01*
X145628571Y-65890476D01*
X145676190Y-65795238D01*
X145771428Y-65700000D01*
X145914285Y-65652380D01*
X146009523Y-65652380D01*
X146152380Y-65700000D01*
X146200000Y-65747619D01*
X146628571Y-66652380D02*
X146628571Y-65985714D01*
X146628571Y-66176190D02*
X146676190Y-66080952D01*
X146723809Y-66033333D01*
X146819047Y-65985714D01*
X146914285Y-65985714D01*
X147676190Y-66652380D02*
X147676190Y-66128571D01*
X147628571Y-66033333D01*
X147533333Y-65985714D01*
X147342857Y-65985714D01*
X147247619Y-66033333D01*
X147676190Y-66604761D02*
X147580952Y-66652380D01*
X147342857Y-66652380D01*
X147247619Y-66604761D01*
X147200000Y-66509523D01*
X147200000Y-66414285D01*
X147247619Y-66319047D01*
X147342857Y-66271428D01*
X147580952Y-66271428D01*
X147676190Y-66223809D01*
X148057142Y-65985714D02*
X148580952Y-65985714D01*
X148057142Y-66652380D01*
X148580952Y-66652380D01*
X148866666Y-65985714D02*
X149104761Y-66652380D01*
X149342857Y-65985714D02*
X149104761Y-66652380D01*
X149009523Y-66890476D01*
X148961904Y-66938095D01*
X148866666Y-66985714D01*
X150247619Y-65700000D02*
X150152380Y-65652380D01*
X150009523Y-65652380D01*
X149866666Y-65700000D01*
X149771428Y-65795238D01*
X149723809Y-65890476D01*
X149676190Y-66080952D01*
X149676190Y-66223809D01*
X149723809Y-66414285D01*
X149771428Y-66509523D01*
X149866666Y-66604761D01*
X150009523Y-66652380D01*
X150104761Y-66652380D01*
X150247619Y-66604761D01*
X150295238Y-66557142D01*
X150295238Y-66223809D01*
X150104761Y-66223809D01*
X151152380Y-66652380D02*
X151152380Y-66128571D01*
X151104761Y-66033333D01*
X151009523Y-65985714D01*
X150819047Y-65985714D01*
X150723809Y-66033333D01*
X151152380Y-66604761D02*
X151057142Y-66652380D01*
X150819047Y-66652380D01*
X150723809Y-66604761D01*
X150676190Y-66509523D01*
X150676190Y-66414285D01*
X150723809Y-66319047D01*
X150819047Y-66271428D01*
X151057142Y-66271428D01*
X151152380Y-66223809D01*
X152057142Y-66652380D02*
X152057142Y-65652380D01*
X152057142Y-66604761D02*
X151961904Y-66652380D01*
X151771428Y-66652380D01*
X151676190Y-66604761D01*
X151628571Y-66557142D01*
X151580952Y-66461904D01*
X151580952Y-66176190D01*
X151628571Y-66080952D01*
X151676190Y-66033333D01*
X151771428Y-65985714D01*
X151961904Y-65985714D01*
X152057142Y-66033333D01*
X152961904Y-65985714D02*
X152961904Y-66795238D01*
X152914285Y-66890476D01*
X152866666Y-66938095D01*
X152771428Y-66985714D01*
X152628571Y-66985714D01*
X152533333Y-66938095D01*
X152961904Y-66604761D02*
X152866666Y-66652380D01*
X152676190Y-66652380D01*
X152580952Y-66604761D01*
X152533333Y-66557142D01*
X152485714Y-66461904D01*
X152485714Y-66176190D01*
X152533333Y-66080952D01*
X152580952Y-66033333D01*
X152676190Y-65985714D01*
X152866666Y-65985714D01*
X152961904Y-66033333D01*
X153819047Y-66604761D02*
X153723809Y-66652380D01*
X153533333Y-66652380D01*
X153438095Y-66604761D01*
X153390476Y-66509523D01*
X153390476Y-66128571D01*
X153438095Y-66033333D01*
X153533333Y-65985714D01*
X153723809Y-65985714D01*
X153819047Y-66033333D01*
X153866666Y-66128571D01*
X153866666Y-66223809D01*
X153390476Y-66319047D01*
X154152380Y-65985714D02*
X154533333Y-65985714D01*
X154295238Y-65652380D02*
X154295238Y-66509523D01*
X154342857Y-66604761D01*
X154438095Y-66652380D01*
X154533333Y-66652380D01*
X156438095Y-66652380D02*
X156390476Y-66652380D01*
X156295238Y-66604761D01*
X156152380Y-66461904D01*
X155914285Y-66176190D01*
X155819047Y-66033333D01*
X155771428Y-65890476D01*
X155771428Y-65795238D01*
X155819047Y-65700000D01*
X155914285Y-65652380D01*
X155961904Y-65652380D01*
X156057142Y-65700000D01*
X156104761Y-65795238D01*
X156104761Y-65842857D01*
X156057142Y-65938095D01*
X156009523Y-65985714D01*
X155723809Y-66176190D01*
X155676190Y-66223809D01*
X155628571Y-66319047D01*
X155628571Y-66461904D01*
X155676190Y-66557142D01*
X155723809Y-66604761D01*
X155819047Y-66652380D01*
X155961904Y-66652380D01*
X156057142Y-66604761D01*
X156104761Y-66557142D01*
X156247619Y-66366666D01*
X156295238Y-66223809D01*
X156295238Y-66128571D01*
X157533333Y-65652380D02*
X157771428Y-66652380D01*
X157961904Y-65938095D01*
X158152380Y-66652380D01*
X158390476Y-65652380D01*
X159152380Y-66604761D02*
X159057142Y-66652380D01*
X158866666Y-66652380D01*
X158771428Y-66604761D01*
X158723809Y-66509523D01*
X158723809Y-66128571D01*
X158771428Y-66033333D01*
X158866666Y-65985714D01*
X159057142Y-65985714D01*
X159152380Y-66033333D01*
X159200000Y-66128571D01*
X159200000Y-66223809D01*
X158723809Y-66319047D01*
X159580952Y-66604761D02*
X159676190Y-66652380D01*
X159866666Y-66652380D01*
X159961904Y-66604761D01*
X160009523Y-66509523D01*
X160009523Y-66461904D01*
X159961904Y-66366666D01*
X159866666Y-66319047D01*
X159723809Y-66319047D01*
X159628571Y-66271428D01*
X159580952Y-66176190D01*
X159580952Y-66128571D01*
X159628571Y-66033333D01*
X159723809Y-65985714D01*
X159866666Y-65985714D01*
X159961904Y-66033333D01*
X160438095Y-66652380D02*
X160438095Y-65652380D01*
X160533333Y-66271428D02*
X160819047Y-66652380D01*
X160819047Y-65985714D02*
X160438095Y-66366666D01*
%TO.C,C8*%
X144433333Y-60057142D02*
X144385714Y-60104761D01*
X144242857Y-60152380D01*
X144147619Y-60152380D01*
X144004761Y-60104761D01*
X143909523Y-60009523D01*
X143861904Y-59914285D01*
X143814285Y-59723809D01*
X143814285Y-59580952D01*
X143861904Y-59390476D01*
X143909523Y-59295238D01*
X144004761Y-59200000D01*
X144147619Y-59152380D01*
X144242857Y-59152380D01*
X144385714Y-59200000D01*
X144433333Y-59247619D01*
X145004761Y-59580952D02*
X144909523Y-59533333D01*
X144861904Y-59485714D01*
X144814285Y-59390476D01*
X144814285Y-59342857D01*
X144861904Y-59247619D01*
X144909523Y-59200000D01*
X145004761Y-59152380D01*
X145195238Y-59152380D01*
X145290476Y-59200000D01*
X145338095Y-59247619D01*
X145385714Y-59342857D01*
X145385714Y-59390476D01*
X145338095Y-59485714D01*
X145290476Y-59533333D01*
X145195238Y-59580952D01*
X145004761Y-59580952D01*
X144909523Y-59628571D01*
X144861904Y-59676190D01*
X144814285Y-59771428D01*
X144814285Y-59961904D01*
X144861904Y-60057142D01*
X144909523Y-60104761D01*
X145004761Y-60152380D01*
X145195238Y-60152380D01*
X145290476Y-60104761D01*
X145338095Y-60057142D01*
X145385714Y-59961904D01*
X145385714Y-59771428D01*
X145338095Y-59676190D01*
X145290476Y-59628571D01*
X145195238Y-59580952D01*
%TO.C,C4*%
X179933333Y-49032142D02*
X179885714Y-49079761D01*
X179742857Y-49127380D01*
X179647619Y-49127380D01*
X179504761Y-49079761D01*
X179409523Y-48984523D01*
X179361904Y-48889285D01*
X179314285Y-48698809D01*
X179314285Y-48555952D01*
X179361904Y-48365476D01*
X179409523Y-48270238D01*
X179504761Y-48175000D01*
X179647619Y-48127380D01*
X179742857Y-48127380D01*
X179885714Y-48175000D01*
X179933333Y-48222619D01*
X180790476Y-48460714D02*
X180790476Y-49127380D01*
X180552380Y-48079761D02*
X180314285Y-48794047D01*
X180933333Y-48794047D01*
%TO.C,GND*%
X178313095Y-58052000D02*
X178217857Y-58004380D01*
X178075000Y-58004380D01*
X177932142Y-58052000D01*
X177836904Y-58147238D01*
X177789285Y-58242476D01*
X177741666Y-58432952D01*
X177741666Y-58575809D01*
X177789285Y-58766285D01*
X177836904Y-58861523D01*
X177932142Y-58956761D01*
X178075000Y-59004380D01*
X178170238Y-59004380D01*
X178313095Y-58956761D01*
X178360714Y-58909142D01*
X178360714Y-58575809D01*
X178170238Y-58575809D01*
X178789285Y-59004380D02*
X178789285Y-58004380D01*
X179360714Y-59004380D01*
X179360714Y-58004380D01*
X179836904Y-59004380D02*
X179836904Y-58004380D01*
X180075000Y-58004380D01*
X180217857Y-58052000D01*
X180313095Y-58147238D01*
X180360714Y-58242476D01*
X180408333Y-58432952D01*
X180408333Y-58575809D01*
X180360714Y-58766285D01*
X180313095Y-58861523D01*
X180217857Y-58956761D01*
X180075000Y-59004380D01*
X179836904Y-59004380D01*
%TO.C,C5*%
X169833333Y-49282142D02*
X169785714Y-49329761D01*
X169642857Y-49377380D01*
X169547619Y-49377380D01*
X169404761Y-49329761D01*
X169309523Y-49234523D01*
X169261904Y-49139285D01*
X169214285Y-48948809D01*
X169214285Y-48805952D01*
X169261904Y-48615476D01*
X169309523Y-48520238D01*
X169404761Y-48425000D01*
X169547619Y-48377380D01*
X169642857Y-48377380D01*
X169785714Y-48425000D01*
X169833333Y-48472619D01*
X170738095Y-48377380D02*
X170261904Y-48377380D01*
X170214285Y-48853571D01*
X170261904Y-48805952D01*
X170357142Y-48758333D01*
X170595238Y-48758333D01*
X170690476Y-48805952D01*
X170738095Y-48853571D01*
X170785714Y-48948809D01*
X170785714Y-49186904D01*
X170738095Y-49282142D01*
X170690476Y-49329761D01*
X170595238Y-49377380D01*
X170357142Y-49377380D01*
X170261904Y-49329761D01*
X170214285Y-49282142D01*
%TO.C,R3*%
X160827380Y-53666666D02*
X160351190Y-54000000D01*
X160827380Y-54238095D02*
X159827380Y-54238095D01*
X159827380Y-53857142D01*
X159875000Y-53761904D01*
X159922619Y-53714285D01*
X160017857Y-53666666D01*
X160160714Y-53666666D01*
X160255952Y-53714285D01*
X160303571Y-53761904D01*
X160351190Y-53857142D01*
X160351190Y-54238095D01*
X159827380Y-53333333D02*
X159827380Y-52714285D01*
X160208333Y-53047619D01*
X160208333Y-52904761D01*
X160255952Y-52809523D01*
X160303571Y-52761904D01*
X160398809Y-52714285D01*
X160636904Y-52714285D01*
X160732142Y-52761904D01*
X160779761Y-52809523D01*
X160827380Y-52904761D01*
X160827380Y-53190476D01*
X160779761Y-53285714D01*
X160732142Y-53333333D01*
%TO.C,C3*%
X161983333Y-49282142D02*
X161935714Y-49329761D01*
X161792857Y-49377380D01*
X161697619Y-49377380D01*
X161554761Y-49329761D01*
X161459523Y-49234523D01*
X161411904Y-49139285D01*
X161364285Y-48948809D01*
X161364285Y-48805952D01*
X161411904Y-48615476D01*
X161459523Y-48520238D01*
X161554761Y-48425000D01*
X161697619Y-48377380D01*
X161792857Y-48377380D01*
X161935714Y-48425000D01*
X161983333Y-48472619D01*
X162316666Y-48377380D02*
X162935714Y-48377380D01*
X162602380Y-48758333D01*
X162745238Y-48758333D01*
X162840476Y-48805952D01*
X162888095Y-48853571D01*
X162935714Y-48948809D01*
X162935714Y-49186904D01*
X162888095Y-49282142D01*
X162840476Y-49329761D01*
X162745238Y-49377380D01*
X162459523Y-49377380D01*
X162364285Y-49329761D01*
X162316666Y-49282142D01*
%TO.C,Sync*%
X133852380Y-66804761D02*
X133995238Y-66852380D01*
X134233333Y-66852380D01*
X134328571Y-66804761D01*
X134376190Y-66757142D01*
X134423809Y-66661904D01*
X134423809Y-66566666D01*
X134376190Y-66471428D01*
X134328571Y-66423809D01*
X134233333Y-66376190D01*
X134042857Y-66328571D01*
X133947619Y-66280952D01*
X133900000Y-66233333D01*
X133852380Y-66138095D01*
X133852380Y-66042857D01*
X133900000Y-65947619D01*
X133947619Y-65900000D01*
X134042857Y-65852380D01*
X134280952Y-65852380D01*
X134423809Y-65900000D01*
X134757142Y-66185714D02*
X134995238Y-66852380D01*
X135233333Y-66185714D02*
X134995238Y-66852380D01*
X134900000Y-67090476D01*
X134852380Y-67138095D01*
X134757142Y-67185714D01*
X135614285Y-66185714D02*
X135614285Y-66852380D01*
X135614285Y-66280952D02*
X135661904Y-66233333D01*
X135757142Y-66185714D01*
X135900000Y-66185714D01*
X135995238Y-66233333D01*
X136042857Y-66328571D01*
X136042857Y-66852380D01*
X136947619Y-66804761D02*
X136852380Y-66852380D01*
X136661904Y-66852380D01*
X136566666Y-66804761D01*
X136519047Y-66757142D01*
X136471428Y-66661904D01*
X136471428Y-66376190D01*
X136519047Y-66280952D01*
X136566666Y-66233333D01*
X136661904Y-66185714D01*
X136852380Y-66185714D01*
X136947619Y-66233333D01*
%TO.C,R4*%
X176833333Y-46077380D02*
X176500000Y-45601190D01*
X176261904Y-46077380D02*
X176261904Y-45077380D01*
X176642857Y-45077380D01*
X176738095Y-45125000D01*
X176785714Y-45172619D01*
X176833333Y-45267857D01*
X176833333Y-45410714D01*
X176785714Y-45505952D01*
X176738095Y-45553571D01*
X176642857Y-45601190D01*
X176261904Y-45601190D01*
X177690476Y-45410714D02*
X177690476Y-46077380D01*
X177452380Y-45029761D02*
X177214285Y-45744047D01*
X177833333Y-45744047D01*
%TO.C,5V*%
X171434523Y-66354380D02*
X170958333Y-66354380D01*
X170910714Y-66830571D01*
X170958333Y-66782952D01*
X171053571Y-66735333D01*
X171291666Y-66735333D01*
X171386904Y-66782952D01*
X171434523Y-66830571D01*
X171482142Y-66925809D01*
X171482142Y-67163904D01*
X171434523Y-67259142D01*
X171386904Y-67306761D01*
X171291666Y-67354380D01*
X171053571Y-67354380D01*
X170958333Y-67306761D01*
X170910714Y-67259142D01*
X171767857Y-66354380D02*
X172101190Y-67354380D01*
X172434523Y-66354380D01*
%TO.C,D1*%
X162202380Y-60163095D02*
X161202380Y-60163095D01*
X161202380Y-59925000D01*
X161250000Y-59782142D01*
X161345238Y-59686904D01*
X161440476Y-59639285D01*
X161630952Y-59591666D01*
X161773809Y-59591666D01*
X161964285Y-59639285D01*
X162059523Y-59686904D01*
X162154761Y-59782142D01*
X162202380Y-59925000D01*
X162202380Y-60163095D01*
X162202380Y-58639285D02*
X162202380Y-59210714D01*
X162202380Y-58925000D02*
X161202380Y-58925000D01*
X161345238Y-59020238D01*
X161440476Y-59115476D01*
X161488095Y-59210714D01*
%TO.C,U1*%
X163277380Y-60636904D02*
X164086904Y-60636904D01*
X164182142Y-60589285D01*
X164229761Y-60541666D01*
X164277380Y-60446428D01*
X164277380Y-60255952D01*
X164229761Y-60160714D01*
X164182142Y-60113095D01*
X164086904Y-60065476D01*
X163277380Y-60065476D01*
X164277380Y-59065476D02*
X164277380Y-59636904D01*
X164277380Y-59351190D02*
X163277380Y-59351190D01*
X163420238Y-59446428D01*
X163515476Y-59541666D01*
X163563095Y-59636904D01*
%TO.C,C7*%
X144508333Y-61582142D02*
X144460714Y-61629761D01*
X144317857Y-61677380D01*
X144222619Y-61677380D01*
X144079761Y-61629761D01*
X143984523Y-61534523D01*
X143936904Y-61439285D01*
X143889285Y-61248809D01*
X143889285Y-61105952D01*
X143936904Y-60915476D01*
X143984523Y-60820238D01*
X144079761Y-60725000D01*
X144222619Y-60677380D01*
X144317857Y-60677380D01*
X144460714Y-60725000D01*
X144508333Y-60772619D01*
X144841666Y-60677380D02*
X145508333Y-60677380D01*
X145079761Y-61677380D01*
%TO.C,R1*%
X166702380Y-44091666D02*
X166226190Y-44425000D01*
X166702380Y-44663095D02*
X165702380Y-44663095D01*
X165702380Y-44282142D01*
X165750000Y-44186904D01*
X165797619Y-44139285D01*
X165892857Y-44091666D01*
X166035714Y-44091666D01*
X166130952Y-44139285D01*
X166178571Y-44186904D01*
X166226190Y-44282142D01*
X166226190Y-44663095D01*
X166702380Y-43139285D02*
X166702380Y-43710714D01*
X166702380Y-43425000D02*
X165702380Y-43425000D01*
X165845238Y-43520238D01*
X165940476Y-43615476D01*
X165988095Y-43710714D01*
%TO.C,3V3*%
X174111904Y-66354380D02*
X174730952Y-66354380D01*
X174397619Y-66735333D01*
X174540476Y-66735333D01*
X174635714Y-66782952D01*
X174683333Y-66830571D01*
X174730952Y-66925809D01*
X174730952Y-67163904D01*
X174683333Y-67259142D01*
X174635714Y-67306761D01*
X174540476Y-67354380D01*
X174254761Y-67354380D01*
X174159523Y-67306761D01*
X174111904Y-67259142D01*
X175016666Y-66354380D02*
X175350000Y-67354380D01*
X175683333Y-66354380D01*
X175921428Y-66354380D02*
X176540476Y-66354380D01*
X176207142Y-66735333D01*
X176350000Y-66735333D01*
X176445238Y-66782952D01*
X176492857Y-66830571D01*
X176540476Y-66925809D01*
X176540476Y-67163904D01*
X176492857Y-67259142D01*
X176445238Y-67306761D01*
X176350000Y-67354380D01*
X176064285Y-67354380D01*
X175969047Y-67306761D01*
X175921428Y-67259142D01*
%TO.C,U2*%
X174977380Y-53836904D02*
X175786904Y-53836904D01*
X175882142Y-53789285D01*
X175929761Y-53741666D01*
X175977380Y-53646428D01*
X175977380Y-53455952D01*
X175929761Y-53360714D01*
X175882142Y-53313095D01*
X175786904Y-53265476D01*
X174977380Y-53265476D01*
X175072619Y-52836904D02*
X175025000Y-52789285D01*
X174977380Y-52694047D01*
X174977380Y-52455952D01*
X175025000Y-52360714D01*
X175072619Y-52313095D01*
X175167857Y-52265476D01*
X175263095Y-52265476D01*
X175405952Y-52313095D01*
X175977380Y-52884523D01*
X175977380Y-52265476D01*
%TO.C,C2*%
X179908333Y-47432142D02*
X179860714Y-47479761D01*
X179717857Y-47527380D01*
X179622619Y-47527380D01*
X179479761Y-47479761D01*
X179384523Y-47384523D01*
X179336904Y-47289285D01*
X179289285Y-47098809D01*
X179289285Y-46955952D01*
X179336904Y-46765476D01*
X179384523Y-46670238D01*
X179479761Y-46575000D01*
X179622619Y-46527380D01*
X179717857Y-46527380D01*
X179860714Y-46575000D01*
X179908333Y-46622619D01*
X180289285Y-46622619D02*
X180336904Y-46575000D01*
X180432142Y-46527380D01*
X180670238Y-46527380D01*
X180765476Y-46575000D01*
X180813095Y-46622619D01*
X180860714Y-46717857D01*
X180860714Y-46813095D01*
X180813095Y-46955952D01*
X180241666Y-47527380D01*
X180860714Y-47527380D01*
%TO.C,J1*%
X167766666Y-35252380D02*
X167766666Y-35966666D01*
X167719047Y-36109523D01*
X167623809Y-36204761D01*
X167480952Y-36252380D01*
X167385714Y-36252380D01*
X168766666Y-36252380D02*
X168195238Y-36252380D01*
X168480952Y-36252380D02*
X168480952Y-35252380D01*
X168385714Y-35395238D01*
X168290476Y-35490476D01*
X168195238Y-35538095D01*
X179815001Y-40480580D02*
X179815001Y-40718676D01*
X179576905Y-40623438D02*
X179815001Y-40718676D01*
X180053096Y-40623438D01*
X179672143Y-40909152D02*
X179815001Y-40718676D01*
X179957858Y-40909152D01*
X179815001Y-41575819D02*
X179815001Y-41337723D01*
X180053096Y-41432961D02*
X179815001Y-41337723D01*
X179576905Y-41432961D01*
X179957858Y-41147247D02*
X179815001Y-41337723D01*
X179672143Y-41147247D01*
%TO.C,C1*%
X161983333Y-50857142D02*
X161935714Y-50904761D01*
X161792857Y-50952380D01*
X161697619Y-50952380D01*
X161554761Y-50904761D01*
X161459523Y-50809523D01*
X161411904Y-50714285D01*
X161364285Y-50523809D01*
X161364285Y-50380952D01*
X161411904Y-50190476D01*
X161459523Y-50095238D01*
X161554761Y-50000000D01*
X161697619Y-49952380D01*
X161792857Y-49952380D01*
X161935714Y-50000000D01*
X161983333Y-50047619D01*
X162935714Y-50952380D02*
X162364285Y-50952380D01*
X162650000Y-50952380D02*
X162650000Y-49952380D01*
X162554761Y-50095238D01*
X162459523Y-50190476D01*
X162364285Y-50238095D01*
%TO.C,5V*%
X171434523Y-58004380D02*
X170958333Y-58004380D01*
X170910714Y-58480571D01*
X170958333Y-58432952D01*
X171053571Y-58385333D01*
X171291666Y-58385333D01*
X171386904Y-58432952D01*
X171434523Y-58480571D01*
X171482142Y-58575809D01*
X171482142Y-58813904D01*
X171434523Y-58909142D01*
X171386904Y-58956761D01*
X171291666Y-59004380D01*
X171053571Y-59004380D01*
X170958333Y-58956761D01*
X170910714Y-58909142D01*
X171767857Y-58004380D02*
X172101190Y-59004380D01*
X172434523Y-58004380D01*
%TO.C,3V3*%
X174161904Y-58004380D02*
X174780952Y-58004380D01*
X174447619Y-58385333D01*
X174590476Y-58385333D01*
X174685714Y-58432952D01*
X174733333Y-58480571D01*
X174780952Y-58575809D01*
X174780952Y-58813904D01*
X174733333Y-58909142D01*
X174685714Y-58956761D01*
X174590476Y-59004380D01*
X174304761Y-59004380D01*
X174209523Y-58956761D01*
X174161904Y-58909142D01*
X175066666Y-58004380D02*
X175400000Y-59004380D01*
X175733333Y-58004380D01*
X175971428Y-58004380D02*
X176590476Y-58004380D01*
X176257142Y-58385333D01*
X176400000Y-58385333D01*
X176495238Y-58432952D01*
X176542857Y-58480571D01*
X176590476Y-58575809D01*
X176590476Y-58813904D01*
X176542857Y-58909142D01*
X176495238Y-58956761D01*
X176400000Y-59004380D01*
X176114285Y-59004380D01*
X176019047Y-58956761D01*
X175971428Y-58909142D01*
%TO.C,Reset*%
X184761904Y-67052380D02*
X184428571Y-66576190D01*
X184190476Y-67052380D02*
X184190476Y-66052380D01*
X184571428Y-66052380D01*
X184666666Y-66100000D01*
X184714285Y-66147619D01*
X184761904Y-66242857D01*
X184761904Y-66385714D01*
X184714285Y-66480952D01*
X184666666Y-66528571D01*
X184571428Y-66576190D01*
X184190476Y-66576190D01*
X185571428Y-67004761D02*
X185476190Y-67052380D01*
X185285714Y-67052380D01*
X185190476Y-67004761D01*
X185142857Y-66909523D01*
X185142857Y-66528571D01*
X185190476Y-66433333D01*
X185285714Y-66385714D01*
X185476190Y-66385714D01*
X185571428Y-66433333D01*
X185619047Y-66528571D01*
X185619047Y-66623809D01*
X185142857Y-66719047D01*
X186000000Y-67004761D02*
X186095238Y-67052380D01*
X186285714Y-67052380D01*
X186380952Y-67004761D01*
X186428571Y-66909523D01*
X186428571Y-66861904D01*
X186380952Y-66766666D01*
X186285714Y-66719047D01*
X186142857Y-66719047D01*
X186047619Y-66671428D01*
X186000000Y-66576190D01*
X186000000Y-66528571D01*
X186047619Y-66433333D01*
X186142857Y-66385714D01*
X186285714Y-66385714D01*
X186380952Y-66433333D01*
X187238095Y-67004761D02*
X187142857Y-67052380D01*
X186952380Y-67052380D01*
X186857142Y-67004761D01*
X186809523Y-66909523D01*
X186809523Y-66528571D01*
X186857142Y-66433333D01*
X186952380Y-66385714D01*
X187142857Y-66385714D01*
X187238095Y-66433333D01*
X187285714Y-66528571D01*
X187285714Y-66623809D01*
X186809523Y-66719047D01*
X187571428Y-66385714D02*
X187952380Y-66385714D01*
X187714285Y-66052380D02*
X187714285Y-66909523D01*
X187761904Y-67004761D01*
X187857142Y-67052380D01*
X187952380Y-67052380D01*
%TO.C,Q1*%
X171504761Y-44147619D02*
X171409523Y-44100000D01*
X171314285Y-44004761D01*
X171171428Y-43861904D01*
X171076190Y-43814285D01*
X170980952Y-43814285D01*
X171028571Y-44052380D02*
X170933333Y-44004761D01*
X170838095Y-43909523D01*
X170790476Y-43719047D01*
X170790476Y-43385714D01*
X170838095Y-43195238D01*
X170933333Y-43100000D01*
X171028571Y-43052380D01*
X171219047Y-43052380D01*
X171314285Y-43100000D01*
X171409523Y-43195238D01*
X171457142Y-43385714D01*
X171457142Y-43719047D01*
X171409523Y-43909523D01*
X171314285Y-44004761D01*
X171219047Y-44052380D01*
X171028571Y-44052380D01*
X172409523Y-44052380D02*
X171838095Y-44052380D01*
X172123809Y-44052380D02*
X172123809Y-43052380D01*
X172028571Y-43195238D01*
X171933333Y-43290476D01*
X171838095Y-43338095D01*
%TO.C,D+*%
X163244047Y-40402380D02*
X163244047Y-39402380D01*
X163482142Y-39402380D01*
X163625000Y-39450000D01*
X163720238Y-39545238D01*
X163767857Y-39640476D01*
X163815476Y-39830952D01*
X163815476Y-39973809D01*
X163767857Y-40164285D01*
X163720238Y-40259523D01*
X163625000Y-40354761D01*
X163482142Y-40402380D01*
X163244047Y-40402380D01*
X164244047Y-40021428D02*
X165005952Y-40021428D01*
X164625000Y-40402380D02*
X164625000Y-39640476D01*
%TO.C,GND*%
X178313095Y-66402000D02*
X178217857Y-66354380D01*
X178075000Y-66354380D01*
X177932142Y-66402000D01*
X177836904Y-66497238D01*
X177789285Y-66592476D01*
X177741666Y-66782952D01*
X177741666Y-66925809D01*
X177789285Y-67116285D01*
X177836904Y-67211523D01*
X177932142Y-67306761D01*
X178075000Y-67354380D01*
X178170238Y-67354380D01*
X178313095Y-67306761D01*
X178360714Y-67259142D01*
X178360714Y-66925809D01*
X178170238Y-66925809D01*
X178789285Y-67354380D02*
X178789285Y-66354380D01*
X179360714Y-67354380D01*
X179360714Y-66354380D01*
X179836904Y-67354380D02*
X179836904Y-66354380D01*
X180075000Y-66354380D01*
X180217857Y-66402000D01*
X180313095Y-66497238D01*
X180360714Y-66592476D01*
X180408333Y-66782952D01*
X180408333Y-66925809D01*
X180360714Y-67116285D01*
X180313095Y-67211523D01*
X180217857Y-67306761D01*
X180075000Y-67354380D01*
X179836904Y-67354380D01*
%TO.C,U3*%
X163538095Y-43877380D02*
X163538095Y-44686904D01*
X163585714Y-44782142D01*
X163633333Y-44829761D01*
X163728571Y-44877380D01*
X163919047Y-44877380D01*
X164014285Y-44829761D01*
X164061904Y-44782142D01*
X164109523Y-44686904D01*
X164109523Y-43877380D01*
X164490476Y-43877380D02*
X165109523Y-43877380D01*
X164776190Y-44258333D01*
X164919047Y-44258333D01*
X165014285Y-44305952D01*
X165061904Y-44353571D01*
X165109523Y-44448809D01*
X165109523Y-44686904D01*
X165061904Y-44782142D01*
X165014285Y-44829761D01*
X164919047Y-44877380D01*
X164633333Y-44877380D01*
X164538095Y-44829761D01*
X164490476Y-44782142D01*
%TO.C,R2*%
X168227380Y-44091666D02*
X167751190Y-44425000D01*
X168227380Y-44663095D02*
X167227380Y-44663095D01*
X167227380Y-44282142D01*
X167275000Y-44186904D01*
X167322619Y-44139285D01*
X167417857Y-44091666D01*
X167560714Y-44091666D01*
X167655952Y-44139285D01*
X167703571Y-44186904D01*
X167751190Y-44282142D01*
X167751190Y-44663095D01*
X167322619Y-43710714D02*
X167275000Y-43663095D01*
X167227380Y-43567857D01*
X167227380Y-43329761D01*
X167275000Y-43234523D01*
X167322619Y-43186904D01*
X167417857Y-43139285D01*
X167513095Y-43139285D01*
X167655952Y-43186904D01*
X168227380Y-43758333D01*
X168227380Y-43139285D01*
%TO.C,D-*%
X160769047Y-40352380D02*
X160769047Y-39352380D01*
X161007142Y-39352380D01*
X161150000Y-39400000D01*
X161245238Y-39495238D01*
X161292857Y-39590476D01*
X161340476Y-39780952D01*
X161340476Y-39923809D01*
X161292857Y-40114285D01*
X161245238Y-40209523D01*
X161150000Y-40304761D01*
X161007142Y-40352380D01*
X160769047Y-40352380D01*
X161769047Y-39971428D02*
X162530952Y-39971428D01*
%TO.C,C6*%
X169833333Y-50807142D02*
X169785714Y-50854761D01*
X169642857Y-50902380D01*
X169547619Y-50902380D01*
X169404761Y-50854761D01*
X169309523Y-50759523D01*
X169261904Y-50664285D01*
X169214285Y-50473809D01*
X169214285Y-50330952D01*
X169261904Y-50140476D01*
X169309523Y-50045238D01*
X169404761Y-49950000D01*
X169547619Y-49902380D01*
X169642857Y-49902380D01*
X169785714Y-49950000D01*
X169833333Y-49997619D01*
X170690476Y-49902380D02*
X170500000Y-49902380D01*
X170404761Y-49950000D01*
X170357142Y-49997619D01*
X170261904Y-50140476D01*
X170214285Y-50330952D01*
X170214285Y-50711904D01*
X170261904Y-50807142D01*
X170309523Y-50854761D01*
X170404761Y-50902380D01*
X170595238Y-50902380D01*
X170690476Y-50854761D01*
X170738095Y-50807142D01*
X170785714Y-50711904D01*
X170785714Y-50473809D01*
X170738095Y-50378571D01*
X170690476Y-50330952D01*
X170595238Y-50283333D01*
X170404761Y-50283333D01*
X170309523Y-50330952D01*
X170261904Y-50378571D01*
X170214285Y-50473809D01*
%TO.C,J2*%
X143166666Y-40302380D02*
X143166666Y-41016666D01*
X143119047Y-41159523D01*
X143023809Y-41254761D01*
X142880952Y-41302380D01*
X142785714Y-41302380D01*
X143595238Y-40397619D02*
X143642857Y-40350000D01*
X143738095Y-40302380D01*
X143976190Y-40302380D01*
X144071428Y-40350000D01*
X144119047Y-40397619D01*
X144166666Y-40492857D01*
X144166666Y-40588095D01*
X144119047Y-40730952D01*
X143547619Y-41302380D01*
X144166666Y-41302380D01*
D12*
%TO.C,C8*%
X147265580Y-59190000D02*
X146984420Y-59190000D01*
X147265580Y-60210000D02*
X146984420Y-60210000D01*
%TO.C,C4*%
X177509420Y-48140000D02*
X177790580Y-48140000D01*
X177509420Y-49160000D02*
X177790580Y-49160000D01*
%TO.C,GND*%
X180275000Y-59350000D02*
X180275000Y-61750000D01*
X177875000Y-61750000D02*
X177875000Y-59350000D01*
X177875000Y-59350000D02*
X180275000Y-59350000D01*
X180275000Y-61750000D02*
X177875000Y-61750000D01*
%TO.C,C5*%
X167459420Y-48415000D02*
X167740580Y-48415000D01*
X167459420Y-49435000D02*
X167740580Y-49435000D01*
%TO.C,R3*%
X161202500Y-53712742D02*
X161202500Y-54187258D01*
X162247500Y-53712742D02*
X162247500Y-54187258D01*
%TO.C,C3*%
X164715580Y-49435000D02*
X164434420Y-49435000D01*
X164715580Y-48415000D02*
X164434420Y-48415000D01*
%TO.C,Sync*%
X136250000Y-70100000D02*
X133850000Y-70100000D01*
X133850000Y-67700000D02*
X136250000Y-67700000D01*
X136250000Y-67700000D02*
X136250000Y-70100000D01*
X133850000Y-70100000D02*
X133850000Y-67700000D01*
%TO.C,R4*%
X174387742Y-46097500D02*
X174862258Y-46097500D01*
X174387742Y-45052500D02*
X174862258Y-45052500D01*
%TO.C,5V*%
X170425000Y-67700000D02*
X172825000Y-67700000D01*
X170425000Y-70100000D02*
X170425000Y-67700000D01*
X172825000Y-70100000D02*
X170425000Y-70100000D01*
X172825000Y-67700000D02*
X172825000Y-70100000D01*
%TO.C,D1*%
X160990000Y-56175000D02*
X160990000Y-58460000D01*
X160990000Y-58460000D02*
X162460000Y-58460000D01*
X162460000Y-58460000D02*
X162460000Y-56175000D01*
D11*
%TO.C,U1*%
X163350000Y-58825000D02*
X163350000Y-53550000D01*
X168750000Y-57550000D02*
X168750000Y-53550000D01*
D12*
%TO.C,C7*%
X147265580Y-61735000D02*
X146984420Y-61735000D01*
X147265580Y-60715000D02*
X146984420Y-60715000D01*
%TO.C,R1*%
X165727500Y-41312742D02*
X165727500Y-41787258D01*
X166772500Y-41312742D02*
X166772500Y-41787258D01*
%TO.C,3V3*%
X174150000Y-67700000D02*
X176550000Y-67700000D01*
X174150000Y-70100000D02*
X174150000Y-67700000D01*
X176550000Y-67700000D02*
X176550000Y-70100000D01*
X176550000Y-70100000D02*
X174150000Y-70100000D01*
%TO.C,U2*%
X176265000Y-51525000D02*
X176265000Y-50725000D01*
X176265000Y-51525000D02*
X176265000Y-53325000D01*
X179385000Y-51525000D02*
X179385000Y-50725000D01*
X179385000Y-51525000D02*
X179385000Y-52325000D01*
%TO.C,C2*%
X177509420Y-46640000D02*
X177790580Y-46640000D01*
X177509420Y-47660000D02*
X177790580Y-47660000D01*
D13*
%TO.C,J1*%
X178672400Y-39266608D02*
X178672400Y-37842991D01*
X169477600Y-34219800D02*
X169477600Y-35063407D01*
X178672400Y-35063407D02*
X178672400Y-34219800D01*
X169477600Y-37842991D02*
X169477600Y-39266608D01*
X178672400Y-34219800D02*
X169477600Y-34219800D01*
D12*
%TO.C,C1*%
X164715580Y-50935000D02*
X164434420Y-50935000D01*
X164715580Y-49915000D02*
X164434420Y-49915000D01*
%TO.C,5V*%
X170425000Y-59350000D02*
X172825000Y-59350000D01*
X170425000Y-61750000D02*
X170425000Y-59350000D01*
X172825000Y-61750000D02*
X170425000Y-61750000D01*
X172825000Y-59350000D02*
X172825000Y-61750000D01*
%TO.C,3V3*%
X176550000Y-59350000D02*
X176550000Y-61750000D01*
X174150000Y-59350000D02*
X176550000Y-59350000D01*
X176550000Y-61750000D02*
X174150000Y-61750000D01*
X174150000Y-61750000D02*
X174150000Y-59350000D01*
%TO.C,Reset*%
X185350000Y-70100000D02*
X185350000Y-67700000D01*
X185350000Y-67700000D02*
X187750000Y-67700000D01*
X187750000Y-70100000D02*
X185350000Y-70100000D01*
X187750000Y-67700000D02*
X187750000Y-70100000D01*
%TO.C,D+*%
X163250000Y-42725000D02*
X163250000Y-40825000D01*
X165150000Y-42725000D02*
X163250000Y-42725000D01*
X163250000Y-40825000D02*
X165150000Y-40825000D01*
X165150000Y-40825000D02*
X165150000Y-42725000D01*
%TO.C,GND*%
X180275000Y-70100000D02*
X177875000Y-70100000D01*
X177875000Y-67700000D02*
X180275000Y-67700000D01*
X177875000Y-70100000D02*
X177875000Y-67700000D01*
X180275000Y-67700000D02*
X180275000Y-70100000D01*
%TO.C,U3*%
D14*
X163505249Y-45280000D02*
G75*
G03*
X163505249Y-45280000I-80249J0D01*
G01*
D12*
%TO.C,R2*%
X167227500Y-41312742D02*
X167227500Y-41787258D01*
X168272500Y-41312742D02*
X168272500Y-41787258D01*
%TO.C,D-*%
X160675000Y-42725000D02*
X160675000Y-40825000D01*
X162575000Y-40825000D02*
X162575000Y-42725000D01*
X160675000Y-40825000D02*
X162575000Y-40825000D01*
X162575000Y-42725000D02*
X160675000Y-42725000D01*
%TO.C,C6*%
X167459420Y-49915000D02*
X167740580Y-49915000D01*
X167459420Y-50935000D02*
X167740580Y-50935000D01*
D15*
%TO.C,J2*%
X158900000Y-42570000D02*
X145650000Y-42570000D01*
X145650000Y-42320000D02*
X144550000Y-42320000D01*
X144550000Y-42570000D02*
X143850000Y-42570000D01*
X148650000Y-57320000D02*
X144150000Y-57320000D01*
X144550000Y-42320000D02*
X144550000Y-42570000D01*
X158900000Y-42570000D02*
X158900000Y-45350000D01*
X143850000Y-48550000D02*
X143850000Y-54350000D01*
X158900000Y-48550000D02*
X158900000Y-54350000D01*
X145650000Y-42570000D02*
X145650000Y-42320000D01*
X143850000Y-42570000D02*
X143850000Y-45350000D01*
D16*
X148770000Y-59050000D02*
G75*
G03*
X148770000Y-59050000I-120000J0D01*
G01*
%TD*%
M02*
