%TF.GenerationSoftware,KiCad,Pcbnew,(6.0.11)*%
%TF.CreationDate,2023-04-24T21:00:32-04:00*%
%TF.ProjectId,GC Nano Top,4743204e-616e-46f2-9054-6f702e6b6963,rev?*%
%TF.SameCoordinates,Original*%
%TF.FileFunction,Copper,L2,Bot*%
%TF.FilePolarity,Positive*%
%FSLAX46Y46*%
G04 Gerber Fmt 4.6, Leading zero omitted, Abs format (unit mm)*
G04 Created by KiCad (PCBNEW (6.0.11)) date 2023-04-24 21:00:32*
%MOMM*%
%LPD*%
G01*
G04 APERTURE LIST*
G04 Aperture macros list*
%AMRoundRect*
0 Rectangle with rounded corners*
0 $1 Rounding radius*
0 $2 $3 $4 $5 $6 $7 $8 $9 X,Y pos of 4 corners*
0 Add a 4 corners polygon primitive as box body*
4,1,4,$2,$3,$4,$5,$6,$7,$8,$9,$2,$3,0*
0 Add four circle primitives for the rounded corners*
1,1,$1+$1,$2,$3*
1,1,$1+$1,$4,$5*
1,1,$1+$1,$6,$7*
1,1,$1+$1,$8,$9*
0 Add four rect primitives between the rounded corners*
20,1,$1+$1,$2,$3,$4,$5,0*
20,1,$1+$1,$4,$5,$6,$7,0*
20,1,$1+$1,$6,$7,$8,$9,0*
20,1,$1+$1,$8,$9,$2,$3,0*%
G04 Aperture macros list end*
%TA.AperFunction,SMDPad,CuDef*%
%ADD10RoundRect,0.200000X0.275000X-0.200000X0.275000X0.200000X-0.275000X0.200000X-0.275000X-0.200000X0*%
%TD*%
%TA.AperFunction,ComponentPad*%
%ADD11O,1.000000X2.200000*%
%TD*%
%TA.AperFunction,ComponentPad*%
%ADD12O,1.000000X1.800000*%
%TD*%
%TA.AperFunction,ComponentPad*%
%ADD13C,2.000000*%
%TD*%
%TA.AperFunction,SMDPad,CuDef*%
%ADD14RoundRect,0.200000X0.200000X0.275000X-0.200000X0.275000X-0.200000X-0.275000X0.200000X-0.275000X0*%
%TD*%
%TA.AperFunction,SMDPad,CuDef*%
%ADD15RoundRect,0.218750X-0.218750X-0.256250X0.218750X-0.256250X0.218750X0.256250X-0.218750X0.256250X0*%
%TD*%
%TA.AperFunction,ViaPad*%
%ADD16C,0.800000*%
%TD*%
%TA.AperFunction,Conductor*%
%ADD17C,0.250000*%
%TD*%
G04 APERTURE END LIST*
D10*
%TO.P,R6,1*%
%TO.N,GND*%
X165250000Y-48825000D03*
%TO.P,R6,2*%
%TO.N,5V_SW*%
X165250000Y-47175000D03*
%TD*%
D11*
%TO.P,J1,13*%
%TO.N,GND*%
X178395000Y-36453199D03*
%TO.P,J1,14*%
X169755000Y-36453199D03*
D12*
%TO.P,J1,15*%
X178395000Y-40453200D03*
%TO.P,J1,16*%
X169755000Y-40453200D03*
%TD*%
D13*
%TO.P,SW3,1,1*%
%TO.N,GND*%
X182075000Y-83525000D03*
X182075000Y-90025000D03*
%TO.P,SW3,2,2*%
%TO.N,N/C*%
X186575000Y-90025000D03*
%TO.N,Net-(SW3-Pad2)*%
X186575000Y-83525000D03*
%TD*%
D14*
%TO.P,R5,1*%
%TO.N,5V_SW*%
X164655000Y-90775000D03*
%TO.P,R5,2*%
%TO.N,Net-(D2-Pad2)*%
X163005000Y-90775000D03*
%TD*%
D13*
%TO.P,SW1,1,1*%
%TO.N,GND*%
X186600000Y-51175000D03*
X186600000Y-44675000D03*
%TO.P,SW1,2,2*%
%TO.N,N/C*%
X182100000Y-44675000D03*
%TO.N,Net-(SW1-Pad2)*%
X182100000Y-51175000D03*
%TD*%
%TO.P,SW2,1,1*%
%TO.N,3V3*%
X139550000Y-83550000D03*
%TO.N,N/C*%
X139550000Y-90050000D03*
%TO.P,SW2,2,2*%
%TO.N,Net-(SW2-Pad2)*%
X135050000Y-83550000D03*
%TO.N,N/C*%
X135050000Y-90050000D03*
%TD*%
D15*
%TO.P,D2,1,K*%
%TO.N,GND*%
X160017500Y-90775000D03*
%TO.P,D2,2,A*%
%TO.N,Net-(D2-Pad2)*%
X161592500Y-90775000D03*
%TD*%
D16*
%TO.N,GND*%
X179625000Y-60000000D03*
X169525000Y-48925000D03*
X163100000Y-48000000D03*
X158750000Y-90775000D03*
X179625000Y-47150000D03*
X166250000Y-43475000D03*
X179625000Y-68350000D03*
X169500000Y-42900000D03*
X167750000Y-43475000D03*
X175050000Y-48350000D03*
X169525000Y-50450000D03*
X175075000Y-51575000D03*
X178525000Y-68350000D03*
X160250000Y-58000000D03*
X173825000Y-47050000D03*
X180025000Y-52675000D03*
X179625000Y-61100000D03*
X178525000Y-60000000D03*
X163000000Y-58000000D03*
X164675000Y-54250000D03*
X173850000Y-49875000D03*
X178525000Y-69450000D03*
X164600000Y-51350000D03*
X178525000Y-61100000D03*
X154025000Y-56250000D03*
X155525000Y-56225000D03*
X179625000Y-69450000D03*
X168625000Y-46150000D03*
X179650000Y-48650000D03*
%TO.N,5V_IN*%
X173850000Y-43275000D03*
X175900000Y-43275000D03*
X171725000Y-43275000D03*
%TO.N,D+C*%
X173150000Y-39250000D03*
X163000000Y-44475000D03*
%TO.N,D-C*%
X162175000Y-44475000D03*
X174250000Y-39225000D03*
%TO.N,5V_SW*%
X171075000Y-68350000D03*
X172175000Y-68350000D03*
X164000000Y-47125000D03*
X171650000Y-48775000D03*
X171650000Y-47950000D03*
X171650000Y-50425000D03*
X171650000Y-47125000D03*
X172175000Y-61100000D03*
X171650000Y-52900000D03*
X172175000Y-69450000D03*
X171075000Y-60000000D03*
X171075000Y-61100000D03*
X172175000Y-60000000D03*
X171075000Y-69450000D03*
X171650000Y-52075000D03*
X171650000Y-51250000D03*
X171650000Y-49600000D03*
%TO.N,Net-(R3-Pad1)*%
X161000000Y-51600000D03*
X166475000Y-54250000D03*
%TO.N,3V3*%
X174800000Y-60000000D03*
X174800000Y-61100000D03*
X175900000Y-69450000D03*
X175900000Y-68350000D03*
X175900000Y-60000000D03*
X174800000Y-68350000D03*
X175900000Y-61100000D03*
X174800000Y-69450000D03*
%TD*%
D17*
%TO.N,Net-(D2-Pad2)*%
X161592500Y-90775000D02*
X163005000Y-90775000D01*
%TO.N,D+C*%
X173128200Y-39228200D02*
X173150000Y-39250000D01*
X168246800Y-39228200D02*
X173128200Y-39228200D01*
X163000000Y-44475000D02*
X168246800Y-39228200D01*
%TO.N,D-C*%
X173550000Y-38525000D02*
X174250000Y-39225000D01*
X162175000Y-44475000D02*
X162175000Y-44274695D01*
X162175000Y-44274695D02*
X167924695Y-38525000D01*
X167924695Y-38525000D02*
X173550000Y-38525000D01*
%TO.N,5V_SW*%
X164655000Y-75870000D02*
X171075000Y-69450000D01*
X164655000Y-90775000D02*
X164655000Y-75870000D01*
X164000000Y-47125000D02*
X171650000Y-47125000D01*
%TO.N,Net-(R3-Pad1)*%
X163825000Y-51600000D02*
X161000000Y-51600000D01*
X166475000Y-54250000D02*
X163825000Y-51600000D01*
%TO.N,3V3*%
X139550000Y-83550000D02*
X163150000Y-83550000D01*
X170325000Y-69563604D02*
X170325000Y-68025000D01*
X173900000Y-67450000D02*
X174800000Y-68350000D01*
X170900000Y-67450000D02*
X173900000Y-67450000D01*
X164200000Y-75688604D02*
X170325000Y-69563604D01*
X164200000Y-82500000D02*
X164200000Y-75688604D01*
X170325000Y-68025000D02*
X170900000Y-67450000D01*
X163150000Y-83550000D02*
X164200000Y-82500000D01*
%TD*%
%TA.AperFunction,Conductor*%
%TO.N,GND*%
G36*
X168910551Y-35070502D02*
G01*
X168957044Y-35124158D01*
X168967148Y-35194432D01*
X168938952Y-35257490D01*
X168923226Y-35276232D01*
X168916292Y-35286358D01*
X168826998Y-35448784D01*
X168822166Y-35460057D01*
X168766120Y-35636737D01*
X168763570Y-35648731D01*
X168747393Y-35792960D01*
X168747000Y-35799984D01*
X168747000Y-36181084D01*
X168751475Y-36196323D01*
X168752865Y-36197528D01*
X168760548Y-36199199D01*
X170744885Y-36199199D01*
X170760124Y-36194724D01*
X170761329Y-36193334D01*
X170763000Y-36185651D01*
X170763000Y-35806542D01*
X170762699Y-35800394D01*
X170749188Y-35662596D01*
X170746805Y-35650561D01*
X170693233Y-35473123D01*
X170688559Y-35461783D01*
X170601540Y-35298122D01*
X170594748Y-35287899D01*
X170568842Y-35256135D01*
X170541288Y-35190703D01*
X170553484Y-35120762D01*
X170601557Y-35068517D01*
X170666485Y-35050500D01*
X177482430Y-35050500D01*
X177550551Y-35070502D01*
X177597044Y-35124158D01*
X177607148Y-35194432D01*
X177578952Y-35257490D01*
X177563226Y-35276232D01*
X177556292Y-35286358D01*
X177466998Y-35448784D01*
X177462166Y-35460057D01*
X177406120Y-35636737D01*
X177403570Y-35648731D01*
X177387393Y-35792960D01*
X177387000Y-35799984D01*
X177387000Y-36181084D01*
X177391475Y-36196323D01*
X177392865Y-36197528D01*
X177400548Y-36199199D01*
X178523000Y-36199199D01*
X178591121Y-36219201D01*
X178637614Y-36272857D01*
X178649000Y-36325199D01*
X178649000Y-38011123D01*
X178652973Y-38024654D01*
X178660768Y-38025774D01*
X178768521Y-37994061D01*
X178779889Y-37989468D01*
X178944154Y-37903592D01*
X178954415Y-37896878D01*
X179019548Y-37844510D01*
X179085171Y-37817414D01*
X179155025Y-37830098D01*
X179206933Y-37878534D01*
X179224500Y-37942707D01*
X179224500Y-39163384D01*
X179204498Y-39231505D01*
X179150842Y-39277998D01*
X179080568Y-39288102D01*
X179018184Y-39260468D01*
X178966145Y-39217417D01*
X178955973Y-39210556D01*
X178792924Y-39122396D01*
X178781619Y-39117644D01*
X178666308Y-39081950D01*
X178652205Y-39081744D01*
X178649000Y-39088499D01*
X178649000Y-41811124D01*
X178652973Y-41824655D01*
X178660768Y-41825775D01*
X178768521Y-41794062D01*
X178779889Y-41789469D01*
X178944154Y-41703593D01*
X178954415Y-41696879D01*
X179019548Y-41644511D01*
X179085171Y-41617415D01*
X179155025Y-41630099D01*
X179206933Y-41678535D01*
X179224500Y-41742708D01*
X179224500Y-42182654D01*
X179234338Y-42196195D01*
X179239510Y-42212112D01*
X179253050Y-42221950D01*
X179262888Y-42235490D01*
X179278805Y-42240662D01*
X179292346Y-42250500D01*
X187973500Y-42250500D01*
X188041621Y-42270502D01*
X188088114Y-42324158D01*
X188099500Y-42376500D01*
X188099500Y-43789068D01*
X188079498Y-43857189D01*
X188025842Y-43903682D01*
X187955568Y-43913786D01*
X187890988Y-43884292D01*
X187866068Y-43854903D01*
X187842568Y-43816555D01*
X187832110Y-43807093D01*
X187823334Y-43810876D01*
X186972022Y-44662188D01*
X186964408Y-44676132D01*
X186964539Y-44677965D01*
X186968790Y-44684580D01*
X187820290Y-45536080D01*
X187832670Y-45542840D01*
X187840320Y-45537113D01*
X187866068Y-45495097D01*
X187918715Y-45447465D01*
X187988757Y-45435859D01*
X188053954Y-45463963D01*
X188093608Y-45522853D01*
X188099500Y-45560932D01*
X188099500Y-50289068D01*
X188079498Y-50357189D01*
X188025842Y-50403682D01*
X187955568Y-50413786D01*
X187890988Y-50384292D01*
X187866068Y-50354903D01*
X187842568Y-50316555D01*
X187832110Y-50307093D01*
X187823334Y-50310876D01*
X186972022Y-51162188D01*
X186964408Y-51176132D01*
X186964539Y-51177965D01*
X186968790Y-51184580D01*
X187820290Y-52036080D01*
X187832670Y-52042840D01*
X187840320Y-52037113D01*
X187866068Y-51995097D01*
X187918715Y-51947465D01*
X187988757Y-51935859D01*
X188053954Y-51963963D01*
X188093608Y-52022853D01*
X188099500Y-52060932D01*
X188099500Y-91423500D01*
X188079498Y-91491621D01*
X188025842Y-91538114D01*
X187973500Y-91549500D01*
X182920136Y-91549500D01*
X182852015Y-91529498D01*
X182805522Y-91475842D01*
X182795418Y-91405568D01*
X182824912Y-91340988D01*
X182854301Y-91316068D01*
X182933445Y-91267568D01*
X182942907Y-91257110D01*
X182939124Y-91248334D01*
X182087812Y-90397022D01*
X182073868Y-90389408D01*
X182072035Y-90389539D01*
X182065420Y-90393790D01*
X181213920Y-91245290D01*
X181207160Y-91257670D01*
X181212887Y-91265320D01*
X181295699Y-91316068D01*
X181343330Y-91368715D01*
X181354937Y-91438757D01*
X181326834Y-91503954D01*
X181267943Y-91543608D01*
X181229864Y-91549500D01*
X165226082Y-91549500D01*
X165157961Y-91529498D01*
X165111468Y-91475842D01*
X165101364Y-91405568D01*
X165130858Y-91340988D01*
X165136987Y-91334405D01*
X165183050Y-91288342D01*
X165240646Y-91175304D01*
X165244431Y-91151410D01*
X165251570Y-91106330D01*
X165255500Y-91081519D01*
X165255499Y-90468482D01*
X165252074Y-90446857D01*
X165242198Y-90384494D01*
X165242197Y-90384492D01*
X165240646Y-90374696D01*
X165183050Y-90261658D01*
X165093342Y-90171950D01*
X165049297Y-90149508D01*
X164997682Y-90100760D01*
X164980500Y-90037241D01*
X164980500Y-90029930D01*
X180562725Y-90029930D01*
X180580572Y-90256699D01*
X180582115Y-90266446D01*
X180635217Y-90487627D01*
X180638266Y-90497012D01*
X180725313Y-90707163D01*
X180729795Y-90715958D01*
X180832432Y-90883445D01*
X180842890Y-90892907D01*
X180851666Y-90889124D01*
X181702978Y-90037812D01*
X181709356Y-90026132D01*
X182439408Y-90026132D01*
X182439539Y-90027965D01*
X182443790Y-90034580D01*
X183295290Y-90886080D01*
X183307670Y-90892840D01*
X183315320Y-90887113D01*
X183420205Y-90715958D01*
X183424687Y-90707163D01*
X183511734Y-90497012D01*
X183514783Y-90487627D01*
X183567885Y-90266446D01*
X183569428Y-90256699D01*
X183587275Y-90029930D01*
X183587275Y-90020070D01*
X183585179Y-89993440D01*
X185369770Y-89993440D01*
X185384200Y-90213604D01*
X185385621Y-90219200D01*
X185385622Y-90219205D01*
X185426141Y-90378746D01*
X185438511Y-90427452D01*
X185440928Y-90432694D01*
X185440928Y-90432695D01*
X185479046Y-90515379D01*
X185530883Y-90627821D01*
X185658222Y-90808002D01*
X185816264Y-90961961D01*
X185821060Y-90965166D01*
X185821063Y-90965168D01*
X185905261Y-91021427D01*
X185999717Y-91084540D01*
X186005020Y-91086818D01*
X186005023Y-91086820D01*
X186197129Y-91169355D01*
X186202436Y-91171635D01*
X186282088Y-91189658D01*
X186411995Y-91219054D01*
X186412001Y-91219055D01*
X186417632Y-91220329D01*
X186423403Y-91220556D01*
X186423405Y-91220556D01*
X186489687Y-91223160D01*
X186638098Y-91228991D01*
X186747275Y-91213161D01*
X186850738Y-91198160D01*
X186850743Y-91198159D01*
X186856452Y-91197331D01*
X186861916Y-91195476D01*
X186861921Y-91195475D01*
X187059907Y-91128268D01*
X187059912Y-91128266D01*
X187065379Y-91126410D01*
X187076940Y-91119936D01*
X187219839Y-91039908D01*
X187257884Y-91018602D01*
X187427518Y-90877518D01*
X187489256Y-90803287D01*
X187564908Y-90712326D01*
X187564910Y-90712323D01*
X187568602Y-90707884D01*
X187676410Y-90515379D01*
X187678266Y-90509912D01*
X187678268Y-90509907D01*
X187745475Y-90311921D01*
X187745476Y-90311916D01*
X187747331Y-90306452D01*
X187748159Y-90300743D01*
X187748160Y-90300738D01*
X187770087Y-90149508D01*
X187778991Y-90088098D01*
X187780643Y-90025000D01*
X187760454Y-89805289D01*
X187700565Y-89592936D01*
X187602980Y-89395053D01*
X187569735Y-89350532D01*
X187474420Y-89222891D01*
X187474420Y-89222890D01*
X187470967Y-89218267D01*
X187373586Y-89128249D01*
X187313189Y-89072418D01*
X187313186Y-89072416D01*
X187308949Y-89068499D01*
X187122350Y-88950764D01*
X186917421Y-88869006D01*
X186911761Y-88867880D01*
X186911757Y-88867879D01*
X186706691Y-88827089D01*
X186706688Y-88827089D01*
X186701024Y-88825962D01*
X186695249Y-88825886D01*
X186695245Y-88825886D01*
X186584504Y-88824437D01*
X186480406Y-88823074D01*
X186474709Y-88824053D01*
X186474708Y-88824053D01*
X186268654Y-88859459D01*
X186268653Y-88859459D01*
X186262957Y-88860438D01*
X186055957Y-88936804D01*
X186050996Y-88939756D01*
X186050995Y-88939756D01*
X185968999Y-88988539D01*
X185866341Y-89049614D01*
X185700457Y-89195090D01*
X185563863Y-89368360D01*
X185461131Y-89563620D01*
X185395703Y-89774333D01*
X185369770Y-89993440D01*
X183585179Y-89993440D01*
X183569428Y-89793301D01*
X183567885Y-89783554D01*
X183514783Y-89562373D01*
X183511734Y-89552988D01*
X183424687Y-89342837D01*
X183420205Y-89334042D01*
X183317568Y-89166555D01*
X183307110Y-89157093D01*
X183298334Y-89160876D01*
X182447022Y-90012188D01*
X182439408Y-90026132D01*
X181709356Y-90026132D01*
X181710592Y-90023868D01*
X181710461Y-90022035D01*
X181706210Y-90015420D01*
X180854710Y-89163920D01*
X180842330Y-89157160D01*
X180834680Y-89162887D01*
X180729795Y-89334042D01*
X180725313Y-89342837D01*
X180638266Y-89552988D01*
X180635217Y-89562373D01*
X180582115Y-89783554D01*
X180580572Y-89793301D01*
X180562725Y-90020070D01*
X180562725Y-90029930D01*
X164980500Y-90029930D01*
X164980500Y-87965665D01*
X175595119Y-87965665D01*
X175595288Y-87968601D01*
X175608376Y-88195580D01*
X175609513Y-88200626D01*
X175609514Y-88200632D01*
X175631226Y-88296975D01*
X175659006Y-88420242D01*
X175660948Y-88425024D01*
X175660949Y-88425028D01*
X175743705Y-88628831D01*
X175745649Y-88633618D01*
X175865979Y-88829978D01*
X176016763Y-89004048D01*
X176193953Y-89151154D01*
X176392790Y-89267345D01*
X176607934Y-89349501D01*
X176613000Y-89350532D01*
X176613001Y-89350532D01*
X176678335Y-89363824D01*
X176833607Y-89395414D01*
X176963352Y-89400172D01*
X177058585Y-89403664D01*
X177058589Y-89403664D01*
X177063749Y-89403853D01*
X177068869Y-89403197D01*
X177068871Y-89403197D01*
X177145661Y-89393360D01*
X177292178Y-89374591D01*
X177297126Y-89373106D01*
X177297133Y-89373105D01*
X177507811Y-89309898D01*
X177507810Y-89309898D01*
X177512761Y-89308413D01*
X177719574Y-89207096D01*
X177907062Y-89073363D01*
X178070190Y-88910803D01*
X178128269Y-88829978D01*
X178154919Y-88792890D01*
X181207093Y-88792890D01*
X181210876Y-88801666D01*
X182062188Y-89652978D01*
X182076132Y-89660592D01*
X182077965Y-89660461D01*
X182084580Y-89656210D01*
X182936080Y-88804710D01*
X182942840Y-88792330D01*
X182937113Y-88784680D01*
X182765958Y-88679795D01*
X182757163Y-88675313D01*
X182547012Y-88588266D01*
X182537627Y-88585217D01*
X182316446Y-88532115D01*
X182306699Y-88530572D01*
X182079930Y-88512725D01*
X182070070Y-88512725D01*
X181843301Y-88530572D01*
X181833554Y-88532115D01*
X181612373Y-88585217D01*
X181602988Y-88588266D01*
X181392837Y-88675313D01*
X181384042Y-88679795D01*
X181216555Y-88782432D01*
X181207093Y-88792890D01*
X178154919Y-88792890D01*
X178201559Y-88727983D01*
X178204577Y-88723783D01*
X178226511Y-88679404D01*
X178304321Y-88521966D01*
X178306615Y-88517325D01*
X178342140Y-88400401D01*
X178372059Y-88301927D01*
X178372060Y-88301921D01*
X178373563Y-88296975D01*
X178403622Y-88068649D01*
X178405300Y-88000000D01*
X178386430Y-87770478D01*
X178330326Y-87547120D01*
X178276750Y-87423903D01*
X178240556Y-87340661D01*
X178240554Y-87340658D01*
X178238496Y-87335924D01*
X178161964Y-87217624D01*
X178116215Y-87146906D01*
X178116213Y-87146903D01*
X178113405Y-87142563D01*
X178092774Y-87119889D01*
X177961890Y-86976051D01*
X177961889Y-86976050D01*
X177958412Y-86972229D01*
X177954361Y-86969030D01*
X177954357Y-86969026D01*
X177781735Y-86832697D01*
X177781730Y-86832693D01*
X177777681Y-86829496D01*
X177773165Y-86827003D01*
X177773162Y-86827001D01*
X177580589Y-86720695D01*
X177580585Y-86720693D01*
X177576065Y-86718198D01*
X177571196Y-86716474D01*
X177571192Y-86716472D01*
X177363853Y-86643049D01*
X177363849Y-86643048D01*
X177358978Y-86641323D01*
X177353885Y-86640416D01*
X177353882Y-86640415D01*
X177257707Y-86623284D01*
X177132250Y-86600937D01*
X177045802Y-86599881D01*
X176907141Y-86598186D01*
X176907139Y-86598186D01*
X176901971Y-86598123D01*
X176674325Y-86632958D01*
X176455424Y-86704506D01*
X176251149Y-86810845D01*
X176066984Y-86949119D01*
X175907877Y-87115616D01*
X175778099Y-87305863D01*
X175775923Y-87310552D01*
X175775919Y-87310558D01*
X175683315Y-87510057D01*
X175681136Y-87514752D01*
X175619592Y-87736673D01*
X175595119Y-87965665D01*
X164980500Y-87965665D01*
X164980500Y-84757670D01*
X181207160Y-84757670D01*
X181212887Y-84765320D01*
X181384042Y-84870205D01*
X181392837Y-84874687D01*
X181602988Y-84961734D01*
X181612373Y-84964783D01*
X181833554Y-85017885D01*
X181843301Y-85019428D01*
X182070070Y-85037275D01*
X182079930Y-85037275D01*
X182306699Y-85019428D01*
X182316446Y-85017885D01*
X182537627Y-84964783D01*
X182547012Y-84961734D01*
X182757163Y-84874687D01*
X182765958Y-84870205D01*
X182933445Y-84767568D01*
X182942907Y-84757110D01*
X182939124Y-84748334D01*
X182087812Y-83897022D01*
X182073868Y-83889408D01*
X182072035Y-83889539D01*
X182065420Y-83893790D01*
X181213920Y-84745290D01*
X181207160Y-84757670D01*
X164980500Y-84757670D01*
X164980500Y-83529930D01*
X180562725Y-83529930D01*
X180580572Y-83756699D01*
X180582115Y-83766446D01*
X180635217Y-83987627D01*
X180638266Y-83997012D01*
X180725313Y-84207163D01*
X180729795Y-84215958D01*
X180832432Y-84383445D01*
X180842890Y-84392907D01*
X180851666Y-84389124D01*
X181702978Y-83537812D01*
X181709356Y-83526132D01*
X182439408Y-83526132D01*
X182439539Y-83527965D01*
X182443790Y-83534580D01*
X183295290Y-84386080D01*
X183307670Y-84392840D01*
X183315320Y-84387113D01*
X183420205Y-84215958D01*
X183424687Y-84207163D01*
X183511734Y-83997012D01*
X183514783Y-83987627D01*
X183567885Y-83766446D01*
X183569428Y-83756699D01*
X183587275Y-83529930D01*
X183587275Y-83520070D01*
X183585179Y-83493440D01*
X185369770Y-83493440D01*
X185384200Y-83713604D01*
X185385621Y-83719200D01*
X185385622Y-83719205D01*
X185426273Y-83879264D01*
X185438511Y-83927452D01*
X185440928Y-83932694D01*
X185440928Y-83932695D01*
X185479046Y-84015379D01*
X185530883Y-84127821D01*
X185658222Y-84308002D01*
X185816264Y-84461961D01*
X185821060Y-84465166D01*
X185821063Y-84465168D01*
X185905261Y-84521427D01*
X185999717Y-84584540D01*
X186005020Y-84586818D01*
X186005023Y-84586820D01*
X186197129Y-84669355D01*
X186202436Y-84671635D01*
X186282088Y-84689658D01*
X186411995Y-84719054D01*
X186412001Y-84719055D01*
X186417632Y-84720329D01*
X186423403Y-84720556D01*
X186423405Y-84720556D01*
X186489687Y-84723160D01*
X186638098Y-84728991D01*
X186747275Y-84713161D01*
X186850738Y-84698160D01*
X186850743Y-84698159D01*
X186856452Y-84697331D01*
X186861916Y-84695476D01*
X186861921Y-84695475D01*
X187059907Y-84628268D01*
X187059912Y-84628266D01*
X187065379Y-84626410D01*
X187091432Y-84611820D01*
X187219839Y-84539908D01*
X187257884Y-84518602D01*
X187427518Y-84377518D01*
X187489256Y-84303287D01*
X187564908Y-84212326D01*
X187564910Y-84212323D01*
X187568602Y-84207884D01*
X187676410Y-84015379D01*
X187678266Y-84009912D01*
X187678268Y-84009907D01*
X187745475Y-83811921D01*
X187745476Y-83811916D01*
X187747331Y-83806452D01*
X187748159Y-83800743D01*
X187748160Y-83800738D01*
X187778458Y-83591772D01*
X187778991Y-83588098D01*
X187780643Y-83525000D01*
X187760454Y-83305289D01*
X187700565Y-83092936D01*
X187602980Y-82895053D01*
X187489636Y-82743267D01*
X187474420Y-82722891D01*
X187474420Y-82722890D01*
X187470967Y-82718267D01*
X187373586Y-82628249D01*
X187313189Y-82572418D01*
X187313186Y-82572416D01*
X187308949Y-82568499D01*
X187122350Y-82450764D01*
X186917421Y-82369006D01*
X186911761Y-82367880D01*
X186911757Y-82367879D01*
X186706691Y-82327089D01*
X186706688Y-82327089D01*
X186701024Y-82325962D01*
X186695249Y-82325886D01*
X186695245Y-82325886D01*
X186584504Y-82324437D01*
X186480406Y-82323074D01*
X186474709Y-82324053D01*
X186474708Y-82324053D01*
X186268654Y-82359459D01*
X186268653Y-82359459D01*
X186262957Y-82360438D01*
X186055957Y-82436804D01*
X186050996Y-82439756D01*
X186050995Y-82439756D01*
X185985293Y-82478845D01*
X185866341Y-82549614D01*
X185700457Y-82695090D01*
X185563863Y-82868360D01*
X185461131Y-83063620D01*
X185395703Y-83274333D01*
X185369770Y-83493440D01*
X183585179Y-83493440D01*
X183569428Y-83293301D01*
X183567885Y-83283554D01*
X183514783Y-83062373D01*
X183511734Y-83052988D01*
X183424687Y-82842837D01*
X183420205Y-82834042D01*
X183317568Y-82666555D01*
X183307110Y-82657093D01*
X183298334Y-82660876D01*
X182447022Y-83512188D01*
X182439408Y-83526132D01*
X181709356Y-83526132D01*
X181710592Y-83523868D01*
X181710461Y-83522035D01*
X181706210Y-83515420D01*
X180854710Y-82663920D01*
X180842330Y-82657160D01*
X180834680Y-82662887D01*
X180729795Y-82834042D01*
X180725313Y-82842837D01*
X180638266Y-83052988D01*
X180635217Y-83062373D01*
X180582115Y-83283554D01*
X180580572Y-83293301D01*
X180562725Y-83520070D01*
X180562725Y-83529930D01*
X164980500Y-83529930D01*
X164980500Y-82292890D01*
X181207093Y-82292890D01*
X181210876Y-82301666D01*
X182062188Y-83152978D01*
X182076132Y-83160592D01*
X182077965Y-83160461D01*
X182084580Y-83156210D01*
X182936080Y-82304710D01*
X182942840Y-82292330D01*
X182937113Y-82284680D01*
X182765958Y-82179795D01*
X182757163Y-82175313D01*
X182547012Y-82088266D01*
X182537627Y-82085217D01*
X182316446Y-82032115D01*
X182306699Y-82030572D01*
X182079930Y-82012725D01*
X182070070Y-82012725D01*
X181843301Y-82030572D01*
X181833554Y-82032115D01*
X181612373Y-82085217D01*
X181602988Y-82088266D01*
X181392837Y-82175313D01*
X181384042Y-82179795D01*
X181216555Y-82282432D01*
X181207093Y-82292890D01*
X164980500Y-82292890D01*
X164980500Y-76057016D01*
X165000502Y-75988895D01*
X165017405Y-75967921D01*
X170902617Y-70082709D01*
X170964929Y-70048683D01*
X171008157Y-70046882D01*
X171075000Y-70055682D01*
X171083188Y-70054604D01*
X171223574Y-70036122D01*
X171231762Y-70035044D01*
X171377841Y-69974536D01*
X171503282Y-69878282D01*
X171508305Y-69871736D01*
X171508308Y-69871733D01*
X171525037Y-69849931D01*
X171582375Y-69808063D01*
X171653246Y-69803841D01*
X171715149Y-69838605D01*
X171724963Y-69849931D01*
X171741692Y-69871733D01*
X171741695Y-69871736D01*
X171746718Y-69878282D01*
X171872159Y-69974536D01*
X172018238Y-70035044D01*
X172175000Y-70055682D01*
X172183188Y-70054604D01*
X172323574Y-70036122D01*
X172331762Y-70035044D01*
X172477841Y-69974536D01*
X172603282Y-69878282D01*
X172699536Y-69752841D01*
X172760044Y-69606762D01*
X172780682Y-69450000D01*
X172760044Y-69293238D01*
X172699536Y-69147159D01*
X172603282Y-69021718D01*
X172596736Y-69016695D01*
X172596733Y-69016692D01*
X172574931Y-68999963D01*
X172533063Y-68942625D01*
X172528841Y-68871754D01*
X172563605Y-68809851D01*
X172574931Y-68800037D01*
X172596733Y-68783308D01*
X172596736Y-68783305D01*
X172603282Y-68778282D01*
X172699536Y-68652841D01*
X172760044Y-68506762D01*
X172780682Y-68350000D01*
X172760044Y-68193238D01*
X172699536Y-68047159D01*
X172646625Y-67978204D01*
X172621025Y-67911984D01*
X172635290Y-67842435D01*
X172684891Y-67791639D01*
X172746588Y-67775500D01*
X173712983Y-67775500D01*
X173781104Y-67795502D01*
X173802079Y-67812405D01*
X174167292Y-68177619D01*
X174201317Y-68239931D01*
X174203118Y-68283158D01*
X174194318Y-68350000D01*
X174214956Y-68506762D01*
X174275464Y-68652841D01*
X174371718Y-68778282D01*
X174378264Y-68783305D01*
X174378267Y-68783308D01*
X174400069Y-68800037D01*
X174441937Y-68857375D01*
X174446159Y-68928246D01*
X174411395Y-68990149D01*
X174400069Y-68999963D01*
X174378267Y-69016692D01*
X174378264Y-69016695D01*
X174371718Y-69021718D01*
X174275464Y-69147159D01*
X174214956Y-69293238D01*
X174194318Y-69450000D01*
X174214956Y-69606762D01*
X174275464Y-69752841D01*
X174371718Y-69878282D01*
X174497159Y-69974536D01*
X174643238Y-70035044D01*
X174800000Y-70055682D01*
X174808188Y-70054604D01*
X174948574Y-70036122D01*
X174956762Y-70035044D01*
X175102841Y-69974536D01*
X175228282Y-69878282D01*
X175233305Y-69871736D01*
X175233308Y-69871733D01*
X175250037Y-69849931D01*
X175307375Y-69808063D01*
X175378246Y-69803841D01*
X175440149Y-69838605D01*
X175449963Y-69849931D01*
X175466692Y-69871733D01*
X175466695Y-69871736D01*
X175471718Y-69878282D01*
X175597159Y-69974536D01*
X175743238Y-70035044D01*
X175900000Y-70055682D01*
X175908188Y-70054604D01*
X176048574Y-70036122D01*
X176056762Y-70035044D01*
X176202841Y-69974536D01*
X176328282Y-69878282D01*
X176424536Y-69752841D01*
X176485044Y-69606762D01*
X176505682Y-69450000D01*
X176485044Y-69293238D01*
X176424536Y-69147159D01*
X176328282Y-69021718D01*
X176321736Y-69016695D01*
X176321733Y-69016692D01*
X176299931Y-68999963D01*
X176258063Y-68942625D01*
X176253841Y-68871754D01*
X176288605Y-68809851D01*
X176299931Y-68800037D01*
X176321733Y-68783308D01*
X176321736Y-68783305D01*
X176328282Y-68778282D01*
X176424536Y-68652841D01*
X176485044Y-68506762D01*
X176505682Y-68350000D01*
X176485044Y-68193238D01*
X176424536Y-68047159D01*
X176328282Y-67921718D01*
X176202841Y-67825464D01*
X176056762Y-67764956D01*
X175900000Y-67744318D01*
X175743238Y-67764956D01*
X175597159Y-67825464D01*
X175471718Y-67921718D01*
X175466695Y-67928264D01*
X175466692Y-67928267D01*
X175449963Y-67950069D01*
X175392625Y-67991937D01*
X175321754Y-67996159D01*
X175259851Y-67961395D01*
X175250037Y-67950069D01*
X175233308Y-67928267D01*
X175233305Y-67928264D01*
X175228282Y-67921718D01*
X175102841Y-67825464D01*
X174956762Y-67764956D01*
X174800000Y-67744318D01*
X174733159Y-67753118D01*
X174663011Y-67742179D01*
X174627618Y-67717291D01*
X174144114Y-67233787D01*
X174136688Y-67225684D01*
X174119540Y-67205249D01*
X174119539Y-67205248D01*
X174112455Y-67196806D01*
X174102911Y-67191296D01*
X174102910Y-67191295D01*
X174079815Y-67177961D01*
X174070544Y-67172055D01*
X174048715Y-67156770D01*
X174039684Y-67150446D01*
X174029034Y-67147592D01*
X174025866Y-67146115D01*
X174022590Y-67144923D01*
X174013045Y-67139412D01*
X173979301Y-67133462D01*
X173975942Y-67132870D01*
X173965215Y-67130492D01*
X173928807Y-67120736D01*
X173917822Y-67121697D01*
X173917820Y-67121697D01*
X173891272Y-67124020D01*
X173880290Y-67124500D01*
X170919710Y-67124500D01*
X170908728Y-67124020D01*
X170882180Y-67121697D01*
X170882178Y-67121697D01*
X170871193Y-67120736D01*
X170834785Y-67130492D01*
X170824058Y-67132870D01*
X170820699Y-67133462D01*
X170786955Y-67139412D01*
X170777410Y-67144923D01*
X170774134Y-67146115D01*
X170770966Y-67147592D01*
X170760316Y-67150446D01*
X170751285Y-67156770D01*
X170729456Y-67172055D01*
X170720185Y-67177961D01*
X170697094Y-67191293D01*
X170687545Y-67196806D01*
X170680459Y-67205251D01*
X170663315Y-67225682D01*
X170655889Y-67233785D01*
X170108785Y-67780889D01*
X170100681Y-67788316D01*
X170071806Y-67812545D01*
X170066293Y-67822094D01*
X170052961Y-67845185D01*
X170047055Y-67854456D01*
X170025446Y-67885316D01*
X170022592Y-67895966D01*
X170021115Y-67899134D01*
X170019923Y-67902410D01*
X170014412Y-67911955D01*
X170011536Y-67928267D01*
X170007870Y-67949058D01*
X170005492Y-67959785D01*
X169995736Y-67996193D01*
X169996697Y-68007178D01*
X169996697Y-68007180D01*
X169999020Y-68033728D01*
X169999500Y-68044710D01*
X169999500Y-69376588D01*
X169979498Y-69444709D01*
X169962595Y-69465683D01*
X163983785Y-75444493D01*
X163975681Y-75451920D01*
X163946806Y-75476149D01*
X163941293Y-75485698D01*
X163927961Y-75508789D01*
X163922055Y-75518060D01*
X163900446Y-75548920D01*
X163897592Y-75559570D01*
X163896115Y-75562738D01*
X163894923Y-75566014D01*
X163889412Y-75575559D01*
X163883462Y-75609303D01*
X163882870Y-75612662D01*
X163880492Y-75623389D01*
X163870736Y-75659797D01*
X163871697Y-75670782D01*
X163871697Y-75670784D01*
X163874020Y-75697332D01*
X163874500Y-75708314D01*
X163874500Y-82312982D01*
X163854498Y-82381103D01*
X163837596Y-82402077D01*
X163052079Y-83187595D01*
X162989766Y-83221620D01*
X162962983Y-83224500D01*
X140800998Y-83224500D01*
X140732877Y-83204498D01*
X140686384Y-83150842D01*
X140679732Y-83132710D01*
X140675565Y-83117936D01*
X140577980Y-82920053D01*
X140563181Y-82900234D01*
X140449420Y-82747891D01*
X140449420Y-82747890D01*
X140445967Y-82743267D01*
X140283949Y-82593499D01*
X140097350Y-82475764D01*
X139892421Y-82394006D01*
X139886761Y-82392880D01*
X139886757Y-82392879D01*
X139681691Y-82352089D01*
X139681688Y-82352089D01*
X139676024Y-82350962D01*
X139670249Y-82350886D01*
X139670245Y-82350886D01*
X139559504Y-82349437D01*
X139455406Y-82348074D01*
X139449709Y-82349053D01*
X139449708Y-82349053D01*
X139243654Y-82384459D01*
X139243653Y-82384459D01*
X139237957Y-82385438D01*
X139030957Y-82461804D01*
X138841341Y-82574614D01*
X138675457Y-82720090D01*
X138538863Y-82893360D01*
X138436131Y-83088620D01*
X138393939Y-83224500D01*
X138375603Y-83283554D01*
X138370703Y-83299333D01*
X138344770Y-83518440D01*
X138359200Y-83738604D01*
X138360621Y-83744200D01*
X138360622Y-83744205D01*
X138399433Y-83897022D01*
X138413511Y-83952452D01*
X138415928Y-83957694D01*
X138415928Y-83957695D01*
X138451525Y-84034910D01*
X138505883Y-84152821D01*
X138633222Y-84333002D01*
X138791264Y-84486961D01*
X138796060Y-84490166D01*
X138796063Y-84490168D01*
X138880261Y-84546427D01*
X138974717Y-84609540D01*
X138980020Y-84611818D01*
X138980023Y-84611820D01*
X139172129Y-84694355D01*
X139177436Y-84696635D01*
X139257088Y-84714658D01*
X139386995Y-84744054D01*
X139387001Y-84744055D01*
X139392632Y-84745329D01*
X139398403Y-84745556D01*
X139398405Y-84745556D01*
X139466211Y-84748220D01*
X139613098Y-84753991D01*
X139722275Y-84738161D01*
X139825738Y-84723160D01*
X139825743Y-84723159D01*
X139831452Y-84722331D01*
X139836916Y-84720476D01*
X139836921Y-84720475D01*
X140034907Y-84653268D01*
X140034912Y-84653266D01*
X140040379Y-84651410D01*
X140232884Y-84543602D01*
X140259547Y-84521427D01*
X140398086Y-84406204D01*
X140402518Y-84402518D01*
X140464256Y-84328287D01*
X140539908Y-84237326D01*
X140539910Y-84237323D01*
X140543602Y-84232884D01*
X140651410Y-84040379D01*
X140678357Y-83960997D01*
X140719193Y-83902922D01*
X140784946Y-83876144D01*
X140797669Y-83875500D01*
X163130290Y-83875500D01*
X163141272Y-83875980D01*
X163167820Y-83878303D01*
X163167822Y-83878303D01*
X163178807Y-83879264D01*
X163215215Y-83869508D01*
X163225942Y-83867130D01*
X163229301Y-83866538D01*
X163263045Y-83860588D01*
X163272590Y-83855077D01*
X163275866Y-83853885D01*
X163279034Y-83852408D01*
X163289684Y-83849554D01*
X163320544Y-83827945D01*
X163329815Y-83822039D01*
X163352906Y-83808707D01*
X163362455Y-83803194D01*
X163386679Y-83774325D01*
X163394106Y-83766220D01*
X164114405Y-83045922D01*
X164176717Y-83011897D01*
X164247533Y-83016962D01*
X164304368Y-83059509D01*
X164329179Y-83126029D01*
X164329500Y-83135018D01*
X164329500Y-90037241D01*
X164309498Y-90105362D01*
X164260703Y-90149508D01*
X164216658Y-90171950D01*
X164126950Y-90261658D01*
X164069354Y-90374696D01*
X164054500Y-90468481D01*
X164054501Y-91081518D01*
X164055276Y-91086409D01*
X164055276Y-91086412D01*
X164067314Y-91162420D01*
X164069354Y-91175304D01*
X164126950Y-91288342D01*
X164173013Y-91334405D01*
X164207039Y-91396717D01*
X164201974Y-91467532D01*
X164159427Y-91524368D01*
X164092907Y-91549179D01*
X164083918Y-91549500D01*
X163576082Y-91549500D01*
X163507961Y-91529498D01*
X163461468Y-91475842D01*
X163451364Y-91405568D01*
X163480858Y-91340988D01*
X163486987Y-91334405D01*
X163533050Y-91288342D01*
X163590646Y-91175304D01*
X163594431Y-91151410D01*
X163601570Y-91106330D01*
X163605500Y-91081519D01*
X163605499Y-90468482D01*
X163602074Y-90446857D01*
X163592198Y-90384494D01*
X163592197Y-90384492D01*
X163590646Y-90374696D01*
X163533050Y-90261658D01*
X163443342Y-90171950D01*
X163330304Y-90114354D01*
X163320515Y-90112804D01*
X163320513Y-90112803D01*
X163293151Y-90108470D01*
X163236519Y-90099500D01*
X163005047Y-90099500D01*
X162773482Y-90099501D01*
X162768589Y-90100276D01*
X162768588Y-90100276D01*
X162689494Y-90112802D01*
X162689492Y-90112803D01*
X162679696Y-90114354D01*
X162566658Y-90171950D01*
X162476950Y-90261658D01*
X162472450Y-90270489D01*
X162472449Y-90270491D01*
X162426137Y-90361383D01*
X162377388Y-90412998D01*
X162308473Y-90430064D01*
X162241272Y-90407163D01*
X162201603Y-90361383D01*
X162183441Y-90325738D01*
X162154658Y-90269249D01*
X162060751Y-90175342D01*
X161942420Y-90115049D01*
X161844246Y-90099500D01*
X161340754Y-90099500D01*
X161242580Y-90115049D01*
X161124249Y-90175342D01*
X161030342Y-90269249D01*
X160970049Y-90387580D01*
X160954500Y-90485754D01*
X160954500Y-91064246D01*
X160970049Y-91162420D01*
X161030342Y-91280751D01*
X161083996Y-91334405D01*
X161118022Y-91396717D01*
X161112957Y-91467532D01*
X161070410Y-91524368D01*
X161003890Y-91549179D01*
X160994901Y-91549500D01*
X133676500Y-91549500D01*
X133608379Y-91529498D01*
X133561886Y-91475842D01*
X133550500Y-91423500D01*
X133550500Y-90018440D01*
X133844770Y-90018440D01*
X133859200Y-90238604D01*
X133860621Y-90244200D01*
X133860622Y-90244205D01*
X133902009Y-90407163D01*
X133913511Y-90452452D01*
X133915928Y-90457694D01*
X133915928Y-90457695D01*
X133954046Y-90540379D01*
X134005883Y-90652821D01*
X134133222Y-90833002D01*
X134291264Y-90986961D01*
X134296060Y-90990166D01*
X134296063Y-90990168D01*
X134414251Y-91069138D01*
X134474717Y-91109540D01*
X134480020Y-91111818D01*
X134480023Y-91111820D01*
X134672129Y-91194355D01*
X134677436Y-91196635D01*
X134757088Y-91214658D01*
X134886995Y-91244054D01*
X134887001Y-91244055D01*
X134892632Y-91245329D01*
X134898403Y-91245556D01*
X134898405Y-91245556D01*
X134966211Y-91248220D01*
X135113098Y-91253991D01*
X135222275Y-91238161D01*
X135325738Y-91223160D01*
X135325743Y-91223159D01*
X135331452Y-91222331D01*
X135336916Y-91220476D01*
X135336921Y-91220475D01*
X135534907Y-91153268D01*
X135534912Y-91153266D01*
X135540379Y-91151410D01*
X135555688Y-91142837D01*
X135656441Y-91086412D01*
X135732884Y-91043602D01*
X135759547Y-91021427D01*
X135898086Y-90906204D01*
X135902518Y-90902518D01*
X135964256Y-90828287D01*
X136039908Y-90737326D01*
X136039910Y-90737323D01*
X136043602Y-90732884D01*
X136151410Y-90540379D01*
X136153266Y-90534912D01*
X136153268Y-90534907D01*
X136220475Y-90336921D01*
X136220476Y-90336916D01*
X136222331Y-90331452D01*
X136223159Y-90325743D01*
X136223160Y-90325738D01*
X136253458Y-90116772D01*
X136253991Y-90113098D01*
X136255643Y-90050000D01*
X136252743Y-90018440D01*
X138344770Y-90018440D01*
X138359200Y-90238604D01*
X138360621Y-90244200D01*
X138360622Y-90244205D01*
X138402009Y-90407163D01*
X138413511Y-90452452D01*
X138415928Y-90457694D01*
X138415928Y-90457695D01*
X138454046Y-90540379D01*
X138505883Y-90652821D01*
X138633222Y-90833002D01*
X138791264Y-90986961D01*
X138796060Y-90990166D01*
X138796063Y-90990168D01*
X138914251Y-91069138D01*
X138974717Y-91109540D01*
X138980020Y-91111818D01*
X138980023Y-91111820D01*
X139172129Y-91194355D01*
X139177436Y-91196635D01*
X139257088Y-91214658D01*
X139386995Y-91244054D01*
X139387001Y-91244055D01*
X139392632Y-91245329D01*
X139398403Y-91245556D01*
X139398405Y-91245556D01*
X139466211Y-91248220D01*
X139613098Y-91253991D01*
X139722275Y-91238161D01*
X139825738Y-91223160D01*
X139825743Y-91223159D01*
X139831452Y-91222331D01*
X139836916Y-91220476D01*
X139836921Y-91220475D01*
X140034907Y-91153268D01*
X140034912Y-91153266D01*
X140040379Y-91151410D01*
X140055688Y-91142837D01*
X140156441Y-91086412D01*
X140232884Y-91043602D01*
X140259547Y-91021427D01*
X140398086Y-90906204D01*
X140402518Y-90902518D01*
X140464256Y-90828287D01*
X140539908Y-90737326D01*
X140539910Y-90737323D01*
X140543602Y-90732884D01*
X140651410Y-90540379D01*
X140653266Y-90534912D01*
X140653268Y-90534907D01*
X140720475Y-90336921D01*
X140720476Y-90336916D01*
X140722331Y-90331452D01*
X140723159Y-90325743D01*
X140723160Y-90325738D01*
X140753458Y-90116772D01*
X140753991Y-90113098D01*
X140755643Y-90050000D01*
X140735454Y-89830289D01*
X140728404Y-89805289D01*
X140677134Y-89623500D01*
X140675565Y-89617936D01*
X140577980Y-89420053D01*
X140563181Y-89400234D01*
X140449420Y-89247891D01*
X140449420Y-89247890D01*
X140445967Y-89243267D01*
X140346320Y-89151154D01*
X140288189Y-89097418D01*
X140288186Y-89097416D01*
X140283949Y-89093499D01*
X140097350Y-88975764D01*
X139892421Y-88894006D01*
X139886761Y-88892880D01*
X139886757Y-88892879D01*
X139681691Y-88852089D01*
X139681688Y-88852089D01*
X139676024Y-88850962D01*
X139670249Y-88850886D01*
X139670245Y-88850886D01*
X139559504Y-88849437D01*
X139455406Y-88848074D01*
X139449709Y-88849053D01*
X139449708Y-88849053D01*
X139243654Y-88884459D01*
X139243653Y-88884459D01*
X139237957Y-88885438D01*
X139030957Y-88961804D01*
X139025996Y-88964756D01*
X139025995Y-88964756D01*
X138986020Y-88988539D01*
X138841341Y-89074614D01*
X138675457Y-89220090D01*
X138538863Y-89393360D01*
X138436131Y-89588620D01*
X138415144Y-89656210D01*
X138375603Y-89783554D01*
X138370703Y-89799333D01*
X138344770Y-90018440D01*
X136252743Y-90018440D01*
X136235454Y-89830289D01*
X136228404Y-89805289D01*
X136177134Y-89623500D01*
X136175565Y-89617936D01*
X136077980Y-89420053D01*
X136063181Y-89400234D01*
X135949420Y-89247891D01*
X135949420Y-89247890D01*
X135945967Y-89243267D01*
X135846320Y-89151154D01*
X135788189Y-89097418D01*
X135788186Y-89097416D01*
X135783949Y-89093499D01*
X135597350Y-88975764D01*
X135392421Y-88894006D01*
X135386761Y-88892880D01*
X135386757Y-88892879D01*
X135181691Y-88852089D01*
X135181688Y-88852089D01*
X135176024Y-88850962D01*
X135170249Y-88850886D01*
X135170245Y-88850886D01*
X135059504Y-88849437D01*
X134955406Y-88848074D01*
X134949709Y-88849053D01*
X134949708Y-88849053D01*
X134743654Y-88884459D01*
X134743653Y-88884459D01*
X134737957Y-88885438D01*
X134530957Y-88961804D01*
X134525996Y-88964756D01*
X134525995Y-88964756D01*
X134486020Y-88988539D01*
X134341341Y-89074614D01*
X134175457Y-89220090D01*
X134038863Y-89393360D01*
X133936131Y-89588620D01*
X133915144Y-89656210D01*
X133875603Y-89783554D01*
X133870703Y-89799333D01*
X133844770Y-90018440D01*
X133550500Y-90018440D01*
X133550500Y-87965665D01*
X142595119Y-87965665D01*
X142595288Y-87968601D01*
X142608376Y-88195580D01*
X142609513Y-88200626D01*
X142609514Y-88200632D01*
X142631226Y-88296975D01*
X142659006Y-88420242D01*
X142660948Y-88425024D01*
X142660949Y-88425028D01*
X142743705Y-88628831D01*
X142745649Y-88633618D01*
X142865979Y-88829978D01*
X143016763Y-89004048D01*
X143193953Y-89151154D01*
X143392790Y-89267345D01*
X143607934Y-89349501D01*
X143613000Y-89350532D01*
X143613001Y-89350532D01*
X143678335Y-89363824D01*
X143833607Y-89395414D01*
X143963352Y-89400172D01*
X144058585Y-89403664D01*
X144058589Y-89403664D01*
X144063749Y-89403853D01*
X144068869Y-89403197D01*
X144068871Y-89403197D01*
X144145661Y-89393360D01*
X144292178Y-89374591D01*
X144297126Y-89373106D01*
X144297133Y-89373105D01*
X144507811Y-89309898D01*
X144507810Y-89309898D01*
X144512761Y-89308413D01*
X144719574Y-89207096D01*
X144907062Y-89073363D01*
X145070190Y-88910803D01*
X145128269Y-88829978D01*
X145201559Y-88727983D01*
X145204577Y-88723783D01*
X145226511Y-88679404D01*
X145304321Y-88521966D01*
X145306615Y-88517325D01*
X145342140Y-88400401D01*
X145372059Y-88301927D01*
X145372060Y-88301921D01*
X145373563Y-88296975D01*
X145403622Y-88068649D01*
X145405300Y-88000000D01*
X145386430Y-87770478D01*
X145330326Y-87547120D01*
X145276750Y-87423903D01*
X145240556Y-87340661D01*
X145240554Y-87340658D01*
X145238496Y-87335924D01*
X145161964Y-87217624D01*
X145116215Y-87146906D01*
X145116213Y-87146903D01*
X145113405Y-87142563D01*
X145092774Y-87119889D01*
X144961890Y-86976051D01*
X144961889Y-86976050D01*
X144958412Y-86972229D01*
X144954361Y-86969030D01*
X144954357Y-86969026D01*
X144781735Y-86832697D01*
X144781730Y-86832693D01*
X144777681Y-86829496D01*
X144773165Y-86827003D01*
X144773162Y-86827001D01*
X144580589Y-86720695D01*
X144580585Y-86720693D01*
X144576065Y-86718198D01*
X144571196Y-86716474D01*
X144571192Y-86716472D01*
X144363853Y-86643049D01*
X144363849Y-86643048D01*
X144358978Y-86641323D01*
X144353885Y-86640416D01*
X144353882Y-86640415D01*
X144257707Y-86623284D01*
X144132250Y-86600937D01*
X144045802Y-86599881D01*
X143907141Y-86598186D01*
X143907139Y-86598186D01*
X143901971Y-86598123D01*
X143674325Y-86632958D01*
X143455424Y-86704506D01*
X143251149Y-86810845D01*
X143066984Y-86949119D01*
X142907877Y-87115616D01*
X142778099Y-87305863D01*
X142775923Y-87310552D01*
X142775919Y-87310558D01*
X142683315Y-87510057D01*
X142681136Y-87514752D01*
X142619592Y-87736673D01*
X142595119Y-87965665D01*
X133550500Y-87965665D01*
X133550500Y-83518440D01*
X133844770Y-83518440D01*
X133859200Y-83738604D01*
X133860621Y-83744200D01*
X133860622Y-83744205D01*
X133899433Y-83897022D01*
X133913511Y-83952452D01*
X133915928Y-83957694D01*
X133915928Y-83957695D01*
X133951525Y-84034910D01*
X134005883Y-84152821D01*
X134133222Y-84333002D01*
X134291264Y-84486961D01*
X134296060Y-84490166D01*
X134296063Y-84490168D01*
X134380261Y-84546427D01*
X134474717Y-84609540D01*
X134480020Y-84611818D01*
X134480023Y-84611820D01*
X134672129Y-84694355D01*
X134677436Y-84696635D01*
X134757088Y-84714658D01*
X134886995Y-84744054D01*
X134887001Y-84744055D01*
X134892632Y-84745329D01*
X134898403Y-84745556D01*
X134898405Y-84745556D01*
X134966211Y-84748220D01*
X135113098Y-84753991D01*
X135222275Y-84738161D01*
X135325738Y-84723160D01*
X135325743Y-84723159D01*
X135331452Y-84722331D01*
X135336916Y-84720476D01*
X135336921Y-84720475D01*
X135534907Y-84653268D01*
X135534912Y-84653266D01*
X135540379Y-84651410D01*
X135732884Y-84543602D01*
X135759547Y-84521427D01*
X135898086Y-84406204D01*
X135902518Y-84402518D01*
X135964256Y-84328287D01*
X136039908Y-84237326D01*
X136039910Y-84237323D01*
X136043602Y-84232884D01*
X136151410Y-84040379D01*
X136153266Y-84034912D01*
X136153268Y-84034907D01*
X136220475Y-83836921D01*
X136220476Y-83836916D01*
X136222331Y-83831452D01*
X136223159Y-83825743D01*
X136223160Y-83825738D01*
X136253458Y-83616772D01*
X136253991Y-83613098D01*
X136255643Y-83550000D01*
X136235454Y-83330289D01*
X136228404Y-83305289D01*
X136184845Y-83150842D01*
X136175565Y-83117936D01*
X136077980Y-82920053D01*
X136063181Y-82900234D01*
X135949420Y-82747891D01*
X135949420Y-82747890D01*
X135945967Y-82743267D01*
X135783949Y-82593499D01*
X135597350Y-82475764D01*
X135392421Y-82394006D01*
X135386761Y-82392880D01*
X135386757Y-82392879D01*
X135181691Y-82352089D01*
X135181688Y-82352089D01*
X135176024Y-82350962D01*
X135170249Y-82350886D01*
X135170245Y-82350886D01*
X135059504Y-82349437D01*
X134955406Y-82348074D01*
X134949709Y-82349053D01*
X134949708Y-82349053D01*
X134743654Y-82384459D01*
X134743653Y-82384459D01*
X134737957Y-82385438D01*
X134530957Y-82461804D01*
X134341341Y-82574614D01*
X134175457Y-82720090D01*
X134038863Y-82893360D01*
X133936131Y-83088620D01*
X133893939Y-83224500D01*
X133875603Y-83283554D01*
X133870703Y-83299333D01*
X133844770Y-83518440D01*
X133550500Y-83518440D01*
X133550500Y-61100000D01*
X170469318Y-61100000D01*
X170489956Y-61256762D01*
X170550464Y-61402841D01*
X170646718Y-61528282D01*
X170772159Y-61624536D01*
X170918238Y-61685044D01*
X171075000Y-61705682D01*
X171083188Y-61704604D01*
X171223574Y-61686122D01*
X171231762Y-61685044D01*
X171377841Y-61624536D01*
X171503282Y-61528282D01*
X171508305Y-61521736D01*
X171508308Y-61521733D01*
X171525037Y-61499931D01*
X171582375Y-61458063D01*
X171653246Y-61453841D01*
X171715149Y-61488605D01*
X171724963Y-61499931D01*
X171741692Y-61521733D01*
X171741695Y-61521736D01*
X171746718Y-61528282D01*
X171872159Y-61624536D01*
X172018238Y-61685044D01*
X172175000Y-61705682D01*
X172183188Y-61704604D01*
X172323574Y-61686122D01*
X172331762Y-61685044D01*
X172477841Y-61624536D01*
X172603282Y-61528282D01*
X172699536Y-61402841D01*
X172760044Y-61256762D01*
X172780682Y-61100000D01*
X174194318Y-61100000D01*
X174214956Y-61256762D01*
X174275464Y-61402841D01*
X174371718Y-61528282D01*
X174497159Y-61624536D01*
X174643238Y-61685044D01*
X174800000Y-61705682D01*
X174808188Y-61704604D01*
X174948574Y-61686122D01*
X174956762Y-61685044D01*
X175102841Y-61624536D01*
X175228282Y-61528282D01*
X175233305Y-61521736D01*
X175233308Y-61521733D01*
X175250037Y-61499931D01*
X175307375Y-61458063D01*
X175378246Y-61453841D01*
X175440149Y-61488605D01*
X175449963Y-61499931D01*
X175466692Y-61521733D01*
X175466695Y-61521736D01*
X175471718Y-61528282D01*
X175597159Y-61624536D01*
X175743238Y-61685044D01*
X175900000Y-61705682D01*
X175908188Y-61704604D01*
X176048574Y-61686122D01*
X176056762Y-61685044D01*
X176202841Y-61624536D01*
X176328282Y-61528282D01*
X176424536Y-61402841D01*
X176485044Y-61256762D01*
X176505682Y-61100000D01*
X176485044Y-60943238D01*
X176424536Y-60797159D01*
X176328282Y-60671718D01*
X176321736Y-60666695D01*
X176321733Y-60666692D01*
X176299931Y-60649963D01*
X176258063Y-60592625D01*
X176253841Y-60521754D01*
X176288605Y-60459851D01*
X176299931Y-60450037D01*
X176321733Y-60433308D01*
X176321736Y-60433305D01*
X176328282Y-60428282D01*
X176424536Y-60302841D01*
X176485044Y-60156762D01*
X176505682Y-60000000D01*
X176485044Y-59843238D01*
X176424536Y-59697159D01*
X176328282Y-59571718D01*
X176202841Y-59475464D01*
X176056762Y-59414956D01*
X175900000Y-59394318D01*
X175743238Y-59414956D01*
X175597159Y-59475464D01*
X175471718Y-59571718D01*
X175466695Y-59578264D01*
X175466692Y-59578267D01*
X175449963Y-59600069D01*
X175392625Y-59641937D01*
X175321754Y-59646159D01*
X175259851Y-59611395D01*
X175250037Y-59600069D01*
X175233308Y-59578267D01*
X175233305Y-59578264D01*
X175228282Y-59571718D01*
X175102841Y-59475464D01*
X174956762Y-59414956D01*
X174800000Y-59394318D01*
X174643238Y-59414956D01*
X174497159Y-59475464D01*
X174371718Y-59571718D01*
X174275464Y-59697159D01*
X174214956Y-59843238D01*
X174194318Y-60000000D01*
X174214956Y-60156762D01*
X174275464Y-60302841D01*
X174371718Y-60428282D01*
X174378264Y-60433305D01*
X174378267Y-60433308D01*
X174400069Y-60450037D01*
X174441937Y-60507375D01*
X174446159Y-60578246D01*
X174411395Y-60640149D01*
X174400069Y-60649963D01*
X174378267Y-60666692D01*
X174378264Y-60666695D01*
X174371718Y-60671718D01*
X174275464Y-60797159D01*
X174214956Y-60943238D01*
X174194318Y-61100000D01*
X172780682Y-61100000D01*
X172760044Y-60943238D01*
X172699536Y-60797159D01*
X172603282Y-60671718D01*
X172596736Y-60666695D01*
X172596733Y-60666692D01*
X172574931Y-60649963D01*
X172533063Y-60592625D01*
X172528841Y-60521754D01*
X172563605Y-60459851D01*
X172574931Y-60450037D01*
X172596733Y-60433308D01*
X172596736Y-60433305D01*
X172603282Y-60428282D01*
X172699536Y-60302841D01*
X172760044Y-60156762D01*
X172780682Y-60000000D01*
X172760044Y-59843238D01*
X172699536Y-59697159D01*
X172603282Y-59571718D01*
X172477841Y-59475464D01*
X172331762Y-59414956D01*
X172175000Y-59394318D01*
X172018238Y-59414956D01*
X171872159Y-59475464D01*
X171746718Y-59571718D01*
X171741695Y-59578264D01*
X171741692Y-59578267D01*
X171724963Y-59600069D01*
X171667625Y-59641937D01*
X171596754Y-59646159D01*
X171534851Y-59611395D01*
X171525037Y-59600069D01*
X171508308Y-59578267D01*
X171508305Y-59578264D01*
X171503282Y-59571718D01*
X171377841Y-59475464D01*
X171231762Y-59414956D01*
X171075000Y-59394318D01*
X170918238Y-59414956D01*
X170772159Y-59475464D01*
X170646718Y-59571718D01*
X170550464Y-59697159D01*
X170489956Y-59843238D01*
X170469318Y-60000000D01*
X170489956Y-60156762D01*
X170550464Y-60302841D01*
X170646718Y-60428282D01*
X170653264Y-60433305D01*
X170653267Y-60433308D01*
X170675069Y-60450037D01*
X170716937Y-60507375D01*
X170721159Y-60578246D01*
X170686395Y-60640149D01*
X170675069Y-60649963D01*
X170653267Y-60666692D01*
X170653264Y-60666695D01*
X170646718Y-60671718D01*
X170550464Y-60797159D01*
X170489956Y-60943238D01*
X170469318Y-61100000D01*
X133550500Y-61100000D01*
X133550500Y-56965665D01*
X182995119Y-56965665D01*
X182995288Y-56968601D01*
X183008376Y-57195580D01*
X183009513Y-57200626D01*
X183009514Y-57200632D01*
X183031226Y-57296975D01*
X183059006Y-57420242D01*
X183060948Y-57425024D01*
X183060949Y-57425028D01*
X183143705Y-57628831D01*
X183145649Y-57633618D01*
X183265979Y-57829978D01*
X183416763Y-58004048D01*
X183593953Y-58151154D01*
X183792790Y-58267345D01*
X184007934Y-58349501D01*
X184013000Y-58350532D01*
X184013001Y-58350532D01*
X184113697Y-58371018D01*
X184233607Y-58395414D01*
X184363352Y-58400172D01*
X184458585Y-58403664D01*
X184458589Y-58403664D01*
X184463749Y-58403853D01*
X184468869Y-58403197D01*
X184468871Y-58403197D01*
X184538272Y-58394307D01*
X184692178Y-58374591D01*
X184697126Y-58373106D01*
X184697133Y-58373105D01*
X184907811Y-58309898D01*
X184907810Y-58309898D01*
X184912761Y-58308413D01*
X185119574Y-58207096D01*
X185307062Y-58073363D01*
X185470190Y-57910803D01*
X185528269Y-57829978D01*
X185601559Y-57727983D01*
X185604577Y-57723783D01*
X185626511Y-57679404D01*
X185704321Y-57521966D01*
X185706615Y-57517325D01*
X185742140Y-57400401D01*
X185772059Y-57301927D01*
X185772060Y-57301921D01*
X185773563Y-57296975D01*
X185803622Y-57068649D01*
X185805300Y-57000000D01*
X185786430Y-56770478D01*
X185730326Y-56547120D01*
X185676750Y-56423903D01*
X185640556Y-56340661D01*
X185640554Y-56340658D01*
X185638496Y-56335924D01*
X185561964Y-56217624D01*
X185516215Y-56146906D01*
X185516213Y-56146903D01*
X185513405Y-56142563D01*
X185492774Y-56119889D01*
X185361890Y-55976051D01*
X185361889Y-55976050D01*
X185358412Y-55972229D01*
X185354361Y-55969030D01*
X185354357Y-55969026D01*
X185181735Y-55832697D01*
X185181730Y-55832693D01*
X185177681Y-55829496D01*
X185173165Y-55827003D01*
X185173162Y-55827001D01*
X184980589Y-55720695D01*
X184980585Y-55720693D01*
X184976065Y-55718198D01*
X184971196Y-55716474D01*
X184971192Y-55716472D01*
X184763853Y-55643049D01*
X184763849Y-55643048D01*
X184758978Y-55641323D01*
X184753885Y-55640416D01*
X184753882Y-55640415D01*
X184657707Y-55623284D01*
X184532250Y-55600937D01*
X184445802Y-55599881D01*
X184307141Y-55598186D01*
X184307139Y-55598186D01*
X184301971Y-55598123D01*
X184074325Y-55632958D01*
X183855424Y-55704506D01*
X183651149Y-55810845D01*
X183466984Y-55949119D01*
X183307877Y-56115616D01*
X183178099Y-56305863D01*
X183175923Y-56310552D01*
X183175919Y-56310558D01*
X183083315Y-56510057D01*
X183081136Y-56514752D01*
X183019592Y-56736673D01*
X182995119Y-56965665D01*
X133550500Y-56965665D01*
X133550500Y-51600000D01*
X160394318Y-51600000D01*
X160414956Y-51756762D01*
X160475464Y-51902841D01*
X160571718Y-52028282D01*
X160578264Y-52033305D01*
X160583227Y-52037113D01*
X160697159Y-52124536D01*
X160843238Y-52185044D01*
X161000000Y-52205682D01*
X161008188Y-52204604D01*
X161148574Y-52186122D01*
X161156762Y-52185044D01*
X161302841Y-52124536D01*
X161416773Y-52037113D01*
X161421736Y-52033305D01*
X161428282Y-52028282D01*
X161469323Y-51974796D01*
X161526661Y-51932929D01*
X161569286Y-51925500D01*
X163637984Y-51925500D01*
X163706105Y-51945502D01*
X163727079Y-51962405D01*
X165842291Y-54077617D01*
X165876317Y-54139929D01*
X165878118Y-54183157D01*
X165869318Y-54250000D01*
X165889956Y-54406762D01*
X165950464Y-54552841D01*
X166046718Y-54678282D01*
X166172159Y-54774536D01*
X166318238Y-54835044D01*
X166475000Y-54855682D01*
X166483188Y-54854604D01*
X166623574Y-54836122D01*
X166631762Y-54835044D01*
X166777841Y-54774536D01*
X166903282Y-54678282D01*
X166999536Y-54552841D01*
X167060044Y-54406762D01*
X167080682Y-54250000D01*
X167060044Y-54093238D01*
X166999536Y-53947159D01*
X166903282Y-53821718D01*
X166777841Y-53725464D01*
X166631762Y-53664956D01*
X166475000Y-53644318D01*
X166408157Y-53653118D01*
X166338010Y-53642179D01*
X166302617Y-53617291D01*
X164069111Y-51383785D01*
X164061684Y-51375681D01*
X164044541Y-51355251D01*
X164044542Y-51355251D01*
X164037455Y-51346806D01*
X164027906Y-51341293D01*
X164004815Y-51327961D01*
X163995544Y-51322055D01*
X163973715Y-51306770D01*
X163964684Y-51300446D01*
X163954034Y-51297592D01*
X163950866Y-51296115D01*
X163947590Y-51294923D01*
X163938045Y-51289412D01*
X163904301Y-51283462D01*
X163900942Y-51282870D01*
X163890215Y-51280492D01*
X163853807Y-51270736D01*
X163842822Y-51271697D01*
X163842820Y-51271697D01*
X163816272Y-51274020D01*
X163805290Y-51274500D01*
X161569286Y-51274500D01*
X161501165Y-51254498D01*
X161469323Y-51225204D01*
X161433305Y-51178264D01*
X161428282Y-51171718D01*
X161302841Y-51075464D01*
X161156762Y-51014956D01*
X161000000Y-50994318D01*
X160843238Y-51014956D01*
X160697159Y-51075464D01*
X160571718Y-51171718D01*
X160475464Y-51297159D01*
X160414956Y-51443238D01*
X160394318Y-51600000D01*
X133550500Y-51600000D01*
X133550500Y-45965665D01*
X135595119Y-45965665D01*
X135595288Y-45968601D01*
X135608376Y-46195580D01*
X135609513Y-46200626D01*
X135609514Y-46200632D01*
X135631226Y-46296975D01*
X135659006Y-46420242D01*
X135660948Y-46425024D01*
X135660949Y-46425028D01*
X135734228Y-46605491D01*
X135745649Y-46633618D01*
X135865979Y-46829978D01*
X136016763Y-47004048D01*
X136193953Y-47151154D01*
X136392790Y-47267345D01*
X136397615Y-47269187D01*
X136397616Y-47269188D01*
X136430544Y-47281762D01*
X136607934Y-47349501D01*
X136613000Y-47350532D01*
X136613001Y-47350532D01*
X136713697Y-47371018D01*
X136833607Y-47395414D01*
X136963352Y-47400172D01*
X137058585Y-47403664D01*
X137058589Y-47403664D01*
X137063749Y-47403853D01*
X137068869Y-47403197D01*
X137068871Y-47403197D01*
X137138272Y-47394307D01*
X137292178Y-47374591D01*
X137297126Y-47373106D01*
X137297133Y-47373105D01*
X137507811Y-47309898D01*
X137507810Y-47309898D01*
X137512761Y-47308413D01*
X137719574Y-47207096D01*
X137907062Y-47073363D01*
X138070190Y-46910803D01*
X138128269Y-46829978D01*
X138201559Y-46727983D01*
X138204577Y-46723783D01*
X138217954Y-46696718D01*
X138270943Y-46589501D01*
X147720630Y-46589501D01*
X147721870Y-46596717D01*
X147721870Y-46596719D01*
X147745916Y-46736658D01*
X147749280Y-46756233D01*
X147815518Y-46911902D01*
X147819855Y-46917795D01*
X147911453Y-47042264D01*
X147911455Y-47042267D01*
X147915791Y-47048158D01*
X147941170Y-47069719D01*
X148039146Y-47152957D01*
X148039149Y-47152959D01*
X148044720Y-47157692D01*
X148195389Y-47234627D01*
X148202498Y-47236367D01*
X148202502Y-47236368D01*
X148302545Y-47260848D01*
X148359717Y-47274838D01*
X148365314Y-47275185D01*
X148365319Y-47275186D01*
X148368449Y-47275380D01*
X148368458Y-47275380D01*
X148370388Y-47275500D01*
X148492363Y-47275500D01*
X148581035Y-47265162D01*
X148610765Y-47261696D01*
X148610766Y-47261696D01*
X148618037Y-47260848D01*
X148624914Y-47258352D01*
X148624917Y-47258351D01*
X148770182Y-47205622D01*
X148777061Y-47203125D01*
X148918540Y-47110367D01*
X149034885Y-46987550D01*
X149119856Y-46841262D01*
X149168895Y-46679350D01*
X149174469Y-46589501D01*
X154520630Y-46589501D01*
X154521870Y-46596717D01*
X154521870Y-46596719D01*
X154545916Y-46736658D01*
X154549280Y-46756233D01*
X154615518Y-46911902D01*
X154619855Y-46917795D01*
X154711453Y-47042264D01*
X154711455Y-47042267D01*
X154715791Y-47048158D01*
X154741170Y-47069719D01*
X154839146Y-47152957D01*
X154839149Y-47152959D01*
X154844720Y-47157692D01*
X154995389Y-47234627D01*
X155002498Y-47236367D01*
X155002502Y-47236368D01*
X155102545Y-47260848D01*
X155159717Y-47274838D01*
X155165314Y-47275185D01*
X155165319Y-47275186D01*
X155168449Y-47275380D01*
X155168458Y-47275380D01*
X155170388Y-47275500D01*
X155292363Y-47275500D01*
X155381035Y-47265162D01*
X155410765Y-47261696D01*
X155410766Y-47261696D01*
X155418037Y-47260848D01*
X155424914Y-47258352D01*
X155424917Y-47258351D01*
X155570182Y-47205622D01*
X155577061Y-47203125D01*
X155696221Y-47125000D01*
X163394318Y-47125000D01*
X163414956Y-47281762D01*
X163475464Y-47427841D01*
X163571718Y-47553282D01*
X163697159Y-47649536D01*
X163843238Y-47710044D01*
X164000000Y-47730682D01*
X164008188Y-47729604D01*
X164148574Y-47711122D01*
X164156762Y-47710044D01*
X164302841Y-47649536D01*
X164428282Y-47553282D01*
X164431159Y-47549533D01*
X164492037Y-47516290D01*
X164562852Y-47521355D01*
X164619688Y-47563902D01*
X164631085Y-47582205D01*
X164646950Y-47613342D01*
X164736658Y-47703050D01*
X164849696Y-47760646D01*
X164859485Y-47762196D01*
X164859487Y-47762197D01*
X164886849Y-47766530D01*
X164943481Y-47775500D01*
X165249938Y-47775500D01*
X165556518Y-47775499D01*
X165561412Y-47774724D01*
X165640506Y-47762198D01*
X165640508Y-47762197D01*
X165650304Y-47760646D01*
X165763342Y-47703050D01*
X165853050Y-47613342D01*
X165857550Y-47604510D01*
X165857554Y-47604505D01*
X165900970Y-47519297D01*
X165949718Y-47467682D01*
X166013236Y-47450500D01*
X171022011Y-47450500D01*
X171090132Y-47470502D01*
X171136625Y-47524158D01*
X171146729Y-47594432D01*
X171131131Y-47639499D01*
X171130491Y-47640608D01*
X171125464Y-47647159D01*
X171064956Y-47793238D01*
X171044318Y-47950000D01*
X171064956Y-48106762D01*
X171125464Y-48252841D01*
X171130491Y-48259392D01*
X171130493Y-48259396D01*
X171150751Y-48285797D01*
X171176351Y-48352017D01*
X171162086Y-48421566D01*
X171150751Y-48439203D01*
X171130493Y-48465604D01*
X171130491Y-48465608D01*
X171125464Y-48472159D01*
X171064956Y-48618238D01*
X171044318Y-48775000D01*
X171064956Y-48931762D01*
X171125464Y-49077841D01*
X171130491Y-49084392D01*
X171130493Y-49084396D01*
X171150751Y-49110797D01*
X171176351Y-49177017D01*
X171162086Y-49246566D01*
X171150751Y-49264203D01*
X171130493Y-49290604D01*
X171130491Y-49290608D01*
X171125464Y-49297159D01*
X171064956Y-49443238D01*
X171044318Y-49600000D01*
X171064956Y-49756762D01*
X171125464Y-49902841D01*
X171130491Y-49909392D01*
X171130493Y-49909396D01*
X171150751Y-49935797D01*
X171176351Y-50002017D01*
X171162086Y-50071566D01*
X171150751Y-50089203D01*
X171130493Y-50115604D01*
X171130491Y-50115608D01*
X171125464Y-50122159D01*
X171064956Y-50268238D01*
X171044318Y-50425000D01*
X171064956Y-50581762D01*
X171125464Y-50727841D01*
X171130491Y-50734392D01*
X171130493Y-50734396D01*
X171150751Y-50760797D01*
X171176351Y-50827017D01*
X171162086Y-50896566D01*
X171150751Y-50914203D01*
X171130493Y-50940604D01*
X171130491Y-50940608D01*
X171125464Y-50947159D01*
X171064956Y-51093238D01*
X171044318Y-51250000D01*
X171064956Y-51406762D01*
X171125464Y-51552841D01*
X171130491Y-51559392D01*
X171130493Y-51559396D01*
X171150751Y-51585797D01*
X171176351Y-51652017D01*
X171162086Y-51721566D01*
X171150751Y-51739203D01*
X171130493Y-51765604D01*
X171130491Y-51765608D01*
X171125464Y-51772159D01*
X171064956Y-51918238D01*
X171044318Y-52075000D01*
X171045396Y-52083188D01*
X171061523Y-52205682D01*
X171064956Y-52231762D01*
X171125464Y-52377841D01*
X171130491Y-52384392D01*
X171130493Y-52384396D01*
X171150751Y-52410797D01*
X171176351Y-52477017D01*
X171162086Y-52546566D01*
X171150751Y-52564203D01*
X171130493Y-52590604D01*
X171130491Y-52590608D01*
X171125464Y-52597159D01*
X171064956Y-52743238D01*
X171044318Y-52900000D01*
X171064956Y-53056762D01*
X171125464Y-53202841D01*
X171221718Y-53328282D01*
X171347159Y-53424536D01*
X171493238Y-53485044D01*
X171650000Y-53505682D01*
X171658188Y-53504604D01*
X171798574Y-53486122D01*
X171806762Y-53485044D01*
X171952841Y-53424536D01*
X172078282Y-53328282D01*
X172174536Y-53202841D01*
X172235044Y-53056762D01*
X172255682Y-52900000D01*
X172235044Y-52743238D01*
X172174536Y-52597159D01*
X172169509Y-52590608D01*
X172169507Y-52590604D01*
X172149249Y-52564203D01*
X172123649Y-52497983D01*
X172137914Y-52428434D01*
X172149249Y-52410797D01*
X172151648Y-52407670D01*
X185732160Y-52407670D01*
X185737887Y-52415320D01*
X185909042Y-52520205D01*
X185917837Y-52524687D01*
X186127988Y-52611734D01*
X186137373Y-52614783D01*
X186358554Y-52667885D01*
X186368301Y-52669428D01*
X186595070Y-52687275D01*
X186604930Y-52687275D01*
X186831699Y-52669428D01*
X186841446Y-52667885D01*
X187062627Y-52614783D01*
X187072012Y-52611734D01*
X187282163Y-52524687D01*
X187290958Y-52520205D01*
X187458445Y-52417568D01*
X187467907Y-52407110D01*
X187464124Y-52398334D01*
X186612812Y-51547022D01*
X186598868Y-51539408D01*
X186597035Y-51539539D01*
X186590420Y-51543790D01*
X185738920Y-52395290D01*
X185732160Y-52407670D01*
X172151648Y-52407670D01*
X172169507Y-52384396D01*
X172169509Y-52384392D01*
X172174536Y-52377841D01*
X172235044Y-52231762D01*
X172238478Y-52205682D01*
X172254604Y-52083188D01*
X172255682Y-52075000D01*
X172235044Y-51918238D01*
X172174536Y-51772159D01*
X172169509Y-51765608D01*
X172169507Y-51765604D01*
X172149249Y-51739203D01*
X172123649Y-51672983D01*
X172137914Y-51603434D01*
X172149249Y-51585797D01*
X172169507Y-51559396D01*
X172169509Y-51559392D01*
X172174536Y-51552841D01*
X172235044Y-51406762D01*
X172255682Y-51250000D01*
X172241653Y-51143440D01*
X180894770Y-51143440D01*
X180909200Y-51363604D01*
X180910621Y-51369200D01*
X180910622Y-51369205D01*
X180958925Y-51559396D01*
X180963511Y-51577452D01*
X180965928Y-51582694D01*
X180965928Y-51582695D01*
X181002719Y-51662500D01*
X181055883Y-51777821D01*
X181183222Y-51958002D01*
X181341264Y-52111961D01*
X181346060Y-52115166D01*
X181346063Y-52115168D01*
X181430261Y-52171427D01*
X181524717Y-52234540D01*
X181530020Y-52236818D01*
X181530023Y-52236820D01*
X181722129Y-52319355D01*
X181727436Y-52321635D01*
X181807088Y-52339658D01*
X181936995Y-52369054D01*
X181937001Y-52369055D01*
X181942632Y-52370329D01*
X181948403Y-52370556D01*
X181948405Y-52370556D01*
X182016211Y-52373220D01*
X182163098Y-52378991D01*
X182272275Y-52363161D01*
X182375738Y-52348160D01*
X182375743Y-52348159D01*
X182381452Y-52347331D01*
X182386916Y-52345476D01*
X182386921Y-52345475D01*
X182584907Y-52278268D01*
X182584912Y-52278266D01*
X182590379Y-52276410D01*
X182782884Y-52168602D01*
X182835868Y-52124536D01*
X182948086Y-52031204D01*
X182952518Y-52027518D01*
X182996367Y-51974796D01*
X183089908Y-51862326D01*
X183089910Y-51862323D01*
X183093602Y-51857884D01*
X183201410Y-51665379D01*
X183203266Y-51659912D01*
X183203268Y-51659907D01*
X183270475Y-51461921D01*
X183270476Y-51461916D01*
X183272331Y-51456452D01*
X183273159Y-51450743D01*
X183273160Y-51450738D01*
X183294951Y-51300446D01*
X183303991Y-51238098D01*
X183305514Y-51179930D01*
X185087725Y-51179930D01*
X185105572Y-51406699D01*
X185107115Y-51416446D01*
X185160217Y-51637627D01*
X185163266Y-51647012D01*
X185250313Y-51857163D01*
X185254795Y-51865958D01*
X185357432Y-52033445D01*
X185367890Y-52042907D01*
X185376666Y-52039124D01*
X186227978Y-51187812D01*
X186235592Y-51173868D01*
X186235461Y-51172035D01*
X186231210Y-51165420D01*
X185379710Y-50313920D01*
X185367330Y-50307160D01*
X185359680Y-50312887D01*
X185254795Y-50484042D01*
X185250313Y-50492837D01*
X185163266Y-50702988D01*
X185160217Y-50712373D01*
X185107115Y-50933554D01*
X185105572Y-50943301D01*
X185087725Y-51170070D01*
X185087725Y-51179930D01*
X183305514Y-51179930D01*
X183305643Y-51175000D01*
X183285454Y-50955289D01*
X183281313Y-50940604D01*
X183227134Y-50748500D01*
X183225565Y-50742936D01*
X183127980Y-50545053D01*
X183032218Y-50416812D01*
X182999420Y-50372891D01*
X182999420Y-50372890D01*
X182995967Y-50368267D01*
X182833949Y-50218499D01*
X182647350Y-50100764D01*
X182442421Y-50019006D01*
X182436761Y-50017880D01*
X182436757Y-50017879D01*
X182231691Y-49977089D01*
X182231688Y-49977089D01*
X182226024Y-49975962D01*
X182220249Y-49975886D01*
X182220245Y-49975886D01*
X182109504Y-49974437D01*
X182005406Y-49973074D01*
X181999709Y-49974053D01*
X181999708Y-49974053D01*
X181793654Y-50009459D01*
X181793653Y-50009459D01*
X181787957Y-50010438D01*
X181580957Y-50086804D01*
X181391341Y-50199614D01*
X181225457Y-50345090D01*
X181088863Y-50518360D01*
X180986131Y-50713620D01*
X180920703Y-50924333D01*
X180894770Y-51143440D01*
X172241653Y-51143440D01*
X172235044Y-51093238D01*
X172174536Y-50947159D01*
X172169509Y-50940608D01*
X172169507Y-50940604D01*
X172149249Y-50914203D01*
X172123649Y-50847983D01*
X172137914Y-50778434D01*
X172149249Y-50760797D01*
X172169507Y-50734396D01*
X172169509Y-50734392D01*
X172174536Y-50727841D01*
X172235044Y-50581762D01*
X172255682Y-50425000D01*
X172235044Y-50268238D01*
X172174536Y-50122159D01*
X172169509Y-50115608D01*
X172169507Y-50115604D01*
X172149249Y-50089203D01*
X172123649Y-50022983D01*
X172137914Y-49953434D01*
X172144690Y-49942890D01*
X185732093Y-49942890D01*
X185735876Y-49951666D01*
X186587188Y-50802978D01*
X186601132Y-50810592D01*
X186602965Y-50810461D01*
X186609580Y-50806210D01*
X187461080Y-49954710D01*
X187467840Y-49942330D01*
X187462113Y-49934680D01*
X187290958Y-49829795D01*
X187282163Y-49825313D01*
X187072012Y-49738266D01*
X187062627Y-49735217D01*
X186841446Y-49682115D01*
X186831699Y-49680572D01*
X186604930Y-49662725D01*
X186595070Y-49662725D01*
X186368301Y-49680572D01*
X186358554Y-49682115D01*
X186137373Y-49735217D01*
X186127988Y-49738266D01*
X185917837Y-49825313D01*
X185909042Y-49829795D01*
X185741555Y-49932432D01*
X185732093Y-49942890D01*
X172144690Y-49942890D01*
X172149249Y-49935797D01*
X172169507Y-49909396D01*
X172169509Y-49909392D01*
X172174536Y-49902841D01*
X172235044Y-49756762D01*
X172255682Y-49600000D01*
X172235044Y-49443238D01*
X172174536Y-49297159D01*
X172169509Y-49290608D01*
X172169507Y-49290604D01*
X172149249Y-49264203D01*
X172123649Y-49197983D01*
X172137914Y-49128434D01*
X172149249Y-49110797D01*
X172169507Y-49084396D01*
X172169509Y-49084392D01*
X172174536Y-49077841D01*
X172235044Y-48931762D01*
X172255682Y-48775000D01*
X172235044Y-48618238D01*
X172174536Y-48472159D01*
X172169509Y-48465608D01*
X172169507Y-48465604D01*
X172149249Y-48439203D01*
X172123649Y-48372983D01*
X172137914Y-48303434D01*
X172149249Y-48285797D01*
X172169507Y-48259396D01*
X172169509Y-48259392D01*
X172174536Y-48252841D01*
X172235044Y-48106762D01*
X172255682Y-47950000D01*
X172235044Y-47793238D01*
X172174536Y-47647159D01*
X172169509Y-47640608D01*
X172169507Y-47640604D01*
X172149249Y-47614203D01*
X172123649Y-47547983D01*
X172137914Y-47478434D01*
X172149249Y-47460797D01*
X172169507Y-47434396D01*
X172169509Y-47434392D01*
X172174536Y-47427841D01*
X172235044Y-47281762D01*
X172255682Y-47125000D01*
X172235044Y-46968238D01*
X172174536Y-46822159D01*
X172078282Y-46696718D01*
X172064785Y-46686361D01*
X171996048Y-46633618D01*
X171952841Y-46600464D01*
X171806762Y-46539956D01*
X171650000Y-46519318D01*
X171493238Y-46539956D01*
X171347159Y-46600464D01*
X171303952Y-46633618D01*
X171235216Y-46686361D01*
X171221718Y-46696718D01*
X171216695Y-46703264D01*
X171180677Y-46750204D01*
X171123339Y-46792071D01*
X171080714Y-46799500D01*
X165960990Y-46799500D01*
X165892869Y-46779498D01*
X165859055Y-46747563D01*
X165857553Y-46745496D01*
X165853050Y-46736658D01*
X165763342Y-46646950D01*
X165650304Y-46589354D01*
X165640515Y-46587804D01*
X165640513Y-46587803D01*
X165605072Y-46582190D01*
X165556519Y-46574500D01*
X165250062Y-46574500D01*
X164943482Y-46574501D01*
X164938589Y-46575276D01*
X164938588Y-46575276D01*
X164859494Y-46587802D01*
X164859492Y-46587803D01*
X164849696Y-46589354D01*
X164736658Y-46646950D01*
X164646950Y-46736658D01*
X164645461Y-46735169D01*
X164599442Y-46770651D01*
X164528705Y-46776722D01*
X164465916Y-46743586D01*
X164453773Y-46729937D01*
X164433309Y-46703268D01*
X164433305Y-46703264D01*
X164428282Y-46696718D01*
X164414785Y-46686361D01*
X164346048Y-46633618D01*
X164302841Y-46600464D01*
X164156762Y-46539956D01*
X164000000Y-46519318D01*
X163843238Y-46539956D01*
X163697159Y-46600464D01*
X163653952Y-46633618D01*
X163585216Y-46686361D01*
X163571718Y-46696718D01*
X163475464Y-46822159D01*
X163414956Y-46968238D01*
X163394318Y-47125000D01*
X155696221Y-47125000D01*
X155718540Y-47110367D01*
X155834885Y-46987550D01*
X155919856Y-46841262D01*
X155968895Y-46679350D01*
X155979370Y-46510499D01*
X155975484Y-46487881D01*
X155951960Y-46350983D01*
X155950720Y-46343767D01*
X155884482Y-46188098D01*
X155850354Y-46141723D01*
X155788547Y-46057736D01*
X155788545Y-46057733D01*
X155784209Y-46051842D01*
X155727147Y-46003364D01*
X155660854Y-45947043D01*
X155660851Y-45947041D01*
X155655280Y-45942308D01*
X155587445Y-45907670D01*
X185732160Y-45907670D01*
X185737887Y-45915320D01*
X185909042Y-46020205D01*
X185917837Y-46024687D01*
X186127988Y-46111734D01*
X186137373Y-46114783D01*
X186358554Y-46167885D01*
X186368301Y-46169428D01*
X186595070Y-46187275D01*
X186604930Y-46187275D01*
X186831699Y-46169428D01*
X186841446Y-46167885D01*
X187062627Y-46114783D01*
X187072012Y-46111734D01*
X187282163Y-46024687D01*
X187290958Y-46020205D01*
X187458445Y-45917568D01*
X187467907Y-45907110D01*
X187464124Y-45898334D01*
X186612812Y-45047022D01*
X186598868Y-45039408D01*
X186597035Y-45039539D01*
X186590420Y-45043790D01*
X185738920Y-45895290D01*
X185732160Y-45907670D01*
X155587445Y-45907670D01*
X155504611Y-45865373D01*
X155497502Y-45863633D01*
X155497498Y-45863632D01*
X155382108Y-45835396D01*
X155340283Y-45825162D01*
X155334686Y-45824815D01*
X155334681Y-45824814D01*
X155331551Y-45824620D01*
X155331542Y-45824620D01*
X155329612Y-45824500D01*
X155207637Y-45824500D01*
X155118965Y-45834838D01*
X155089235Y-45838304D01*
X155089234Y-45838304D01*
X155081963Y-45839152D01*
X155075086Y-45841648D01*
X155075083Y-45841649D01*
X154929818Y-45894378D01*
X154922939Y-45896875D01*
X154781460Y-45989633D01*
X154665115Y-46112450D01*
X154580144Y-46258738D01*
X154531105Y-46420650D01*
X154520630Y-46589501D01*
X149174469Y-46589501D01*
X149179370Y-46510499D01*
X149175484Y-46487881D01*
X149151960Y-46350983D01*
X149150720Y-46343767D01*
X149084482Y-46188098D01*
X149050354Y-46141723D01*
X148988547Y-46057736D01*
X148988545Y-46057733D01*
X148984209Y-46051842D01*
X148927147Y-46003364D01*
X148860854Y-45947043D01*
X148860851Y-45947041D01*
X148855280Y-45942308D01*
X148704611Y-45865373D01*
X148697502Y-45863633D01*
X148697498Y-45863632D01*
X148582108Y-45835396D01*
X148540283Y-45825162D01*
X148534686Y-45824815D01*
X148534681Y-45824814D01*
X148531551Y-45824620D01*
X148531542Y-45824620D01*
X148529612Y-45824500D01*
X148407637Y-45824500D01*
X148318965Y-45834838D01*
X148289235Y-45838304D01*
X148289234Y-45838304D01*
X148281963Y-45839152D01*
X148275086Y-45841648D01*
X148275083Y-45841649D01*
X148129818Y-45894378D01*
X148122939Y-45896875D01*
X147981460Y-45989633D01*
X147865115Y-46112450D01*
X147780144Y-46258738D01*
X147731105Y-46420650D01*
X147720630Y-46589501D01*
X138270943Y-46589501D01*
X138271016Y-46589354D01*
X138306615Y-46517325D01*
X138334657Y-46425028D01*
X138372059Y-46301927D01*
X138372060Y-46301921D01*
X138373563Y-46296975D01*
X138388672Y-46182205D01*
X138403185Y-46071971D01*
X138403185Y-46071965D01*
X138403622Y-46068649D01*
X138405300Y-46000000D01*
X138386430Y-45770478D01*
X138330326Y-45547120D01*
X138276750Y-45423903D01*
X138240556Y-45340661D01*
X138240554Y-45340658D01*
X138238496Y-45335924D01*
X138161964Y-45217624D01*
X138116215Y-45146906D01*
X138116213Y-45146903D01*
X138113405Y-45142563D01*
X138092774Y-45119889D01*
X137961890Y-44976051D01*
X137961889Y-44976050D01*
X137958412Y-44972229D01*
X137954361Y-44969030D01*
X137954357Y-44969026D01*
X137781735Y-44832697D01*
X137781730Y-44832693D01*
X137777681Y-44829496D01*
X137773165Y-44827003D01*
X137773162Y-44827001D01*
X137580589Y-44720695D01*
X137580585Y-44720693D01*
X137576065Y-44718198D01*
X137571196Y-44716474D01*
X137571192Y-44716472D01*
X137363853Y-44643049D01*
X137363849Y-44643048D01*
X137358978Y-44641323D01*
X137353885Y-44640416D01*
X137353882Y-44640415D01*
X137257707Y-44623284D01*
X137132250Y-44600937D01*
X137045802Y-44599881D01*
X136907141Y-44598186D01*
X136907139Y-44598186D01*
X136901971Y-44598123D01*
X136674325Y-44632958D01*
X136455424Y-44704506D01*
X136251149Y-44810845D01*
X136066984Y-44949119D01*
X135907877Y-45115616D01*
X135778099Y-45305863D01*
X135775923Y-45310552D01*
X135775919Y-45310558D01*
X135683315Y-45510057D01*
X135681136Y-45514752D01*
X135619592Y-45736673D01*
X135619043Y-45741810D01*
X135597971Y-45938982D01*
X135595119Y-45965665D01*
X133550500Y-45965665D01*
X133550500Y-44475000D01*
X161569318Y-44475000D01*
X161589956Y-44631762D01*
X161650464Y-44777841D01*
X161746718Y-44903282D01*
X161753264Y-44908305D01*
X161782918Y-44931059D01*
X161872159Y-44999536D01*
X162018238Y-45060044D01*
X162175000Y-45080682D01*
X162183188Y-45079604D01*
X162323574Y-45061122D01*
X162331762Y-45060044D01*
X162477841Y-44999536D01*
X162484392Y-44994509D01*
X162484396Y-44994507D01*
X162510797Y-44974249D01*
X162577017Y-44948649D01*
X162646566Y-44962914D01*
X162664203Y-44974249D01*
X162690604Y-44994507D01*
X162690608Y-44994509D01*
X162697159Y-44999536D01*
X162843238Y-45060044D01*
X163000000Y-45080682D01*
X163008188Y-45079604D01*
X163148574Y-45061122D01*
X163156762Y-45060044D01*
X163302841Y-44999536D01*
X163392082Y-44931059D01*
X163421736Y-44908305D01*
X163428282Y-44903282D01*
X163524536Y-44777841D01*
X163580207Y-44643440D01*
X180894770Y-44643440D01*
X180909200Y-44863604D01*
X180910621Y-44869200D01*
X180910622Y-44869205D01*
X180944525Y-45002696D01*
X180963511Y-45077452D01*
X180965928Y-45082694D01*
X180965928Y-45082695D01*
X181004046Y-45165379D01*
X181055883Y-45277821D01*
X181183222Y-45458002D01*
X181341264Y-45611961D01*
X181346060Y-45615166D01*
X181346063Y-45615168D01*
X181430261Y-45671427D01*
X181524717Y-45734540D01*
X181530020Y-45736818D01*
X181530023Y-45736820D01*
X181633805Y-45781408D01*
X181727436Y-45821635D01*
X181801102Y-45838304D01*
X181936995Y-45869054D01*
X181937001Y-45869055D01*
X181942632Y-45870329D01*
X181948403Y-45870556D01*
X181948405Y-45870556D01*
X182016211Y-45873220D01*
X182163098Y-45878991D01*
X182272275Y-45863161D01*
X182375738Y-45848160D01*
X182375743Y-45848159D01*
X182381452Y-45847331D01*
X182386916Y-45845476D01*
X182386921Y-45845475D01*
X182584907Y-45778268D01*
X182584912Y-45778266D01*
X182590379Y-45776410D01*
X182600972Y-45770478D01*
X182670875Y-45731330D01*
X182782884Y-45668602D01*
X182952518Y-45527518D01*
X182979482Y-45495097D01*
X183089908Y-45362326D01*
X183089910Y-45362323D01*
X183093602Y-45357884D01*
X183183490Y-45197378D01*
X183198586Y-45170422D01*
X183198587Y-45170420D01*
X183201410Y-45165379D01*
X183203266Y-45159912D01*
X183203268Y-45159907D01*
X183270475Y-44961921D01*
X183270476Y-44961916D01*
X183272331Y-44956452D01*
X183273159Y-44950743D01*
X183273160Y-44950738D01*
X183297279Y-44784392D01*
X183303991Y-44738098D01*
X183305514Y-44679930D01*
X185087725Y-44679930D01*
X185105572Y-44906699D01*
X185107115Y-44916446D01*
X185160217Y-45137627D01*
X185163266Y-45147012D01*
X185250313Y-45357163D01*
X185254795Y-45365958D01*
X185357432Y-45533445D01*
X185367890Y-45542907D01*
X185376666Y-45539124D01*
X186227978Y-44687812D01*
X186235592Y-44673868D01*
X186235461Y-44672035D01*
X186231210Y-44665420D01*
X185379710Y-43813920D01*
X185367330Y-43807160D01*
X185359680Y-43812887D01*
X185254795Y-43984042D01*
X185250313Y-43992837D01*
X185163266Y-44202988D01*
X185160217Y-44212373D01*
X185107115Y-44433554D01*
X185105572Y-44443301D01*
X185087725Y-44670070D01*
X185087725Y-44679930D01*
X183305514Y-44679930D01*
X183305643Y-44675000D01*
X183285454Y-44455289D01*
X183225565Y-44242936D01*
X183127980Y-44045053D01*
X183007934Y-43884292D01*
X182999420Y-43872891D01*
X182999420Y-43872890D01*
X182995967Y-43868267D01*
X182833949Y-43718499D01*
X182647350Y-43600764D01*
X182442421Y-43519006D01*
X182436761Y-43517880D01*
X182436757Y-43517879D01*
X182231691Y-43477089D01*
X182231688Y-43477089D01*
X182226024Y-43475962D01*
X182220249Y-43475886D01*
X182220245Y-43475886D01*
X182109504Y-43474437D01*
X182005406Y-43473074D01*
X181999709Y-43474053D01*
X181999708Y-43474053D01*
X181793654Y-43509459D01*
X181793653Y-43509459D01*
X181787957Y-43510438D01*
X181580957Y-43586804D01*
X181391341Y-43699614D01*
X181225457Y-43845090D01*
X181088863Y-44018360D01*
X180986131Y-44213620D01*
X180920703Y-44424333D01*
X180894770Y-44643440D01*
X163580207Y-44643440D01*
X163585044Y-44631762D01*
X163605682Y-44475000D01*
X163596882Y-44408157D01*
X163607821Y-44338010D01*
X163632709Y-44302617D01*
X164660326Y-43275000D01*
X171119318Y-43275000D01*
X171139956Y-43431762D01*
X171200464Y-43577841D01*
X171296718Y-43703282D01*
X171422159Y-43799536D01*
X171522933Y-43841278D01*
X171555827Y-43854903D01*
X171568238Y-43860044D01*
X171725000Y-43880682D01*
X171733188Y-43879604D01*
X171775353Y-43874053D01*
X171881762Y-43860044D01*
X171894174Y-43854903D01*
X171927067Y-43841278D01*
X172027841Y-43799536D01*
X172153282Y-43703282D01*
X172249536Y-43577841D01*
X172310044Y-43431762D01*
X172330682Y-43275000D01*
X173244318Y-43275000D01*
X173264956Y-43431762D01*
X173325464Y-43577841D01*
X173421718Y-43703282D01*
X173547159Y-43799536D01*
X173647933Y-43841278D01*
X173680827Y-43854903D01*
X173693238Y-43860044D01*
X173850000Y-43880682D01*
X173858188Y-43879604D01*
X173900353Y-43874053D01*
X174006762Y-43860044D01*
X174019174Y-43854903D01*
X174052067Y-43841278D01*
X174152841Y-43799536D01*
X174278282Y-43703282D01*
X174374536Y-43577841D01*
X174435044Y-43431762D01*
X174455682Y-43275000D01*
X175294318Y-43275000D01*
X175314956Y-43431762D01*
X175375464Y-43577841D01*
X175471718Y-43703282D01*
X175597159Y-43799536D01*
X175697933Y-43841278D01*
X175730827Y-43854903D01*
X175743238Y-43860044D01*
X175900000Y-43880682D01*
X175908188Y-43879604D01*
X175950353Y-43874053D01*
X176056762Y-43860044D01*
X176069174Y-43854903D01*
X176102067Y-43841278D01*
X176202841Y-43799536D01*
X176328282Y-43703282D01*
X176424536Y-43577841D01*
X176480435Y-43442890D01*
X185732093Y-43442890D01*
X185735876Y-43451666D01*
X186587188Y-44302978D01*
X186601132Y-44310592D01*
X186602965Y-44310461D01*
X186609580Y-44306210D01*
X187461080Y-43454710D01*
X187467840Y-43442330D01*
X187462113Y-43434680D01*
X187290958Y-43329795D01*
X187282163Y-43325313D01*
X187072012Y-43238266D01*
X187062627Y-43235217D01*
X186841446Y-43182115D01*
X186831699Y-43180572D01*
X186604930Y-43162725D01*
X186595070Y-43162725D01*
X186368301Y-43180572D01*
X186358554Y-43182115D01*
X186137373Y-43235217D01*
X186127988Y-43238266D01*
X185917837Y-43325313D01*
X185909042Y-43329795D01*
X185741555Y-43432432D01*
X185732093Y-43442890D01*
X176480435Y-43442890D01*
X176485044Y-43431762D01*
X176505682Y-43275000D01*
X176485044Y-43118238D01*
X176424536Y-42972159D01*
X176328282Y-42846718D01*
X176202841Y-42750464D01*
X176056762Y-42689956D01*
X175900000Y-42669318D01*
X175743238Y-42689956D01*
X175597159Y-42750464D01*
X175471718Y-42846718D01*
X175375464Y-42972159D01*
X175314956Y-43118238D01*
X175294318Y-43275000D01*
X174455682Y-43275000D01*
X174435044Y-43118238D01*
X174374536Y-42972159D01*
X174278282Y-42846718D01*
X174152841Y-42750464D01*
X174006762Y-42689956D01*
X173850000Y-42669318D01*
X173693238Y-42689956D01*
X173547159Y-42750464D01*
X173421718Y-42846718D01*
X173325464Y-42972159D01*
X173264956Y-43118238D01*
X173244318Y-43275000D01*
X172330682Y-43275000D01*
X172310044Y-43118238D01*
X172249536Y-42972159D01*
X172153282Y-42846718D01*
X172027841Y-42750464D01*
X171881762Y-42689956D01*
X171725000Y-42669318D01*
X171568238Y-42689956D01*
X171422159Y-42750464D01*
X171296718Y-42846718D01*
X171200464Y-42972159D01*
X171139956Y-43118238D01*
X171119318Y-43275000D01*
X164660326Y-43275000D01*
X167035469Y-40899857D01*
X168747000Y-40899857D01*
X168747301Y-40906005D01*
X168760812Y-41043803D01*
X168763195Y-41055838D01*
X168816767Y-41233276D01*
X168821441Y-41244616D01*
X168908460Y-41408277D01*
X168915249Y-41418494D01*
X169032397Y-41562133D01*
X169041041Y-41570837D01*
X169183856Y-41688984D01*
X169194027Y-41695844D01*
X169357076Y-41784004D01*
X169368381Y-41788756D01*
X169483692Y-41824450D01*
X169497795Y-41824656D01*
X169501000Y-41817901D01*
X169501000Y-41811124D01*
X170009000Y-41811124D01*
X170012973Y-41824655D01*
X170020768Y-41825775D01*
X170128521Y-41794062D01*
X170139889Y-41789469D01*
X170304154Y-41703593D01*
X170314415Y-41696879D01*
X170458873Y-41580732D01*
X170467632Y-41572154D01*
X170586778Y-41430161D01*
X170593708Y-41420041D01*
X170683002Y-41257615D01*
X170687834Y-41246342D01*
X170743880Y-41069662D01*
X170746430Y-41057668D01*
X170762607Y-40913439D01*
X170763000Y-40906415D01*
X170763000Y-40899857D01*
X177387000Y-40899857D01*
X177387301Y-40906005D01*
X177400812Y-41043803D01*
X177403195Y-41055838D01*
X177456767Y-41233276D01*
X177461441Y-41244616D01*
X177548460Y-41408277D01*
X177555249Y-41418494D01*
X177672397Y-41562133D01*
X177681041Y-41570837D01*
X177823856Y-41688984D01*
X177834027Y-41695844D01*
X177997076Y-41784004D01*
X178008381Y-41788756D01*
X178123692Y-41824450D01*
X178137795Y-41824656D01*
X178141000Y-41817901D01*
X178141000Y-40725315D01*
X178136525Y-40710076D01*
X178135135Y-40708871D01*
X178127452Y-40707200D01*
X177405115Y-40707200D01*
X177389876Y-40711675D01*
X177388671Y-40713065D01*
X177387000Y-40720748D01*
X177387000Y-40899857D01*
X170763000Y-40899857D01*
X170763000Y-40725315D01*
X170758525Y-40710076D01*
X170757135Y-40708871D01*
X170749452Y-40707200D01*
X170027115Y-40707200D01*
X170011876Y-40711675D01*
X170010671Y-40713065D01*
X170009000Y-40720748D01*
X170009000Y-41811124D01*
X169501000Y-41811124D01*
X169501000Y-40725315D01*
X169496525Y-40710076D01*
X169495135Y-40708871D01*
X169487452Y-40707200D01*
X168765115Y-40707200D01*
X168749876Y-40711675D01*
X168748671Y-40713065D01*
X168747000Y-40720748D01*
X168747000Y-40899857D01*
X167035469Y-40899857D01*
X168344721Y-39590605D01*
X168407033Y-39556579D01*
X168433816Y-39553700D01*
X168683748Y-39553700D01*
X168751869Y-39573702D01*
X168798362Y-39627358D01*
X168808466Y-39697632D01*
X168803850Y-39717799D01*
X168766119Y-39836741D01*
X168763570Y-39848732D01*
X168747393Y-39992961D01*
X168747000Y-39999985D01*
X168747000Y-40181085D01*
X168751475Y-40196324D01*
X168752865Y-40197529D01*
X168760548Y-40199200D01*
X170744885Y-40199200D01*
X170760124Y-40194725D01*
X170761329Y-40193335D01*
X170763000Y-40185652D01*
X170763000Y-40181085D01*
X177387000Y-40181085D01*
X177391475Y-40196324D01*
X177392865Y-40197529D01*
X177400548Y-40199200D01*
X178122885Y-40199200D01*
X178138124Y-40194725D01*
X178139329Y-40193335D01*
X178141000Y-40185652D01*
X178141000Y-39095276D01*
X178137027Y-39081745D01*
X178129232Y-39080625D01*
X178021479Y-39112338D01*
X178010111Y-39116931D01*
X177845846Y-39202807D01*
X177835585Y-39209521D01*
X177691127Y-39325668D01*
X177682368Y-39334246D01*
X177563222Y-39476239D01*
X177556292Y-39486359D01*
X177466998Y-39648785D01*
X177462166Y-39660058D01*
X177406120Y-39836738D01*
X177403570Y-39848732D01*
X177387393Y-39992961D01*
X177387000Y-39999985D01*
X177387000Y-40181085D01*
X170763000Y-40181085D01*
X170763000Y-40006543D01*
X170762699Y-40000395D01*
X170749188Y-39862597D01*
X170746806Y-39850565D01*
X170706213Y-39716119D01*
X170705672Y-39645124D01*
X170743599Y-39585107D01*
X170807953Y-39555123D01*
X170826835Y-39553700D01*
X172563986Y-39553700D01*
X172632107Y-39573702D01*
X172663949Y-39602996D01*
X172696275Y-39645124D01*
X172721718Y-39678282D01*
X172847159Y-39774536D01*
X172993238Y-39835044D01*
X173150000Y-39855682D01*
X173158188Y-39854604D01*
X173298574Y-39836122D01*
X173306762Y-39835044D01*
X173452841Y-39774536D01*
X173578282Y-39678282D01*
X173583305Y-39671736D01*
X173583309Y-39671732D01*
X173609630Y-39637430D01*
X173666968Y-39595563D01*
X173737839Y-39591341D01*
X173799742Y-39626105D01*
X173809554Y-39637430D01*
X173821718Y-39653282D01*
X173947159Y-39749536D01*
X174093238Y-39810044D01*
X174250000Y-39830682D01*
X174258188Y-39829604D01*
X174398574Y-39811122D01*
X174406762Y-39810044D01*
X174552841Y-39749536D01*
X174678282Y-39653282D01*
X174774536Y-39527841D01*
X174835044Y-39381762D01*
X174855682Y-39225000D01*
X174835044Y-39068238D01*
X174774536Y-38922159D01*
X174678282Y-38796718D01*
X174552841Y-38700464D01*
X174406762Y-38639956D01*
X174250000Y-38619318D01*
X174183159Y-38628118D01*
X174113012Y-38617179D01*
X174077619Y-38592292D01*
X173794104Y-38308778D01*
X173786677Y-38300673D01*
X173769541Y-38280251D01*
X173762455Y-38271806D01*
X173752906Y-38266293D01*
X173729815Y-38252961D01*
X173720544Y-38247055D01*
X173698715Y-38231770D01*
X173689684Y-38225446D01*
X173679034Y-38222592D01*
X173675866Y-38221115D01*
X173672590Y-38219923D01*
X173663045Y-38214412D01*
X173629301Y-38208462D01*
X173625942Y-38207870D01*
X173615215Y-38205492D01*
X173578807Y-38195736D01*
X173567822Y-38196697D01*
X173567820Y-38196697D01*
X173541272Y-38199020D01*
X173530290Y-38199500D01*
X170251116Y-38199500D01*
X170182995Y-38179498D01*
X170136502Y-38125842D01*
X170126398Y-38055568D01*
X170155892Y-37990988D01*
X170192740Y-37961838D01*
X170304158Y-37903590D01*
X170314415Y-37896878D01*
X170458873Y-37780731D01*
X170467632Y-37772153D01*
X170586778Y-37630160D01*
X170593708Y-37620040D01*
X170683002Y-37457614D01*
X170687834Y-37446341D01*
X170743880Y-37269661D01*
X170746430Y-37257667D01*
X170762607Y-37113438D01*
X170763000Y-37106414D01*
X170763000Y-37099856D01*
X177387000Y-37099856D01*
X177387301Y-37106004D01*
X177400812Y-37243802D01*
X177403195Y-37255837D01*
X177456767Y-37433275D01*
X177461441Y-37444615D01*
X177548460Y-37608276D01*
X177555249Y-37618493D01*
X177672397Y-37762132D01*
X177681041Y-37770836D01*
X177823856Y-37888983D01*
X177834027Y-37895843D01*
X177997076Y-37984003D01*
X178008381Y-37988755D01*
X178123692Y-38024449D01*
X178137795Y-38024655D01*
X178141000Y-38017900D01*
X178141000Y-36725314D01*
X178136525Y-36710075D01*
X178135135Y-36708870D01*
X178127452Y-36707199D01*
X177405115Y-36707199D01*
X177389876Y-36711674D01*
X177388671Y-36713064D01*
X177387000Y-36720747D01*
X177387000Y-37099856D01*
X170763000Y-37099856D01*
X170763000Y-36725314D01*
X170758525Y-36710075D01*
X170757135Y-36708870D01*
X170749452Y-36707199D01*
X168765115Y-36707199D01*
X168749876Y-36711674D01*
X168748671Y-36713064D01*
X168747000Y-36720747D01*
X168747000Y-37099856D01*
X168747301Y-37106004D01*
X168760812Y-37243802D01*
X168763195Y-37255837D01*
X168816767Y-37433275D01*
X168821441Y-37444615D01*
X168908460Y-37608276D01*
X168915249Y-37618493D01*
X169032397Y-37762132D01*
X169041041Y-37770836D01*
X169183856Y-37888983D01*
X169194027Y-37895843D01*
X169317609Y-37962664D01*
X169368018Y-38012659D01*
X169383395Y-38081970D01*
X169358859Y-38148592D01*
X169302199Y-38191373D01*
X169257680Y-38199500D01*
X167944405Y-38199500D01*
X167933423Y-38199020D01*
X167906875Y-38196697D01*
X167906873Y-38196697D01*
X167895888Y-38195736D01*
X167859480Y-38205492D01*
X167848753Y-38207870D01*
X167845394Y-38208462D01*
X167811650Y-38214412D01*
X167802105Y-38219923D01*
X167798829Y-38221115D01*
X167795661Y-38222592D01*
X167785011Y-38225446D01*
X167775980Y-38231770D01*
X167754151Y-38247055D01*
X167744880Y-38252961D01*
X167721789Y-38266293D01*
X167712240Y-38271806D01*
X167705154Y-38280251D01*
X167688010Y-38300682D01*
X167680584Y-38308785D01*
X162141964Y-43847405D01*
X162079652Y-43881431D01*
X162069319Y-43883231D01*
X162018238Y-43889956D01*
X161872159Y-43950464D01*
X161746718Y-44046718D01*
X161650464Y-44172159D01*
X161589956Y-44318238D01*
X161569318Y-44475000D01*
X133550500Y-44475000D01*
X133550500Y-42376500D01*
X133570502Y-42308379D01*
X133624158Y-42261886D01*
X133676500Y-42250500D01*
X142357654Y-42250500D01*
X142371195Y-42240662D01*
X142387112Y-42235490D01*
X142396950Y-42221950D01*
X142410490Y-42212112D01*
X142415662Y-42196195D01*
X142425500Y-42182654D01*
X142425500Y-35176500D01*
X142445502Y-35108379D01*
X142499158Y-35061886D01*
X142551500Y-35050500D01*
X168842430Y-35050500D01*
X168910551Y-35070502D01*
G37*
%TD.AperFunction*%
%TD*%
M02*
