%TF.GenerationSoftware,KiCad,Pcbnew,(6.0.11)*%
%TF.CreationDate,2023-04-24T21:00:32-04:00*%
%TF.ProjectId,GC Nano Top,4743204e-616e-46f2-9054-6f702e6b6963,rev?*%
%TF.SameCoordinates,Original*%
%TF.FileFunction,Paste,Top*%
%TF.FilePolarity,Positive*%
%FSLAX46Y46*%
G04 Gerber Fmt 4.6, Leading zero omitted, Abs format (unit mm)*
G04 Created by KiCad (PCBNEW (6.0.11)) date 2023-04-24 21:00:32*
%MOMM*%
%LPD*%
G01*
G04 APERTURE LIST*
G04 Aperture macros list*
%AMRoundRect*
0 Rectangle with rounded corners*
0 $1 Rounding radius*
0 $2 $3 $4 $5 $6 $7 $8 $9 X,Y pos of 4 corners*
0 Add a 4 corners polygon primitive as box body*
4,1,4,$2,$3,$4,$5,$6,$7,$8,$9,$2,$3,0*
0 Add four circle primitives for the rounded corners*
1,1,$1+$1,$2,$3*
1,1,$1+$1,$4,$5*
1,1,$1+$1,$6,$7*
1,1,$1+$1,$8,$9*
0 Add four rect primitives between the rounded corners*
20,1,$1+$1,$2,$3,$4,$5,0*
20,1,$1+$1,$4,$5,$6,$7,0*
20,1,$1+$1,$6,$7,$8,$9,0*
20,1,$1+$1,$8,$9,$2,$3,0*%
G04 Aperture macros list end*
%ADD10RoundRect,0.225000X0.225000X0.250000X-0.225000X0.250000X-0.225000X-0.250000X0.225000X-0.250000X0*%
%ADD11RoundRect,0.225000X-0.225000X-0.250000X0.225000X-0.250000X0.225000X0.250000X-0.225000X0.250000X0*%
%ADD12RoundRect,0.200000X-0.275000X0.200000X-0.275000X-0.200000X0.275000X-0.200000X0.275000X0.200000X0*%
%ADD13RoundRect,0.200000X-0.200000X-0.275000X0.200000X-0.275000X0.200000X0.275000X-0.200000X0.275000X0*%
%ADD14RoundRect,0.218750X0.256250X-0.218750X0.256250X0.218750X-0.256250X0.218750X-0.256250X-0.218750X0*%
%ADD15R,0.400000X1.200000*%
%ADD16RoundRect,0.150000X0.150000X-0.512500X0.150000X0.512500X-0.150000X0.512500X-0.150000X-0.512500X0*%
%ADD17R,0.609600X1.143000*%
%ADD18R,0.304800X1.143000*%
%ADD19R,0.400000X0.350000*%
%ADD20R,1.200000X1.100000*%
%ADD21R,0.800000X0.460000*%
%ADD22R,0.300000X0.530000*%
%ADD23R,0.250000X0.530000*%
%ADD24R,0.630000X0.350000*%
%ADD25R,0.620000X1.400000*%
%ADD26R,1.100000X2.400000*%
G04 APERTURE END LIST*
D10*
%TO.C,C8*%
X147900000Y-59700000D03*
X146350000Y-59700000D03*
%TD*%
D11*
%TO.C,C4*%
X176875000Y-48650000D03*
X178425000Y-48650000D03*
%TD*%
%TO.C,C5*%
X166825000Y-48925000D03*
X168375000Y-48925000D03*
%TD*%
D12*
%TO.C,R3*%
X161725000Y-53125000D03*
X161725000Y-54775000D03*
%TD*%
D10*
%TO.C,C3*%
X165350000Y-48925000D03*
X163800000Y-48925000D03*
%TD*%
D13*
%TO.C,R4*%
X173800000Y-45575000D03*
X175450000Y-45575000D03*
%TD*%
D14*
%TO.C,D1*%
X161725000Y-57762500D03*
X161725000Y-56187500D03*
%TD*%
D15*
%TO.C,U1*%
X163852500Y-58150000D03*
X164487500Y-58150000D03*
X165122500Y-58150000D03*
X165757500Y-58150000D03*
X166392500Y-58150000D03*
X167027500Y-58150000D03*
X167662500Y-58150000D03*
X168297500Y-58150000D03*
X168297500Y-52950000D03*
X167662500Y-52950000D03*
X167027500Y-52950000D03*
X166392500Y-52950000D03*
X165757500Y-52950000D03*
X165122500Y-52950000D03*
X164487500Y-52950000D03*
X163852500Y-52950000D03*
%TD*%
D10*
%TO.C,C7*%
X147900000Y-61225000D03*
X146350000Y-61225000D03*
%TD*%
D12*
%TO.C,R1*%
X166250000Y-40725000D03*
X166250000Y-42375000D03*
%TD*%
D16*
%TO.C,U2*%
X176875000Y-52662500D03*
X177825000Y-52662500D03*
X178775000Y-52662500D03*
X178775000Y-50387500D03*
X177825000Y-50387500D03*
X176875000Y-50387500D03*
%TD*%
D11*
%TO.C,C2*%
X176875000Y-47150000D03*
X178425000Y-47150000D03*
%TD*%
D17*
%TO.C,J1*%
X177275001Y-41028199D03*
X176475000Y-41028199D03*
D18*
X175325000Y-41028199D03*
X174325000Y-41028199D03*
X173825000Y-41028199D03*
X172825000Y-41028199D03*
D17*
X170875001Y-41028199D03*
X171675000Y-41028199D03*
D18*
X172324940Y-41028199D03*
X173324941Y-41028199D03*
X174824940Y-41028199D03*
X175824941Y-41028199D03*
%TD*%
D10*
%TO.C,C1*%
X165350000Y-50425000D03*
X163800000Y-50425000D03*
%TD*%
D19*
%TO.C,Q1*%
X172600000Y-46325000D03*
X172600000Y-45675000D03*
X172600000Y-45025000D03*
X170700000Y-45025000D03*
X170700000Y-45675000D03*
X170700000Y-46325000D03*
D20*
X171650000Y-45950000D03*
D21*
X171650000Y-44960000D03*
%TD*%
D22*
%TO.C,U3*%
X162825000Y-45600000D03*
D23*
X162325000Y-45600000D03*
X161825000Y-45600000D03*
D22*
X161325000Y-45600000D03*
D24*
X161235000Y-46240000D03*
D22*
X161325000Y-46880000D03*
D23*
X161825000Y-46880000D03*
X162325000Y-46880000D03*
D22*
X162825000Y-46880000D03*
D24*
X162915000Y-46240000D03*
%TD*%
D12*
%TO.C,R2*%
X167750000Y-40725000D03*
X167750000Y-42375000D03*
%TD*%
D11*
%TO.C,C6*%
X166825000Y-50425000D03*
X168375000Y-50425000D03*
%TD*%
D25*
%TO.C,J2*%
X149270000Y-57970000D03*
X150370000Y-57970000D03*
X151470000Y-57970000D03*
X152570000Y-57970000D03*
X153670000Y-57970000D03*
X154770000Y-57970000D03*
X155870000Y-57970000D03*
X156970000Y-57970000D03*
X158070000Y-57970000D03*
D26*
X159450000Y-46970000D03*
X159450000Y-55970000D03*
X143300000Y-55970000D03*
X143300000Y-46970000D03*
%TD*%
M02*
