%TF.GenerationSoftware,KiCad,Pcbnew,(6.0.11)*%
%TF.CreationDate,2023-04-24T21:00:32-04:00*%
%TF.ProjectId,GC Nano Top,4743204e-616e-46f2-9054-6f702e6b6963,rev?*%
%TF.SameCoordinates,Original*%
%TF.FileFunction,Legend,Bot*%
%TF.FilePolarity,Positive*%
%FSLAX46Y46*%
G04 Gerber Fmt 4.6, Leading zero omitted, Abs format (unit mm)*
G04 Created by KiCad (PCBNEW (6.0.11)) date 2023-04-24 21:00:32*
%MOMM*%
%LPD*%
G01*
G04 APERTURE LIST*
%ADD10C,0.150000*%
%ADD11C,0.120000*%
G04 APERTURE END LIST*
D10*
%TO.C,R6*%
X165416666Y-46202380D02*
X165750000Y-45726190D01*
X165988095Y-46202380D02*
X165988095Y-45202380D01*
X165607142Y-45202380D01*
X165511904Y-45250000D01*
X165464285Y-45297619D01*
X165416666Y-45392857D01*
X165416666Y-45535714D01*
X165464285Y-45630952D01*
X165511904Y-45678571D01*
X165607142Y-45726190D01*
X165988095Y-45726190D01*
X164559523Y-45202380D02*
X164750000Y-45202380D01*
X164845238Y-45250000D01*
X164892857Y-45297619D01*
X164988095Y-45440476D01*
X165035714Y-45630952D01*
X165035714Y-46011904D01*
X164988095Y-46107142D01*
X164940476Y-46154761D01*
X164845238Y-46202380D01*
X164654761Y-46202380D01*
X164559523Y-46154761D01*
X164511904Y-46107142D01*
X164464285Y-46011904D01*
X164464285Y-45773809D01*
X164511904Y-45678571D01*
X164559523Y-45630952D01*
X164654761Y-45583333D01*
X164845238Y-45583333D01*
X164940476Y-45630952D01*
X164988095Y-45678571D01*
X165035714Y-45773809D01*
%TO.C,SW3*%
X185658333Y-81804761D02*
X185515476Y-81852380D01*
X185277380Y-81852380D01*
X185182142Y-81804761D01*
X185134523Y-81757142D01*
X185086904Y-81661904D01*
X185086904Y-81566666D01*
X185134523Y-81471428D01*
X185182142Y-81423809D01*
X185277380Y-81376190D01*
X185467857Y-81328571D01*
X185563095Y-81280952D01*
X185610714Y-81233333D01*
X185658333Y-81138095D01*
X185658333Y-81042857D01*
X185610714Y-80947619D01*
X185563095Y-80900000D01*
X185467857Y-80852380D01*
X185229761Y-80852380D01*
X185086904Y-80900000D01*
X184753571Y-80852380D02*
X184515476Y-81852380D01*
X184325000Y-81138095D01*
X184134523Y-81852380D01*
X183896428Y-80852380D01*
X183610714Y-80852380D02*
X182991666Y-80852380D01*
X183325000Y-81233333D01*
X183182142Y-81233333D01*
X183086904Y-81280952D01*
X183039285Y-81328571D01*
X182991666Y-81423809D01*
X182991666Y-81661904D01*
X183039285Y-81757142D01*
X183086904Y-81804761D01*
X183182142Y-81852380D01*
X183467857Y-81852380D01*
X183563095Y-81804761D01*
X183610714Y-81757142D01*
%TO.C,R5*%
X163996666Y-89797380D02*
X164330000Y-89321190D01*
X164568095Y-89797380D02*
X164568095Y-88797380D01*
X164187142Y-88797380D01*
X164091904Y-88845000D01*
X164044285Y-88892619D01*
X163996666Y-88987857D01*
X163996666Y-89130714D01*
X164044285Y-89225952D01*
X164091904Y-89273571D01*
X164187142Y-89321190D01*
X164568095Y-89321190D01*
X163091904Y-88797380D02*
X163568095Y-88797380D01*
X163615714Y-89273571D01*
X163568095Y-89225952D01*
X163472857Y-89178333D01*
X163234761Y-89178333D01*
X163139523Y-89225952D01*
X163091904Y-89273571D01*
X163044285Y-89368809D01*
X163044285Y-89606904D01*
X163091904Y-89702142D01*
X163139523Y-89749761D01*
X163234761Y-89797380D01*
X163472857Y-89797380D01*
X163568095Y-89749761D01*
X163615714Y-89702142D01*
%TO.C,SW1*%
X185758333Y-53754761D02*
X185615476Y-53802380D01*
X185377380Y-53802380D01*
X185282142Y-53754761D01*
X185234523Y-53707142D01*
X185186904Y-53611904D01*
X185186904Y-53516666D01*
X185234523Y-53421428D01*
X185282142Y-53373809D01*
X185377380Y-53326190D01*
X185567857Y-53278571D01*
X185663095Y-53230952D01*
X185710714Y-53183333D01*
X185758333Y-53088095D01*
X185758333Y-52992857D01*
X185710714Y-52897619D01*
X185663095Y-52850000D01*
X185567857Y-52802380D01*
X185329761Y-52802380D01*
X185186904Y-52850000D01*
X184853571Y-52802380D02*
X184615476Y-53802380D01*
X184425000Y-53088095D01*
X184234523Y-53802380D01*
X183996428Y-52802380D01*
X183091666Y-53802380D02*
X183663095Y-53802380D01*
X183377380Y-53802380D02*
X183377380Y-52802380D01*
X183472619Y-52945238D01*
X183567857Y-53040476D01*
X183663095Y-53088095D01*
%TO.C,SW2*%
X138658333Y-81879761D02*
X138515476Y-81927380D01*
X138277380Y-81927380D01*
X138182142Y-81879761D01*
X138134523Y-81832142D01*
X138086904Y-81736904D01*
X138086904Y-81641666D01*
X138134523Y-81546428D01*
X138182142Y-81498809D01*
X138277380Y-81451190D01*
X138467857Y-81403571D01*
X138563095Y-81355952D01*
X138610714Y-81308333D01*
X138658333Y-81213095D01*
X138658333Y-81117857D01*
X138610714Y-81022619D01*
X138563095Y-80975000D01*
X138467857Y-80927380D01*
X138229761Y-80927380D01*
X138086904Y-80975000D01*
X137753571Y-80927380D02*
X137515476Y-81927380D01*
X137325000Y-81213095D01*
X137134523Y-81927380D01*
X136896428Y-80927380D01*
X136563095Y-81022619D02*
X136515476Y-80975000D01*
X136420238Y-80927380D01*
X136182142Y-80927380D01*
X136086904Y-80975000D01*
X136039285Y-81022619D01*
X135991666Y-81117857D01*
X135991666Y-81213095D01*
X136039285Y-81355952D01*
X136610714Y-81927380D01*
X135991666Y-81927380D01*
%TO.C,D2*%
X161563095Y-89744380D02*
X161563095Y-88744380D01*
X161325000Y-88744380D01*
X161182142Y-88792000D01*
X161086904Y-88887238D01*
X161039285Y-88982476D01*
X160991666Y-89172952D01*
X160991666Y-89315809D01*
X161039285Y-89506285D01*
X161086904Y-89601523D01*
X161182142Y-89696761D01*
X161325000Y-89744380D01*
X161563095Y-89744380D01*
X160610714Y-88839619D02*
X160563095Y-88792000D01*
X160467857Y-88744380D01*
X160229761Y-88744380D01*
X160134523Y-88792000D01*
X160086904Y-88839619D01*
X160039285Y-88934857D01*
X160039285Y-89030095D01*
X160086904Y-89172952D01*
X160658333Y-89744380D01*
X160039285Y-89744380D01*
D11*
%TO.C,R6*%
X164727500Y-48237258D02*
X164727500Y-47762742D01*
X165772500Y-48237258D02*
X165772500Y-47762742D01*
%TO.C,SW3*%
X181075000Y-89025000D02*
X181075000Y-84525000D01*
X187575000Y-84525000D02*
X187575000Y-89025000D01*
X185075000Y-90275000D02*
X183575000Y-90275000D01*
X183575000Y-83275000D02*
X185075000Y-83275000D01*
%TO.C,R5*%
X164067258Y-91297500D02*
X163592742Y-91297500D01*
X164067258Y-90252500D02*
X163592742Y-90252500D01*
%TO.C,SW1*%
X183600000Y-44425000D02*
X185100000Y-44425000D01*
X187600000Y-45675000D02*
X187600000Y-50175000D01*
X185100000Y-51425000D02*
X183600000Y-51425000D01*
X181100000Y-50175000D02*
X181100000Y-45675000D01*
%TO.C,SW2*%
X136550000Y-83300000D02*
X138050000Y-83300000D01*
X138050000Y-90300000D02*
X136550000Y-90300000D01*
X140550000Y-84550000D02*
X140550000Y-89050000D01*
X134050000Y-89050000D02*
X134050000Y-84550000D01*
%TO.C,D2*%
X159320000Y-91510000D02*
X159320000Y-90040000D01*
X159320000Y-90040000D02*
X161605000Y-90040000D01*
X161605000Y-91510000D02*
X159320000Y-91510000D01*
%TD*%
M02*
