%TF.GenerationSoftware,KiCad,Pcbnew,(6.0.11)*%
%TF.CreationDate,2023-04-24T21:00:32-04:00*%
%TF.ProjectId,GC Nano Top,4743204e-616e-46f2-9054-6f702e6b6963,rev?*%
%TF.SameCoordinates,Original*%
%TF.FileFunction,Copper,L1,Top*%
%TF.FilePolarity,Positive*%
%FSLAX46Y46*%
G04 Gerber Fmt 4.6, Leading zero omitted, Abs format (unit mm)*
G04 Created by KiCad (PCBNEW (6.0.11)) date 2023-04-24 21:00:32*
%MOMM*%
%LPD*%
G01*
G04 APERTURE LIST*
G04 Aperture macros list*
%AMRoundRect*
0 Rectangle with rounded corners*
0 $1 Rounding radius*
0 $2 $3 $4 $5 $6 $7 $8 $9 X,Y pos of 4 corners*
0 Add a 4 corners polygon primitive as box body*
4,1,4,$2,$3,$4,$5,$6,$7,$8,$9,$2,$3,0*
0 Add four circle primitives for the rounded corners*
1,1,$1+$1,$2,$3*
1,1,$1+$1,$4,$5*
1,1,$1+$1,$6,$7*
1,1,$1+$1,$8,$9*
0 Add four rect primitives between the rounded corners*
20,1,$1+$1,$2,$3,$4,$5,0*
20,1,$1+$1,$4,$5,$6,$7,0*
20,1,$1+$1,$6,$7,$8,$9,0*
20,1,$1+$1,$8,$9,$2,$3,0*%
G04 Aperture macros list end*
%TA.AperFunction,SMDPad,CuDef*%
%ADD10RoundRect,0.225000X0.225000X0.250000X-0.225000X0.250000X-0.225000X-0.250000X0.225000X-0.250000X0*%
%TD*%
%TA.AperFunction,SMDPad,CuDef*%
%ADD11RoundRect,0.225000X-0.225000X-0.250000X0.225000X-0.250000X0.225000X0.250000X-0.225000X0.250000X0*%
%TD*%
%TA.AperFunction,SMDPad,CuDef*%
%ADD12R,2.000000X2.000000*%
%TD*%
%TA.AperFunction,SMDPad,CuDef*%
%ADD13RoundRect,0.200000X-0.275000X0.200000X-0.275000X-0.200000X0.275000X-0.200000X0.275000X0.200000X0*%
%TD*%
%TA.AperFunction,SMDPad,CuDef*%
%ADD14RoundRect,0.200000X-0.200000X-0.275000X0.200000X-0.275000X0.200000X0.275000X-0.200000X0.275000X0*%
%TD*%
%TA.AperFunction,SMDPad,CuDef*%
%ADD15RoundRect,0.218750X0.256250X-0.218750X0.256250X0.218750X-0.256250X0.218750X-0.256250X-0.218750X0*%
%TD*%
%TA.AperFunction,SMDPad,CuDef*%
%ADD16R,0.400000X1.200000*%
%TD*%
%TA.AperFunction,SMDPad,CuDef*%
%ADD17RoundRect,0.150000X0.150000X-0.512500X0.150000X0.512500X-0.150000X0.512500X-0.150000X-0.512500X0*%
%TD*%
%TA.AperFunction,ComponentPad*%
%ADD18O,1.000000X2.200000*%
%TD*%
%TA.AperFunction,ComponentPad*%
%ADD19O,1.000000X1.800000*%
%TD*%
%TA.AperFunction,SMDPad,CuDef*%
%ADD20R,0.609600X1.143000*%
%TD*%
%TA.AperFunction,SMDPad,CuDef*%
%ADD21R,0.304800X1.143000*%
%TD*%
%TA.AperFunction,SMDPad,CuDef*%
%ADD22R,0.400000X0.350000*%
%TD*%
%TA.AperFunction,SMDPad,CuDef*%
%ADD23R,1.200000X1.100000*%
%TD*%
%TA.AperFunction,SMDPad,CuDef*%
%ADD24R,0.800000X0.460000*%
%TD*%
%TA.AperFunction,SMDPad,CuDef*%
%ADD25R,1.500000X1.500000*%
%TD*%
%TA.AperFunction,SMDPad,CuDef*%
%ADD26R,0.300000X0.530000*%
%TD*%
%TA.AperFunction,SMDPad,CuDef*%
%ADD27R,0.250000X0.530000*%
%TD*%
%TA.AperFunction,SMDPad,CuDef*%
%ADD28R,0.630000X0.350000*%
%TD*%
%TA.AperFunction,SMDPad,CuDef*%
%ADD29R,0.620000X1.400000*%
%TD*%
%TA.AperFunction,SMDPad,CuDef*%
%ADD30R,1.100000X2.400000*%
%TD*%
%TA.AperFunction,ComponentPad*%
%ADD31C,2.000000*%
%TD*%
%TA.AperFunction,ViaPad*%
%ADD32C,0.800000*%
%TD*%
%TA.AperFunction,Conductor*%
%ADD33C,0.250000*%
%TD*%
%TA.AperFunction,Conductor*%
%ADD34C,0.500000*%
%TD*%
%TA.AperFunction,Conductor*%
%ADD35C,0.450000*%
%TD*%
%TA.AperFunction,Conductor*%
%ADD36C,0.200000*%
%TD*%
G04 APERTURE END LIST*
D10*
%TO.P,C8,1*%
%TO.N,SD_PMOS*%
X147900000Y-59700000D03*
%TO.P,C8,2*%
%TO.N,GND*%
X146350000Y-59700000D03*
%TD*%
D11*
%TO.P,C4,1*%
%TO.N,5V_IN*%
X176875000Y-48650000D03*
%TO.P,C4,2*%
%TO.N,GND*%
X178425000Y-48650000D03*
%TD*%
D12*
%TO.P,GND,1,1*%
%TO.N,GND*%
X179075000Y-60550000D03*
%TD*%
D11*
%TO.P,C5,1*%
%TO.N,5V_IN*%
X166825000Y-48925000D03*
%TO.P,C5,2*%
%TO.N,GND*%
X168375000Y-48925000D03*
%TD*%
D13*
%TO.P,R3,1*%
%TO.N,Net-(R3-Pad1)*%
X161725000Y-53125000D03*
%TO.P,R3,2*%
%TO.N,Net-(D1-Pad2)*%
X161725000Y-54775000D03*
%TD*%
D10*
%TO.P,C3,1*%
%TO.N,3V3_MUX*%
X165350000Y-48925000D03*
%TO.P,C3,2*%
%TO.N,GND*%
X163800000Y-48925000D03*
%TD*%
D12*
%TO.P,Sync,1,1*%
%TO.N,Net-(SW2-Pad2)*%
X135050000Y-68900000D03*
%TD*%
D14*
%TO.P,R4,1*%
%TO.N,~{OUT}*%
X173800000Y-45575000D03*
%TO.P,R4,2*%
%TO.N,5V_IN*%
X175450000Y-45575000D03*
%TD*%
D12*
%TO.P,5V,1,1*%
%TO.N,5V_SW*%
X171625000Y-68900000D03*
%TD*%
D15*
%TO.P,D1,1,K*%
%TO.N,GND*%
X161725000Y-57762500D03*
%TO.P,D1,2,A*%
%TO.N,Net-(D1-Pad2)*%
X161725000Y-56187500D03*
%TD*%
D16*
%TO.P,U1,1,VSS*%
%TO.N,GND*%
X163852500Y-58150000D03*
%TO.P,U1,2,D1*%
%TO.N,D1*%
X164487500Y-58150000D03*
%TO.P,U1,3,D0*%
%TO.N,D0*%
X165122500Y-58150000D03*
%TO.P,U1,4,CLK*%
%TO.N,CLK*%
X165757500Y-58150000D03*
%TO.P,U1,5,CMD*%
%TO.N,CMD*%
X166392500Y-58150000D03*
%TO.P,U1,6,D3*%
%TO.N,D3*%
X167027500Y-58150000D03*
%TO.P,U1,7,D2*%
%TO.N,D2*%
X167662500Y-58150000D03*
%TO.P,U1,8,PMOS*%
%TO.N,SD_PMOS*%
X168297500Y-58150000D03*
%TO.P,U1,9,VDD*%
%TO.N,3V3_MUX*%
X168297500Y-52950000D03*
%TO.P,U1,10,5V*%
%TO.N,5V_IN*%
X167662500Y-52950000D03*
%TO.P,U1,11,GPIO*%
%TO.N,unconnected-(U1-Pad11)*%
X167027500Y-52950000D03*
%TO.P,U1,12,LED*%
%TO.N,Net-(R3-Pad1)*%
X166392500Y-52950000D03*
%TO.P,U1,13,VDDA*%
%TO.N,3V3_MUX*%
X165757500Y-52950000D03*
%TO.P,U1,14,VSS*%
%TO.N,GND*%
X165122500Y-52950000D03*
%TO.P,U1,15,DP*%
%TO.N,D+*%
X164487500Y-52950000D03*
%TO.P,U1,16,DM*%
%TO.N,D-*%
X163852500Y-52950000D03*
%TD*%
D10*
%TO.P,C7,1*%
%TO.N,SD_PMOS*%
X147900000Y-61225000D03*
%TO.P,C7,2*%
%TO.N,GND*%
X146350000Y-61225000D03*
%TD*%
D13*
%TO.P,R1,1*%
%TO.N,Net-(J1-PadA5)*%
X166250000Y-40725000D03*
%TO.P,R1,2*%
%TO.N,GND*%
X166250000Y-42375000D03*
%TD*%
D12*
%TO.P,3V3,1,1*%
%TO.N,3V3*%
X175350000Y-68900000D03*
%TD*%
D17*
%TO.P,U2,1,IN*%
%TO.N,Net-(SW1-Pad2)*%
X176875000Y-52662500D03*
%TO.P,U2,2,GND*%
%TO.N,GND*%
X177825000Y-52662500D03*
%TO.P,U2,3,CLEAR*%
X178775000Y-52662500D03*
%TO.P,U2,4,~{OUT}*%
%TO.N,~{OUT}*%
X178775000Y-50387500D03*
%TO.P,U2,5,OUT*%
%TO.N,unconnected-(U2-Pad5)*%
X177825000Y-50387500D03*
%TO.P,U2,6,VCC*%
%TO.N,5V_IN*%
X176875000Y-50387500D03*
%TD*%
D11*
%TO.P,C2,1*%
%TO.N,5V_IN*%
X176875000Y-47150000D03*
%TO.P,C2,2*%
%TO.N,GND*%
X178425000Y-47150000D03*
%TD*%
D18*
%TO.P,J1,13*%
%TO.N,GND*%
X178395000Y-36453199D03*
%TO.P,J1,14*%
X169755000Y-36453199D03*
D19*
%TO.P,J1,15*%
X178395000Y-40453200D03*
%TO.P,J1,16*%
X169755000Y-40453200D03*
D20*
%TO.P,J1,A1/B12*%
X177275001Y-41028199D03*
%TO.P,J1,A4/B9*%
%TO.N,5V_IN*%
X176475000Y-41028199D03*
D21*
%TO.P,J1,A5,CC1*%
%TO.N,Net-(J1-PadA5)*%
X175325000Y-41028199D03*
%TO.P,J1,A6,D+*%
%TO.N,D+C*%
X174325000Y-41028199D03*
%TO.P,J1,A7,D-*%
%TO.N,D-C*%
X173825000Y-41028199D03*
%TO.P,J1,A8,SBU1*%
%TO.N,unconnected-(J1-PadA8)*%
X172825000Y-41028199D03*
D20*
%TO.P,J1,B1/A12*%
%TO.N,GND*%
X170875001Y-41028199D03*
%TO.P,J1,B4/A9*%
%TO.N,5V_IN*%
X171675000Y-41028199D03*
D21*
%TO.P,J1,B5,CC2*%
%TO.N,Net-(J1-PadB5)*%
X172324940Y-41028199D03*
%TO.P,J1,B6,D+*%
%TO.N,D+C*%
X173324941Y-41028199D03*
%TO.P,J1,B7,D-*%
%TO.N,D-C*%
X174824940Y-41028199D03*
%TO.P,J1,B8,SBU2*%
%TO.N,unconnected-(J1-PadB8)*%
X175824941Y-41028199D03*
%TD*%
D10*
%TO.P,C1,1*%
%TO.N,3V3_MUX*%
X165350000Y-50425000D03*
%TO.P,C1,2*%
%TO.N,GND*%
X163800000Y-50425000D03*
%TD*%
D12*
%TO.P,5V,1,1*%
%TO.N,5V_SW*%
X171625000Y-60550000D03*
%TD*%
%TO.P,3V3,1,1*%
%TO.N,3V3*%
X175350000Y-60550000D03*
%TD*%
%TO.P,Reset,1,1*%
%TO.N,Net-(SW3-Pad2)*%
X186550000Y-68900000D03*
%TD*%
D22*
%TO.P,Q1,1,D*%
%TO.N,5V_SW*%
X172600000Y-46325000D03*
%TO.P,Q1,2,D*%
X172600000Y-45675000D03*
%TO.P,Q1,3,G*%
%TO.N,~{OUT}*%
X172600000Y-45025000D03*
%TO.P,Q1,4,S*%
%TO.N,5V_IN*%
X170700000Y-45025000D03*
%TO.P,Q1,5,D*%
%TO.N,5V_SW*%
X170700000Y-45675000D03*
%TO.P,Q1,6,D*%
X170700000Y-46325000D03*
D23*
%TO.P,Q1,7,D*%
X171650000Y-45950000D03*
D24*
%TO.P,Q1,8,S*%
%TO.N,5V_IN*%
X171650000Y-44960000D03*
%TD*%
D25*
%TO.P,D+,1,1*%
%TO.N,Net-(TP3-Pad1)*%
X164200000Y-41775000D03*
%TD*%
D12*
%TO.P,GND,1,1*%
%TO.N,GND*%
X179075000Y-68900000D03*
%TD*%
D26*
%TO.P,U3,1,1D+*%
%TO.N,D+C*%
X162825000Y-45600000D03*
D27*
%TO.P,U3,2,1D-*%
%TO.N,D-C*%
X162325000Y-45600000D03*
%TO.P,U3,3,2D+*%
%TO.N,Net-(TP3-Pad1)*%
X161825000Y-45600000D03*
D26*
%TO.P,U3,4,2D-*%
%TO.N,Net-(TP4-Pad1)*%
X161325000Y-45600000D03*
D28*
%TO.P,U3,5,GND*%
%TO.N,GND*%
X161235000Y-46240000D03*
D26*
%TO.P,U3,6,~{OE*%
X161325000Y-46880000D03*
D27*
%TO.P,U3,7,D-*%
%TO.N,D-*%
X161825000Y-46880000D03*
%TO.P,U3,8,D+*%
%TO.N,D+*%
X162325000Y-46880000D03*
D26*
%TO.P,U3,9,S*%
%TO.N,5V_SW*%
X162825000Y-46880000D03*
D28*
%TO.P,U3,10,VDD*%
%TO.N,3V3_MUX*%
X162915000Y-46240000D03*
%TD*%
D13*
%TO.P,R2,1*%
%TO.N,Net-(J1-PadB5)*%
X167750000Y-40725000D03*
%TO.P,R2,2*%
%TO.N,GND*%
X167750000Y-42375000D03*
%TD*%
D25*
%TO.P,D-,1,1*%
%TO.N,Net-(TP4-Pad1)*%
X161625000Y-41775000D03*
%TD*%
D11*
%TO.P,C6,1*%
%TO.N,5V_IN*%
X166825000Y-50425000D03*
%TO.P,C6,2*%
%TO.N,GND*%
X168375000Y-50425000D03*
%TD*%
D29*
%TO.P,J2,P1,DAT2*%
%TO.N,D2*%
X149270000Y-57970000D03*
%TO.P,J2,P2,CD/DAT3*%
%TO.N,D3*%
X150370000Y-57970000D03*
%TO.P,J2,P3,CMD*%
%TO.N,CMD*%
X151470000Y-57970000D03*
%TO.P,J2,P4,VDD*%
%TO.N,SD_PMOS*%
X152570000Y-57970000D03*
%TO.P,J2,P5,CLK*%
%TO.N,CLK*%
X153670000Y-57970000D03*
%TO.P,J2,P6,VSS*%
%TO.N,GND*%
X154770000Y-57970000D03*
%TO.P,J2,P7,DAT0*%
%TO.N,D0*%
X155870000Y-57970000D03*
%TO.P,J2,P8,DAT1*%
%TO.N,D1*%
X156970000Y-57970000D03*
%TO.P,J2,P9,CD*%
%TO.N,unconnected-(J2-PadP9)*%
X158070000Y-57970000D03*
D30*
%TO.P,J2,SH1,SHIELD*%
%TO.N,GND*%
X159450000Y-46970000D03*
%TO.P,J2,SH2,SHIELD*%
X159450000Y-55970000D03*
%TO.P,J2,SH3,SHIELD*%
X143300000Y-55970000D03*
%TO.P,J2,SH4,SHIELD*%
X143300000Y-46970000D03*
%TD*%
D31*
%TO.P,SW3,1,1*%
%TO.N,GND*%
X182075000Y-83525000D03*
X182075000Y-90025000D03*
%TO.P,SW3,2,2*%
%TO.N,N/C*%
X186575000Y-90025000D03*
%TO.N,Net-(SW3-Pad2)*%
X186575000Y-83525000D03*
%TD*%
%TO.P,SW1,1,1*%
%TO.N,GND*%
X186600000Y-51175000D03*
X186600000Y-44675000D03*
%TO.P,SW1,2,2*%
%TO.N,N/C*%
X182100000Y-44675000D03*
%TO.N,Net-(SW1-Pad2)*%
X182100000Y-51175000D03*
%TD*%
%TO.P,SW2,1,1*%
%TO.N,3V3*%
X139550000Y-83550000D03*
%TO.N,N/C*%
X139550000Y-90050000D03*
%TO.P,SW2,2,2*%
%TO.N,Net-(SW2-Pad2)*%
X135050000Y-83550000D03*
%TO.N,N/C*%
X135050000Y-90050000D03*
%TD*%
D32*
%TO.N,GND*%
X179625000Y-60000000D03*
X169525000Y-48925000D03*
X163100000Y-48000000D03*
X158750000Y-90775000D03*
X179625000Y-47150000D03*
X166250000Y-43475000D03*
X179625000Y-68350000D03*
X169500000Y-42900000D03*
X167750000Y-43475000D03*
X175050000Y-48350000D03*
X169525000Y-50450000D03*
X175075000Y-51575000D03*
X178525000Y-68350000D03*
X160250000Y-58000000D03*
X173825000Y-47050000D03*
X180025000Y-52675000D03*
X179625000Y-61100000D03*
X178525000Y-60000000D03*
X163000000Y-58000000D03*
X164675000Y-54250000D03*
X173850000Y-49875000D03*
X178525000Y-69450000D03*
X164600000Y-51350000D03*
X178525000Y-61100000D03*
X154025000Y-56250000D03*
X155525000Y-56225000D03*
X179625000Y-69450000D03*
X168625000Y-46150000D03*
X179650000Y-48650000D03*
%TO.N,5V_IN*%
X173850000Y-43275000D03*
X175900000Y-43275000D03*
X171725000Y-43275000D03*
%TO.N,D+C*%
X173150000Y-39250000D03*
X163000000Y-44475000D03*
%TO.N,D-C*%
X162175000Y-44475000D03*
X174250000Y-39225000D03*
%TO.N,5V_SW*%
X171075000Y-68350000D03*
X172175000Y-68350000D03*
X164000000Y-47125000D03*
X171650000Y-48775000D03*
X171650000Y-47950000D03*
X171650000Y-50425000D03*
X171650000Y-47125000D03*
X172175000Y-61100000D03*
X171650000Y-52900000D03*
X172175000Y-69450000D03*
X171075000Y-60000000D03*
X171075000Y-61100000D03*
X172175000Y-60000000D03*
X171075000Y-69450000D03*
X171650000Y-52075000D03*
X171650000Y-51250000D03*
X171650000Y-49600000D03*
%TO.N,Net-(R3-Pad1)*%
X161000000Y-51600000D03*
X166475000Y-54250000D03*
%TO.N,3V3*%
X174800000Y-60000000D03*
X174800000Y-61100000D03*
X175900000Y-69450000D03*
X175900000Y-68350000D03*
X175900000Y-60000000D03*
X174800000Y-68350000D03*
X175900000Y-61100000D03*
X174800000Y-69450000D03*
%TD*%
D33*
%TO.N,3V3_MUX*%
X165350000Y-50425000D02*
X165350000Y-48925000D01*
X165750000Y-54550305D02*
X166174695Y-54975000D01*
X165750000Y-52957500D02*
X165750000Y-54550305D01*
X166174695Y-54975000D02*
X167775000Y-54975000D01*
X164615000Y-46240000D02*
X162915000Y-46240000D01*
X167775000Y-54975000D02*
X168297500Y-54452500D01*
X165757500Y-52282500D02*
X165350000Y-51875000D01*
X165757500Y-52950000D02*
X165757500Y-52282500D01*
X165757500Y-52950000D02*
X165750000Y-52957500D01*
X165350000Y-51875000D02*
X165350000Y-50425000D01*
X168297500Y-54452500D02*
X168297500Y-52950000D01*
X165350000Y-48925000D02*
X165350000Y-46975000D01*
X165350000Y-46975000D02*
X164615000Y-46240000D01*
D34*
%TO.N,5V_IN*%
X176875000Y-46325000D02*
X176875000Y-47150000D01*
D35*
X166825000Y-48925000D02*
X166825000Y-45775000D01*
X166825000Y-50425000D02*
X166825000Y-48925000D01*
D34*
X176875000Y-47150000D02*
X176875000Y-48650000D01*
D35*
X166825000Y-45775000D02*
X167575000Y-45025000D01*
X166825000Y-51300000D02*
X166825000Y-50425000D01*
X167662500Y-52950000D02*
X167662500Y-52137500D01*
D34*
X175450000Y-43725000D02*
X175900000Y-43275000D01*
X176875000Y-48650000D02*
X176875000Y-50387500D01*
D35*
X167662500Y-52137500D02*
X166825000Y-51300000D01*
D34*
X175450000Y-45575000D02*
X175450000Y-43725000D01*
X175450000Y-45575000D02*
X176125000Y-45575000D01*
X176125000Y-45575000D02*
X176875000Y-46325000D01*
D35*
X167575000Y-45025000D02*
X170700000Y-45025000D01*
%TO.N,SD_PMOS*%
X147900000Y-61225000D02*
X147900000Y-59700000D01*
X148535000Y-56845000D02*
X152075000Y-56845000D01*
X148550000Y-61875000D02*
X147900000Y-61225000D01*
X168297500Y-58150000D02*
X168297500Y-59200000D01*
X147900000Y-59700000D02*
X147900000Y-57480000D01*
X165622500Y-61875000D02*
X148550000Y-61875000D01*
X147900000Y-57480000D02*
X148535000Y-56845000D01*
X168297500Y-59200000D02*
X165622500Y-61875000D01*
X152570000Y-57340000D02*
X152570000Y-57970000D01*
X152075000Y-56845000D02*
X152570000Y-57340000D01*
D33*
%TO.N,Net-(D1-Pad2)*%
X161725000Y-54775000D02*
X161725000Y-56187500D01*
%TO.N,Net-(J1-PadA5)*%
X174950000Y-38500000D02*
X175325000Y-38875000D01*
X167425000Y-38500000D02*
X174950000Y-38500000D01*
X166250000Y-39675000D02*
X167425000Y-38500000D01*
X166250000Y-39675000D02*
X166250000Y-40725000D01*
X175325000Y-38875000D02*
X175325000Y-41028199D01*
%TO.N,D+C*%
X173325000Y-40100000D02*
X173324941Y-40100059D01*
X173325000Y-39400000D02*
X173325000Y-40100000D01*
X173525301Y-41924699D02*
X174125301Y-41924699D01*
X174325000Y-41725000D02*
X174325000Y-41028199D01*
X173324941Y-41474941D02*
X173325000Y-41475000D01*
X174125301Y-41924699D02*
X174325000Y-41725000D01*
X173324941Y-40100059D02*
X173324941Y-41028199D01*
X173325000Y-41475000D02*
X173325000Y-41725000D01*
X162825000Y-44950000D02*
X162825000Y-45600000D01*
X173150000Y-39225000D02*
X173325000Y-39400000D01*
X163000000Y-44775000D02*
X162825000Y-44950000D01*
X173525000Y-41925000D02*
X173525301Y-41924699D01*
X173325000Y-41725000D02*
X173525000Y-41925000D01*
X173324941Y-41028199D02*
X173324941Y-41474941D01*
X163000000Y-44475000D02*
X163000000Y-44775000D01*
%TO.N,D-C*%
X162175000Y-44475000D02*
X162175000Y-44835000D01*
X174625000Y-40125000D02*
X174824940Y-40324940D01*
X174824940Y-40324940D02*
X174824940Y-41028199D01*
X162175000Y-44835000D02*
X162325000Y-44985000D01*
X174025000Y-40125000D02*
X174250000Y-40125000D01*
X162325000Y-44985000D02*
X162325000Y-45600000D01*
X173825000Y-40325000D02*
X174025000Y-40125000D01*
X174250000Y-39225000D02*
X174250000Y-40125000D01*
X174250000Y-40125000D02*
X174625000Y-40125000D01*
X173825000Y-41028199D02*
X173825000Y-40325000D01*
%TO.N,Net-(J1-PadB5)*%
X167750000Y-39675000D02*
X168275000Y-39150000D01*
X172324940Y-39699940D02*
X172324940Y-41028199D01*
X171775000Y-39150000D02*
X172324940Y-39699940D01*
X168275000Y-39150000D02*
X171775000Y-39150000D01*
X167750000Y-39675000D02*
X167750000Y-40725000D01*
%TO.N,D2*%
X167662500Y-58821688D02*
X167662500Y-58150000D01*
X149270000Y-58530000D02*
X152065000Y-61325000D01*
X152065000Y-61325000D02*
X165159188Y-61325000D01*
X165159188Y-61325000D02*
X167662500Y-58821688D01*
X149270000Y-57970000D02*
X149270000Y-58530000D01*
%TO.N,D3*%
X164972792Y-60875000D02*
X167027500Y-58820292D01*
X150370000Y-58360000D02*
X152885000Y-60875000D01*
X150370000Y-57970000D02*
X150370000Y-58360000D01*
X152885000Y-60875000D02*
X164972792Y-60875000D01*
X167027500Y-58820292D02*
X167027500Y-58150000D01*
%TO.N,CMD*%
X166392500Y-58818896D02*
X166392500Y-58150000D01*
X153535000Y-60425000D02*
X164786396Y-60425000D01*
X164786396Y-60425000D02*
X166392500Y-58818896D01*
X151470000Y-57970000D02*
X151470000Y-58360000D01*
X151470000Y-58360000D02*
X153535000Y-60425000D01*
%TO.N,CLK*%
X155285000Y-59975000D02*
X164600000Y-59975000D01*
X164600000Y-59975000D02*
X165757500Y-58817500D01*
X153670000Y-57970000D02*
X153670000Y-58360000D01*
X165757500Y-58817500D02*
X165757500Y-58150000D01*
X153670000Y-58360000D02*
X155285000Y-59975000D01*
%TO.N,D0*%
X165122500Y-58802500D02*
X165122500Y-58150000D01*
X155870000Y-58360000D02*
X157035000Y-59525000D01*
X155870000Y-57970000D02*
X155870000Y-58360000D01*
X157035000Y-59525000D02*
X164400000Y-59525000D01*
X164400000Y-59525000D02*
X165122500Y-58802500D01*
%TO.N,D1*%
X164487500Y-58787500D02*
X164487500Y-58150000D01*
X164200000Y-59075000D02*
X164487500Y-58787500D01*
X156970000Y-58360000D02*
X157685000Y-59075000D01*
X157685000Y-59075000D02*
X164200000Y-59075000D01*
X156970000Y-57970000D02*
X156970000Y-58360000D01*
%TO.N,5V_SW*%
X163850000Y-47125000D02*
X163605000Y-46880000D01*
X163605000Y-46880000D02*
X162825000Y-46880000D01*
X164000000Y-47125000D02*
X163850000Y-47125000D01*
%TO.N,~{OUT}*%
X175425000Y-46475000D02*
X176025000Y-47075000D01*
X174700000Y-46475000D02*
X175425000Y-46475000D01*
X178775000Y-51125000D02*
X178775000Y-50387500D01*
X173250000Y-45025000D02*
X173800000Y-45575000D01*
X173800000Y-45575000D02*
X174700000Y-46475000D01*
X178450000Y-51450000D02*
X178775000Y-51125000D01*
X176025000Y-47075000D02*
X176025000Y-51075000D01*
X172600000Y-45025000D02*
X173250000Y-45025000D01*
X176025000Y-51075000D02*
X176400000Y-51450000D01*
X176400000Y-51450000D02*
X178450000Y-51450000D01*
%TO.N,Net-(R3-Pad1)*%
X161000000Y-52400000D02*
X161725000Y-53125000D01*
X166392500Y-54167500D02*
X166475000Y-54250000D01*
X161000000Y-51600000D02*
X161000000Y-52400000D01*
X166392500Y-52950000D02*
X166392500Y-54167500D01*
%TO.N,Net-(SW1-Pad2)*%
X182100000Y-52825000D02*
X182100000Y-51175000D01*
X176875000Y-52662500D02*
X176875000Y-53046751D01*
X181275000Y-53650000D02*
X182100000Y-52825000D01*
X176875000Y-53046751D02*
X177478249Y-53650000D01*
X177478249Y-53650000D02*
X181275000Y-53650000D01*
%TO.N,Net-(SW2-Pad2)*%
X135050000Y-83550000D02*
X135050000Y-68900000D01*
%TO.N,Net-(SW3-Pad2)*%
X186575000Y-68925000D02*
X186550000Y-68900000D01*
X186575000Y-83525000D02*
X186575000Y-68925000D01*
%TO.N,Net-(TP3-Pad1)*%
X161450000Y-44174695D02*
X163849695Y-41775000D01*
X161450000Y-44775305D02*
X161450000Y-44174695D01*
X163849695Y-41775000D02*
X164200000Y-41775000D01*
X161825000Y-45150305D02*
X161450000Y-44775305D01*
X161825000Y-45600000D02*
X161825000Y-45150305D01*
%TO.N,Net-(TP4-Pad1)*%
X161325000Y-45300000D02*
X161000000Y-44975000D01*
X161000000Y-43975000D02*
X161013299Y-43975000D01*
X161000000Y-44975000D02*
X161000000Y-43975000D01*
X162244150Y-42744149D02*
X162244150Y-42394150D01*
X161325000Y-45600000D02*
X161325000Y-45300000D01*
X162244150Y-42394150D02*
X161625000Y-41775000D01*
X161013299Y-43975000D02*
X162244150Y-42744149D01*
D36*
%TO.N,D+*%
X162325000Y-50856814D02*
X163509093Y-52040907D01*
X164487500Y-52185000D02*
X164487500Y-52950000D01*
X163509093Y-52040907D02*
X164343407Y-52040907D01*
X162325000Y-46880000D02*
X162325000Y-50856814D01*
X164343407Y-52040907D02*
X164487500Y-52185000D01*
%TO.N,D-*%
X161825000Y-46880000D02*
X161825000Y-50922500D01*
X161825000Y-50922500D02*
X163852500Y-52950000D01*
%TD*%
%TA.AperFunction,Conductor*%
%TO.N,5V_IN*%
G36*
X171914161Y-40395002D02*
G01*
X171960654Y-40448658D01*
X171972040Y-40501000D01*
X171972040Y-41619447D01*
X171983673Y-41677930D01*
X172027988Y-41744251D01*
X172094309Y-41788566D01*
X172106482Y-41790987D01*
X172113290Y-41793807D01*
X172146113Y-41813735D01*
X172725000Y-42300000D01*
X175375000Y-42300000D01*
X176015713Y-41807144D01*
X176043796Y-41790908D01*
X176055572Y-41788566D01*
X176121893Y-41744251D01*
X176166208Y-41677930D01*
X176177841Y-41619447D01*
X176177841Y-40526000D01*
X176197843Y-40457879D01*
X176251499Y-40411386D01*
X176303841Y-40400000D01*
X176643701Y-40400000D01*
X176711822Y-40420002D01*
X176758315Y-40473658D01*
X176769701Y-40526000D01*
X176769701Y-41619447D01*
X176781334Y-41677930D01*
X176788227Y-41688246D01*
X176825649Y-41744251D01*
X176822843Y-41746126D01*
X176847121Y-41790587D01*
X176850000Y-41817370D01*
X176850000Y-43772810D01*
X176829998Y-43840931D01*
X176813095Y-43861905D01*
X176261905Y-44413095D01*
X176199593Y-44447121D01*
X176172810Y-44450000D01*
X172625000Y-44450000D01*
X172478265Y-44608963D01*
X172417363Y-44645452D01*
X172392575Y-44648619D01*
X172392602Y-44648893D01*
X172386439Y-44649500D01*
X172380252Y-44649500D01*
X172374184Y-44650707D01*
X172333939Y-44658712D01*
X172333938Y-44658712D01*
X172321769Y-44661133D01*
X172255448Y-44705448D01*
X172211133Y-44771769D01*
X172199500Y-44830252D01*
X172199500Y-45073500D01*
X172179498Y-45141621D01*
X172125842Y-45188114D01*
X172073500Y-45199500D01*
X171030252Y-45199500D01*
X171024184Y-45200707D01*
X170983939Y-45208712D01*
X170983938Y-45208712D01*
X170971769Y-45211133D01*
X170961453Y-45218026D01*
X170907967Y-45253765D01*
X170837964Y-45275000D01*
X170626000Y-45275000D01*
X170557879Y-45254998D01*
X170511386Y-45201342D01*
X170500000Y-45149000D01*
X170500000Y-43427190D01*
X170520002Y-43359069D01*
X170536905Y-43338095D01*
X171200000Y-42675000D01*
X171200000Y-41894174D01*
X171220002Y-41826053D01*
X171260477Y-41792226D01*
X171258032Y-41788566D01*
X171314040Y-41751142D01*
X171324353Y-41744251D01*
X171368668Y-41677930D01*
X171380301Y-41619447D01*
X171380301Y-40501000D01*
X171400303Y-40432879D01*
X171453959Y-40386386D01*
X171506301Y-40375000D01*
X171846040Y-40375000D01*
X171914161Y-40395002D01*
G37*
%TD.AperFunction*%
%TD*%
%TA.AperFunction,Conductor*%
%TO.N,5V_SW*%
G36*
X172378578Y-45400167D02*
G01*
X172380252Y-45400500D01*
X172819748Y-45400500D01*
X172821422Y-45400167D01*
X172824826Y-45400000D01*
X172874000Y-45400000D01*
X172942121Y-45420002D01*
X172988614Y-45473658D01*
X173000000Y-45526000D01*
X173000000Y-69824000D01*
X172979998Y-69892121D01*
X172926342Y-69938614D01*
X172874000Y-69950000D01*
X170426000Y-69950000D01*
X170357879Y-69929998D01*
X170311386Y-69876342D01*
X170300000Y-69824000D01*
X170300000Y-45576500D01*
X170320002Y-45508379D01*
X170373658Y-45461886D01*
X170426000Y-45450500D01*
X170733488Y-45450500D01*
X170793851Y-45440940D01*
X170823335Y-45436270D01*
X170823337Y-45436269D01*
X170833126Y-45434719D01*
X170841962Y-45430217D01*
X170874315Y-45413733D01*
X170931517Y-45400000D01*
X172375174Y-45400000D01*
X172378578Y-45400167D01*
G37*
%TD.AperFunction*%
%TD*%
%TA.AperFunction,Conductor*%
%TO.N,3V3*%
G36*
X176542121Y-59320002D02*
G01*
X176588614Y-59373658D01*
X176600000Y-59426000D01*
X176600000Y-70024000D01*
X176579998Y-70092121D01*
X176526342Y-70138614D01*
X176474000Y-70150000D01*
X174226000Y-70150000D01*
X174157879Y-70129998D01*
X174111386Y-70076342D01*
X174100000Y-70024000D01*
X174100000Y-59426000D01*
X174120002Y-59357879D01*
X174173658Y-59311386D01*
X174226000Y-59300000D01*
X176474000Y-59300000D01*
X176542121Y-59320002D01*
G37*
%TD.AperFunction*%
%TD*%
%TA.AperFunction,Conductor*%
%TO.N,GND*%
G36*
X168910551Y-35070502D02*
G01*
X168957044Y-35124158D01*
X168967148Y-35194432D01*
X168938952Y-35257490D01*
X168923226Y-35276232D01*
X168916292Y-35286358D01*
X168826998Y-35448784D01*
X168822166Y-35460057D01*
X168766120Y-35636737D01*
X168763570Y-35648731D01*
X168747393Y-35792960D01*
X168747000Y-35799984D01*
X168747000Y-36181084D01*
X168751475Y-36196323D01*
X168752865Y-36197528D01*
X168760548Y-36199199D01*
X170744885Y-36199199D01*
X170760124Y-36194724D01*
X170761329Y-36193334D01*
X170763000Y-36185651D01*
X170763000Y-35806542D01*
X170762699Y-35800394D01*
X170749188Y-35662596D01*
X170746805Y-35650561D01*
X170693233Y-35473123D01*
X170688559Y-35461783D01*
X170601540Y-35298122D01*
X170594748Y-35287899D01*
X170568842Y-35256135D01*
X170541288Y-35190703D01*
X170553484Y-35120762D01*
X170601557Y-35068517D01*
X170666485Y-35050500D01*
X177482430Y-35050500D01*
X177550551Y-35070502D01*
X177597044Y-35124158D01*
X177607148Y-35194432D01*
X177578952Y-35257490D01*
X177563226Y-35276232D01*
X177556292Y-35286358D01*
X177466998Y-35448784D01*
X177462166Y-35460057D01*
X177406120Y-35636737D01*
X177403570Y-35648731D01*
X177387393Y-35792960D01*
X177387000Y-35799984D01*
X177387000Y-36181084D01*
X177391475Y-36196323D01*
X177392865Y-36197528D01*
X177400548Y-36199199D01*
X178523000Y-36199199D01*
X178591121Y-36219201D01*
X178637614Y-36272857D01*
X178649000Y-36325199D01*
X178649000Y-38011123D01*
X178652973Y-38024654D01*
X178660768Y-38025774D01*
X178768521Y-37994061D01*
X178779889Y-37989468D01*
X178944154Y-37903592D01*
X178954415Y-37896878D01*
X179019548Y-37844510D01*
X179085171Y-37817414D01*
X179155025Y-37830098D01*
X179206933Y-37878534D01*
X179224500Y-37942707D01*
X179224500Y-39163384D01*
X179204498Y-39231505D01*
X179150842Y-39277998D01*
X179080568Y-39288102D01*
X179018184Y-39260468D01*
X178966145Y-39217417D01*
X178955973Y-39210556D01*
X178792924Y-39122396D01*
X178781619Y-39117644D01*
X178666308Y-39081950D01*
X178652205Y-39081744D01*
X178649000Y-39088499D01*
X178649000Y-41811124D01*
X178652973Y-41824655D01*
X178660768Y-41825775D01*
X178768521Y-41794062D01*
X178779889Y-41789469D01*
X178944154Y-41703593D01*
X178954415Y-41696879D01*
X179019548Y-41644511D01*
X179085171Y-41617415D01*
X179155025Y-41630099D01*
X179206933Y-41678535D01*
X179224500Y-41742708D01*
X179224500Y-42182654D01*
X179234338Y-42196195D01*
X179239510Y-42212112D01*
X179253050Y-42221950D01*
X179262888Y-42235490D01*
X179278805Y-42240662D01*
X179292346Y-42250500D01*
X187973500Y-42250500D01*
X188041621Y-42270502D01*
X188088114Y-42324158D01*
X188099500Y-42376500D01*
X188099500Y-43789068D01*
X188079498Y-43857189D01*
X188025842Y-43903682D01*
X187955568Y-43913786D01*
X187890988Y-43884292D01*
X187866068Y-43854903D01*
X187842568Y-43816555D01*
X187832110Y-43807093D01*
X187823334Y-43810876D01*
X186972022Y-44662188D01*
X186964408Y-44676132D01*
X186964539Y-44677965D01*
X186968790Y-44684580D01*
X187820290Y-45536080D01*
X187832670Y-45542840D01*
X187840320Y-45537113D01*
X187866068Y-45495097D01*
X187918715Y-45447465D01*
X187988757Y-45435859D01*
X188053954Y-45463963D01*
X188093608Y-45522853D01*
X188099500Y-45560932D01*
X188099500Y-50289068D01*
X188079498Y-50357189D01*
X188025842Y-50403682D01*
X187955568Y-50413786D01*
X187890988Y-50384292D01*
X187866068Y-50354903D01*
X187842568Y-50316555D01*
X187832110Y-50307093D01*
X187823334Y-50310876D01*
X186972022Y-51162188D01*
X186964408Y-51176132D01*
X186964539Y-51177965D01*
X186968790Y-51184580D01*
X187820290Y-52036080D01*
X187832670Y-52042840D01*
X187840320Y-52037113D01*
X187866068Y-51995097D01*
X187918715Y-51947465D01*
X187988757Y-51935859D01*
X188053954Y-51963963D01*
X188093608Y-52022853D01*
X188099500Y-52060932D01*
X188099500Y-91423500D01*
X188079498Y-91491621D01*
X188025842Y-91538114D01*
X187973500Y-91549500D01*
X182920136Y-91549500D01*
X182852015Y-91529498D01*
X182805522Y-91475842D01*
X182795418Y-91405568D01*
X182824912Y-91340988D01*
X182854301Y-91316068D01*
X182933445Y-91267568D01*
X182942907Y-91257110D01*
X182939124Y-91248334D01*
X182087812Y-90397022D01*
X182073868Y-90389408D01*
X182072035Y-90389539D01*
X182065420Y-90393790D01*
X181213920Y-91245290D01*
X181207160Y-91257670D01*
X181212887Y-91265320D01*
X181295699Y-91316068D01*
X181343330Y-91368715D01*
X181354937Y-91438757D01*
X181326834Y-91503954D01*
X181267943Y-91543608D01*
X181229864Y-91549500D01*
X133676500Y-91549500D01*
X133608379Y-91529498D01*
X133561886Y-91475842D01*
X133550500Y-91423500D01*
X133550500Y-90018440D01*
X133844770Y-90018440D01*
X133859200Y-90238604D01*
X133860621Y-90244200D01*
X133860622Y-90244205D01*
X133899433Y-90397022D01*
X133913511Y-90452452D01*
X133915928Y-90457694D01*
X133915928Y-90457695D01*
X133954046Y-90540379D01*
X134005883Y-90652821D01*
X134133222Y-90833002D01*
X134291264Y-90986961D01*
X134296060Y-90990166D01*
X134296063Y-90990168D01*
X134380261Y-91046427D01*
X134474717Y-91109540D01*
X134480020Y-91111818D01*
X134480023Y-91111820D01*
X134672129Y-91194355D01*
X134677436Y-91196635D01*
X134757088Y-91214658D01*
X134886995Y-91244054D01*
X134887001Y-91244055D01*
X134892632Y-91245329D01*
X134898403Y-91245556D01*
X134898405Y-91245556D01*
X134966211Y-91248220D01*
X135113098Y-91253991D01*
X135222275Y-91238161D01*
X135325738Y-91223160D01*
X135325743Y-91223159D01*
X135331452Y-91222331D01*
X135336916Y-91220476D01*
X135336921Y-91220475D01*
X135534907Y-91153268D01*
X135534912Y-91153266D01*
X135540379Y-91151410D01*
X135732884Y-91043602D01*
X135759547Y-91021427D01*
X135898086Y-90906204D01*
X135902518Y-90902518D01*
X135964256Y-90828287D01*
X136039908Y-90737326D01*
X136039910Y-90737323D01*
X136043602Y-90732884D01*
X136151410Y-90540379D01*
X136153266Y-90534912D01*
X136153268Y-90534907D01*
X136220475Y-90336921D01*
X136220476Y-90336916D01*
X136222331Y-90331452D01*
X136223159Y-90325743D01*
X136223160Y-90325738D01*
X136253458Y-90116772D01*
X136253991Y-90113098D01*
X136255643Y-90050000D01*
X136252743Y-90018440D01*
X138344770Y-90018440D01*
X138359200Y-90238604D01*
X138360621Y-90244200D01*
X138360622Y-90244205D01*
X138399433Y-90397022D01*
X138413511Y-90452452D01*
X138415928Y-90457694D01*
X138415928Y-90457695D01*
X138454046Y-90540379D01*
X138505883Y-90652821D01*
X138633222Y-90833002D01*
X138791264Y-90986961D01*
X138796060Y-90990166D01*
X138796063Y-90990168D01*
X138880261Y-91046427D01*
X138974717Y-91109540D01*
X138980020Y-91111818D01*
X138980023Y-91111820D01*
X139172129Y-91194355D01*
X139177436Y-91196635D01*
X139257088Y-91214658D01*
X139386995Y-91244054D01*
X139387001Y-91244055D01*
X139392632Y-91245329D01*
X139398403Y-91245556D01*
X139398405Y-91245556D01*
X139466211Y-91248220D01*
X139613098Y-91253991D01*
X139722275Y-91238161D01*
X139825738Y-91223160D01*
X139825743Y-91223159D01*
X139831452Y-91222331D01*
X139836916Y-91220476D01*
X139836921Y-91220475D01*
X140034907Y-91153268D01*
X140034912Y-91153266D01*
X140040379Y-91151410D01*
X140232884Y-91043602D01*
X140259547Y-91021427D01*
X140398086Y-90906204D01*
X140402518Y-90902518D01*
X140464256Y-90828287D01*
X140539908Y-90737326D01*
X140539910Y-90737323D01*
X140543602Y-90732884D01*
X140651410Y-90540379D01*
X140653266Y-90534912D01*
X140653268Y-90534907D01*
X140720475Y-90336921D01*
X140720476Y-90336916D01*
X140722331Y-90331452D01*
X140723159Y-90325743D01*
X140723160Y-90325738D01*
X140753458Y-90116772D01*
X140753991Y-90113098D01*
X140755643Y-90050000D01*
X140753799Y-90029930D01*
X180562725Y-90029930D01*
X180580572Y-90256699D01*
X180582115Y-90266446D01*
X180635217Y-90487627D01*
X180638266Y-90497012D01*
X180725313Y-90707163D01*
X180729795Y-90715958D01*
X180832432Y-90883445D01*
X180842890Y-90892907D01*
X180851666Y-90889124D01*
X181702978Y-90037812D01*
X181709356Y-90026132D01*
X182439408Y-90026132D01*
X182439539Y-90027965D01*
X182443790Y-90034580D01*
X183295290Y-90886080D01*
X183307670Y-90892840D01*
X183315320Y-90887113D01*
X183420205Y-90715958D01*
X183424687Y-90707163D01*
X183511734Y-90497012D01*
X183514783Y-90487627D01*
X183567885Y-90266446D01*
X183569428Y-90256699D01*
X183587275Y-90029930D01*
X183587275Y-90020070D01*
X183585179Y-89993440D01*
X185369770Y-89993440D01*
X185384200Y-90213604D01*
X185385621Y-90219200D01*
X185385622Y-90219205D01*
X185414130Y-90331452D01*
X185438511Y-90427452D01*
X185440928Y-90432694D01*
X185440928Y-90432695D01*
X185479046Y-90515379D01*
X185530883Y-90627821D01*
X185658222Y-90808002D01*
X185816264Y-90961961D01*
X185821060Y-90965166D01*
X185821063Y-90965168D01*
X185905261Y-91021427D01*
X185999717Y-91084540D01*
X186005020Y-91086818D01*
X186005023Y-91086820D01*
X186197129Y-91169355D01*
X186202436Y-91171635D01*
X186282088Y-91189658D01*
X186411995Y-91219054D01*
X186412001Y-91219055D01*
X186417632Y-91220329D01*
X186423403Y-91220556D01*
X186423405Y-91220556D01*
X186489687Y-91223160D01*
X186638098Y-91228991D01*
X186747275Y-91213161D01*
X186850738Y-91198160D01*
X186850743Y-91198159D01*
X186856452Y-91197331D01*
X186861916Y-91195476D01*
X186861921Y-91195475D01*
X187059907Y-91128268D01*
X187059912Y-91128266D01*
X187065379Y-91126410D01*
X187091432Y-91111820D01*
X187219839Y-91039908D01*
X187257884Y-91018602D01*
X187427518Y-90877518D01*
X187489256Y-90803287D01*
X187564908Y-90712326D01*
X187564910Y-90712323D01*
X187568602Y-90707884D01*
X187676410Y-90515379D01*
X187678266Y-90509912D01*
X187678268Y-90509907D01*
X187745475Y-90311921D01*
X187745476Y-90311916D01*
X187747331Y-90306452D01*
X187748159Y-90300743D01*
X187748160Y-90300738D01*
X187778458Y-90091772D01*
X187778991Y-90088098D01*
X187780643Y-90025000D01*
X187760454Y-89805289D01*
X187700565Y-89592936D01*
X187602980Y-89395053D01*
X187569735Y-89350532D01*
X187474420Y-89222891D01*
X187474420Y-89222890D01*
X187470967Y-89218267D01*
X187373586Y-89128249D01*
X187313189Y-89072418D01*
X187313186Y-89072416D01*
X187308949Y-89068499D01*
X187122350Y-88950764D01*
X186917421Y-88869006D01*
X186911761Y-88867880D01*
X186911757Y-88867879D01*
X186706691Y-88827089D01*
X186706688Y-88827089D01*
X186701024Y-88825962D01*
X186695249Y-88825886D01*
X186695245Y-88825886D01*
X186584504Y-88824437D01*
X186480406Y-88823074D01*
X186474709Y-88824053D01*
X186474708Y-88824053D01*
X186268654Y-88859459D01*
X186268653Y-88859459D01*
X186262957Y-88860438D01*
X186055957Y-88936804D01*
X186050996Y-88939756D01*
X186050995Y-88939756D01*
X185968999Y-88988539D01*
X185866341Y-89049614D01*
X185700457Y-89195090D01*
X185563863Y-89368360D01*
X185461131Y-89563620D01*
X185395703Y-89774333D01*
X185369770Y-89993440D01*
X183585179Y-89993440D01*
X183569428Y-89793301D01*
X183567885Y-89783554D01*
X183514783Y-89562373D01*
X183511734Y-89552988D01*
X183424687Y-89342837D01*
X183420205Y-89334042D01*
X183317568Y-89166555D01*
X183307110Y-89157093D01*
X183298334Y-89160876D01*
X182447022Y-90012188D01*
X182439408Y-90026132D01*
X181709356Y-90026132D01*
X181710592Y-90023868D01*
X181710461Y-90022035D01*
X181706210Y-90015420D01*
X180854710Y-89163920D01*
X180842330Y-89157160D01*
X180834680Y-89162887D01*
X180729795Y-89334042D01*
X180725313Y-89342837D01*
X180638266Y-89552988D01*
X180635217Y-89562373D01*
X180582115Y-89783554D01*
X180580572Y-89793301D01*
X180562725Y-90020070D01*
X180562725Y-90029930D01*
X140753799Y-90029930D01*
X140735454Y-89830289D01*
X140728404Y-89805289D01*
X140677134Y-89623500D01*
X140675565Y-89617936D01*
X140577980Y-89420053D01*
X140563181Y-89400234D01*
X140449420Y-89247891D01*
X140449420Y-89247890D01*
X140445967Y-89243267D01*
X140346320Y-89151154D01*
X140288189Y-89097418D01*
X140288186Y-89097416D01*
X140283949Y-89093499D01*
X140097350Y-88975764D01*
X139892421Y-88894006D01*
X139886761Y-88892880D01*
X139886757Y-88892879D01*
X139681691Y-88852089D01*
X139681688Y-88852089D01*
X139676024Y-88850962D01*
X139670249Y-88850886D01*
X139670245Y-88850886D01*
X139559504Y-88849437D01*
X139455406Y-88848074D01*
X139449709Y-88849053D01*
X139449708Y-88849053D01*
X139243654Y-88884459D01*
X139243653Y-88884459D01*
X139237957Y-88885438D01*
X139030957Y-88961804D01*
X139025996Y-88964756D01*
X139025995Y-88964756D01*
X138986020Y-88988539D01*
X138841341Y-89074614D01*
X138675457Y-89220090D01*
X138538863Y-89393360D01*
X138436131Y-89588620D01*
X138415144Y-89656210D01*
X138375603Y-89783554D01*
X138370703Y-89799333D01*
X138344770Y-90018440D01*
X136252743Y-90018440D01*
X136235454Y-89830289D01*
X136228404Y-89805289D01*
X136177134Y-89623500D01*
X136175565Y-89617936D01*
X136077980Y-89420053D01*
X136063181Y-89400234D01*
X135949420Y-89247891D01*
X135949420Y-89247890D01*
X135945967Y-89243267D01*
X135846320Y-89151154D01*
X135788189Y-89097418D01*
X135788186Y-89097416D01*
X135783949Y-89093499D01*
X135597350Y-88975764D01*
X135392421Y-88894006D01*
X135386761Y-88892880D01*
X135386757Y-88892879D01*
X135181691Y-88852089D01*
X135181688Y-88852089D01*
X135176024Y-88850962D01*
X135170249Y-88850886D01*
X135170245Y-88850886D01*
X135059504Y-88849437D01*
X134955406Y-88848074D01*
X134949709Y-88849053D01*
X134949708Y-88849053D01*
X134743654Y-88884459D01*
X134743653Y-88884459D01*
X134737957Y-88885438D01*
X134530957Y-88961804D01*
X134525996Y-88964756D01*
X134525995Y-88964756D01*
X134486020Y-88988539D01*
X134341341Y-89074614D01*
X134175457Y-89220090D01*
X134038863Y-89393360D01*
X133936131Y-89588620D01*
X133915144Y-89656210D01*
X133875603Y-89783554D01*
X133870703Y-89799333D01*
X133844770Y-90018440D01*
X133550500Y-90018440D01*
X133550500Y-87965665D01*
X142595119Y-87965665D01*
X142595288Y-87968601D01*
X142608376Y-88195580D01*
X142609513Y-88200626D01*
X142609514Y-88200632D01*
X142631226Y-88296975D01*
X142659006Y-88420242D01*
X142660948Y-88425024D01*
X142660949Y-88425028D01*
X142743705Y-88628831D01*
X142745649Y-88633618D01*
X142865979Y-88829978D01*
X143016763Y-89004048D01*
X143193953Y-89151154D01*
X143392790Y-89267345D01*
X143607934Y-89349501D01*
X143613000Y-89350532D01*
X143613001Y-89350532D01*
X143678335Y-89363824D01*
X143833607Y-89395414D01*
X143963352Y-89400172D01*
X144058585Y-89403664D01*
X144058589Y-89403664D01*
X144063749Y-89403853D01*
X144068869Y-89403197D01*
X144068871Y-89403197D01*
X144145661Y-89393360D01*
X144292178Y-89374591D01*
X144297126Y-89373106D01*
X144297133Y-89373105D01*
X144507811Y-89309898D01*
X144507810Y-89309898D01*
X144512761Y-89308413D01*
X144719574Y-89207096D01*
X144907062Y-89073363D01*
X145070190Y-88910803D01*
X145128269Y-88829978D01*
X145201559Y-88727983D01*
X145204577Y-88723783D01*
X145226511Y-88679404D01*
X145304321Y-88521966D01*
X145306615Y-88517325D01*
X145342140Y-88400401D01*
X145372059Y-88301927D01*
X145372060Y-88301921D01*
X145373563Y-88296975D01*
X145403622Y-88068649D01*
X145405300Y-88000000D01*
X145402477Y-87965665D01*
X175595119Y-87965665D01*
X175595288Y-87968601D01*
X175608376Y-88195580D01*
X175609513Y-88200626D01*
X175609514Y-88200632D01*
X175631226Y-88296975D01*
X175659006Y-88420242D01*
X175660948Y-88425024D01*
X175660949Y-88425028D01*
X175743705Y-88628831D01*
X175745649Y-88633618D01*
X175865979Y-88829978D01*
X176016763Y-89004048D01*
X176193953Y-89151154D01*
X176392790Y-89267345D01*
X176607934Y-89349501D01*
X176613000Y-89350532D01*
X176613001Y-89350532D01*
X176678335Y-89363824D01*
X176833607Y-89395414D01*
X176963352Y-89400172D01*
X177058585Y-89403664D01*
X177058589Y-89403664D01*
X177063749Y-89403853D01*
X177068869Y-89403197D01*
X177068871Y-89403197D01*
X177145661Y-89393360D01*
X177292178Y-89374591D01*
X177297126Y-89373106D01*
X177297133Y-89373105D01*
X177507811Y-89309898D01*
X177507810Y-89309898D01*
X177512761Y-89308413D01*
X177719574Y-89207096D01*
X177907062Y-89073363D01*
X178070190Y-88910803D01*
X178128269Y-88829978D01*
X178154919Y-88792890D01*
X181207093Y-88792890D01*
X181210876Y-88801666D01*
X182062188Y-89652978D01*
X182076132Y-89660592D01*
X182077965Y-89660461D01*
X182084580Y-89656210D01*
X182936080Y-88804710D01*
X182942840Y-88792330D01*
X182937113Y-88784680D01*
X182765958Y-88679795D01*
X182757163Y-88675313D01*
X182547012Y-88588266D01*
X182537627Y-88585217D01*
X182316446Y-88532115D01*
X182306699Y-88530572D01*
X182079930Y-88512725D01*
X182070070Y-88512725D01*
X181843301Y-88530572D01*
X181833554Y-88532115D01*
X181612373Y-88585217D01*
X181602988Y-88588266D01*
X181392837Y-88675313D01*
X181384042Y-88679795D01*
X181216555Y-88782432D01*
X181207093Y-88792890D01*
X178154919Y-88792890D01*
X178201559Y-88727983D01*
X178204577Y-88723783D01*
X178226511Y-88679404D01*
X178304321Y-88521966D01*
X178306615Y-88517325D01*
X178342140Y-88400401D01*
X178372059Y-88301927D01*
X178372060Y-88301921D01*
X178373563Y-88296975D01*
X178403622Y-88068649D01*
X178405300Y-88000000D01*
X178386430Y-87770478D01*
X178330326Y-87547120D01*
X178276750Y-87423903D01*
X178240556Y-87340661D01*
X178240554Y-87340658D01*
X178238496Y-87335924D01*
X178161964Y-87217624D01*
X178116215Y-87146906D01*
X178116213Y-87146903D01*
X178113405Y-87142563D01*
X178092774Y-87119889D01*
X177961890Y-86976051D01*
X177961889Y-86976050D01*
X177958412Y-86972229D01*
X177954361Y-86969030D01*
X177954357Y-86969026D01*
X177781735Y-86832697D01*
X177781730Y-86832693D01*
X177777681Y-86829496D01*
X177773165Y-86827003D01*
X177773162Y-86827001D01*
X177580589Y-86720695D01*
X177580585Y-86720693D01*
X177576065Y-86718198D01*
X177571196Y-86716474D01*
X177571192Y-86716472D01*
X177363853Y-86643049D01*
X177363849Y-86643048D01*
X177358978Y-86641323D01*
X177353885Y-86640416D01*
X177353882Y-86640415D01*
X177257707Y-86623284D01*
X177132250Y-86600937D01*
X177045802Y-86599881D01*
X176907141Y-86598186D01*
X176907139Y-86598186D01*
X176901971Y-86598123D01*
X176674325Y-86632958D01*
X176455424Y-86704506D01*
X176251149Y-86810845D01*
X176066984Y-86949119D01*
X175907877Y-87115616D01*
X175778099Y-87305863D01*
X175775923Y-87310552D01*
X175775919Y-87310558D01*
X175683315Y-87510057D01*
X175681136Y-87514752D01*
X175619592Y-87736673D01*
X175595119Y-87965665D01*
X145402477Y-87965665D01*
X145386430Y-87770478D01*
X145330326Y-87547120D01*
X145276750Y-87423903D01*
X145240556Y-87340661D01*
X145240554Y-87340658D01*
X145238496Y-87335924D01*
X145161964Y-87217624D01*
X145116215Y-87146906D01*
X145116213Y-87146903D01*
X145113405Y-87142563D01*
X145092774Y-87119889D01*
X144961890Y-86976051D01*
X144961889Y-86976050D01*
X144958412Y-86972229D01*
X144954361Y-86969030D01*
X144954357Y-86969026D01*
X144781735Y-86832697D01*
X144781730Y-86832693D01*
X144777681Y-86829496D01*
X144773165Y-86827003D01*
X144773162Y-86827001D01*
X144580589Y-86720695D01*
X144580585Y-86720693D01*
X144576065Y-86718198D01*
X144571196Y-86716474D01*
X144571192Y-86716472D01*
X144363853Y-86643049D01*
X144363849Y-86643048D01*
X144358978Y-86641323D01*
X144353885Y-86640416D01*
X144353882Y-86640415D01*
X144257707Y-86623284D01*
X144132250Y-86600937D01*
X144045802Y-86599881D01*
X143907141Y-86598186D01*
X143907139Y-86598186D01*
X143901971Y-86598123D01*
X143674325Y-86632958D01*
X143455424Y-86704506D01*
X143251149Y-86810845D01*
X143066984Y-86949119D01*
X142907877Y-87115616D01*
X142778099Y-87305863D01*
X142775923Y-87310552D01*
X142775919Y-87310558D01*
X142683315Y-87510057D01*
X142681136Y-87514752D01*
X142619592Y-87736673D01*
X142595119Y-87965665D01*
X133550500Y-87965665D01*
X133550500Y-84757670D01*
X181207160Y-84757670D01*
X181212887Y-84765320D01*
X181384042Y-84870205D01*
X181392837Y-84874687D01*
X181602988Y-84961734D01*
X181612373Y-84964783D01*
X181833554Y-85017885D01*
X181843301Y-85019428D01*
X182070070Y-85037275D01*
X182079930Y-85037275D01*
X182306699Y-85019428D01*
X182316446Y-85017885D01*
X182537627Y-84964783D01*
X182547012Y-84961734D01*
X182757163Y-84874687D01*
X182765958Y-84870205D01*
X182933445Y-84767568D01*
X182942907Y-84757110D01*
X182939124Y-84748334D01*
X182087812Y-83897022D01*
X182073868Y-83889408D01*
X182072035Y-83889539D01*
X182065420Y-83893790D01*
X181213920Y-84745290D01*
X181207160Y-84757670D01*
X133550500Y-84757670D01*
X133550500Y-83518440D01*
X133844770Y-83518440D01*
X133859200Y-83738604D01*
X133860621Y-83744200D01*
X133860622Y-83744205D01*
X133899433Y-83897022D01*
X133913511Y-83952452D01*
X133915928Y-83957694D01*
X133915928Y-83957695D01*
X133954046Y-84040379D01*
X134005883Y-84152821D01*
X134133222Y-84333002D01*
X134291264Y-84486961D01*
X134296060Y-84490166D01*
X134296063Y-84490168D01*
X134380261Y-84546427D01*
X134474717Y-84609540D01*
X134480020Y-84611818D01*
X134480023Y-84611820D01*
X134672129Y-84694355D01*
X134677436Y-84696635D01*
X134757088Y-84714658D01*
X134886995Y-84744054D01*
X134887001Y-84744055D01*
X134892632Y-84745329D01*
X134898403Y-84745556D01*
X134898405Y-84745556D01*
X134966211Y-84748220D01*
X135113098Y-84753991D01*
X135222275Y-84738161D01*
X135325738Y-84723160D01*
X135325743Y-84723159D01*
X135331452Y-84722331D01*
X135336916Y-84720476D01*
X135336921Y-84720475D01*
X135534907Y-84653268D01*
X135534912Y-84653266D01*
X135540379Y-84651410D01*
X135732884Y-84543602D01*
X135759547Y-84521427D01*
X135898086Y-84406204D01*
X135902518Y-84402518D01*
X135964256Y-84328287D01*
X136039908Y-84237326D01*
X136039910Y-84237323D01*
X136043602Y-84232884D01*
X136151410Y-84040379D01*
X136153266Y-84034912D01*
X136153268Y-84034907D01*
X136220475Y-83836921D01*
X136220476Y-83836916D01*
X136222331Y-83831452D01*
X136223159Y-83825743D01*
X136223160Y-83825738D01*
X136253458Y-83616772D01*
X136253991Y-83613098D01*
X136255643Y-83550000D01*
X136252743Y-83518440D01*
X138344770Y-83518440D01*
X138359200Y-83738604D01*
X138360621Y-83744200D01*
X138360622Y-83744205D01*
X138399433Y-83897022D01*
X138413511Y-83952452D01*
X138415928Y-83957694D01*
X138415928Y-83957695D01*
X138454046Y-84040379D01*
X138505883Y-84152821D01*
X138633222Y-84333002D01*
X138791264Y-84486961D01*
X138796060Y-84490166D01*
X138796063Y-84490168D01*
X138880261Y-84546427D01*
X138974717Y-84609540D01*
X138980020Y-84611818D01*
X138980023Y-84611820D01*
X139172129Y-84694355D01*
X139177436Y-84696635D01*
X139257088Y-84714658D01*
X139386995Y-84744054D01*
X139387001Y-84744055D01*
X139392632Y-84745329D01*
X139398403Y-84745556D01*
X139398405Y-84745556D01*
X139466211Y-84748220D01*
X139613098Y-84753991D01*
X139722275Y-84738161D01*
X139825738Y-84723160D01*
X139825743Y-84723159D01*
X139831452Y-84722331D01*
X139836916Y-84720476D01*
X139836921Y-84720475D01*
X140034907Y-84653268D01*
X140034912Y-84653266D01*
X140040379Y-84651410D01*
X140232884Y-84543602D01*
X140259547Y-84521427D01*
X140398086Y-84406204D01*
X140402518Y-84402518D01*
X140464256Y-84328287D01*
X140539908Y-84237326D01*
X140539910Y-84237323D01*
X140543602Y-84232884D01*
X140651410Y-84040379D01*
X140653266Y-84034912D01*
X140653268Y-84034907D01*
X140720475Y-83836921D01*
X140720476Y-83836916D01*
X140722331Y-83831452D01*
X140723159Y-83825743D01*
X140723160Y-83825738D01*
X140753458Y-83616772D01*
X140753991Y-83613098D01*
X140755643Y-83550000D01*
X140753799Y-83529930D01*
X180562725Y-83529930D01*
X180580572Y-83756699D01*
X180582115Y-83766446D01*
X180635217Y-83987627D01*
X180638266Y-83997012D01*
X180725313Y-84207163D01*
X180729795Y-84215958D01*
X180832432Y-84383445D01*
X180842890Y-84392907D01*
X180851666Y-84389124D01*
X181702978Y-83537812D01*
X181709356Y-83526132D01*
X182439408Y-83526132D01*
X182439539Y-83527965D01*
X182443790Y-83534580D01*
X183295290Y-84386080D01*
X183307670Y-84392840D01*
X183315320Y-84387113D01*
X183420205Y-84215958D01*
X183424687Y-84207163D01*
X183511734Y-83997012D01*
X183514783Y-83987627D01*
X183567885Y-83766446D01*
X183569428Y-83756699D01*
X183587275Y-83529930D01*
X183587275Y-83520070D01*
X183569428Y-83293301D01*
X183567885Y-83283554D01*
X183514783Y-83062373D01*
X183511734Y-83052988D01*
X183424687Y-82842837D01*
X183420205Y-82834042D01*
X183317568Y-82666555D01*
X183307110Y-82657093D01*
X183298334Y-82660876D01*
X182447022Y-83512188D01*
X182439408Y-83526132D01*
X181709356Y-83526132D01*
X181710592Y-83523868D01*
X181710461Y-83522035D01*
X181706210Y-83515420D01*
X180854710Y-82663920D01*
X180842330Y-82657160D01*
X180834680Y-82662887D01*
X180729795Y-82834042D01*
X180725313Y-82842837D01*
X180638266Y-83052988D01*
X180635217Y-83062373D01*
X180582115Y-83283554D01*
X180580572Y-83293301D01*
X180562725Y-83520070D01*
X180562725Y-83529930D01*
X140753799Y-83529930D01*
X140735454Y-83330289D01*
X140728404Y-83305289D01*
X140677134Y-83123500D01*
X140675565Y-83117936D01*
X140577980Y-82920053D01*
X140563181Y-82900234D01*
X140449420Y-82747891D01*
X140449420Y-82747890D01*
X140445967Y-82743267D01*
X140283949Y-82593499D01*
X140097350Y-82475764D01*
X139954811Y-82418897D01*
X139897785Y-82396146D01*
X139892421Y-82394006D01*
X139886761Y-82392880D01*
X139886757Y-82392879D01*
X139681691Y-82352089D01*
X139681688Y-82352089D01*
X139676024Y-82350962D01*
X139670249Y-82350886D01*
X139670245Y-82350886D01*
X139559504Y-82349437D01*
X139455406Y-82348074D01*
X139449709Y-82349053D01*
X139449708Y-82349053D01*
X139243654Y-82384459D01*
X139243653Y-82384459D01*
X139237957Y-82385438D01*
X139030957Y-82461804D01*
X138841341Y-82574614D01*
X138675457Y-82720090D01*
X138538863Y-82893360D01*
X138436131Y-83088620D01*
X138415144Y-83156210D01*
X138375603Y-83283554D01*
X138370703Y-83299333D01*
X138344770Y-83518440D01*
X136252743Y-83518440D01*
X136235454Y-83330289D01*
X136228404Y-83305289D01*
X136177134Y-83123500D01*
X136175565Y-83117936D01*
X136077980Y-82920053D01*
X136063181Y-82900234D01*
X135949420Y-82747891D01*
X135949420Y-82747890D01*
X135945967Y-82743267D01*
X135783949Y-82593499D01*
X135597350Y-82475764D01*
X135454809Y-82418896D01*
X135398951Y-82375077D01*
X135375500Y-82301867D01*
X135375500Y-82292890D01*
X181207093Y-82292890D01*
X181210876Y-82301666D01*
X182062188Y-83152978D01*
X182076132Y-83160592D01*
X182077965Y-83160461D01*
X182084580Y-83156210D01*
X182936080Y-82304710D01*
X182942840Y-82292330D01*
X182937113Y-82284680D01*
X182765958Y-82179795D01*
X182757163Y-82175313D01*
X182547012Y-82088266D01*
X182537627Y-82085217D01*
X182316446Y-82032115D01*
X182306699Y-82030572D01*
X182079930Y-82012725D01*
X182070070Y-82012725D01*
X181843301Y-82030572D01*
X181833554Y-82032115D01*
X181612373Y-82085217D01*
X181602988Y-82088266D01*
X181392837Y-82175313D01*
X181384042Y-82179795D01*
X181216555Y-82282432D01*
X181207093Y-82292890D01*
X135375500Y-82292890D01*
X135375500Y-70226500D01*
X135395502Y-70158379D01*
X135449158Y-70111886D01*
X135501500Y-70100500D01*
X136069748Y-70100500D01*
X136086092Y-70097249D01*
X136116061Y-70091288D01*
X136116062Y-70091288D01*
X136128231Y-70088867D01*
X136194552Y-70044552D01*
X136238867Y-69978231D01*
X136250500Y-69919748D01*
X136250500Y-67880252D01*
X136238867Y-67821769D01*
X136194552Y-67755448D01*
X136128231Y-67711133D01*
X136116062Y-67708712D01*
X136116061Y-67708712D01*
X136075816Y-67700707D01*
X136069748Y-67699500D01*
X134030252Y-67699500D01*
X134024184Y-67700707D01*
X133983939Y-67708712D01*
X133983938Y-67708712D01*
X133971769Y-67711133D01*
X133905448Y-67755448D01*
X133861133Y-67821769D01*
X133849500Y-67880252D01*
X133849500Y-69919748D01*
X133861133Y-69978231D01*
X133905448Y-70044552D01*
X133971769Y-70088867D01*
X133983938Y-70091288D01*
X133983939Y-70091288D01*
X134013908Y-70097249D01*
X134030252Y-70100500D01*
X134598500Y-70100500D01*
X134666621Y-70120502D01*
X134713114Y-70174158D01*
X134724500Y-70226500D01*
X134724500Y-82302586D01*
X134704498Y-82370707D01*
X134650842Y-82417200D01*
X134642111Y-82420797D01*
X134530957Y-82461804D01*
X134341341Y-82574614D01*
X134175457Y-82720090D01*
X134038863Y-82893360D01*
X133936131Y-83088620D01*
X133915144Y-83156210D01*
X133875603Y-83283554D01*
X133870703Y-83299333D01*
X133844770Y-83518440D01*
X133550500Y-83518440D01*
X133550500Y-61508488D01*
X147249500Y-61508488D01*
X147265281Y-61608126D01*
X147326472Y-61728220D01*
X147421780Y-61823528D01*
X147541874Y-61884719D01*
X147551663Y-61886269D01*
X147551665Y-61886270D01*
X147581149Y-61890940D01*
X147641512Y-61900500D01*
X147921562Y-61900500D01*
X147989683Y-61920502D01*
X148010657Y-61937405D01*
X148296780Y-62223528D01*
X148318156Y-62234419D01*
X148335008Y-62244747D01*
X148354419Y-62258850D01*
X148377237Y-62266264D01*
X148395498Y-62273827D01*
X148416874Y-62284719D01*
X148426665Y-62286270D01*
X148426672Y-62286272D01*
X148440569Y-62288473D01*
X148459788Y-62293087D01*
X148473173Y-62297436D01*
X148473180Y-62297437D01*
X148482607Y-62300500D01*
X165689893Y-62300500D01*
X165712710Y-62293086D01*
X165731929Y-62288472D01*
X165755626Y-62284719D01*
X165764464Y-62280216D01*
X165777002Y-62273828D01*
X165795263Y-62266264D01*
X165808647Y-62261915D01*
X165808650Y-62261913D01*
X165818081Y-62258849D01*
X165837491Y-62244747D01*
X165854337Y-62234423D01*
X165875720Y-62223528D01*
X168646028Y-59453220D01*
X168656923Y-59431837D01*
X168667247Y-59414991D01*
X168675520Y-59403604D01*
X168681349Y-59395581D01*
X168684413Y-59386150D01*
X168684415Y-59386147D01*
X168688764Y-59372763D01*
X168696328Y-59354502D01*
X168702716Y-59341964D01*
X168702716Y-59341963D01*
X168707219Y-59333126D01*
X168710972Y-59309429D01*
X168715586Y-59290210D01*
X168723000Y-59267393D01*
X168723000Y-58116512D01*
X168707219Y-58016874D01*
X168703796Y-58010156D01*
X168698000Y-57973565D01*
X168698000Y-57530252D01*
X168686367Y-57471769D01*
X168642052Y-57405448D01*
X168575731Y-57361133D01*
X168563562Y-57358712D01*
X168563561Y-57358712D01*
X168523316Y-57350707D01*
X168517248Y-57349500D01*
X168077752Y-57349500D01*
X168020629Y-57360862D01*
X168020624Y-57360863D01*
X168019269Y-57361133D01*
X168019245Y-57361012D01*
X167957629Y-57367636D01*
X167944846Y-57363883D01*
X167940731Y-57361133D01*
X167882248Y-57349500D01*
X167442752Y-57349500D01*
X167385629Y-57360862D01*
X167385624Y-57360863D01*
X167384269Y-57361133D01*
X167384245Y-57361012D01*
X167322629Y-57367636D01*
X167309846Y-57363883D01*
X167305731Y-57361133D01*
X167247248Y-57349500D01*
X166807752Y-57349500D01*
X166750629Y-57360862D01*
X166750624Y-57360863D01*
X166749269Y-57361133D01*
X166749245Y-57361012D01*
X166687629Y-57367636D01*
X166674846Y-57363883D01*
X166670731Y-57361133D01*
X166612248Y-57349500D01*
X166172752Y-57349500D01*
X166115629Y-57360862D01*
X166115624Y-57360863D01*
X166114269Y-57361133D01*
X166114245Y-57361012D01*
X166052629Y-57367636D01*
X166039846Y-57363883D01*
X166035731Y-57361133D01*
X165977248Y-57349500D01*
X165537752Y-57349500D01*
X165480629Y-57360862D01*
X165480624Y-57360863D01*
X165479269Y-57361133D01*
X165479245Y-57361012D01*
X165417629Y-57367636D01*
X165404846Y-57363883D01*
X165400731Y-57361133D01*
X165342248Y-57349500D01*
X164902752Y-57349500D01*
X164845629Y-57360862D01*
X164845624Y-57360863D01*
X164844269Y-57361133D01*
X164844245Y-57361012D01*
X164782629Y-57367636D01*
X164769846Y-57363883D01*
X164765731Y-57361133D01*
X164707248Y-57349500D01*
X164267752Y-57349500D01*
X164261684Y-57350707D01*
X164221439Y-57358712D01*
X164221438Y-57358712D01*
X164209269Y-57361133D01*
X164142948Y-57405448D01*
X164098633Y-57471769D01*
X164087000Y-57530252D01*
X164087000Y-58623500D01*
X164066998Y-58691621D01*
X164013342Y-58738114D01*
X163961000Y-58749500D01*
X158706500Y-58749500D01*
X158638379Y-58729498D01*
X158591886Y-58675842D01*
X158580500Y-58623500D01*
X158580500Y-57250252D01*
X158568867Y-57191769D01*
X158524552Y-57125448D01*
X158458231Y-57081133D01*
X158446062Y-57078712D01*
X158446061Y-57078712D01*
X158405816Y-57070707D01*
X158399748Y-57069500D01*
X157740252Y-57069500D01*
X157734184Y-57070707D01*
X157693939Y-57078712D01*
X157693938Y-57078712D01*
X157681769Y-57081133D01*
X157615448Y-57125448D01*
X157608814Y-57135377D01*
X157546783Y-57169249D01*
X157475968Y-57164184D01*
X157431218Y-57135424D01*
X157424552Y-57125448D01*
X157358231Y-57081133D01*
X157346062Y-57078712D01*
X157346061Y-57078712D01*
X157305816Y-57070707D01*
X157299748Y-57069500D01*
X156640252Y-57069500D01*
X156634184Y-57070707D01*
X156593939Y-57078712D01*
X156593938Y-57078712D01*
X156581769Y-57081133D01*
X156515448Y-57125448D01*
X156508814Y-57135377D01*
X156446783Y-57169249D01*
X156375968Y-57164184D01*
X156331218Y-57135424D01*
X156324552Y-57125448D01*
X156258231Y-57081133D01*
X156246062Y-57078712D01*
X156246061Y-57078712D01*
X156205816Y-57070707D01*
X156199748Y-57069500D01*
X155540252Y-57069500D01*
X155534184Y-57070707D01*
X155493939Y-57078712D01*
X155493938Y-57078712D01*
X155481769Y-57081133D01*
X155415448Y-57125448D01*
X155371133Y-57191769D01*
X155359500Y-57250252D01*
X155359500Y-58689748D01*
X155371133Y-58748231D01*
X155415448Y-58814552D01*
X155481769Y-58858867D01*
X155493938Y-58861288D01*
X155493939Y-58861288D01*
X155534184Y-58869293D01*
X155540252Y-58870500D01*
X155867984Y-58870500D01*
X155936105Y-58890502D01*
X155957079Y-58907405D01*
X156484079Y-59434405D01*
X156518105Y-59496717D01*
X156513040Y-59567532D01*
X156470493Y-59624368D01*
X156403973Y-59649179D01*
X156394984Y-59649500D01*
X155472016Y-59649500D01*
X155403895Y-59629498D01*
X155382921Y-59612595D01*
X154217405Y-58447079D01*
X154183379Y-58384767D01*
X154180500Y-58357984D01*
X154180500Y-57250252D01*
X154168867Y-57191769D01*
X154124552Y-57125448D01*
X154058231Y-57081133D01*
X154046062Y-57078712D01*
X154046061Y-57078712D01*
X154005816Y-57070707D01*
X153999748Y-57069500D01*
X153340252Y-57069500D01*
X153334184Y-57070707D01*
X153293939Y-57078712D01*
X153293938Y-57078712D01*
X153281769Y-57081133D01*
X153215448Y-57125448D01*
X153208814Y-57135377D01*
X153146783Y-57169249D01*
X153075968Y-57164184D01*
X153031218Y-57135424D01*
X153024552Y-57125448D01*
X152958231Y-57081133D01*
X152939108Y-57077329D01*
X152874593Y-57042845D01*
X152328220Y-56496472D01*
X152306837Y-56485577D01*
X152289991Y-56475253D01*
X152278604Y-56466980D01*
X152270581Y-56461151D01*
X152261150Y-56458087D01*
X152261147Y-56458085D01*
X152247763Y-56453736D01*
X152229502Y-56446172D01*
X152216964Y-56439784D01*
X152216963Y-56439784D01*
X152215907Y-56439246D01*
X161049500Y-56439246D01*
X161065049Y-56537420D01*
X161125342Y-56655751D01*
X161219249Y-56749658D01*
X161337580Y-56809951D01*
X161435754Y-56825500D01*
X162014246Y-56825500D01*
X162112420Y-56809951D01*
X162230751Y-56749658D01*
X162324658Y-56655751D01*
X162384951Y-56537420D01*
X162400500Y-56439246D01*
X162400500Y-55935754D01*
X162384951Y-55837580D01*
X162324658Y-55719249D01*
X162230751Y-55625342D01*
X162138617Y-55578397D01*
X162087002Y-55529648D01*
X162069936Y-55460733D01*
X162092837Y-55393532D01*
X162138617Y-55353863D01*
X162229509Y-55307551D01*
X162229511Y-55307550D01*
X162238342Y-55303050D01*
X162328050Y-55213342D01*
X162385646Y-55100304D01*
X162400500Y-55006519D01*
X162400499Y-54543482D01*
X162399724Y-54538588D01*
X162387198Y-54459494D01*
X162387197Y-54459492D01*
X162385646Y-54449696D01*
X162328050Y-54336658D01*
X162238342Y-54246950D01*
X162125304Y-54189354D01*
X162115515Y-54187804D01*
X162115513Y-54187803D01*
X162088151Y-54183470D01*
X162031519Y-54174500D01*
X161725062Y-54174500D01*
X161418482Y-54174501D01*
X161413589Y-54175276D01*
X161413588Y-54175276D01*
X161334494Y-54187802D01*
X161334492Y-54187803D01*
X161324696Y-54189354D01*
X161211658Y-54246950D01*
X161121950Y-54336658D01*
X161064354Y-54449696D01*
X161062804Y-54459485D01*
X161062803Y-54459487D01*
X161059347Y-54481307D01*
X161049500Y-54543481D01*
X161049501Y-55006518D01*
X161064354Y-55100304D01*
X161121950Y-55213342D01*
X161211658Y-55303050D01*
X161220489Y-55307550D01*
X161220491Y-55307551D01*
X161311383Y-55353863D01*
X161362998Y-55402612D01*
X161380064Y-55471527D01*
X161357163Y-55538728D01*
X161311383Y-55578397D01*
X161219249Y-55625342D01*
X161125342Y-55719249D01*
X161065049Y-55837580D01*
X161049500Y-55935754D01*
X161049500Y-56439246D01*
X152215907Y-56439246D01*
X152208126Y-56435281D01*
X152184429Y-56431528D01*
X152165210Y-56426914D01*
X152142393Y-56419500D01*
X148467607Y-56419500D01*
X148458180Y-56422563D01*
X148458173Y-56422564D01*
X148444788Y-56426913D01*
X148425569Y-56431527D01*
X148411672Y-56433728D01*
X148411665Y-56433730D01*
X148401874Y-56435281D01*
X148380499Y-56446172D01*
X148362237Y-56453736D01*
X148339419Y-56461150D01*
X148331397Y-56466979D01*
X148331396Y-56466979D01*
X148320011Y-56475251D01*
X148303156Y-56485581D01*
X148281780Y-56496472D01*
X147551472Y-57226780D01*
X147540577Y-57248163D01*
X147530253Y-57265009D01*
X147516151Y-57284419D01*
X147513087Y-57293850D01*
X147513085Y-57293853D01*
X147508736Y-57307237D01*
X147501172Y-57325498D01*
X147490281Y-57346874D01*
X147488042Y-57361012D01*
X147486528Y-57370570D01*
X147481914Y-57389790D01*
X147474500Y-57412607D01*
X147474500Y-59000887D01*
X147454498Y-59069008D01*
X147425745Y-59099452D01*
X147421780Y-59101472D01*
X147326472Y-59196780D01*
X147265281Y-59316874D01*
X147263731Y-59326663D01*
X147263730Y-59326665D01*
X147263092Y-59330695D01*
X147249500Y-59416512D01*
X147249500Y-59983488D01*
X147265281Y-60083126D01*
X147326472Y-60203220D01*
X147421780Y-60298528D01*
X147424782Y-60300058D01*
X147465914Y-60353398D01*
X147474500Y-60399113D01*
X147474500Y-60525887D01*
X147454498Y-60594008D01*
X147425745Y-60624452D01*
X147421780Y-60626472D01*
X147326472Y-60721780D01*
X147265281Y-60841874D01*
X147249500Y-60941512D01*
X147249500Y-61508488D01*
X133550500Y-61508488D01*
X133550500Y-54470000D01*
X148700000Y-54470000D01*
X158900000Y-54470000D01*
X158900000Y-51600000D01*
X160394318Y-51600000D01*
X160414956Y-51756762D01*
X160475464Y-51902841D01*
X160571718Y-52028282D01*
X160578264Y-52033305D01*
X160625204Y-52069323D01*
X160667071Y-52126661D01*
X160674500Y-52169286D01*
X160674500Y-52380290D01*
X160674020Y-52391272D01*
X160670736Y-52428807D01*
X160673590Y-52439456D01*
X160680491Y-52465210D01*
X160682870Y-52475942D01*
X160689412Y-52513045D01*
X160694923Y-52522590D01*
X160696115Y-52525866D01*
X160697592Y-52529034D01*
X160700446Y-52539684D01*
X160706770Y-52548715D01*
X160722055Y-52570544D01*
X160727961Y-52579815D01*
X160735256Y-52592450D01*
X160746806Y-52612455D01*
X160755251Y-52619541D01*
X160775682Y-52636685D01*
X160783785Y-52644111D01*
X161012595Y-52872921D01*
X161046621Y-52935233D01*
X161049500Y-52962016D01*
X161049501Y-53356518D01*
X161064354Y-53450304D01*
X161121950Y-53563342D01*
X161211658Y-53653050D01*
X161324696Y-53710646D01*
X161334485Y-53712196D01*
X161334487Y-53712197D01*
X161361849Y-53716530D01*
X161418481Y-53725500D01*
X161724938Y-53725500D01*
X162031518Y-53725499D01*
X162036412Y-53724724D01*
X162115506Y-53712198D01*
X162115508Y-53712197D01*
X162125304Y-53710646D01*
X162238342Y-53653050D01*
X162328050Y-53563342D01*
X162385646Y-53450304D01*
X162400500Y-53356519D01*
X162400499Y-52893482D01*
X162385646Y-52799696D01*
X162328050Y-52686658D01*
X162238342Y-52596950D01*
X162125304Y-52539354D01*
X162115515Y-52537804D01*
X162115513Y-52537803D01*
X162088151Y-52533470D01*
X162031519Y-52524500D01*
X161992801Y-52524500D01*
X161637017Y-52524501D01*
X161568897Y-52504499D01*
X161547922Y-52487596D01*
X161362405Y-52302079D01*
X161328379Y-52239767D01*
X161325500Y-52212984D01*
X161325500Y-52169286D01*
X161345502Y-52101165D01*
X161374796Y-52069323D01*
X161421736Y-52033305D01*
X161428282Y-52028282D01*
X161524536Y-51902841D01*
X161585044Y-51756762D01*
X161605682Y-51600000D01*
X161595546Y-51523010D01*
X161586122Y-51451424D01*
X161586121Y-51451422D01*
X161585044Y-51443238D01*
X161582357Y-51436750D01*
X161584032Y-51366345D01*
X161623825Y-51307549D01*
X161689090Y-51279601D01*
X161759103Y-51291374D01*
X161793144Y-51315615D01*
X163415095Y-52937566D01*
X163449121Y-52999878D01*
X163452000Y-53026661D01*
X163452000Y-53569748D01*
X163463633Y-53628231D01*
X163507948Y-53694552D01*
X163574269Y-53738867D01*
X163586438Y-53741288D01*
X163586439Y-53741288D01*
X163626684Y-53749293D01*
X163632752Y-53750500D01*
X164072248Y-53750500D01*
X164129371Y-53739138D01*
X164129376Y-53739137D01*
X164130731Y-53738867D01*
X164130755Y-53738988D01*
X164192371Y-53732364D01*
X164205154Y-53736117D01*
X164209269Y-53738867D01*
X164267752Y-53750500D01*
X164707248Y-53750500D01*
X164713316Y-53749293D01*
X164753561Y-53741288D01*
X164753562Y-53741288D01*
X164765731Y-53738867D01*
X164832052Y-53694552D01*
X164876367Y-53628231D01*
X164888000Y-53569748D01*
X164888000Y-52330252D01*
X164876367Y-52271769D01*
X164854984Y-52239767D01*
X164838946Y-52215765D01*
X164838945Y-52215764D01*
X164832052Y-52205448D01*
X164821733Y-52198553D01*
X164821729Y-52198549D01*
X164787906Y-52137152D01*
X164786162Y-52129415D01*
X164785726Y-52117791D01*
X164781134Y-52107104D01*
X164780095Y-52102492D01*
X164776543Y-52090800D01*
X164774839Y-52086383D01*
X164772709Y-52074947D01*
X164759772Y-52053959D01*
X164751269Y-52037589D01*
X164745049Y-52023112D01*
X164745047Y-52023108D01*
X164741536Y-52014937D01*
X164737522Y-52010051D01*
X164735337Y-52007866D01*
X164733285Y-52005603D01*
X164733445Y-52005458D01*
X164726325Y-51996451D01*
X164720073Y-51989556D01*
X164713968Y-51979652D01*
X164692180Y-51963084D01*
X164679361Y-51951890D01*
X164592926Y-51865455D01*
X164591170Y-51863421D01*
X164588832Y-51858638D01*
X164552930Y-51825334D01*
X164549525Y-51822054D01*
X164536130Y-51808659D01*
X164532160Y-51805935D01*
X164529512Y-51803610D01*
X164515288Y-51790415D01*
X164515285Y-51790413D01*
X164506761Y-51782506D01*
X164495957Y-51778196D01*
X164491968Y-51775674D01*
X164481180Y-51769913D01*
X164476855Y-51767996D01*
X164467261Y-51761415D01*
X164455942Y-51758729D01*
X164455940Y-51758728D01*
X164443280Y-51755724D01*
X164425683Y-51750159D01*
X164411045Y-51744319D01*
X164411042Y-51744318D01*
X164402785Y-51741024D01*
X164396492Y-51740407D01*
X164393413Y-51740407D01*
X164390340Y-51740257D01*
X164390351Y-51740041D01*
X164378976Y-51738709D01*
X164369661Y-51738253D01*
X164358341Y-51735567D01*
X164346812Y-51737136D01*
X164346811Y-51737136D01*
X164331234Y-51739256D01*
X164314243Y-51740407D01*
X163685754Y-51740407D01*
X163617633Y-51720405D01*
X163596659Y-51703502D01*
X162662405Y-50769248D01*
X162628379Y-50706936D01*
X162625500Y-50680153D01*
X162625500Y-47471500D01*
X162645502Y-47403379D01*
X162699158Y-47356886D01*
X162751500Y-47345500D01*
X162994748Y-47345500D01*
X163024500Y-47339582D01*
X163041061Y-47336288D01*
X163041062Y-47336288D01*
X163053231Y-47333867D01*
X163119552Y-47289552D01*
X163126443Y-47279239D01*
X163126445Y-47279237D01*
X163138298Y-47261498D01*
X163192775Y-47215970D01*
X163243063Y-47205500D01*
X163299177Y-47205500D01*
X163367298Y-47225502D01*
X163415585Y-47283281D01*
X163475464Y-47427841D01*
X163571718Y-47553282D01*
X163697159Y-47649536D01*
X163843238Y-47710044D01*
X164000000Y-47730682D01*
X164008188Y-47729604D01*
X164148574Y-47711122D01*
X164156762Y-47710044D01*
X164302841Y-47649536D01*
X164428282Y-47553282D01*
X164524536Y-47427841D01*
X164585044Y-47281762D01*
X164605682Y-47125000D01*
X164588332Y-46993215D01*
X164599271Y-46923068D01*
X164646399Y-46869969D01*
X164714753Y-46850779D01*
X164782631Y-46871590D01*
X164802349Y-46887675D01*
X164987595Y-47072921D01*
X165021621Y-47135233D01*
X165024500Y-47162016D01*
X165024500Y-48171444D01*
X165004498Y-48239565D01*
X164955703Y-48283711D01*
X164871780Y-48326472D01*
X164776472Y-48421780D01*
X164715281Y-48541874D01*
X164699500Y-48641512D01*
X164699500Y-49208488D01*
X164715281Y-49308126D01*
X164776472Y-49428220D01*
X164871780Y-49523528D01*
X164902063Y-49538958D01*
X164948724Y-49562733D01*
X165000339Y-49611481D01*
X165017405Y-49680396D01*
X164994504Y-49747598D01*
X164948724Y-49787267D01*
X164871780Y-49826472D01*
X164776472Y-49921780D01*
X164715281Y-50041874D01*
X164699500Y-50141512D01*
X164699500Y-50708488D01*
X164715281Y-50808126D01*
X164776472Y-50928220D01*
X164871780Y-51023528D01*
X164880613Y-51028028D01*
X164880612Y-51028028D01*
X164955703Y-51066289D01*
X165007318Y-51115037D01*
X165024500Y-51178556D01*
X165024500Y-51855290D01*
X165024020Y-51866272D01*
X165022201Y-51887067D01*
X165020736Y-51903807D01*
X165028799Y-51933896D01*
X165030491Y-51940210D01*
X165032870Y-51950942D01*
X165033037Y-51951890D01*
X165039412Y-51988045D01*
X165044923Y-51997590D01*
X165046115Y-52000866D01*
X165047592Y-52004034D01*
X165050446Y-52014684D01*
X165072055Y-52045544D01*
X165077961Y-52054815D01*
X165086790Y-52070107D01*
X165096806Y-52087455D01*
X165105251Y-52094541D01*
X165125682Y-52111685D01*
X165133785Y-52119111D01*
X165320095Y-52305421D01*
X165354121Y-52367733D01*
X165357000Y-52394516D01*
X165357000Y-53569748D01*
X165368633Y-53628231D01*
X165375525Y-53638546D01*
X165375527Y-53638550D01*
X165403265Y-53680062D01*
X165424500Y-53750064D01*
X165424500Y-54530595D01*
X165424020Y-54541577D01*
X165423035Y-54552841D01*
X165420736Y-54579112D01*
X165430491Y-54615515D01*
X165432870Y-54626247D01*
X165433443Y-54629498D01*
X165439412Y-54663350D01*
X165444923Y-54672895D01*
X165446115Y-54676171D01*
X165447592Y-54679339D01*
X165450446Y-54689989D01*
X165456770Y-54699020D01*
X165472055Y-54720849D01*
X165477961Y-54730120D01*
X165491293Y-54753211D01*
X165496806Y-54762760D01*
X165505251Y-54769846D01*
X165525675Y-54786984D01*
X165533780Y-54794411D01*
X165930596Y-55191228D01*
X165938022Y-55199331D01*
X165962240Y-55228194D01*
X165994879Y-55247038D01*
X166004147Y-55252942D01*
X166035011Y-55274553D01*
X166045657Y-55277406D01*
X166048825Y-55278883D01*
X166052102Y-55280076D01*
X166061650Y-55285588D01*
X166091203Y-55290799D01*
X166098764Y-55292132D01*
X166109498Y-55294512D01*
X166145888Y-55304263D01*
X166156864Y-55303303D01*
X166156867Y-55303303D01*
X166183426Y-55300979D01*
X166194407Y-55300500D01*
X167755290Y-55300500D01*
X167766272Y-55300980D01*
X167792820Y-55303303D01*
X167792822Y-55303303D01*
X167803807Y-55304264D01*
X167840215Y-55294508D01*
X167850942Y-55292130D01*
X167854301Y-55291538D01*
X167888045Y-55285588D01*
X167897590Y-55280077D01*
X167900866Y-55278885D01*
X167904034Y-55277408D01*
X167914684Y-55274554D01*
X167945547Y-55252943D01*
X167954815Y-55247039D01*
X167977906Y-55233707D01*
X167987455Y-55228194D01*
X168011685Y-55199317D01*
X168019111Y-55191215D01*
X168513715Y-54696611D01*
X168521819Y-54689184D01*
X168542249Y-54672041D01*
X168550694Y-54664955D01*
X168561279Y-54646621D01*
X168569539Y-54632315D01*
X168575445Y-54623044D01*
X168590730Y-54601215D01*
X168597054Y-54592184D01*
X168599908Y-54581534D01*
X168601385Y-54578366D01*
X168602577Y-54575090D01*
X168608088Y-54565545D01*
X168614630Y-54528442D01*
X168617009Y-54517710D01*
X168626764Y-54481307D01*
X168625524Y-54467124D01*
X168623479Y-54443757D01*
X168623000Y-54432776D01*
X168623000Y-53761288D01*
X168644235Y-53691285D01*
X168679474Y-53638547D01*
X168686367Y-53628231D01*
X168698000Y-53569748D01*
X168698000Y-52330252D01*
X168686367Y-52271769D01*
X168642052Y-52205448D01*
X168575731Y-52161133D01*
X168563562Y-52158712D01*
X168563561Y-52158712D01*
X168523316Y-52150707D01*
X168517248Y-52149500D01*
X168205341Y-52149500D01*
X168137220Y-52129498D01*
X168090727Y-52075842D01*
X168085510Y-52062441D01*
X168080590Y-52047301D01*
X168075972Y-52028070D01*
X168073770Y-52014168D01*
X168072219Y-52004374D01*
X168061328Y-51982998D01*
X168053764Y-51964737D01*
X168049415Y-51951353D01*
X168049413Y-51951350D01*
X168046349Y-51941919D01*
X168032247Y-51922509D01*
X168021923Y-51905663D01*
X168011028Y-51884280D01*
X167315843Y-51189095D01*
X167281817Y-51126783D01*
X167286882Y-51055968D01*
X167315843Y-51010905D01*
X167398528Y-50928220D01*
X167459719Y-50808126D01*
X167475500Y-50708488D01*
X167475500Y-50141512D01*
X167459719Y-50041874D01*
X167398528Y-49921780D01*
X167303220Y-49826472D01*
X167300218Y-49824942D01*
X167259086Y-49771602D01*
X167250500Y-49725887D01*
X167250500Y-49624113D01*
X167270502Y-49555992D01*
X167299255Y-49525548D01*
X167303220Y-49523528D01*
X167398528Y-49428220D01*
X167459719Y-49308126D01*
X167475500Y-49208488D01*
X167475500Y-48641512D01*
X167459719Y-48541874D01*
X167398528Y-48421780D01*
X167303220Y-48326472D01*
X167300218Y-48324942D01*
X167259086Y-48271602D01*
X167250500Y-48225887D01*
X167250500Y-46003439D01*
X167270502Y-45935318D01*
X167287404Y-45914344D01*
X167714342Y-45487405D01*
X167776655Y-45453380D01*
X167803438Y-45450500D01*
X169968500Y-45450500D01*
X170036621Y-45470502D01*
X170083114Y-45524158D01*
X170094500Y-45576500D01*
X170094500Y-69824000D01*
X170099196Y-69867681D01*
X170110582Y-69920023D01*
X170113070Y-69930203D01*
X170156079Y-70010916D01*
X170160711Y-70016262D01*
X170160712Y-70016263D01*
X170172472Y-70029835D01*
X170202572Y-70064572D01*
X170220165Y-70082527D01*
X170299983Y-70127174D01*
X170320588Y-70133224D01*
X170363781Y-70145907D01*
X170363785Y-70145908D01*
X170368104Y-70147176D01*
X170372552Y-70147816D01*
X170372559Y-70147817D01*
X170421552Y-70154861D01*
X170421559Y-70154862D01*
X170426000Y-70155500D01*
X172874000Y-70155500D01*
X172877346Y-70155140D01*
X172877351Y-70155140D01*
X172914317Y-70151166D01*
X172914323Y-70151165D01*
X172917681Y-70150804D01*
X172970023Y-70139418D01*
X172970717Y-70139248D01*
X172970736Y-70139244D01*
X172971870Y-70138967D01*
X172980203Y-70136930D01*
X173060916Y-70093921D01*
X173074066Y-70082527D01*
X173113111Y-70048694D01*
X173113112Y-70048693D01*
X173114572Y-70047428D01*
X173132527Y-70029835D01*
X173135791Y-70024000D01*
X173894500Y-70024000D01*
X173894860Y-70027346D01*
X173894860Y-70027351D01*
X173898705Y-70063111D01*
X173899196Y-70067681D01*
X173910582Y-70120023D01*
X173913070Y-70130203D01*
X173956079Y-70210916D01*
X173960711Y-70216262D01*
X173960712Y-70216263D01*
X173972472Y-70229835D01*
X174002572Y-70264572D01*
X174020165Y-70282527D01*
X174099983Y-70327174D01*
X174120588Y-70333224D01*
X174163781Y-70345907D01*
X174163785Y-70345908D01*
X174168104Y-70347176D01*
X174172552Y-70347816D01*
X174172559Y-70347817D01*
X174221552Y-70354861D01*
X174221559Y-70354862D01*
X174226000Y-70355500D01*
X176474000Y-70355500D01*
X176477346Y-70355140D01*
X176477351Y-70355140D01*
X176514317Y-70351166D01*
X176514323Y-70351165D01*
X176517681Y-70350804D01*
X176570023Y-70339418D01*
X176570717Y-70339248D01*
X176570736Y-70339244D01*
X176571870Y-70338967D01*
X176580203Y-70336930D01*
X176660916Y-70293921D01*
X176674066Y-70282527D01*
X176713111Y-70248694D01*
X176713112Y-70248693D01*
X176714572Y-70247428D01*
X176732527Y-70229835D01*
X176777174Y-70150017D01*
X176788370Y-70111886D01*
X176795907Y-70086219D01*
X176795908Y-70086215D01*
X176797176Y-70081896D01*
X176797817Y-70077441D01*
X176804861Y-70028448D01*
X176804862Y-70028441D01*
X176805500Y-70024000D01*
X176805500Y-69919748D01*
X185349500Y-69919748D01*
X185361133Y-69978231D01*
X185405448Y-70044552D01*
X185471769Y-70088867D01*
X185483938Y-70091288D01*
X185483939Y-70091288D01*
X185513908Y-70097249D01*
X185530252Y-70100500D01*
X186123500Y-70100500D01*
X186191621Y-70120502D01*
X186238114Y-70174158D01*
X186249500Y-70226500D01*
X186249500Y-82277586D01*
X186229498Y-82345707D01*
X186175842Y-82392200D01*
X186167111Y-82395797D01*
X186055957Y-82436804D01*
X185866341Y-82549614D01*
X185700457Y-82695090D01*
X185563863Y-82868360D01*
X185461131Y-83063620D01*
X185395703Y-83274333D01*
X185369770Y-83493440D01*
X185384200Y-83713604D01*
X185385621Y-83719200D01*
X185385622Y-83719205D01*
X185414130Y-83831452D01*
X185438511Y-83927452D01*
X185440928Y-83932694D01*
X185440928Y-83932695D01*
X185479046Y-84015379D01*
X185530883Y-84127821D01*
X185658222Y-84308002D01*
X185816264Y-84461961D01*
X185821060Y-84465166D01*
X185821063Y-84465168D01*
X185905261Y-84521427D01*
X185999717Y-84584540D01*
X186005020Y-84586818D01*
X186005023Y-84586820D01*
X186197129Y-84669355D01*
X186202436Y-84671635D01*
X186282088Y-84689658D01*
X186411995Y-84719054D01*
X186412001Y-84719055D01*
X186417632Y-84720329D01*
X186423403Y-84720556D01*
X186423405Y-84720556D01*
X186489687Y-84723160D01*
X186638098Y-84728991D01*
X186747275Y-84713161D01*
X186850738Y-84698160D01*
X186850743Y-84698159D01*
X186856452Y-84697331D01*
X186861916Y-84695476D01*
X186861921Y-84695475D01*
X187059907Y-84628268D01*
X187059912Y-84628266D01*
X187065379Y-84626410D01*
X187091432Y-84611820D01*
X187219839Y-84539908D01*
X187257884Y-84518602D01*
X187427518Y-84377518D01*
X187489256Y-84303287D01*
X187564908Y-84212326D01*
X187564910Y-84212323D01*
X187568602Y-84207884D01*
X187676410Y-84015379D01*
X187678266Y-84009912D01*
X187678268Y-84009907D01*
X187745475Y-83811921D01*
X187745476Y-83811916D01*
X187747331Y-83806452D01*
X187748159Y-83800743D01*
X187748160Y-83800738D01*
X187778458Y-83591772D01*
X187778991Y-83588098D01*
X187780643Y-83525000D01*
X187760454Y-83305289D01*
X187700565Y-83092936D01*
X187602980Y-82895053D01*
X187489636Y-82743267D01*
X187474420Y-82722891D01*
X187474420Y-82722890D01*
X187470967Y-82718267D01*
X187373586Y-82628249D01*
X187313189Y-82572418D01*
X187313186Y-82572416D01*
X187308949Y-82568499D01*
X187122350Y-82450764D01*
X186979809Y-82393896D01*
X186923951Y-82350077D01*
X186900500Y-82276867D01*
X186900500Y-70226500D01*
X186920502Y-70158379D01*
X186974158Y-70111886D01*
X187026500Y-70100500D01*
X187569748Y-70100500D01*
X187586092Y-70097249D01*
X187616061Y-70091288D01*
X187616062Y-70091288D01*
X187628231Y-70088867D01*
X187694552Y-70044552D01*
X187738867Y-69978231D01*
X187750500Y-69919748D01*
X187750500Y-67880252D01*
X187738867Y-67821769D01*
X187694552Y-67755448D01*
X187628231Y-67711133D01*
X187616062Y-67708712D01*
X187616061Y-67708712D01*
X187575816Y-67700707D01*
X187569748Y-67699500D01*
X185530252Y-67699500D01*
X185524184Y-67700707D01*
X185483939Y-67708712D01*
X185483938Y-67708712D01*
X185471769Y-67711133D01*
X185405448Y-67755448D01*
X185361133Y-67821769D01*
X185349500Y-67880252D01*
X185349500Y-69919748D01*
X176805500Y-69919748D01*
X176805500Y-59426000D01*
X176805022Y-59421552D01*
X176801166Y-59385683D01*
X176801165Y-59385677D01*
X176800804Y-59382319D01*
X176789418Y-59329977D01*
X176786930Y-59319797D01*
X176743921Y-59239084D01*
X176714918Y-59205612D01*
X176698694Y-59186889D01*
X176698693Y-59186888D01*
X176697428Y-59185428D01*
X176679835Y-59167473D01*
X176600017Y-59122826D01*
X176558910Y-59110756D01*
X176536219Y-59104093D01*
X176536215Y-59104092D01*
X176531896Y-59102824D01*
X176527448Y-59102184D01*
X176527441Y-59102183D01*
X176478448Y-59095139D01*
X176478441Y-59095138D01*
X176474000Y-59094500D01*
X174226000Y-59094500D01*
X174222654Y-59094860D01*
X174222649Y-59094860D01*
X174185683Y-59098834D01*
X174185677Y-59098835D01*
X174182319Y-59099196D01*
X174129977Y-59110582D01*
X174129283Y-59110752D01*
X174129264Y-59110756D01*
X174128130Y-59111033D01*
X174119797Y-59113070D01*
X174039084Y-59156079D01*
X174033738Y-59160711D01*
X174033737Y-59160712D01*
X173992112Y-59196780D01*
X173985428Y-59202572D01*
X173967473Y-59220165D01*
X173922826Y-59299983D01*
X173917008Y-59319797D01*
X173904224Y-59363337D01*
X173902824Y-59368104D01*
X173902184Y-59372552D01*
X173902183Y-59372559D01*
X173895139Y-59421552D01*
X173895138Y-59421559D01*
X173894500Y-59426000D01*
X173894500Y-70024000D01*
X173135791Y-70024000D01*
X173177174Y-69950017D01*
X173197176Y-69881896D01*
X173197817Y-69877441D01*
X173204861Y-69828448D01*
X173204862Y-69828441D01*
X173205500Y-69824000D01*
X173205500Y-56965665D01*
X182995119Y-56965665D01*
X182995288Y-56968601D01*
X183008376Y-57195580D01*
X183009513Y-57200626D01*
X183009514Y-57200632D01*
X183030523Y-57293853D01*
X183059006Y-57420242D01*
X183060948Y-57425024D01*
X183060949Y-57425028D01*
X183143705Y-57628831D01*
X183145649Y-57633618D01*
X183265979Y-57829978D01*
X183416763Y-58004048D01*
X183593953Y-58151154D01*
X183792790Y-58267345D01*
X184007934Y-58349501D01*
X184013000Y-58350532D01*
X184013001Y-58350532D01*
X184049630Y-58357984D01*
X184233607Y-58395414D01*
X184363352Y-58400172D01*
X184458585Y-58403664D01*
X184458589Y-58403664D01*
X184463749Y-58403853D01*
X184468869Y-58403197D01*
X184468871Y-58403197D01*
X184538272Y-58394307D01*
X184692178Y-58374591D01*
X184697126Y-58373106D01*
X184697133Y-58373105D01*
X184907811Y-58309898D01*
X184907810Y-58309898D01*
X184912761Y-58308413D01*
X185119574Y-58207096D01*
X185307062Y-58073363D01*
X185470190Y-57910803D01*
X185528269Y-57829978D01*
X185601559Y-57727983D01*
X185604577Y-57723783D01*
X185626511Y-57679404D01*
X185704321Y-57521966D01*
X185706615Y-57517325D01*
X185730916Y-57437343D01*
X185772059Y-57301927D01*
X185772060Y-57301921D01*
X185773563Y-57296975D01*
X185794858Y-57135223D01*
X185803185Y-57071971D01*
X185803185Y-57071965D01*
X185803622Y-57068649D01*
X185805300Y-57000000D01*
X185786430Y-56770478D01*
X185730326Y-56547120D01*
X185674836Y-56419500D01*
X185640556Y-56340661D01*
X185640554Y-56340658D01*
X185638496Y-56335924D01*
X185561964Y-56217624D01*
X185516215Y-56146906D01*
X185516213Y-56146903D01*
X185513405Y-56142563D01*
X185492774Y-56119889D01*
X185361890Y-55976051D01*
X185361889Y-55976050D01*
X185358412Y-55972229D01*
X185354361Y-55969030D01*
X185354357Y-55969026D01*
X185181735Y-55832697D01*
X185181730Y-55832693D01*
X185177681Y-55829496D01*
X185173165Y-55827003D01*
X185173162Y-55827001D01*
X184980589Y-55720695D01*
X184980585Y-55720693D01*
X184976065Y-55718198D01*
X184971196Y-55716474D01*
X184971192Y-55716472D01*
X184763853Y-55643049D01*
X184763849Y-55643048D01*
X184758978Y-55641323D01*
X184753885Y-55640416D01*
X184753882Y-55640415D01*
X184643997Y-55620842D01*
X184532250Y-55600937D01*
X184445802Y-55599881D01*
X184307141Y-55598186D01*
X184307139Y-55598186D01*
X184301971Y-55598123D01*
X184074325Y-55632958D01*
X183855424Y-55704506D01*
X183651149Y-55810845D01*
X183466984Y-55949119D01*
X183307877Y-56115616D01*
X183178099Y-56305863D01*
X183175923Y-56310552D01*
X183175919Y-56310558D01*
X183086364Y-56503489D01*
X183081136Y-56514752D01*
X183019592Y-56736673D01*
X182995119Y-56965665D01*
X173205500Y-56965665D01*
X173205500Y-46304097D01*
X173225502Y-46235976D01*
X173279158Y-46189483D01*
X173349432Y-46179379D01*
X173388702Y-46191830D01*
X173474696Y-46235646D01*
X173484485Y-46237196D01*
X173484487Y-46237197D01*
X173511849Y-46241530D01*
X173568481Y-46250500D01*
X173607198Y-46250500D01*
X173962982Y-46250499D01*
X174031102Y-46270501D01*
X174052078Y-46287404D01*
X174255568Y-46490895D01*
X174455901Y-46691228D01*
X174463327Y-46699331D01*
X174487545Y-46728194D01*
X174497088Y-46733704D01*
X174497092Y-46733707D01*
X174520179Y-46747036D01*
X174529448Y-46752940D01*
X174560316Y-46774554D01*
X174570964Y-46777407D01*
X174574135Y-46778886D01*
X174577411Y-46780078D01*
X174586955Y-46785588D01*
X174624076Y-46792134D01*
X174634783Y-46794508D01*
X174671193Y-46804263D01*
X174682168Y-46803303D01*
X174682170Y-46803303D01*
X174708731Y-46800979D01*
X174719712Y-46800500D01*
X175237984Y-46800500D01*
X175306105Y-46820502D01*
X175327079Y-46837405D01*
X175662595Y-47172921D01*
X175696621Y-47235233D01*
X175699500Y-47262016D01*
X175699500Y-51055290D01*
X175699020Y-51066272D01*
X175696720Y-51092563D01*
X175695736Y-51103807D01*
X175701281Y-51124500D01*
X175705491Y-51140210D01*
X175707870Y-51150942D01*
X175714412Y-51188045D01*
X175719923Y-51197590D01*
X175721115Y-51200866D01*
X175722592Y-51204034D01*
X175725446Y-51214684D01*
X175744414Y-51241772D01*
X175747055Y-51245544D01*
X175752961Y-51254815D01*
X175758659Y-51264684D01*
X175771806Y-51287455D01*
X175780251Y-51294541D01*
X175800682Y-51311685D01*
X175808785Y-51319111D01*
X176155889Y-51666215D01*
X176163316Y-51674319D01*
X176187545Y-51703194D01*
X176197094Y-51708707D01*
X176220185Y-51722039D01*
X176229456Y-51727945D01*
X176260316Y-51749554D01*
X176270966Y-51752408D01*
X176274134Y-51753885D01*
X176277410Y-51755077D01*
X176286955Y-51760588D01*
X176320699Y-51766538D01*
X176324058Y-51767130D01*
X176334787Y-51769508D01*
X176351509Y-51773989D01*
X176412131Y-51810937D01*
X176443155Y-51874797D01*
X176432100Y-51951029D01*
X176384464Y-52048482D01*
X176383052Y-52058162D01*
X176375244Y-52111685D01*
X176374500Y-52116782D01*
X176374500Y-53208218D01*
X176384642Y-53277112D01*
X176388958Y-53285902D01*
X176426030Y-53361409D01*
X176436068Y-53381855D01*
X176443438Y-53389212D01*
X176504637Y-53450304D01*
X176518650Y-53464293D01*
X176623482Y-53515536D01*
X176653973Y-53519984D01*
X176687256Y-53524840D01*
X176687260Y-53524840D01*
X176691782Y-53525500D01*
X176841233Y-53525500D01*
X176909354Y-53545502D01*
X176930328Y-53562405D01*
X177234138Y-53866215D01*
X177241565Y-53874319D01*
X177265794Y-53903194D01*
X177275343Y-53908707D01*
X177298434Y-53922039D01*
X177307705Y-53927945D01*
X177338565Y-53949554D01*
X177349215Y-53952408D01*
X177352383Y-53953885D01*
X177355659Y-53955077D01*
X177365204Y-53960588D01*
X177398948Y-53966538D01*
X177402307Y-53967130D01*
X177413034Y-53969508D01*
X177449442Y-53979264D01*
X177460427Y-53978303D01*
X177460429Y-53978303D01*
X177486977Y-53975980D01*
X177497959Y-53975500D01*
X181255290Y-53975500D01*
X181266272Y-53975980D01*
X181292820Y-53978303D01*
X181292822Y-53978303D01*
X181303807Y-53979264D01*
X181340215Y-53969508D01*
X181350942Y-53967130D01*
X181354301Y-53966538D01*
X181388045Y-53960588D01*
X181397590Y-53955077D01*
X181400866Y-53953885D01*
X181404034Y-53952408D01*
X181414684Y-53949554D01*
X181445544Y-53927945D01*
X181454815Y-53922039D01*
X181477906Y-53908707D01*
X181487455Y-53903194D01*
X181511684Y-53874319D01*
X181519106Y-53866220D01*
X182316228Y-53069099D01*
X182324332Y-53061673D01*
X182344750Y-53044540D01*
X182353194Y-53037455D01*
X182358704Y-53027912D01*
X182358707Y-53027908D01*
X182372036Y-53004821D01*
X182377941Y-52995551D01*
X182393232Y-52973713D01*
X182399554Y-52964684D01*
X182402407Y-52954036D01*
X182403886Y-52950865D01*
X182405078Y-52947589D01*
X182410588Y-52938045D01*
X182417134Y-52900924D01*
X182419508Y-52890217D01*
X182429263Y-52853807D01*
X182425979Y-52816269D01*
X182425500Y-52805288D01*
X182425500Y-52422669D01*
X182429904Y-52407670D01*
X185732160Y-52407670D01*
X185737887Y-52415320D01*
X185909042Y-52520205D01*
X185917837Y-52524687D01*
X186127988Y-52611734D01*
X186137373Y-52614783D01*
X186358554Y-52667885D01*
X186368301Y-52669428D01*
X186595070Y-52687275D01*
X186604930Y-52687275D01*
X186831699Y-52669428D01*
X186841446Y-52667885D01*
X187062627Y-52614783D01*
X187072012Y-52611734D01*
X187282163Y-52524687D01*
X187290958Y-52520205D01*
X187458445Y-52417568D01*
X187467907Y-52407110D01*
X187464124Y-52398334D01*
X186612812Y-51547022D01*
X186598868Y-51539408D01*
X186597035Y-51539539D01*
X186590420Y-51543790D01*
X185738920Y-52395290D01*
X185732160Y-52407670D01*
X182429904Y-52407670D01*
X182445502Y-52354548D01*
X182499158Y-52308055D01*
X182510993Y-52303358D01*
X182590379Y-52276410D01*
X182610443Y-52265174D01*
X182698668Y-52215765D01*
X182782884Y-52168602D01*
X182791865Y-52161133D01*
X182948086Y-52031204D01*
X182952518Y-52027518D01*
X182996893Y-51974163D01*
X183089908Y-51862326D01*
X183089910Y-51862323D01*
X183093602Y-51857884D01*
X183196400Y-51674325D01*
X183198586Y-51670422D01*
X183198587Y-51670420D01*
X183201410Y-51665379D01*
X183203266Y-51659912D01*
X183203268Y-51659907D01*
X183270475Y-51461921D01*
X183270476Y-51461916D01*
X183272331Y-51456452D01*
X183273159Y-51450743D01*
X183273160Y-51450738D01*
X183292346Y-51318413D01*
X183303991Y-51238098D01*
X183305514Y-51179930D01*
X185087725Y-51179930D01*
X185105572Y-51406699D01*
X185107115Y-51416446D01*
X185160217Y-51637627D01*
X185163266Y-51647012D01*
X185250313Y-51857163D01*
X185254795Y-51865958D01*
X185357432Y-52033445D01*
X185367890Y-52042907D01*
X185376666Y-52039124D01*
X186227978Y-51187812D01*
X186235592Y-51173868D01*
X186235461Y-51172035D01*
X186231210Y-51165420D01*
X185379710Y-50313920D01*
X185367330Y-50307160D01*
X185359680Y-50312887D01*
X185254795Y-50484042D01*
X185250313Y-50492837D01*
X185163266Y-50702988D01*
X185160217Y-50712373D01*
X185107115Y-50933554D01*
X185105572Y-50943301D01*
X185087725Y-51170070D01*
X185087725Y-51179930D01*
X183305514Y-51179930D01*
X183305643Y-51175000D01*
X183285454Y-50955289D01*
X183279230Y-50933218D01*
X183241189Y-50798335D01*
X183225565Y-50742936D01*
X183127980Y-50545053D01*
X183007934Y-50384292D01*
X182999420Y-50372891D01*
X182999420Y-50372890D01*
X182995967Y-50368267D01*
X182833949Y-50218499D01*
X182647350Y-50100764D01*
X182442421Y-50019006D01*
X182436761Y-50017880D01*
X182436757Y-50017879D01*
X182231691Y-49977089D01*
X182231688Y-49977089D01*
X182226024Y-49975962D01*
X182220249Y-49975886D01*
X182220245Y-49975886D01*
X182109504Y-49974437D01*
X182005406Y-49973074D01*
X181999709Y-49974053D01*
X181999708Y-49974053D01*
X181793654Y-50009459D01*
X181793653Y-50009459D01*
X181787957Y-50010438D01*
X181580957Y-50086804D01*
X181575996Y-50089756D01*
X181575995Y-50089756D01*
X181572328Y-50091938D01*
X181391341Y-50199614D01*
X181225457Y-50345090D01*
X181088863Y-50518360D01*
X180986131Y-50713620D01*
X180920703Y-50924333D01*
X180894770Y-51143440D01*
X180909200Y-51363604D01*
X180910621Y-51369200D01*
X180910622Y-51369205D01*
X180934529Y-51463337D01*
X180963511Y-51577452D01*
X180965928Y-51582694D01*
X180965928Y-51582695D01*
X181037127Y-51737136D01*
X181055883Y-51777821D01*
X181183222Y-51958002D01*
X181341264Y-52111961D01*
X181346060Y-52115166D01*
X181346063Y-52115168D01*
X181454125Y-52187372D01*
X181524717Y-52234540D01*
X181530020Y-52236818D01*
X181530023Y-52236820D01*
X181698238Y-52309091D01*
X181752931Y-52354360D01*
X181774500Y-52424859D01*
X181774500Y-52637982D01*
X181754498Y-52706103D01*
X181737596Y-52727077D01*
X181177079Y-53287595D01*
X181114766Y-53321620D01*
X181087983Y-53324500D01*
X177665265Y-53324500D01*
X177597144Y-53304498D01*
X177576170Y-53287595D01*
X177412405Y-53123830D01*
X177378379Y-53061518D01*
X177375500Y-53034735D01*
X177375500Y-52116782D01*
X177374791Y-52111961D01*
X177366784Y-52057574D01*
X177366784Y-52057573D01*
X177365358Y-52047888D01*
X177360436Y-52037862D01*
X177320750Y-51957030D01*
X177308682Y-51887067D01*
X177336356Y-51821686D01*
X177394984Y-51781645D01*
X177433853Y-51775500D01*
X178430290Y-51775500D01*
X178441272Y-51775980D01*
X178467820Y-51778303D01*
X178467822Y-51778303D01*
X178478807Y-51779264D01*
X178515215Y-51769508D01*
X178525942Y-51767130D01*
X178529301Y-51766538D01*
X178563045Y-51760588D01*
X178572590Y-51755077D01*
X178575866Y-51753885D01*
X178579034Y-51752408D01*
X178589684Y-51749554D01*
X178620544Y-51727945D01*
X178629815Y-51722039D01*
X178652906Y-51708707D01*
X178662455Y-51703194D01*
X178686684Y-51674319D01*
X178694106Y-51666220D01*
X178991228Y-51369099D01*
X178999332Y-51361673D01*
X179019749Y-51344541D01*
X179028194Y-51337455D01*
X179047039Y-51304815D01*
X179052943Y-51295547D01*
X179068231Y-51273713D01*
X179074553Y-51264684D01*
X179077405Y-51254039D01*
X179079496Y-51249556D01*
X179080439Y-51247745D01*
X179081227Y-51245842D01*
X179081819Y-51244573D01*
X179082131Y-51244033D01*
X179082324Y-51244123D01*
X179084559Y-51239828D01*
X179085577Y-51238064D01*
X179087971Y-51239446D01*
X179123194Y-51193184D01*
X179131855Y-51188932D01*
X179182993Y-51137705D01*
X179206935Y-51113721D01*
X179206935Y-51113720D01*
X179214293Y-51106350D01*
X179224867Y-51084719D01*
X179241647Y-51050390D01*
X179265536Y-51001518D01*
X179272781Y-50951855D01*
X179274840Y-50937744D01*
X179274840Y-50937740D01*
X179275500Y-50933218D01*
X179275500Y-49942890D01*
X185732093Y-49942890D01*
X185735876Y-49951666D01*
X186587188Y-50802978D01*
X186601132Y-50810592D01*
X186602965Y-50810461D01*
X186609580Y-50806210D01*
X187461080Y-49954710D01*
X187467840Y-49942330D01*
X187462113Y-49934680D01*
X187290958Y-49829795D01*
X187282163Y-49825313D01*
X187072012Y-49738266D01*
X187062627Y-49735217D01*
X186841446Y-49682115D01*
X186831699Y-49680572D01*
X186604930Y-49662725D01*
X186595070Y-49662725D01*
X186368301Y-49680572D01*
X186358554Y-49682115D01*
X186137373Y-49735217D01*
X186127988Y-49738266D01*
X185917837Y-49825313D01*
X185909042Y-49829795D01*
X185741555Y-49932432D01*
X185732093Y-49942890D01*
X179275500Y-49942890D01*
X179275500Y-49841782D01*
X179274279Y-49833483D01*
X179266784Y-49782574D01*
X179266784Y-49782573D01*
X179265358Y-49772888D01*
X179225500Y-49691706D01*
X179218522Y-49677493D01*
X179218521Y-49677491D01*
X179213932Y-49668145D01*
X179131350Y-49585707D01*
X179116398Y-49578398D01*
X179084350Y-49562733D01*
X179026518Y-49534464D01*
X178996027Y-49530016D01*
X178962744Y-49525160D01*
X178962740Y-49525160D01*
X178958218Y-49524500D01*
X178591782Y-49524500D01*
X178587232Y-49525170D01*
X178587229Y-49525170D01*
X178532574Y-49533216D01*
X178532573Y-49533216D01*
X178522888Y-49534642D01*
X178490813Y-49550390D01*
X178427493Y-49581478D01*
X178427491Y-49581479D01*
X178418145Y-49586068D01*
X178392777Y-49611481D01*
X178389153Y-49615111D01*
X178326870Y-49649191D01*
X178256050Y-49644188D01*
X178210962Y-49615267D01*
X178181350Y-49585707D01*
X178166398Y-49578398D01*
X178134350Y-49562733D01*
X178076518Y-49534464D01*
X178046027Y-49530016D01*
X178012744Y-49525160D01*
X178012740Y-49525160D01*
X178008218Y-49524500D01*
X177641782Y-49524500D01*
X177637232Y-49525170D01*
X177637229Y-49525170D01*
X177582574Y-49533216D01*
X177582573Y-49533216D01*
X177572888Y-49534642D01*
X177540813Y-49550390D01*
X177507031Y-49566976D01*
X177437067Y-49579044D01*
X177371686Y-49551370D01*
X177331645Y-49492742D01*
X177325500Y-49453873D01*
X177325500Y-49328438D01*
X177345502Y-49260317D01*
X177362405Y-49239343D01*
X177448528Y-49153220D01*
X177509719Y-49033126D01*
X177525500Y-48933488D01*
X177525500Y-48366512D01*
X177509719Y-48266874D01*
X177448528Y-48146780D01*
X177362405Y-48060657D01*
X177328379Y-47998345D01*
X177325500Y-47971562D01*
X177325500Y-47828438D01*
X177345502Y-47760317D01*
X177362405Y-47739343D01*
X177448528Y-47653220D01*
X177509719Y-47533126D01*
X177525500Y-47433488D01*
X177525500Y-46866512D01*
X177514203Y-46795185D01*
X177511270Y-46776665D01*
X177511269Y-46776663D01*
X177509719Y-46766874D01*
X177448528Y-46646780D01*
X177362405Y-46560657D01*
X177328379Y-46498345D01*
X177325500Y-46471562D01*
X177325500Y-46359219D01*
X177326373Y-46344410D01*
X177329257Y-46320041D01*
X177330364Y-46310689D01*
X177328672Y-46301426D01*
X177328672Y-46301419D01*
X177319825Y-46252982D01*
X177319174Y-46249075D01*
X177311850Y-46200356D01*
X177311850Y-46200355D01*
X177310449Y-46191038D01*
X177307321Y-46184525D01*
X177306025Y-46177427D01*
X177278972Y-46125347D01*
X177277223Y-46121845D01*
X177255887Y-46077413D01*
X177255886Y-46077412D01*
X177251809Y-46068921D01*
X177246923Y-46063636D01*
X177246892Y-46063589D01*
X177243579Y-46057211D01*
X177239275Y-46052172D01*
X177202048Y-46014945D01*
X177198618Y-46011379D01*
X177166246Y-45976359D01*
X177159854Y-45969444D01*
X177153495Y-45965751D01*
X177147337Y-45960234D01*
X177094773Y-45907670D01*
X185732160Y-45907670D01*
X185737887Y-45915320D01*
X185909042Y-46020205D01*
X185917837Y-46024687D01*
X186127988Y-46111734D01*
X186137373Y-46114783D01*
X186358554Y-46167885D01*
X186368301Y-46169428D01*
X186595070Y-46187275D01*
X186604930Y-46187275D01*
X186831699Y-46169428D01*
X186841446Y-46167885D01*
X187062627Y-46114783D01*
X187072012Y-46111734D01*
X187282163Y-46024687D01*
X187290958Y-46020205D01*
X187458445Y-45917568D01*
X187467907Y-45907110D01*
X187464124Y-45898334D01*
X186612812Y-45047022D01*
X186598868Y-45039408D01*
X186597035Y-45039539D01*
X186590420Y-45043790D01*
X185738920Y-45895290D01*
X185732160Y-45907670D01*
X177094773Y-45907670D01*
X176467753Y-45280650D01*
X176457899Y-45269561D01*
X176442707Y-45250291D01*
X176442705Y-45250289D01*
X176436872Y-45242890D01*
X176429125Y-45237535D01*
X176429123Y-45237534D01*
X176388625Y-45209545D01*
X176385403Y-45207243D01*
X176345758Y-45177960D01*
X176345757Y-45177959D01*
X176338184Y-45172366D01*
X176331368Y-45169973D01*
X176325431Y-45165869D01*
X176316451Y-45163029D01*
X176316449Y-45163028D01*
X176290479Y-45154815D01*
X176269481Y-45148174D01*
X176265750Y-45146929D01*
X176219263Y-45130604D01*
X176219261Y-45130604D01*
X176210369Y-45127481D01*
X176203181Y-45127199D01*
X176203122Y-45127188D01*
X176196270Y-45125020D01*
X176189663Y-45124500D01*
X176136984Y-45124500D01*
X176132039Y-45124403D01*
X176124093Y-45124091D01*
X176079544Y-45122340D01*
X176012261Y-45099678D01*
X175982559Y-45070502D01*
X175982550Y-45070490D01*
X175978050Y-45061658D01*
X175937405Y-45021013D01*
X175903379Y-44958701D01*
X175900500Y-44931918D01*
X175900500Y-44781500D01*
X175920502Y-44713379D01*
X175974158Y-44666886D01*
X176026500Y-44655500D01*
X176172810Y-44655500D01*
X176184367Y-44654881D01*
X176193080Y-44654414D01*
X176193090Y-44654413D01*
X176194773Y-44654323D01*
X176221556Y-44651444D01*
X176247119Y-44643440D01*
X180894770Y-44643440D01*
X180909200Y-44863604D01*
X180910621Y-44869200D01*
X180910622Y-44869205D01*
X180953849Y-45039408D01*
X180963511Y-45077452D01*
X180965928Y-45082694D01*
X180965928Y-45082695D01*
X181002962Y-45163028D01*
X181055883Y-45277821D01*
X181183222Y-45458002D01*
X181341264Y-45611961D01*
X181346060Y-45615166D01*
X181346063Y-45615168D01*
X181450271Y-45684797D01*
X181524717Y-45734540D01*
X181530020Y-45736818D01*
X181530023Y-45736820D01*
X181633805Y-45781408D01*
X181727436Y-45821635D01*
X181795331Y-45836998D01*
X181936995Y-45869054D01*
X181937001Y-45869055D01*
X181942632Y-45870329D01*
X181948403Y-45870556D01*
X181948405Y-45870556D01*
X182016211Y-45873220D01*
X182163098Y-45878991D01*
X182272275Y-45863161D01*
X182375738Y-45848160D01*
X182375743Y-45848159D01*
X182381452Y-45847331D01*
X182386916Y-45845476D01*
X182386921Y-45845475D01*
X182584907Y-45778268D01*
X182584912Y-45778266D01*
X182590379Y-45776410D01*
X182600972Y-45770478D01*
X182695524Y-45717526D01*
X182782884Y-45668602D01*
X182789641Y-45662983D01*
X182948086Y-45531204D01*
X182952518Y-45527518D01*
X182999938Y-45470502D01*
X183089908Y-45362326D01*
X183089910Y-45362323D01*
X183093602Y-45357884D01*
X183171321Y-45219106D01*
X183198586Y-45170422D01*
X183198587Y-45170420D01*
X183201410Y-45165379D01*
X183203266Y-45159912D01*
X183203268Y-45159907D01*
X183270475Y-44961921D01*
X183270476Y-44961916D01*
X183272331Y-44956452D01*
X183273159Y-44950743D01*
X183273160Y-44950738D01*
X183297698Y-44781500D01*
X183303991Y-44738098D01*
X183305514Y-44679930D01*
X185087725Y-44679930D01*
X185105572Y-44906699D01*
X185107115Y-44916446D01*
X185160217Y-45137627D01*
X185163266Y-45147012D01*
X185250313Y-45357163D01*
X185254795Y-45365958D01*
X185357432Y-45533445D01*
X185367890Y-45542907D01*
X185376666Y-45539124D01*
X186227978Y-44687812D01*
X186235592Y-44673868D01*
X186235461Y-44672035D01*
X186231210Y-44665420D01*
X185379710Y-43813920D01*
X185367330Y-43807160D01*
X185359680Y-43812887D01*
X185254795Y-43984042D01*
X185250313Y-43992837D01*
X185163266Y-44202988D01*
X185160217Y-44212373D01*
X185107115Y-44433554D01*
X185105572Y-44443301D01*
X185087725Y-44670070D01*
X185087725Y-44679930D01*
X183305514Y-44679930D01*
X183305643Y-44675000D01*
X183285454Y-44455289D01*
X183225565Y-44242936D01*
X183127980Y-44045053D01*
X183076230Y-43975751D01*
X182999420Y-43872891D01*
X182999420Y-43872890D01*
X182995967Y-43868267D01*
X182869154Y-43751042D01*
X182838189Y-43722418D01*
X182838186Y-43722416D01*
X182833949Y-43718499D01*
X182647350Y-43600764D01*
X182442421Y-43519006D01*
X182436761Y-43517880D01*
X182436757Y-43517879D01*
X182231691Y-43477089D01*
X182231688Y-43477089D01*
X182226024Y-43475962D01*
X182220249Y-43475886D01*
X182220245Y-43475886D01*
X182109504Y-43474437D01*
X182005406Y-43473074D01*
X181999709Y-43474053D01*
X181999708Y-43474053D01*
X181793654Y-43509459D01*
X181793653Y-43509459D01*
X181787957Y-43510438D01*
X181580957Y-43586804D01*
X181391341Y-43699614D01*
X181225457Y-43845090D01*
X181088863Y-44018360D01*
X180986131Y-44213620D01*
X180920703Y-44424333D01*
X180894770Y-44643440D01*
X176247119Y-44643440D01*
X176298081Y-44627483D01*
X176303513Y-44624517D01*
X176303515Y-44624516D01*
X176356442Y-44595615D01*
X176356447Y-44595612D01*
X176360393Y-44593457D01*
X176407215Y-44558405D01*
X176958405Y-44007215D01*
X176973102Y-43990855D01*
X176974150Y-43989555D01*
X176974165Y-43989537D01*
X176986118Y-43974704D01*
X176990005Y-43969881D01*
X177027174Y-43898827D01*
X177047176Y-43830706D01*
X177047817Y-43826251D01*
X177054861Y-43777258D01*
X177054862Y-43777251D01*
X177055500Y-43772810D01*
X177055500Y-43442890D01*
X185732093Y-43442890D01*
X185735876Y-43451666D01*
X186587188Y-44302978D01*
X186601132Y-44310592D01*
X186602965Y-44310461D01*
X186609580Y-44306210D01*
X187461080Y-43454710D01*
X187467840Y-43442330D01*
X187462113Y-43434680D01*
X187290958Y-43329795D01*
X187282163Y-43325313D01*
X187072012Y-43238266D01*
X187062627Y-43235217D01*
X186841446Y-43182115D01*
X186831699Y-43180572D01*
X186604930Y-43162725D01*
X186595070Y-43162725D01*
X186368301Y-43180572D01*
X186358554Y-43182115D01*
X186137373Y-43235217D01*
X186127988Y-43238266D01*
X185917837Y-43325313D01*
X185909042Y-43329795D01*
X185741555Y-43432432D01*
X185732093Y-43442890D01*
X177055500Y-43442890D01*
X177055500Y-41817370D01*
X177054515Y-41798992D01*
X177054414Y-41797100D01*
X177054413Y-41797090D01*
X177054323Y-41795407D01*
X177051444Y-41768624D01*
X177027483Y-41692100D01*
X177007330Y-41655194D01*
X177000206Y-41639750D01*
X176999040Y-41636695D01*
X176999040Y-41636694D01*
X176996515Y-41630080D01*
X176994057Y-41626401D01*
X176980300Y-41569795D01*
X176980300Y-40899857D01*
X177387000Y-40899857D01*
X177387301Y-40906005D01*
X177400812Y-41043803D01*
X177403195Y-41055838D01*
X177456767Y-41233276D01*
X177461441Y-41244616D01*
X177548460Y-41408277D01*
X177555249Y-41418494D01*
X177672397Y-41562133D01*
X177681041Y-41570837D01*
X177823856Y-41688984D01*
X177834027Y-41695844D01*
X177997076Y-41784004D01*
X178008381Y-41788756D01*
X178123692Y-41824450D01*
X178137795Y-41824656D01*
X178141000Y-41817901D01*
X178141000Y-40725315D01*
X178136525Y-40710076D01*
X178135135Y-40708871D01*
X178127452Y-40707200D01*
X177405115Y-40707200D01*
X177389876Y-40711675D01*
X177388671Y-40713065D01*
X177387000Y-40720748D01*
X177387000Y-40899857D01*
X176980300Y-40899857D01*
X176980300Y-40436951D01*
X176977606Y-40423408D01*
X176971088Y-40390638D01*
X176971088Y-40390637D01*
X176968667Y-40378468D01*
X176924352Y-40312147D01*
X176858031Y-40267832D01*
X176847539Y-40265745D01*
X176839369Y-40261785D01*
X176775901Y-40226284D01*
X176775897Y-40226282D01*
X176769718Y-40222826D01*
X176736492Y-40213070D01*
X176705920Y-40204093D01*
X176705916Y-40204092D01*
X176701597Y-40202824D01*
X176697149Y-40202184D01*
X176697142Y-40202183D01*
X176648149Y-40195139D01*
X176648142Y-40195138D01*
X176643701Y-40194500D01*
X176303841Y-40194500D01*
X176300495Y-40194860D01*
X176300490Y-40194860D01*
X176263524Y-40198834D01*
X176263518Y-40198835D01*
X176260160Y-40199196D01*
X176207818Y-40210582D01*
X176207124Y-40210752D01*
X176207105Y-40210756D01*
X176205971Y-40211033D01*
X176197638Y-40213070D01*
X176190683Y-40216776D01*
X176123894Y-40252365D01*
X176054369Y-40266748D01*
X176040061Y-40264746D01*
X176003160Y-40257406D01*
X176003154Y-40257405D01*
X175997089Y-40256199D01*
X175776500Y-40256199D01*
X175708379Y-40236197D01*
X175661886Y-40182541D01*
X175661569Y-40181085D01*
X177387000Y-40181085D01*
X177391475Y-40196324D01*
X177392865Y-40197529D01*
X177400548Y-40199200D01*
X178122885Y-40199200D01*
X178138124Y-40194725D01*
X178139329Y-40193335D01*
X178141000Y-40185652D01*
X178141000Y-39095276D01*
X178137027Y-39081745D01*
X178129232Y-39080625D01*
X178021479Y-39112338D01*
X178010111Y-39116931D01*
X177845846Y-39202807D01*
X177835585Y-39209521D01*
X177691127Y-39325668D01*
X177682368Y-39334246D01*
X177563222Y-39476239D01*
X177556292Y-39486359D01*
X177466998Y-39648785D01*
X177462166Y-39660058D01*
X177406120Y-39836738D01*
X177403570Y-39848732D01*
X177387393Y-39992961D01*
X177387000Y-39999985D01*
X177387000Y-40181085D01*
X175661569Y-40181085D01*
X175650500Y-40130199D01*
X175650500Y-38894710D01*
X175650980Y-38883728D01*
X175653303Y-38857180D01*
X175653303Y-38857178D01*
X175654264Y-38846193D01*
X175644508Y-38809785D01*
X175642130Y-38799058D01*
X175641538Y-38795699D01*
X175635588Y-38761955D01*
X175630077Y-38752410D01*
X175628885Y-38749134D01*
X175627408Y-38745966D01*
X175624554Y-38735316D01*
X175602945Y-38704456D01*
X175597039Y-38695185D01*
X175583707Y-38672094D01*
X175578194Y-38662545D01*
X175549317Y-38638315D01*
X175541215Y-38630889D01*
X175194111Y-38283785D01*
X175186684Y-38275681D01*
X175169541Y-38255251D01*
X175169542Y-38255251D01*
X175162455Y-38246806D01*
X175152906Y-38241293D01*
X175129815Y-38227961D01*
X175120544Y-38222055D01*
X175098715Y-38206770D01*
X175089684Y-38200446D01*
X175079034Y-38197592D01*
X175075866Y-38196115D01*
X175072590Y-38194923D01*
X175063045Y-38189412D01*
X175029301Y-38183462D01*
X175025942Y-38182870D01*
X175015215Y-38180492D01*
X174978807Y-38170736D01*
X174967822Y-38171697D01*
X174967820Y-38171697D01*
X174941272Y-38174020D01*
X174930290Y-38174500D01*
X170298936Y-38174500D01*
X170230815Y-38154498D01*
X170184322Y-38100842D01*
X170174218Y-38030568D01*
X170203712Y-37965988D01*
X170240561Y-37936838D01*
X170304154Y-37903592D01*
X170314415Y-37896878D01*
X170458873Y-37780731D01*
X170467632Y-37772153D01*
X170586778Y-37630160D01*
X170593708Y-37620040D01*
X170683002Y-37457614D01*
X170687834Y-37446341D01*
X170743880Y-37269661D01*
X170746430Y-37257667D01*
X170762607Y-37113438D01*
X170763000Y-37106414D01*
X170763000Y-37099856D01*
X177387000Y-37099856D01*
X177387301Y-37106004D01*
X177400812Y-37243802D01*
X177403195Y-37255837D01*
X177456767Y-37433275D01*
X177461441Y-37444615D01*
X177548460Y-37608276D01*
X177555249Y-37618493D01*
X177672397Y-37762132D01*
X177681041Y-37770836D01*
X177823856Y-37888983D01*
X177834027Y-37895843D01*
X177997076Y-37984003D01*
X178008381Y-37988755D01*
X178123692Y-38024449D01*
X178137795Y-38024655D01*
X178141000Y-38017900D01*
X178141000Y-36725314D01*
X178136525Y-36710075D01*
X178135135Y-36708870D01*
X178127452Y-36707199D01*
X177405115Y-36707199D01*
X177389876Y-36711674D01*
X177388671Y-36713064D01*
X177387000Y-36720747D01*
X177387000Y-37099856D01*
X170763000Y-37099856D01*
X170763000Y-36725314D01*
X170758525Y-36710075D01*
X170757135Y-36708870D01*
X170749452Y-36707199D01*
X168765115Y-36707199D01*
X168749876Y-36711674D01*
X168748671Y-36713064D01*
X168747000Y-36720747D01*
X168747000Y-37099856D01*
X168747301Y-37106004D01*
X168760812Y-37243802D01*
X168763195Y-37255837D01*
X168816767Y-37433275D01*
X168821441Y-37444615D01*
X168908460Y-37608276D01*
X168915249Y-37618493D01*
X169032397Y-37762132D01*
X169041041Y-37770836D01*
X169183856Y-37888983D01*
X169194027Y-37895843D01*
X169271373Y-37937664D01*
X169321782Y-37987659D01*
X169337159Y-38056970D01*
X169312623Y-38123592D01*
X169255963Y-38166373D01*
X169211444Y-38174500D01*
X167444710Y-38174500D01*
X167433728Y-38174020D01*
X167407180Y-38171697D01*
X167407178Y-38171697D01*
X167396193Y-38170736D01*
X167359785Y-38180492D01*
X167349058Y-38182870D01*
X167345699Y-38183462D01*
X167311955Y-38189412D01*
X167302410Y-38194923D01*
X167299134Y-38196115D01*
X167295966Y-38197592D01*
X167285316Y-38200446D01*
X167276285Y-38206770D01*
X167254456Y-38222055D01*
X167245185Y-38227961D01*
X167222094Y-38241293D01*
X167212545Y-38246806D01*
X167205459Y-38255251D01*
X167188315Y-38275682D01*
X167180889Y-38283785D01*
X166033785Y-39430889D01*
X166025681Y-39438316D01*
X165996806Y-39462545D01*
X165991293Y-39472094D01*
X165977961Y-39495185D01*
X165972055Y-39504456D01*
X165950446Y-39535316D01*
X165947592Y-39545966D01*
X165946115Y-39549134D01*
X165944923Y-39552410D01*
X165939412Y-39561955D01*
X165936137Y-39580531D01*
X165932870Y-39599058D01*
X165930492Y-39609785D01*
X165920736Y-39646193D01*
X165921697Y-39657178D01*
X165921697Y-39657180D01*
X165924020Y-39683728D01*
X165924500Y-39694710D01*
X165924500Y-40025135D01*
X165904498Y-40093256D01*
X165851656Y-40139044D01*
X165849696Y-40139354D01*
X165736658Y-40196950D01*
X165646950Y-40286658D01*
X165589354Y-40399696D01*
X165574500Y-40493481D01*
X165574501Y-40956518D01*
X165575276Y-40961409D01*
X165575276Y-40961412D01*
X165585599Y-41026592D01*
X165589354Y-41050304D01*
X165646950Y-41163342D01*
X165736658Y-41253050D01*
X165849696Y-41310646D01*
X165859485Y-41312196D01*
X165859487Y-41312197D01*
X165886849Y-41316530D01*
X165943481Y-41325500D01*
X166249938Y-41325500D01*
X166556518Y-41325499D01*
X166561412Y-41324724D01*
X166640506Y-41312198D01*
X166640508Y-41312197D01*
X166650304Y-41310646D01*
X166763342Y-41253050D01*
X166853050Y-41163342D01*
X166887733Y-41095273D01*
X166936481Y-41043658D01*
X167005396Y-41026592D01*
X167072598Y-41049493D01*
X167112267Y-41095273D01*
X167146950Y-41163342D01*
X167236658Y-41253050D01*
X167349696Y-41310646D01*
X167359485Y-41312196D01*
X167359487Y-41312197D01*
X167386849Y-41316530D01*
X167443481Y-41325500D01*
X167749938Y-41325500D01*
X168056518Y-41325499D01*
X168061412Y-41324724D01*
X168140506Y-41312198D01*
X168140508Y-41312197D01*
X168150304Y-41310646D01*
X168263342Y-41253050D01*
X168353050Y-41163342D01*
X168410646Y-41050304D01*
X168425500Y-40956519D01*
X168425500Y-40899857D01*
X168747000Y-40899857D01*
X168747301Y-40906005D01*
X168760812Y-41043803D01*
X168763195Y-41055838D01*
X168816767Y-41233276D01*
X168821441Y-41244616D01*
X168908460Y-41408277D01*
X168915249Y-41418494D01*
X169032397Y-41562133D01*
X169041041Y-41570837D01*
X169183856Y-41688984D01*
X169194027Y-41695844D01*
X169357076Y-41784004D01*
X169368381Y-41788756D01*
X169483692Y-41824450D01*
X169497795Y-41824656D01*
X169501000Y-41817901D01*
X169501000Y-41811124D01*
X170009000Y-41811124D01*
X170012973Y-41824655D01*
X170020768Y-41825775D01*
X170128521Y-41794062D01*
X170139889Y-41789469D01*
X170304154Y-41703593D01*
X170314415Y-41696879D01*
X170458873Y-41580732D01*
X170467632Y-41572154D01*
X170586778Y-41430161D01*
X170593708Y-41420041D01*
X170683002Y-41257615D01*
X170687834Y-41246342D01*
X170743880Y-41069662D01*
X170746430Y-41057668D01*
X170762607Y-40913439D01*
X170763000Y-40906415D01*
X170763000Y-40725315D01*
X170758525Y-40710076D01*
X170757135Y-40708871D01*
X170749452Y-40707200D01*
X170027115Y-40707200D01*
X170011876Y-40711675D01*
X170010671Y-40713065D01*
X170009000Y-40720748D01*
X170009000Y-41811124D01*
X169501000Y-41811124D01*
X169501000Y-40725315D01*
X169496525Y-40710076D01*
X169495135Y-40708871D01*
X169487452Y-40707200D01*
X168765115Y-40707200D01*
X168749876Y-40711675D01*
X168748671Y-40713065D01*
X168747000Y-40720748D01*
X168747000Y-40899857D01*
X168425500Y-40899857D01*
X168425499Y-40493482D01*
X168415585Y-40430883D01*
X168412198Y-40409494D01*
X168412197Y-40409492D01*
X168410646Y-40399696D01*
X168353050Y-40286658D01*
X168263342Y-40196950D01*
X168150304Y-40139354D01*
X168151350Y-40137301D01*
X168103956Y-40104892D01*
X168076321Y-40039494D01*
X168075500Y-40025135D01*
X168075500Y-39862016D01*
X168095502Y-39793895D01*
X168112405Y-39772921D01*
X168372921Y-39512405D01*
X168435233Y-39478379D01*
X168462016Y-39475500D01*
X168710179Y-39475500D01*
X168778300Y-39495502D01*
X168824793Y-39549158D01*
X168834897Y-39619432D01*
X168825990Y-39651137D01*
X168822165Y-39660062D01*
X168766120Y-39836738D01*
X168763570Y-39848732D01*
X168747393Y-39992961D01*
X168747000Y-39999985D01*
X168747000Y-40181085D01*
X168751475Y-40196324D01*
X168752865Y-40197529D01*
X168760548Y-40199200D01*
X170744885Y-40199200D01*
X170760124Y-40194725D01*
X170761329Y-40193335D01*
X170763000Y-40185652D01*
X170763000Y-40006543D01*
X170762699Y-40000395D01*
X170749188Y-39862597D01*
X170746805Y-39850562D01*
X170693233Y-39673124D01*
X170688558Y-39661781D01*
X170687956Y-39660649D01*
X170687821Y-39659993D01*
X170686209Y-39656082D01*
X170686953Y-39655776D01*
X170673639Y-39591111D01*
X170699190Y-39524871D01*
X170756496Y-39482961D01*
X170799210Y-39475500D01*
X171587984Y-39475500D01*
X171656105Y-39495502D01*
X171677079Y-39512405D01*
X171962535Y-39797861D01*
X171996561Y-39860173D01*
X171999440Y-39886956D01*
X171999440Y-40046143D01*
X171979438Y-40114264D01*
X171925782Y-40160757D01*
X171855514Y-40170861D01*
X171850500Y-40170140D01*
X171850483Y-40170139D01*
X171846040Y-40169500D01*
X171506301Y-40169500D01*
X171502955Y-40169860D01*
X171502950Y-40169860D01*
X171465984Y-40173834D01*
X171465978Y-40173835D01*
X171462620Y-40174196D01*
X171410278Y-40185582D01*
X171409584Y-40185752D01*
X171409565Y-40185756D01*
X171408431Y-40186033D01*
X171400098Y-40188070D01*
X171319385Y-40231079D01*
X171314039Y-40235711D01*
X171314038Y-40235712D01*
X171289841Y-40256679D01*
X171265729Y-40277572D01*
X171264352Y-40278921D01*
X171264349Y-40278924D01*
X171249123Y-40293843D01*
X171239811Y-40301406D01*
X171235962Y-40305255D01*
X171225648Y-40312147D01*
X171181333Y-40378468D01*
X171178912Y-40390637D01*
X171178912Y-40390638D01*
X171172394Y-40423408D01*
X171169700Y-40436951D01*
X171169700Y-41537364D01*
X171149698Y-41605485D01*
X171124988Y-41633635D01*
X171116839Y-41640515D01*
X171116836Y-41640519D01*
X171108718Y-41647373D01*
X171105826Y-41652274D01*
X171097144Y-41660912D01*
X171088219Y-41668371D01*
X171067473Y-41688339D01*
X171062937Y-41696449D01*
X171062935Y-41696451D01*
X171042933Y-41732211D01*
X171022826Y-41768157D01*
X171016778Y-41788756D01*
X171006237Y-41824656D01*
X171002824Y-41836278D01*
X171002184Y-41840726D01*
X171002183Y-41840733D01*
X170995139Y-41889726D01*
X170995138Y-41889733D01*
X170994500Y-41894174D01*
X170994500Y-42537690D01*
X170974498Y-42605811D01*
X170957595Y-42626785D01*
X170391595Y-43192785D01*
X170376898Y-43209145D01*
X170375850Y-43210445D01*
X170375835Y-43210463D01*
X170365539Y-43223240D01*
X170359995Y-43230119D01*
X170322826Y-43301173D01*
X170302824Y-43369294D01*
X170302184Y-43373742D01*
X170302183Y-43373749D01*
X170295139Y-43422742D01*
X170295138Y-43422749D01*
X170294500Y-43427190D01*
X170294500Y-44473500D01*
X170274498Y-44541621D01*
X170220842Y-44588114D01*
X170168500Y-44599500D01*
X167507607Y-44599500D01*
X167484790Y-44606914D01*
X167465571Y-44611528D01*
X167441874Y-44615281D01*
X167433037Y-44619784D01*
X167433036Y-44619784D01*
X167420498Y-44626172D01*
X167402237Y-44633736D01*
X167388851Y-44638086D01*
X167388850Y-44638087D01*
X167379419Y-44641151D01*
X167371399Y-44646978D01*
X167371397Y-44646979D01*
X167360012Y-44655251D01*
X167343159Y-44665579D01*
X167321780Y-44676472D01*
X166476472Y-45521780D01*
X166465577Y-45543163D01*
X166455253Y-45560009D01*
X166441151Y-45579419D01*
X166438087Y-45588850D01*
X166438085Y-45588853D01*
X166433736Y-45602237D01*
X166426172Y-45620498D01*
X166415281Y-45641874D01*
X166413730Y-45651668D01*
X166411528Y-45665570D01*
X166406914Y-45684790D01*
X166399500Y-45707607D01*
X166399500Y-48225887D01*
X166379498Y-48294008D01*
X166350745Y-48324452D01*
X166346780Y-48326472D01*
X166251472Y-48421780D01*
X166246972Y-48430612D01*
X166199767Y-48523257D01*
X166151019Y-48574872D01*
X166082104Y-48591938D01*
X166014902Y-48569037D01*
X165975233Y-48523257D01*
X165928028Y-48430612D01*
X165923528Y-48421780D01*
X165828220Y-48326472D01*
X165744297Y-48283711D01*
X165692682Y-48234963D01*
X165675500Y-48171444D01*
X165675500Y-46994710D01*
X165675980Y-46983728D01*
X165678303Y-46957180D01*
X165678303Y-46957178D01*
X165679264Y-46946193D01*
X165669508Y-46909785D01*
X165667130Y-46899058D01*
X165665123Y-46887675D01*
X165660588Y-46861955D01*
X165655077Y-46852410D01*
X165653885Y-46849134D01*
X165652408Y-46845966D01*
X165649554Y-46835316D01*
X165627945Y-46804456D01*
X165622039Y-46795185D01*
X165608707Y-46772094D01*
X165603194Y-46762545D01*
X165574317Y-46738315D01*
X165566215Y-46730889D01*
X164859111Y-46023785D01*
X164851684Y-46015681D01*
X164834541Y-45995251D01*
X164834542Y-45995251D01*
X164827455Y-45986806D01*
X164806310Y-45974598D01*
X164794815Y-45967961D01*
X164785544Y-45962055D01*
X164775767Y-45955209D01*
X164754684Y-45940446D01*
X164744034Y-45937592D01*
X164740866Y-45936115D01*
X164737590Y-45934923D01*
X164728045Y-45929412D01*
X164694301Y-45923462D01*
X164690942Y-45922870D01*
X164680215Y-45920492D01*
X164643807Y-45910736D01*
X164632822Y-45911697D01*
X164632820Y-45911697D01*
X164606272Y-45914020D01*
X164595290Y-45914500D01*
X163403872Y-45914500D01*
X163333871Y-45893266D01*
X163308231Y-45876133D01*
X163276920Y-45869905D01*
X163214010Y-45836998D01*
X163178877Y-45775304D01*
X163175500Y-45746326D01*
X163175500Y-45315252D01*
X163163867Y-45256769D01*
X163159280Y-45249905D01*
X163150500Y-45205762D01*
X163150500Y-45146829D01*
X163170502Y-45078708D01*
X163228281Y-45030421D01*
X163295207Y-45002699D01*
X163295212Y-45002696D01*
X163302841Y-44999536D01*
X163407987Y-44918855D01*
X163421736Y-44908305D01*
X163428282Y-44903282D01*
X163524536Y-44777841D01*
X163585044Y-44631762D01*
X163605682Y-44475000D01*
X163585044Y-44318238D01*
X163524536Y-44172159D01*
X163428282Y-44046718D01*
X163302841Y-43950464D01*
X163156762Y-43889956D01*
X163113740Y-43884292D01*
X163008188Y-43870396D01*
X163000000Y-43869318D01*
X162991812Y-43870396D01*
X162886261Y-43884292D01*
X162843238Y-43889956D01*
X162697159Y-43950464D01*
X162690608Y-43955491D01*
X162690604Y-43955493D01*
X162664203Y-43975751D01*
X162597983Y-44001351D01*
X162528434Y-43987086D01*
X162510797Y-43975751D01*
X162484396Y-43955493D01*
X162484392Y-43955491D01*
X162477841Y-43950464D01*
X162409319Y-43922081D01*
X162354039Y-43877534D01*
X162331618Y-43810171D01*
X162349176Y-43741379D01*
X162368439Y-43716582D01*
X163324281Y-42760741D01*
X163386591Y-42726717D01*
X163425119Y-42724479D01*
X163430252Y-42725500D01*
X164969748Y-42725500D01*
X164975816Y-42724293D01*
X165016061Y-42716288D01*
X165016062Y-42716288D01*
X165028231Y-42713867D01*
X165094552Y-42669552D01*
X165138867Y-42603231D01*
X165150500Y-42544748D01*
X165150500Y-41005252D01*
X165138867Y-40946769D01*
X165094552Y-40880448D01*
X165028231Y-40836133D01*
X165016062Y-40833712D01*
X165016061Y-40833712D01*
X164975816Y-40825707D01*
X164969748Y-40824500D01*
X163430252Y-40824500D01*
X163424184Y-40825707D01*
X163383939Y-40833712D01*
X163383938Y-40833712D01*
X163371769Y-40836133D01*
X163305448Y-40880448D01*
X163261133Y-40946769D01*
X163249500Y-41005252D01*
X163249500Y-41862678D01*
X163229498Y-41930799D01*
X163212595Y-41951773D01*
X162790595Y-42373773D01*
X162728283Y-42407799D01*
X162657468Y-42402734D01*
X162600632Y-42360187D01*
X162575821Y-42293667D01*
X162575500Y-42284678D01*
X162575500Y-41005252D01*
X162563867Y-40946769D01*
X162519552Y-40880448D01*
X162453231Y-40836133D01*
X162441062Y-40833712D01*
X162441061Y-40833712D01*
X162400816Y-40825707D01*
X162394748Y-40824500D01*
X160855252Y-40824500D01*
X160849184Y-40825707D01*
X160808939Y-40833712D01*
X160808938Y-40833712D01*
X160796769Y-40836133D01*
X160730448Y-40880448D01*
X160686133Y-40946769D01*
X160674500Y-41005252D01*
X160674500Y-42544748D01*
X160686133Y-42603231D01*
X160730448Y-42669552D01*
X160796769Y-42713867D01*
X160808938Y-42716288D01*
X160808939Y-42716288D01*
X160849184Y-42724293D01*
X160855252Y-42725500D01*
X161498281Y-42725500D01*
X161566402Y-42745502D01*
X161612895Y-42799158D01*
X161622999Y-42869432D01*
X161593505Y-42934012D01*
X161587377Y-42940595D01*
X160851824Y-43676149D01*
X160835976Y-43688310D01*
X160834740Y-43688760D01*
X160827791Y-43694591D01*
X160821028Y-43700265D01*
X160803047Y-43712856D01*
X160787545Y-43721806D01*
X160780461Y-43730248D01*
X160780459Y-43730250D01*
X160776040Y-43735516D01*
X160760514Y-43751042D01*
X160755877Y-43754934D01*
X160746806Y-43762545D01*
X160737858Y-43778043D01*
X160725261Y-43796033D01*
X160713760Y-43809739D01*
X160709992Y-43820092D01*
X160709989Y-43820097D01*
X160707637Y-43826560D01*
X160698357Y-43846462D01*
X160689412Y-43861955D01*
X160687498Y-43872809D01*
X160687496Y-43872815D01*
X160686304Y-43879576D01*
X160680622Y-43900784D01*
X160679568Y-43903682D01*
X160674500Y-43917606D01*
X160674500Y-44955290D01*
X160674020Y-44966272D01*
X160672460Y-44984108D01*
X160670736Y-45003807D01*
X160677868Y-45030421D01*
X160680491Y-45040210D01*
X160682870Y-45050942D01*
X160689412Y-45088045D01*
X160694923Y-45097590D01*
X160696115Y-45100866D01*
X160697592Y-45104034D01*
X160700446Y-45114684D01*
X160707393Y-45124605D01*
X160722055Y-45145544D01*
X160727961Y-45154815D01*
X160738577Y-45173202D01*
X160746806Y-45187455D01*
X160755251Y-45194541D01*
X160775675Y-45211679D01*
X160783780Y-45219106D01*
X160937596Y-45372923D01*
X160971621Y-45435235D01*
X160974500Y-45462018D01*
X160974500Y-45884748D01*
X160975707Y-45890816D01*
X160983004Y-45927499D01*
X160986133Y-45943231D01*
X161030448Y-46009552D01*
X161096769Y-46053867D01*
X161108938Y-46056288D01*
X161108939Y-46056288D01*
X161149184Y-46064293D01*
X161155252Y-46065500D01*
X161494748Y-46065500D01*
X161553231Y-46053867D01*
X161553554Y-46055490D01*
X161609871Y-46049435D01*
X161619264Y-46052193D01*
X161621769Y-46053867D01*
X161680252Y-46065500D01*
X161969748Y-46065500D01*
X162028231Y-46053867D01*
X162032112Y-46051274D01*
X162097370Y-46044257D01*
X162115239Y-46049504D01*
X162121769Y-46053867D01*
X162180252Y-46065500D01*
X162273500Y-46065500D01*
X162341621Y-46085502D01*
X162388114Y-46139158D01*
X162399500Y-46191500D01*
X162399500Y-46288500D01*
X162379498Y-46356621D01*
X162325842Y-46403114D01*
X162273500Y-46414500D01*
X162180252Y-46414500D01*
X162121769Y-46426133D01*
X162117888Y-46428726D01*
X162052630Y-46435743D01*
X162034761Y-46430496D01*
X162028231Y-46426133D01*
X161969748Y-46414500D01*
X161680252Y-46414500D01*
X161674184Y-46415707D01*
X161633939Y-46423712D01*
X161633938Y-46423712D01*
X161621769Y-46426133D01*
X161555448Y-46470448D01*
X161511133Y-46536769D01*
X161508712Y-46548938D01*
X161508712Y-46548939D01*
X161502098Y-46582190D01*
X161499500Y-46595252D01*
X161499500Y-47164748D01*
X161511133Y-47223231D01*
X161515720Y-47230095D01*
X161524500Y-47274238D01*
X161524500Y-50870134D01*
X161524304Y-50872807D01*
X161522575Y-50877842D01*
X161523011Y-50889464D01*
X161523011Y-50889466D01*
X161524411Y-50926755D01*
X161524500Y-50931481D01*
X161524500Y-50950448D01*
X161525382Y-50955183D01*
X161525610Y-50958711D01*
X161526674Y-50987056D01*
X161509242Y-51055879D01*
X161457368Y-51104352D01*
X161387522Y-51117084D01*
X161324059Y-51091745D01*
X161309392Y-51080491D01*
X161302841Y-51075464D01*
X161156762Y-51014956D01*
X161125992Y-51010905D01*
X161008188Y-50995396D01*
X161000000Y-50994318D01*
X160991812Y-50995396D01*
X160874009Y-51010905D01*
X160843238Y-51014956D01*
X160697159Y-51075464D01*
X160571718Y-51171718D01*
X160475464Y-51297159D01*
X160414956Y-51443238D01*
X160394318Y-51600000D01*
X158900000Y-51600000D01*
X158900000Y-50420000D01*
X148700000Y-50420000D01*
X148700000Y-54470000D01*
X133550500Y-54470000D01*
X133550500Y-45965665D01*
X135595119Y-45965665D01*
X135595288Y-45968601D01*
X135608376Y-46195580D01*
X135609513Y-46200626D01*
X135609514Y-46200632D01*
X135631226Y-46296975D01*
X135659006Y-46420242D01*
X135660948Y-46425024D01*
X135660949Y-46425028D01*
X135732582Y-46601439D01*
X135745649Y-46633618D01*
X135865979Y-46829978D01*
X136016763Y-47004048D01*
X136193953Y-47151154D01*
X136392790Y-47267345D01*
X136397615Y-47269187D01*
X136397616Y-47269188D01*
X136450522Y-47289391D01*
X136607934Y-47349501D01*
X136613000Y-47350532D01*
X136613001Y-47350532D01*
X136644233Y-47356886D01*
X136833607Y-47395414D01*
X136963352Y-47400172D01*
X137058585Y-47403664D01*
X137058589Y-47403664D01*
X137063749Y-47403853D01*
X137068869Y-47403197D01*
X137068871Y-47403197D01*
X137138272Y-47394307D01*
X137292178Y-47374591D01*
X137297126Y-47373106D01*
X137297133Y-47373105D01*
X137507811Y-47309898D01*
X137507810Y-47309898D01*
X137512761Y-47308413D01*
X137719574Y-47207096D01*
X137907062Y-47073363D01*
X138070190Y-46910803D01*
X138113322Y-46850779D01*
X138201559Y-46727983D01*
X138204577Y-46723783D01*
X138216662Y-46699332D01*
X138270943Y-46589501D01*
X147720630Y-46589501D01*
X147721870Y-46596717D01*
X147721870Y-46596719D01*
X147739603Y-46699918D01*
X147749280Y-46756233D01*
X147815518Y-46911902D01*
X147819855Y-46917795D01*
X147911453Y-47042264D01*
X147911455Y-47042267D01*
X147915791Y-47048158D01*
X147941170Y-47069719D01*
X148039146Y-47152957D01*
X148039149Y-47152959D01*
X148044720Y-47157692D01*
X148195389Y-47234627D01*
X148202498Y-47236367D01*
X148202502Y-47236368D01*
X148302545Y-47260848D01*
X148359717Y-47274838D01*
X148365314Y-47275185D01*
X148365319Y-47275186D01*
X148368449Y-47275380D01*
X148368458Y-47275380D01*
X148370388Y-47275500D01*
X148492363Y-47275500D01*
X148581035Y-47265162D01*
X148610765Y-47261696D01*
X148610766Y-47261696D01*
X148618037Y-47260848D01*
X148624914Y-47258352D01*
X148624917Y-47258351D01*
X148770182Y-47205622D01*
X148777061Y-47203125D01*
X148918540Y-47110367D01*
X149034885Y-46987550D01*
X149119856Y-46841262D01*
X149168895Y-46679350D01*
X149169934Y-46662611D01*
X149174469Y-46589501D01*
X154520630Y-46589501D01*
X154521870Y-46596717D01*
X154521870Y-46596719D01*
X154539603Y-46699918D01*
X154549280Y-46756233D01*
X154615518Y-46911902D01*
X154619855Y-46917795D01*
X154711453Y-47042264D01*
X154711455Y-47042267D01*
X154715791Y-47048158D01*
X154741170Y-47069719D01*
X154839146Y-47152957D01*
X154839149Y-47152959D01*
X154844720Y-47157692D01*
X154995389Y-47234627D01*
X155002498Y-47236367D01*
X155002502Y-47236368D01*
X155102545Y-47260848D01*
X155159717Y-47274838D01*
X155165314Y-47275185D01*
X155165319Y-47275186D01*
X155168449Y-47275380D01*
X155168458Y-47275380D01*
X155170388Y-47275500D01*
X155292363Y-47275500D01*
X155381035Y-47265162D01*
X155410765Y-47261696D01*
X155410766Y-47261696D01*
X155418037Y-47260848D01*
X155424914Y-47258352D01*
X155424917Y-47258351D01*
X155570182Y-47205622D01*
X155577061Y-47203125D01*
X155718540Y-47110367D01*
X155834885Y-46987550D01*
X155919856Y-46841262D01*
X155968895Y-46679350D01*
X155969934Y-46662611D01*
X155974489Y-46589184D01*
X155979370Y-46510499D01*
X155976002Y-46490895D01*
X155951960Y-46350983D01*
X155950720Y-46343767D01*
X155884482Y-46188098D01*
X155843063Y-46131816D01*
X155788547Y-46057736D01*
X155788545Y-46057733D01*
X155784209Y-46051842D01*
X155727147Y-46003364D01*
X155660854Y-45947043D01*
X155660851Y-45947041D01*
X155655280Y-45942308D01*
X155504611Y-45865373D01*
X155497502Y-45863633D01*
X155497498Y-45863632D01*
X155382108Y-45835396D01*
X155340283Y-45825162D01*
X155334686Y-45824815D01*
X155334681Y-45824814D01*
X155331551Y-45824620D01*
X155331542Y-45824620D01*
X155329612Y-45824500D01*
X155207637Y-45824500D01*
X155118965Y-45834838D01*
X155089235Y-45838304D01*
X155089234Y-45838304D01*
X155081963Y-45839152D01*
X155075086Y-45841648D01*
X155075083Y-45841649D01*
X154961092Y-45883026D01*
X154922939Y-45896875D01*
X154781460Y-45989633D01*
X154665115Y-46112450D01*
X154580144Y-46258738D01*
X154578023Y-46265740D01*
X154578022Y-46265743D01*
X154576581Y-46270501D01*
X154531105Y-46420650D01*
X154530652Y-46427959D01*
X154530651Y-46427962D01*
X154527376Y-46480761D01*
X154520630Y-46589501D01*
X149174469Y-46589501D01*
X149174489Y-46589184D01*
X149179370Y-46510499D01*
X149176002Y-46490895D01*
X149151960Y-46350983D01*
X149150720Y-46343767D01*
X149084482Y-46188098D01*
X149043063Y-46131816D01*
X148988547Y-46057736D01*
X148988545Y-46057733D01*
X148984209Y-46051842D01*
X148927147Y-46003364D01*
X148860854Y-45947043D01*
X148860851Y-45947041D01*
X148855280Y-45942308D01*
X148704611Y-45865373D01*
X148697502Y-45863633D01*
X148697498Y-45863632D01*
X148582108Y-45835396D01*
X148540283Y-45825162D01*
X148534686Y-45824815D01*
X148534681Y-45824814D01*
X148531551Y-45824620D01*
X148531542Y-45824620D01*
X148529612Y-45824500D01*
X148407637Y-45824500D01*
X148318965Y-45834838D01*
X148289235Y-45838304D01*
X148289234Y-45838304D01*
X148281963Y-45839152D01*
X148275086Y-45841648D01*
X148275083Y-45841649D01*
X148161092Y-45883026D01*
X148122939Y-45896875D01*
X147981460Y-45989633D01*
X147865115Y-46112450D01*
X147780144Y-46258738D01*
X147778023Y-46265740D01*
X147778022Y-46265743D01*
X147776581Y-46270501D01*
X147731105Y-46420650D01*
X147730652Y-46427959D01*
X147730651Y-46427962D01*
X147727376Y-46480761D01*
X147720630Y-46589501D01*
X138270943Y-46589501D01*
X138282805Y-46565500D01*
X138306615Y-46517325D01*
X138333766Y-46427962D01*
X138372059Y-46301927D01*
X138372060Y-46301921D01*
X138373563Y-46296975D01*
X138388672Y-46182205D01*
X138403185Y-46071971D01*
X138403185Y-46071965D01*
X138403622Y-46068649D01*
X138403704Y-46065296D01*
X138405218Y-46003364D01*
X138405218Y-46003360D01*
X138405300Y-46000000D01*
X138386430Y-45770478D01*
X138330326Y-45547120D01*
X138270630Y-45409827D01*
X138240556Y-45340661D01*
X138240554Y-45340658D01*
X138238496Y-45335924D01*
X138154290Y-45205762D01*
X138116215Y-45146906D01*
X138116213Y-45146903D01*
X138113405Y-45142563D01*
X138100277Y-45128135D01*
X137961890Y-44976051D01*
X137961889Y-44976050D01*
X137958412Y-44972229D01*
X137954361Y-44969030D01*
X137954357Y-44969026D01*
X137781735Y-44832697D01*
X137781730Y-44832693D01*
X137777681Y-44829496D01*
X137773165Y-44827003D01*
X137773162Y-44827001D01*
X137580589Y-44720695D01*
X137580585Y-44720693D01*
X137576065Y-44718198D01*
X137571196Y-44716474D01*
X137571192Y-44716472D01*
X137363853Y-44643049D01*
X137363849Y-44643048D01*
X137358978Y-44641323D01*
X137353885Y-44640416D01*
X137353882Y-44640415D01*
X137257707Y-44623284D01*
X137132250Y-44600937D01*
X137045802Y-44599881D01*
X136907141Y-44598186D01*
X136907139Y-44598186D01*
X136901971Y-44598123D01*
X136674325Y-44632958D01*
X136455424Y-44704506D01*
X136251149Y-44810845D01*
X136066984Y-44949119D01*
X135907877Y-45115616D01*
X135904963Y-45119888D01*
X135904962Y-45119889D01*
X135858872Y-45187455D01*
X135778099Y-45305863D01*
X135775923Y-45310552D01*
X135775919Y-45310558D01*
X135683315Y-45510057D01*
X135681136Y-45514752D01*
X135619592Y-45736673D01*
X135619043Y-45741810D01*
X135596892Y-45949079D01*
X135595119Y-45965665D01*
X133550500Y-45965665D01*
X133550500Y-42376500D01*
X133570502Y-42308379D01*
X133624158Y-42261886D01*
X133676500Y-42250500D01*
X142357654Y-42250500D01*
X142371195Y-42240662D01*
X142387112Y-42235490D01*
X142396950Y-42221950D01*
X142410490Y-42212112D01*
X142415662Y-42196195D01*
X142425500Y-42182654D01*
X142425500Y-35176500D01*
X142445502Y-35108379D01*
X142499158Y-35061886D01*
X142551500Y-35050500D01*
X168842430Y-35050500D01*
X168910551Y-35070502D01*
G37*
%TD.AperFunction*%
%TD*%
M02*
